<?xml version="1.0" encoding="utf-8" standalone="no"?>
<!DOCTYPE svg PUBLIC "-//W3C//DTD SVG 1.1//EN"
  "http://www.w3.org/Graphics/SVG/1.1/DTD/svg11.dtd">
<!-- Created with matplotlib (http://matplotlib.org/) -->
<svg height="288pt" version="1.1" viewBox="0 0 432 288" width="432pt" xmlns="http://www.w3.org/2000/svg" xmlns:xlink="http://www.w3.org/1999/xlink">
 <defs>
  <style type="text/css">
*{stroke-linecap:butt;stroke-linejoin:round;}
  </style>
 </defs>
 <g id="figure_1">
  <g id="patch_1">
   <path d="M 0 288 
L 432 288 
L 432 0 
L 0 0 
z
" style="fill:#ffffff;"/>
  </g>
  <g id="axes_1">
   <g id="patch_2">
    <path d="M 54 252 
L 388.8 252 
L 388.8 34.56 
L 54 34.56 
z
" style="fill:#ffffff;"/>
   </g>
   <g id="matplotlib.axis_1">
    <g id="xtick_1">
     <g id="line2d_1">
      <defs>
       <path d="M 0 0 
L 0 3.5 
" id="m12211e50d1" style="stroke:#000000;stroke-width:0.8;"/>
      </defs>
      <g>
       <use style="stroke:#000000;stroke-width:0.8;" x="69.218182" xlink:href="#m12211e50d1" y="252"/>
      </g>
     </g>
     <g id="text_1">
      <!-- 0 -->
      <defs>
       <path d="M 46.484375 35.15625 
Q 46.484375 21.09375 41.40625 10.9375 
Q 36.328125 0.78125 25 0.78125 
Q 13.671875 0.78125 8.390625 10.9375 
Q 3.125 21.09375 3.125 35.15625 
Q 3.125 49.21875 8.390625 59.171875 
Q 13.671875 69.140625 25 69.140625 
Q 36.328125 69.140625 41.40625 59.171875 
Q 46.484375 49.21875 46.484375 35.15625 
z
M 37.109375 35.15625 
Q 37.109375 47.65625 34.171875 54.6875 
Q 31.25 61.71875 25 61.71875 
Q 18.75 61.71875 15.625 54.6875 
Q 12.5 47.65625 12.5 35.15625 
Q 12.5 22.65625 15.625 15.421875 
Q 18.75 8.203125 25 8.203125 
Q 31.25 8.203125 34.171875 15.421875 
Q 37.109375 22.65625 37.109375 35.15625 
z
" id="SimHei-30"/>
      </defs>
      <g transform="translate(66.718182 265.835938)scale(0.1 -0.1)">
       <use xlink:href="#SimHei-30"/>
      </g>
     </g>
    </g>
    <g id="xtick_2">
     <g id="line2d_2">
      <g>
       <use style="stroke:#000000;stroke-width:0.8;" x="112.823287" xlink:href="#m12211e50d1" y="252"/>
      </g>
     </g>
     <g id="text_2">
      <!-- 50 -->
      <defs>
       <path d="M 44.140625 25.78125 
Q 44.140625 14.0625 38.46875 7.421875 
Q 32.8125 0.78125 23.4375 0.78125 
Q 15.234375 0.78125 9.953125 6.25 
Q 4.6875 11.71875 4.296875 21.09375 
L 13.28125 21.09375 
Q 13.28125 15.234375 16.015625 11.71875 
Q 18.75 8.203125 23.828125 8.203125 
Q 28.90625 8.203125 31.828125 12.5 
Q 34.765625 16.796875 34.765625 25.78125 
Q 34.765625 33.59375 32.21875 37.296875 
Q 29.6875 41.015625 25.390625 41.015625 
Q 21.875 41.015625 19.328125 39.453125 
Q 16.796875 37.890625 14.453125 33.984375 
L 6.640625 33.984375 
L 8.984375 68.359375 
L 42.578125 68.359375 
L 42.578125 60.9375 
L 16.40625 60.9375 
L 14.84375 42.96875 
Q 17.1875 45.3125 19.921875 46.484375 
Q 22.65625 47.65625 27.34375 47.65625 
Q 34.765625 47.65625 39.453125 41.984375 
Q 44.140625 36.328125 44.140625 25.78125 
z
" id="SimHei-35"/>
      </defs>
      <g transform="translate(107.823287 265.835938)scale(0.1 -0.1)">
       <use xlink:href="#SimHei-35"/>
       <use x="50" xlink:href="#SimHei-30"/>
      </g>
     </g>
    </g>
    <g id="xtick_3">
     <g id="line2d_3">
      <g>
       <use style="stroke:#000000;stroke-width:0.8;" x="156.428393" xlink:href="#m12211e50d1" y="252"/>
      </g>
     </g>
     <g id="text_3">
      <!-- 100 -->
      <defs>
       <path d="M 30.46875 1.5625 
L 21.484375 1.5625 
L 21.484375 53.515625 
L 9.765625 53.515625 
L 9.765625 58.203125 
Q 16.796875 58.203125 20.703125 60.9375 
Q 24.609375 63.671875 25.78125 69.140625 
L 30.46875 69.140625 
z
" id="SimHei-31"/>
      </defs>
      <g transform="translate(148.928393 265.835938)scale(0.1 -0.1)">
       <use xlink:href="#SimHei-31"/>
       <use x="50" xlink:href="#SimHei-30"/>
       <use x="100" xlink:href="#SimHei-30"/>
      </g>
     </g>
    </g>
    <g id="xtick_4">
     <g id="line2d_4">
      <g>
       <use style="stroke:#000000;stroke-width:0.8;" x="200.033498" xlink:href="#m12211e50d1" y="252"/>
      </g>
     </g>
     <g id="text_4">
      <!-- 150 -->
      <g transform="translate(192.533498 265.835938)scale(0.1 -0.1)">
       <use xlink:href="#SimHei-31"/>
       <use x="50" xlink:href="#SimHei-35"/>
       <use x="100" xlink:href="#SimHei-30"/>
      </g>
     </g>
    </g>
    <g id="xtick_5">
     <g id="line2d_5">
      <g>
       <use style="stroke:#000000;stroke-width:0.8;" x="243.638604" xlink:href="#m12211e50d1" y="252"/>
      </g>
     </g>
     <g id="text_5">
      <!-- 200 -->
      <defs>
       <path d="M 44.53125 1.5625 
L 4.6875 1.5625 
L 4.6875 7.8125 
Q 7.03125 14.0625 11.125 19.328125 
Q 15.234375 24.609375 23.046875 31.25 
Q 28.90625 36.328125 31.4375 40.625 
Q 33.984375 44.921875 33.984375 50 
Q 33.984375 55.078125 31.828125 58.390625 
Q 29.6875 61.71875 25 61.71875 
Q 21.09375 61.71875 18.15625 58.203125 
Q 15.234375 54.6875 15.234375 45.703125 
L 6.25 45.703125 
Q 6.640625 57.03125 11.515625 63.078125 
Q 16.40625 69.140625 25.390625 69.140625 
Q 33.984375 69.140625 38.671875 63.859375 
Q 43.359375 58.59375 43.359375 49.609375 
Q 43.359375 42.1875 39.0625 36.71875 
Q 34.765625 31.25 28.515625 25.78125 
Q 21.484375 19.53125 18.75 16.40625 
Q 16.015625 13.28125 13.671875 8.984375 
L 44.53125 8.984375 
z
" id="SimHei-32"/>
      </defs>
      <g transform="translate(236.138604 265.835938)scale(0.1 -0.1)">
       <use xlink:href="#SimHei-32"/>
       <use x="50" xlink:href="#SimHei-30"/>
       <use x="100" xlink:href="#SimHei-30"/>
      </g>
     </g>
    </g>
    <g id="xtick_6">
     <g id="line2d_6">
      <g>
       <use style="stroke:#000000;stroke-width:0.8;" x="287.243709" xlink:href="#m12211e50d1" y="252"/>
      </g>
     </g>
     <g id="text_6">
      <!-- 250 -->
      <g transform="translate(279.743709 265.835938)scale(0.1 -0.1)">
       <use xlink:href="#SimHei-32"/>
       <use x="50" xlink:href="#SimHei-35"/>
       <use x="100" xlink:href="#SimHei-30"/>
      </g>
     </g>
    </g>
    <g id="xtick_7">
     <g id="line2d_7">
      <g>
       <use style="stroke:#000000;stroke-width:0.8;" x="330.848815" xlink:href="#m12211e50d1" y="252"/>
      </g>
     </g>
     <g id="text_7">
      <!-- 300 -->
      <defs>
       <path d="M 44.140625 20.3125 
Q 44.140625 11.328125 38.46875 6.046875 
Q 32.8125 0.78125 24.21875 0.78125 
Q 15.625 0.78125 9.953125 6.046875 
Q 4.296875 11.328125 4.296875 22.265625 
L 13.28125 22.265625 
Q 13.28125 14.84375 16.203125 11.515625 
Q 19.140625 8.203125 24.21875 8.203125 
Q 29.296875 8.203125 32.03125 11.328125 
Q 34.765625 14.453125 34.765625 21.09375 
Q 34.765625 26.5625 31.828125 29.6875 
Q 28.90625 32.8125 21.484375 32.8125 
L 21.484375 39.453125 
Q 27.734375 39.453125 30.65625 42.578125 
Q 33.59375 45.703125 33.59375 51.953125 
Q 33.59375 56.640625 31.4375 59.375 
Q 29.296875 62.109375 24.609375 62.109375 
Q 19.921875 62.109375 17.375 58.78125 
Q 14.84375 55.46875 14.453125 49.21875 
L 5.859375 49.21875 
Q 6.640625 58.203125 11.515625 63.671875 
Q 16.40625 69.140625 24.609375 69.140625 
Q 33.203125 69.140625 37.890625 64.25 
Q 42.578125 59.375 42.578125 52.34375 
Q 42.578125 45.703125 40.234375 41.984375 
Q 37.890625 38.28125 32.421875 36.328125 
Q 37.890625 35.15625 41.015625 30.859375 
Q 44.140625 26.5625 44.140625 20.3125 
z
" id="SimHei-33"/>
      </defs>
      <g transform="translate(323.348815 265.835938)scale(0.1 -0.1)">
       <use xlink:href="#SimHei-33"/>
       <use x="50" xlink:href="#SimHei-30"/>
       <use x="100" xlink:href="#SimHei-30"/>
      </g>
     </g>
    </g>
    <g id="xtick_8">
     <g id="line2d_8">
      <g>
       <use style="stroke:#000000;stroke-width:0.8;" x="374.45392" xlink:href="#m12211e50d1" y="252"/>
      </g>
     </g>
     <g id="text_8">
      <!-- 350 -->
      <g transform="translate(366.95392 265.835938)scale(0.1 -0.1)">
       <use xlink:href="#SimHei-33"/>
       <use x="50" xlink:href="#SimHei-35"/>
       <use x="100" xlink:href="#SimHei-30"/>
      </g>
     </g>
    </g>
    <g id="text_9">
     <!-- 迭代次数 -->
     <defs>
      <path d="M 81.640625 4.296875 
Q 74.21875 14.84375 61.328125 28.125 
Q 56.640625 19.921875 51.75 15.03125 
Q 46.875 10.15625 39.84375 4.296875 
Q 37.890625 6.25 32.03125 10.546875 
Q 40.625 14.84375 47.0625 21.671875 
Q 53.515625 28.515625 56.25 37.5 
Q 36.71875 37.5 30.46875 37.109375 
L 30.46875 44.140625 
Q 37.109375 43.75 57.421875 43.75 
Q 58.203125 49.609375 58.59375 57.8125 
L 42.578125 57.8125 
Q 40.625 53.125 39.0625 48.828125 
Q 34.765625 50.390625 30.46875 51.171875 
Q 33.203125 55.859375 35.546875 62.5 
Q 37.890625 69.140625 39.84375 78.90625 
Q 43.75 77.34375 49.609375 76.171875 
Q 46.875 72.265625 44.921875 64.0625 
L 58.59375 64.0625 
Q 58.59375 74.21875 57.8125 80.078125 
Q 62.5 79.296875 66.796875 79.6875 
Q 66.015625 75 65.625 64.0625 
L 76.953125 64.0625 
Q 80.46875 64.0625 86.71875 64.453125 
L 86.71875 57.03125 
Q 80.46875 57.8125 75.78125 57.8125 
L 66.015625 57.8125 
Q 65.625 49.609375 64.84375 43.75 
L 80.078125 43.75 
Q 85.15625 43.75 92.1875 44.140625 
L 92.1875 37.109375 
Q 85.15625 37.5 78.90625 37.5 
L 64.453125 37.5 
L 64.0625 35.15625 
Q 72.265625 26.953125 89.0625 10.9375 
Q 87.109375 9.765625 81.640625 4.296875 
z
M 11.328125 74.21875 
Q 15.234375 75.78125 19.921875 76.5625 
Q 23.828125 64.84375 26.171875 58.984375 
Q 21.875 58.59375 17.1875 57.03125 
Q 16.015625 60.546875 11.328125 74.21875 
z
M 6.25 45.3125 
Q 12.890625 44.921875 17.578125 44.921875 
L 25 44.921875 
Q 24.609375 37.890625 24.609375 30.859375 
L 24.609375 8.59375 
Q 34.375 0 57.8125 0 
Q 81.25 0 94.53125 1.953125 
Q 92.1875 -3.515625 91.40625 -7.421875 
Q 65.234375 -7.421875 55.65625 -7.21875 
Q 46.09375 -7.03125 38.859375 -5.65625 
Q 31.640625 -4.296875 26.75 -0.78125 
Q 21.875 2.734375 18.75 -0.390625 
Q 15.625 -3.515625 11.71875 -8.984375 
Q 8.203125 -5.078125 4.296875 -2.734375 
Q 12.890625 4.6875 17.578125 7.421875 
L 17.578125 38.671875 
Q 12.5 38.671875 6.25 38.28125 
z
" id="SimHei-8fed"/>
      <path d="M 31.640625 42.1875 
Q 37.890625 42.96875 51.5625 45.703125 
Q 49.609375 70.703125 49.21875 78.90625 
Q 51.5625 78.515625 59.375 77.734375 
Q 57.8125 72.65625 59.375 47.265625 
Q 78.125 50.78125 88.28125 53.90625 
L 90.234375 46.484375 
Q 85.9375 46.09375 60.15625 40.625 
Q 64.84375 16.015625 73.625 7.21875 
Q 82.421875 -1.5625 83.78125 3.3125 
Q 85.15625 8.203125 85.9375 11.71875 
Q 91.796875 7.421875 94.921875 6.640625 
Q 92.1875 -1.953125 89.640625 -6.25 
Q 87.109375 -10.546875 80.65625 -8.984375 
Q 74.21875 -7.421875 65.03125 4.6875 
Q 55.859375 16.796875 52.34375 39.0625 
Q 37.5 35.9375 33.984375 34.375 
z
M 66.796875 70.703125 
Q 69.921875 72.65625 73.828125 75.390625 
Q 75.390625 73.4375 78.3125 69.328125 
Q 81.25 65.234375 83.203125 62.5 
Q 79.296875 60.15625 75.78125 57.8125 
Q 71.875 63.28125 66.796875 70.703125 
z
M 25.78125 80.46875 
Q 32.03125 77.734375 35.9375 76.5625 
Q 32.8125 73.046875 26.5625 56.25 
L 26.5625 7.421875 
Q 26.5625 -0.78125 26.953125 -9.375 
L 18.75 -9.375 
Q 19.140625 -0.78125 19.140625 7.421875 
L 19.140625 42.578125 
Q 13.28125 33.203125 9.765625 28.125 
Q 6.640625 31.25 3.125 34.375 
Q 8.203125 38.671875 15.421875 52.140625 
Q 22.65625 65.625 25.78125 80.46875 
z
" id="SimHei-4ee3"/>
      <path d="M 8.203125 67.1875 
Q 11.328125 69.140625 15.625 71.09375 
Q 17.96875 67.1875 21.09375 61.71875 
Q 24.21875 56.25 27.34375 50.78125 
Q 23.046875 48.828125 19.53125 46.484375 
Q 17.1875 51.171875 14.640625 56.640625 
Q 12.109375 62.109375 8.203125 67.1875 
z
M 23.046875 34.765625 
Q 25.78125 32.421875 30.46875 30.078125 
Q 28.125 26.5625 23.625 17.96875 
Q 19.140625 9.375 14.0625 -0.78125 
Q 10.546875 1.953125 6.25 4.6875 
Q 12.109375 10.9375 16.203125 19.328125 
Q 20.3125 27.734375 23.046875 34.765625 
z
M 46.875 79.296875 
Q 51.171875 77.734375 57.03125 75.390625 
Q 54.6875 73.828125 52.921875 69.53125 
Q 51.171875 65.234375 49.21875 60.9375 
L 90.625 60.9375 
Q 89.453125 57.8125 87.5 52.140625 
Q 85.546875 46.484375 83.203125 38.28125 
Q 78.90625 39.453125 74.609375 40.234375 
Q 76.171875 43.75 77.34375 47.265625 
Q 78.515625 50.78125 79.6875 54.6875 
L 46.484375 54.6875 
Q 44.53125 51.5625 42.375 46.875 
Q 40.234375 42.1875 37.5 37.5 
Q 34.765625 39.84375 30.46875 41.40625 
Q 33.203125 44.921875 35.734375 49.609375 
Q 38.28125 54.296875 40.421875 59.375 
Q 42.578125 64.453125 44.140625 69.53125 
Q 45.703125 74.609375 46.875 79.296875 
z
M 54.6875 47.65625 
Q 59.375 47.265625 64.0625 46.484375 
Q 62.890625 42.578125 62.6875 35.15625 
Q 62.5 27.734375 65.8125 21.484375 
Q 69.140625 15.234375 73.828125 10.9375 
Q 78.515625 6.640625 83.984375 4.09375 
Q 89.453125 1.5625 93.75 0.390625 
Q 91.40625 -1.171875 90.234375 -3.3125 
Q 89.0625 -5.46875 87.890625 -8.59375 
Q 79.296875 -3.90625 74.21875 0.1875 
Q 69.140625 4.296875 66.203125 8.203125 
Q 63.28125 12.109375 61.71875 15.8125 
Q 60.15625 19.53125 58.984375 23.046875 
Q 57.03125 17.1875 54.875 12.6875 
Q 52.734375 8.203125 49.40625 4.6875 
Q 46.09375 1.171875 41.796875 -2.140625 
Q 37.5 -5.46875 31.640625 -9.375 
Q 28.90625 -5.078125 25 -2.34375 
Q 34.765625 1.171875 40.625 6.4375 
Q 46.484375 11.71875 49.609375 17.1875 
Q 52.734375 22.65625 53.703125 27.921875 
Q 54.6875 33.203125 54.875 36.90625 
Q 55.078125 40.625 54.6875 47.65625 
z
" id="SimHei-6b21"/>
      <path d="M 10.9375 75.78125 
Q 14.84375 76.953125 17.1875 78.515625 
Q 20.3125 73.4375 23.046875 68.359375 
Q 19.53125 66.796875 16.796875 65.234375 
Q 14.453125 71.09375 10.9375 75.78125 
z
M 44.921875 78.515625 
Q 49.21875 76.5625 53.125 75 
Q 50.78125 73.4375 49.21875 70.703125 
Q 47.65625 67.96875 45.703125 64.453125 
Q 42.578125 66.015625 39.453125 66.796875 
Q 42.578125 71.875 44.921875 78.515625 
z
M 38.28125 49.609375 
Q 41.796875 51.171875 44.140625 53.515625 
Q 48.828125 46.875 51.953125 41.40625 
Q 48.4375 39.84375 45.3125 37.5 
Q 42.1875 44.921875 38.28125 49.609375 
z
M 8.203125 61.71875 
Q 14.453125 61.328125 28.125 61.328125 
Q 28.125 72.65625 27.734375 80.859375 
L 35.546875 80.859375 
Q 35.15625 72.65625 35.15625 61.328125 
Q 48.046875 61.328125 53.90625 61.71875 
L 53.90625 54.6875 
Q 48.046875 55.078125 35.15625 55.078125 
Q 35.15625 46.09375 35.546875 39.453125 
L 27.734375 39.453125 
Q 28.125 45.3125 28.125 51.953125 
Q 26.171875 48.046875 21.671875 43.546875 
Q 17.1875 39.0625 11.71875 35.9375 
Q 10.15625 39.453125 6.640625 41.796875 
Q 10.15625 42.96875 15.421875 46.875 
Q 20.703125 50.78125 23.046875 55.078125 
Q 14.84375 55.078125 8.203125 54.6875 
z
M 26.953125 24.21875 
Q 25 20.3125 22.65625 16.40625 
Q 27.34375 15.234375 35.15625 13.28125 
Q 37.890625 16.796875 40.234375 24.21875 
z
M 24.21875 38.28125 
Q 28.515625 36.71875 32.8125 35.546875 
Q 31.25 33.984375 29.296875 30.46875 
L 44.53125 30.46875 
L 48.828125 30.46875 
Q 46.484375 20.3125 42.1875 11.328125 
Q 48.828125 9.375 52.734375 8.203125 
Q 49.609375 3.90625 48.046875 0.390625 
Q 44.53125 2.734375 37.5 5.46875 
Q 28.125 -3.90625 9.375 -10.15625 
Q 7.8125 -6.25 4.6875 -3.90625 
Q 21.484375 0 31.25 8.203125 
Q 20.3125 10.9375 13.28125 12.890625 
Q 15.625 16.015625 19.53125 24.21875 
Q 13.28125 24.21875 4.6875 23.828125 
L 4.6875 30.859375 
Q 12.109375 30.46875 21.875 30.46875 
Q 23.046875 33.59375 24.21875 38.28125 
z
M 63.671875 80.46875 
Q 68.359375 78.515625 73.4375 77.734375 
Q 71.484375 75.390625 70.5 72.265625 
Q 69.53125 69.140625 67.96875 63.28125 
L 85.546875 63.28125 
Q 89.0625 63.28125 94.53125 63.671875 
L 94.53125 56.640625 
Q 90.234375 57.03125 87.5 57.03125 
Q 87.109375 48.828125 85.546875 35.34375 
Q 83.984375 21.875 78.125 11.71875 
Q 82.03125 6.25 87.109375 2.734375 
Q 92.1875 -0.78125 96.09375 -2.34375 
Q 90.625 -5.859375 89.0625 -9.375 
Q 82.421875 -4.6875 79.296875 -1.359375 
Q 76.171875 1.953125 73.4375 5.859375 
Q 68.75 1.171875 64.640625 -1.953125 
Q 60.546875 -5.078125 51.5625 -10.15625 
Q 49.609375 -6.640625 45.3125 -3.90625 
Q 52.734375 -1.171875 58.984375 3.125 
Q 65.234375 7.421875 69.53125 12.109375 
Q 65.234375 20.703125 62.890625 29.09375 
Q 60.546875 37.5 60.15625 41.015625 
Q 59.375 38.28125 58.203125 34.765625 
Q 54.6875 36.328125 50.390625 37.890625 
Q 55.078125 46.484375 58.984375 58.59375 
Q 62.890625 70.703125 63.671875 80.46875 
z
M 66.40625 57.03125 
Q 64.84375 53.125 64.0625 50.578125 
Q 63.28125 48.046875 66.984375 36.71875 
Q 70.703125 25.390625 74.21875 19.140625 
Q 77.734375 28.515625 79.09375 38.671875 
Q 80.46875 48.828125 80.46875 57.03125 
z
" id="SimHei-6570"/>
     </defs>
     <g transform="translate(201.4 278.976562)scale(0.1 -0.1)">
      <use xlink:href="#SimHei-8fed"/>
      <use x="100" xlink:href="#SimHei-4ee3"/>
      <use x="200" xlink:href="#SimHei-6b21"/>
      <use x="300" xlink:href="#SimHei-6570"/>
     </g>
    </g>
   </g>
   <g id="matplotlib.axis_2">
    <g id="ytick_1">
     <g id="line2d_9">
      <defs>
       <path d="M 0 0 
L -3.5 0 
" id="ma15d8ddfc5" style="stroke:#000000;stroke-width:0.8;"/>
      </defs>
      <g>
       <use style="stroke:#000000;stroke-width:0.8;" x="54" xlink:href="#ma15d8ddfc5" y="241.800716"/>
      </g>
     </g>
     <g id="text_10">
      <!-- 0.4 -->
      <defs>
       <path d="M 17.1875 1.5625 
L 8.203125 1.5625 
L 8.203125 10.15625 
L 17.1875 10.15625 
z
" id="SimHei-2e"/>
       <path d="M 46.484375 18.75 
L 38.28125 18.75 
L 38.28125 1.5625 
L 29.296875 1.5625 
L 29.296875 18.75 
L 3.125 18.75 
L 3.125 26.171875 
L 29.296875 69.140625 
L 38.28125 69.140625 
L 38.28125 26.171875 
L 46.484375 26.171875 
z
M 29.296875 26.171875 
L 29.296875 55.078125 
L 11.71875 26.171875 
z
" id="SimHei-34"/>
      </defs>
      <g transform="translate(32 245.218685)scale(0.1 -0.1)">
       <use xlink:href="#SimHei-30"/>
       <use x="50" xlink:href="#SimHei-2e"/>
       <use x="100" xlink:href="#SimHei-34"/>
      </g>
     </g>
    </g>
    <g id="ytick_2">
     <g id="line2d_10">
      <g>
       <use style="stroke:#000000;stroke-width:0.8;" x="54" xlink:href="#ma15d8ddfc5" y="207.570762"/>
      </g>
     </g>
     <g id="text_11">
      <!-- 0.5 -->
      <g transform="translate(32 210.988731)scale(0.1 -0.1)">
       <use xlink:href="#SimHei-30"/>
       <use x="50" xlink:href="#SimHei-2e"/>
       <use x="100" xlink:href="#SimHei-35"/>
      </g>
     </g>
    </g>
    <g id="ytick_3">
     <g id="line2d_11">
      <g>
       <use style="stroke:#000000;stroke-width:0.8;" x="54" xlink:href="#ma15d8ddfc5" y="173.340808"/>
      </g>
     </g>
     <g id="text_12">
      <!-- 0.6 -->
      <defs>
       <path d="M 44.53125 24.21875 
Q 44.53125 13.28125 39.84375 7.03125 
Q 35.15625 0.78125 25.78125 0.78125 
Q 16.40625 0.78125 10.9375 8.59375 
Q 5.46875 16.40625 5.46875 33.984375 
Q 5.46875 50 11.125 59.5625 
Q 16.796875 69.140625 27.34375 69.140625 
Q 34.765625 69.140625 39.25 63.671875 
Q 43.75 58.203125 43.75 51.5625 
L 34.765625 51.5625 
Q 34.765625 55.46875 32.609375 58.59375 
Q 30.46875 61.71875 26.953125 61.71875 
Q 21.09375 61.71875 17.96875 55.65625 
Q 14.84375 49.609375 14.453125 37.109375 
Q 17.1875 42.1875 20.3125 44.140625 
Q 23.4375 46.09375 27.734375 46.09375 
Q 35.15625 46.09375 39.84375 40.234375 
Q 44.53125 34.375 44.53125 24.21875 
z
M 35.15625 24.21875 
Q 35.15625 31.25 32.8125 35.15625 
Q 30.46875 39.0625 26.171875 39.0625 
Q 21.09375 39.0625 18.15625 35.15625 
Q 15.234375 31.25 15.234375 25.78125 
Q 15.234375 17.1875 18.15625 12.5 
Q 21.09375 7.8125 26.171875 7.8125 
Q 29.6875 7.8125 32.421875 11.328125 
Q 35.15625 14.84375 35.15625 24.21875 
z
" id="SimHei-36"/>
      </defs>
      <g transform="translate(32 176.758777)scale(0.1 -0.1)">
       <use xlink:href="#SimHei-30"/>
       <use x="50" xlink:href="#SimHei-2e"/>
       <use x="100" xlink:href="#SimHei-36"/>
      </g>
     </g>
    </g>
    <g id="ytick_4">
     <g id="line2d_12">
      <g>
       <use style="stroke:#000000;stroke-width:0.8;" x="54" xlink:href="#ma15d8ddfc5" y="139.110854"/>
      </g>
     </g>
     <g id="text_13">
      <!-- 0.7 -->
      <defs>
       <path d="M 43.359375 60.15625 
L 25 1.5625 
L 16.015625 1.5625 
L 34.765625 60.9375 
L 6.25 60.9375 
L 6.25 68.359375 
L 43.359375 68.359375 
z
" id="SimHei-37"/>
      </defs>
      <g transform="translate(32 142.528822)scale(0.1 -0.1)">
       <use xlink:href="#SimHei-30"/>
       <use x="50" xlink:href="#SimHei-2e"/>
       <use x="100" xlink:href="#SimHei-37"/>
      </g>
     </g>
    </g>
    <g id="ytick_5">
     <g id="line2d_13">
      <g>
       <use style="stroke:#000000;stroke-width:0.8;" x="54" xlink:href="#ma15d8ddfc5" y="104.880899"/>
      </g>
     </g>
     <g id="text_14">
      <!-- 0.8 -->
      <defs>
       <path d="M 44.921875 20.703125 
Q 44.921875 10.9375 39.453125 5.859375 
Q 33.984375 0.78125 24.609375 0.78125 
Q 15.234375 0.78125 9.765625 5.859375 
Q 4.296875 10.9375 4.296875 20.703125 
Q 4.296875 25.78125 7.421875 29.875 
Q 10.546875 33.984375 16.015625 35.9375 
Q 11.328125 37.890625 8.78125 41.40625 
Q 6.25 44.921875 6.25 50.390625 
Q 6.25 58.984375 11.71875 64.0625 
Q 17.1875 69.140625 24.609375 69.140625 
Q 32.03125 69.140625 37.5 64.0625 
Q 42.96875 58.984375 42.96875 50.390625 
Q 42.96875 44.921875 40.421875 41.40625 
Q 37.890625 37.890625 33.203125 35.9375 
Q 38.671875 33.984375 41.796875 29.875 
Q 44.921875 25.78125 44.921875 20.703125 
z
M 34.375 50.390625 
Q 34.375 56.640625 31.640625 59.375 
Q 28.90625 62.109375 24.609375 62.109375 
Q 20.3125 62.109375 17.578125 59.375 
Q 14.84375 56.640625 14.84375 50.390625 
Q 14.84375 44.140625 17.765625 41.59375 
Q 20.703125 39.0625 24.609375 39.0625 
Q 28.515625 39.0625 31.4375 41.59375 
Q 34.375 44.140625 34.375 50.390625 
z
M 35.9375 20.703125 
Q 35.9375 26.171875 33 29.296875 
Q 30.078125 32.421875 24.609375 32.421875 
Q 19.140625 32.421875 16.203125 29.296875 
Q 13.28125 26.171875 13.28125 20.703125 
Q 13.28125 14.453125 16.40625 11.125 
Q 19.53125 7.8125 24.609375 7.8125 
Q 29.6875 7.8125 32.8125 11.125 
Q 35.9375 14.453125 35.9375 20.703125 
z
" id="SimHei-38"/>
      </defs>
      <g transform="translate(32 108.298868)scale(0.1 -0.1)">
       <use xlink:href="#SimHei-30"/>
       <use x="50" xlink:href="#SimHei-2e"/>
       <use x="100" xlink:href="#SimHei-38"/>
      </g>
     </g>
    </g>
    <g id="ytick_6">
     <g id="line2d_14">
      <g>
       <use style="stroke:#000000;stroke-width:0.8;" x="54" xlink:href="#ma15d8ddfc5" y="70.650945"/>
      </g>
     </g>
     <g id="text_15">
      <!-- 0.9 -->
      <defs>
       <path d="M 44.140625 35.9375 
Q 44.140625 19.921875 38.46875 10.34375 
Q 32.8125 0.78125 22.265625 0.78125 
Q 14.84375 0.78125 10.34375 6.25 
Q 5.859375 11.71875 5.859375 18.359375 
L 14.84375 18.359375 
Q 14.84375 14.453125 16.984375 11.328125 
Q 19.140625 8.203125 22.65625 8.203125 
Q 28.515625 8.203125 31.4375 14.84375 
Q 34.375 21.484375 35.15625 34.375 
Q 33.203125 30.078125 29.6875 27.734375 
Q 26.171875 25.390625 21.875 25.390625 
Q 14.453125 25.390625 9.765625 30.859375 
Q 5.078125 36.328125 5.078125 46.484375 
Q 5.078125 56.640625 9.765625 62.890625 
Q 14.453125 69.140625 23.828125 69.140625 
Q 33.203125 69.140625 38.671875 61.328125 
Q 44.140625 53.515625 44.140625 35.9375 
z
M 34.375 44.921875 
Q 34.375 53.515625 31.4375 57.8125 
Q 28.515625 62.109375 23.4375 62.109375 
Q 19.921875 62.109375 17.1875 58.78125 
Q 14.453125 55.46875 14.453125 46.484375 
Q 14.453125 39.84375 16.59375 36.125 
Q 18.75 32.421875 23.4375 32.421875 
Q 28.515625 32.421875 31.4375 35.9375 
Q 34.375 39.453125 34.375 44.921875 
z
" id="SimHei-39"/>
      </defs>
      <g transform="translate(32 74.068914)scale(0.1 -0.1)">
       <use xlink:href="#SimHei-30"/>
       <use x="50" xlink:href="#SimHei-2e"/>
       <use x="100" xlink:href="#SimHei-39"/>
      </g>
     </g>
    </g>
    <g id="ytick_7">
     <g id="line2d_15">
      <g>
       <use style="stroke:#000000;stroke-width:0.8;" x="54" xlink:href="#ma15d8ddfc5" y="36.420991"/>
      </g>
     </g>
     <g id="text_16">
      <!-- 1.0 -->
      <g transform="translate(32 39.83896)scale(0.1 -0.1)">
       <use xlink:href="#SimHei-31"/>
       <use x="50" xlink:href="#SimHei-2e"/>
       <use x="100" xlink:href="#SimHei-30"/>
      </g>
     </g>
    </g>
    <g id="text_17">
     <!-- 准确率 -->
     <defs>
      <path d="M 8.203125 70.703125 
Q 11.71875 72.65625 15.625 75.390625 
Q 17.578125 73.046875 21.671875 67.578125 
Q 25.78125 62.109375 29.296875 57.03125 
Q 24.609375 53.515625 21.875 51.171875 
Q 18.75 57.8125 8.203125 70.703125 
z
M 22.265625 38.671875 
Q 25.390625 35.15625 28.90625 32.03125 
Q 24.609375 24.21875 19.921875 14.25 
Q 15.234375 4.296875 12.5 -1.953125 
Q 8.203125 2.734375 4.6875 5.859375 
Q 10.546875 12.890625 14.453125 20.3125 
Q 18.359375 27.734375 22.265625 38.671875 
z
M 34.375 37.109375 
Q 30.859375 39.84375 26.5625 42.578125 
Q 31.25 47.265625 36.90625 58.78125 
Q 42.578125 70.3125 44.53125 80.46875 
Q 49.609375 78.515625 54.6875 76.953125 
Q 52.34375 74.21875 48.4375 63.671875 
L 76.171875 63.671875 
Q 84.765625 63.671875 92.1875 64.0625 
L 92.1875 57.03125 
Q 84.375 57.421875 76.171875 57.421875 
L 71.484375 57.421875 
L 71.484375 44.140625 
Q 82.421875 44.140625 89.453125 44.53125 
L 89.453125 37.5 
Q 82.421875 37.890625 71.484375 37.890625 
L 71.484375 24.609375 
Q 82.8125 24.609375 89.453125 25 
L 89.453125 17.96875 
Q 82.8125 18.359375 71.484375 18.359375 
L 71.484375 5.078125 
Q 87.5 5.078125 94.53125 5.46875 
L 94.53125 -1.953125 
Q 87.5 -1.5625 78.515625 -1.5625 
L 47.65625 -1.5625 
L 47.65625 -9.765625 
L 39.84375 -9.765625 
Q 40.234375 -2.734375 40.234375 10.15625 
L 40.234375 47.265625 
Q 37.890625 42.578125 34.375 37.109375 
z
M 63.671875 77.734375 
Q 67.578125 78.90625 71.484375 80.859375 
Q 74.21875 74.21875 75.78125 69.140625 
Q 71.484375 67.96875 67.578125 66.015625 
Q 66.40625 71.09375 63.671875 77.734375 
z
M 47.65625 57.421875 
L 47.65625 44.140625 
L 64.0625 44.140625 
L 64.0625 57.421875 
z
M 47.65625 37.890625 
L 47.65625 24.609375 
L 64.0625 24.609375 
L 64.0625 37.890625 
z
M 47.65625 18.359375 
L 47.65625 5.078125 
L 64.0625 5.078125 
L 64.0625 18.359375 
z
" id="SimHei-51c6"/>
      <path d="M 21.484375 39.84375 
L 21.484375 14.84375 
L 32.03125 14.84375 
L 32.03125 39.84375 
z
M 10.15625 25 
Q 7.8125 28.125 3.515625 30.46875 
Q 8.984375 35.546875 13.671875 43.9375 
Q 18.359375 52.34375 20.703125 65.234375 
Q 13.28125 65.234375 8.59375 64.84375 
L 8.59375 71.09375 
Q 14.0625 70.703125 19.140625 70.703125 
L 29.296875 70.703125 
Q 35.9375 70.703125 40.625 71.09375 
L 40.625 64.84375 
Q 35.9375 65.234375 27.734375 65.234375 
Q 25.390625 54.6875 22.265625 45.3125 
L 38.671875 45.3125 
Q 38.28125 38.671875 38.28125 32.8125 
L 38.28125 16.40625 
Q 38.28125 10.15625 38.671875 1.953125 
L 32.03125 1.953125 
L 32.03125 9.375 
L 21.484375 9.375 
L 21.484375 -4.6875 
L 14.84375 -4.6875 
Q 15.234375 3.515625 15.234375 9.375 
L 15.234375 33.203125 
Q 12.890625 29.296875 10.15625 25 
z
M 70.3125 30.859375 
L 70.3125 20.3125 
L 83.203125 20.3125 
L 83.203125 30.859375 
z
M 78.515625 -10.546875 
Q 78.125 -6.640625 75.390625 -3.125 
Q 80.078125 -3.125 81.640625 -2.53125 
Q 83.203125 -1.953125 83.203125 1.953125 
L 83.203125 14.84375 
L 70.3125 14.84375 
L 70.3125 -6.25 
L 64.0625 -6.25 
L 64.0625 14.84375 
L 53.515625 14.84375 
Q 53.125 9.765625 50.78125 3.703125 
Q 48.4375 -2.34375 42.578125 -9.375 
Q 39.84375 -5.46875 35.546875 -4.6875 
Q 40.234375 -0.390625 42.765625 4.484375 
Q 45.3125 9.375 46.09375 15.625 
Q 46.875 21.875 47.0625 33.78125 
Q 47.265625 45.703125 46.875 53.125 
L 64.84375 53.125 
Q 68.359375 59.375 70.703125 65.234375 
L 55.46875 65.234375 
Q 52.34375 60.15625 44.921875 50.390625 
Q 41.796875 53.125 38.28125 54.296875 
Q 45.703125 61.71875 49.21875 68.15625 
Q 52.734375 74.609375 55.46875 82.03125 
Q 59.765625 80.078125 64.0625 78.90625 
Q 62.109375 77.734375 58.59375 70.703125 
L 81.25 70.703125 
Q 74.609375 58.59375 72.65625 53.125 
L 89.84375 53.125 
Q 89.453125 46.09375 89.453125 37.890625 
L 89.453125 -0.78125 
Q 89.84375 -5.46875 87.5 -7.21875 
Q 85.15625 -8.984375 78.515625 -10.546875 
z
M 53.515625 47.65625 
L 53.515625 36.328125 
L 64.0625 36.328125 
L 64.0625 47.65625 
z
M 53.515625 30.859375 
L 53.515625 20.3125 
L 64.0625 20.3125 
L 64.0625 30.859375 
z
M 70.3125 47.65625 
L 70.3125 36.328125 
L 83.203125 36.328125 
L 83.203125 47.65625 
z
" id="SimHei-786e"/>
      <path d="M 44.140625 79.6875 
Q 47.265625 80.46875 51.5625 81.640625 
Q 52.734375 77.734375 54.296875 72.265625 
L 73.046875 72.265625 
Q 83.203125 72.265625 91.40625 72.65625 
L 91.40625 65.625 
Q 83.203125 66.40625 72.65625 66.40625 
L 43.75 66.40625 
Q 46.484375 64.453125 51.171875 62.109375 
Q 47.65625 59.375 44.71875 56.046875 
Q 41.796875 52.734375 38.671875 49.21875 
L 50.78125 49.21875 
Q 55.078125 54.296875 58.59375 59.765625 
Q 61.71875 57.03125 66.015625 54.296875 
Q 60.9375 51.5625 55.46875 45.703125 
Q 50 39.84375 40.234375 31.640625 
L 58.59375 32.8125 
Q 56.640625 35.546875 54.6875 38.28125 
Q 57.03125 39.453125 60.15625 41.40625 
Q 63.28125 37.109375 70.3125 26.5625 
Q 67.578125 25.390625 64.0625 23.046875 
Q 62.890625 25 61.328125 28.125 
Q 57.03125 27.734375 52.734375 27.34375 
L 52.734375 15.625 
L 78.515625 15.625 
Q 86.328125 15.625 92.578125 16.015625 
L 92.578125 9.375 
Q 86.71875 9.765625 78.125 9.765625 
L 52.734375 9.765625 
L 52.734375 2.34375 
Q 52.734375 -4.6875 53.125 -10.15625 
L 45.3125 -10.15625 
Q 45.703125 -4.6875 45.703125 2.34375 
L 45.703125 9.765625 
L 21.875 9.765625 
Q 14.453125 9.765625 7.03125 8.984375 
L 7.03125 16.015625 
Q 14.453125 15.625 22.265625 15.625 
L 45.703125 15.625 
L 45.703125 26.5625 
Q 42.1875 26.171875 38.859375 25.578125 
Q 35.546875 25 32.421875 23.828125 
Q 31.25 28.125 29.6875 31.640625 
Q 32.8125 32.03125 36.515625 34.765625 
Q 40.234375 37.5 46.484375 44.53125 
Q 36.328125 43.359375 32.421875 41.796875 
Q 31.640625 45.703125 29.6875 50.390625 
Q 32.8125 50.390625 36.515625 55.265625 
Q 40.234375 60.15625 42.96875 66.40625 
L 25 66.40625 
Q 16.40625 66.40625 8.59375 65.625 
L 8.59375 72.65625 
Q 16.40625 72.265625 25 72.265625 
L 46.484375 72.265625 
Q 45.3125 76.5625 44.140625 79.6875 
z
M 12.890625 56.25 
Q 15.234375 58.59375 17.578125 61.328125 
Q 22.65625 57.03125 27.34375 52.34375 
Q 24.609375 49.21875 22.265625 46.875 
Q 17.96875 52.34375 12.890625 56.25 
z
M 9.765625 29.6875 
Q 14.0625 32.03125 18.359375 34.953125 
Q 22.65625 37.890625 26.171875 41.015625 
Q 27.734375 37.890625 29.296875 34.765625 
Q 25.390625 32.421875 21.671875 29.296875 
Q 17.96875 26.171875 14.84375 22.65625 
Q 12.5 26.171875 9.765625 29.6875 
z
M 80.859375 62.5 
Q 83.984375 58.59375 86.71875 55.859375 
Q 83.984375 55.078125 80.46875 51.953125 
Q 76.953125 48.828125 72.65625 45.3125 
Q 70.703125 48.046875 68.359375 50.390625 
Q 71.875 52.734375 74.609375 55.265625 
Q 77.34375 57.8125 80.859375 62.5 
z
M 69.921875 36.71875 
Q 72.265625 39.453125 74.21875 42.1875 
Q 78.125 39.453125 81.25 37.109375 
Q 84.375 34.765625 89.453125 30.859375 
Q 86.328125 28.515625 83.59375 25 
Q 80.859375 28.125 77.34375 31.25 
Q 73.828125 34.375 69.921875 36.71875 
z
" id="SimHei-7387"/>
     </defs>
     <g transform="translate(26.710938 158.28)rotate(-90)scale(0.1 -0.1)">
      <use xlink:href="#SimHei-51c6"/>
      <use x="100" xlink:href="#SimHei-786e"/>
      <use x="200" xlink:href="#SimHei-7387"/>
     </g>
    </g>
   </g>
   <g id="line2d_16">
    <path clip-path="url(#pbf07b352ff)" d="M 69.218182 241.458766 
L 70.090284 242.116364 
L 70.962386 241.984843 
L 71.834488 242.116364 
L 72.70659 102.048866 
L 73.578692 99.506166 
L 74.450794 123.968659 
L 75.322897 77.323331 
L 76.194999 91.220479 
L 77.067101 80.392103 
L 77.939203 66.36343 
L 78.811305 58.077753 
L 79.683407 58.209269 
L 80.555509 55.798095 
L 81.427611 58.47231 
L 82.299713 88.67779 
L 83.171816 66.626471 
L 84.043918 107.791853 
L 84.91602 74.386075 
L 85.788122 69.300686 
L 86.660224 53.123879 
L 87.532326 75.175188 
L 88.404428 71.974901 
L 89.27653 52.597797 
L 90.148632 69.169171 
L 91.020735 58.209269 
L 91.892837 79.734506 
L 93.637041 52.992354 
L 94.509143 58.47231 
L 95.381245 69.432201 
L 96.253347 61.146525 
L 97.125449 63.557699 
L 97.997551 72.237942 
L 98.869654 66.626471 
L 99.741756 69.300686 
L 100.613858 66.100399 
L 101.48596 63.557699 
L 102.358062 63.952256 
L 103.230164 63.689215 
L 104.102266 58.340784 
L 104.974368 58.209269 
L 105.84647 52.729323 
L 106.718573 58.47231 
L 107.590675 55.666569 
L 108.462777 55.666569 
L 109.334879 61.014999 
L 110.206981 64.083771 
L 111.079083 52.860838 
L 111.951185 64.083771 
L 112.823287 55.666569 
L 113.695389 71.448829 
L 114.567492 63.952256 
L 115.439594 58.47231 
L 116.311696 55.403538 
L 117.183798 55.666569 
L 118.0559 52.860838 
L 118.928002 52.729323 
L 119.800104 55.403538 
L 120.672206 63.82074 
L 121.544308 58.209269 
L 122.416411 58.340784 
L 123.288513 69.300686 
L 124.160615 50.186623 
L 125.032717 58.603825 
L 125.904819 58.077753 
L 126.776921 55.272013 
L 127.649023 50.055108 
L 128.521125 66.494955 
L 129.393227 52.597797 
L 131.137432 58.47231 
L 132.009534 50.186623 
L 132.881636 66.626471 
L 133.753738 50.055108 
L 134.62584 47.512408 
L 135.497942 58.209269 
L 136.370044 50.055108 
L 137.242146 50.186623 
L 138.114249 60.883484 
L 138.986351 75.043673 
L 139.858453 66.626471 
L 140.730555 50.186623 
L 141.602657 61.27804 
L 142.474759 52.992354 
L 143.346861 47.249367 
L 144.218963 47.380893 
L 145.091065 47.380893 
L 145.963167 47.117852 
L 146.83527 50.186623 
L 147.707372 66.626471 
L 148.579474 58.340784 
L 150.323678 52.597797 
L 151.19578 61.014999 
L 152.067882 50.055108 
L 152.939984 49.792067 
L 153.812086 58.47231 
L 154.684189 50.055108 
L 156.428393 50.055108 
L 157.300495 52.860838 
L 158.172597 77.323331 
L 159.044699 52.992354 
L 159.916801 52.597797 
L 161.661005 47.512408 
L 162.533108 44.443636 
L 163.40521 52.597797 
L 164.277312 47.249367 
L 165.149414 47.249367 
L 166.021516 52.860838 
L 166.893618 72.369458 
L 167.76572 55.535054 
L 168.637822 55.666569 
L 169.509924 50.186623 
L 170.382027 50.055108 
L 171.254129 55.535054 
L 172.126231 50.318139 
L 172.998333 47.512408 
L 173.870435 50.055108 
L 174.742537 64.083771 
L 175.614639 50.055108 
L 176.486741 52.992354 
L 177.358843 44.706677 
L 178.230946 50.186623 
L 179.103048 52.992354 
L 179.97515 58.47231 
L 180.847252 58.340784 
L 181.719354 74.649116 
L 182.591456 63.689215 
L 183.463558 55.666569 
L 185.207762 49.923582 
L 186.079865 47.380893 
L 186.951967 50.186623 
L 187.824069 47.380893 
L 188.696171 55.92961 
L 189.568273 47.512408 
L 190.440375 52.992354 
L 191.312477 47.380893 
L 192.184579 52.860838 
L 193.056681 52.860838 
L 193.928784 50.186623 
L 194.800886 52.860838 
L 195.672988 47.512408 
L 196.54509 55.403538 
L 197.417192 50.318139 
L 200.033498 58.209269 
L 200.9056 52.992354 
L 201.777703 52.729323 
L 202.649805 53.255395 
L 203.521907 49.923582 
L 204.394009 52.729323 
L 205.266111 50.055108 
L 206.138213 53.123879 
L 207.010315 50.186623 
L 207.882417 55.403538 
L 208.754519 47.643923 
L 209.626622 50.318139 
L 210.498724 50.055108 
L 211.370826 52.729323 
L 212.242928 52.860838 
L 213.11503 52.729323 
L 213.987132 52.860838 
L 215.731336 47.380893 
L 216.603438 52.729323 
L 217.475541 52.860838 
L 218.347643 50.055108 
L 219.219745 55.535054 
L 220.091847 52.992354 
L 220.963949 52.992354 
L 221.836051 52.860838 
L 222.708153 50.186623 
L 223.580255 61.014999 
L 224.452357 55.666569 
L 225.324459 52.597797 
L 226.196562 50.318139 
L 227.068664 52.860838 
L 228.812868 52.860838 
L 229.68497 61.146525 
L 230.557072 52.860838 
L 231.429174 52.992354 
L 232.301276 44.575152 
L 233.173378 52.729323 
L 234.045481 50.318139 
L 234.917583 52.860838 
L 235.789685 49.792067 
L 236.661787 50.186623 
L 237.533889 53.123879 
L 238.405991 52.597797 
L 239.278093 52.860838 
L 240.150195 49.923582 
L 241.022297 52.992354 
L 241.8944 52.729323 
L 242.766502 53.123879 
L 243.638604 50.055108 
L 244.510706 64.215297 
L 245.382808 47.249367 
L 246.25491 47.117852 
L 247.127012 55.666569 
L 247.999114 50.449664 
L 248.871216 47.512408 
L 249.743319 47.512408 
L 250.615421 52.860838 
L 251.487523 50.055108 
L 252.359625 50.055108 
L 253.231727 49.923582 
L 254.975931 50.186623 
L 255.848033 58.209269 
L 256.720135 50.186623 
L 257.592238 50.449664 
L 258.46434 52.729323 
L 259.336442 47.380893 
L 260.208544 50.318139 
L 261.080646 47.249367 
L 261.952748 52.992354 
L 262.82485 49.923582 
L 263.696952 47.643923 
L 264.569054 52.992354 
L 265.441157 52.729323 
L 266.313259 47.512408 
L 267.185361 50.186623 
L 268.057463 49.923582 
L 268.929565 49.792067 
L 269.801667 50.449664 
L 270.673769 50.186623 
L 271.545871 52.729323 
L 272.417973 52.992354 
L 273.290076 61.541082 
L 274.162178 58.340784 
L 275.03428 52.992354 
L 275.906382 52.860838 
L 276.778484 52.860838 
L 277.650586 49.923582 
L 278.522688 50.055108 
L 279.39479 49.923582 
L 280.266892 47.249367 
L 281.138995 55.666569 
L 282.011097 47.380893 
L 282.883199 50.318139 
L 283.755301 52.860838 
L 284.627403 50.318139 
L 285.499505 47.380893 
L 286.371607 52.597797 
L 287.243709 50.186623 
L 288.115811 50.186623 
L 288.987914 58.209269 
L 289.860016 50.186623 
L 290.732118 50.186623 
L 291.60422 52.992354 
L 292.476322 50.318139 
L 293.348424 52.860838 
L 294.220526 50.318139 
L 295.092628 47.249367 
L 295.96473 47.512408 
L 296.836833 52.992354 
L 297.708935 52.992354 
L 298.581037 50.055108 
L 299.453139 50.055108 
L 300.325241 61.014999 
L 301.197343 52.860838 
L 302.069445 49.923582 
L 302.941547 50.055108 
L 303.813649 52.992354 
L 304.685751 52.597797 
L 305.557854 47.643923 
L 306.429956 52.860838 
L 307.302058 50.055108 
L 308.17416 52.860838 
L 309.046262 47.380893 
L 309.918364 52.860838 
L 310.790466 50.186623 
L 311.662568 50.055108 
L 312.53467 52.992354 
L 313.406773 52.860838 
L 314.278875 55.535054 
L 315.150977 52.860838 
L 316.023079 47.380893 
L 316.895181 50.186623 
L 317.767283 50.055108 
L 318.639385 50.055108 
L 319.511487 49.792067 
L 320.383589 55.535054 
L 322.127794 50.449664 
L 322.999896 52.992354 
L 323.871998 50.055108 
L 324.7441 50.055108 
L 325.616202 52.860838 
L 326.488304 50.186623 
L 327.360406 50.186623 
L 328.232508 49.792067 
L 329.104611 47.380893 
L 330.848815 47.643923 
L 331.720917 47.380893 
L 332.593019 52.992354 
L 333.465121 47.380893 
L 334.337223 50.186623 
L 335.209325 47.249367 
L 336.081427 50.318139 
L 336.95353 50.318139 
L 337.825632 49.923582 
L 338.697734 50.186623 
L 339.569836 47.512408 
L 340.441938 47.380893 
L 341.31404 58.340784 
L 342.186142 52.860838 
L 343.058244 52.729323 
L 343.930346 50.055108 
L 344.802449 52.992354 
L 346.546653 47.380893 
L 347.418755 49.923582 
L 348.290857 50.318139 
L 349.162959 50.055108 
L 350.035061 50.186623 
L 350.907163 50.055108 
L 351.779265 47.643923 
L 352.651368 52.466282 
L 353.52347 52.860838 
L 354.395572 47.512408 
L 355.267674 49.923582 
L 356.139776 50.186623 
L 357.011878 50.186623 
L 357.88398 50.318139 
L 358.756082 52.860838 
L 360.500287 47.117852 
L 362.244491 52.860838 
L 363.116593 52.992354 
L 363.988695 52.860838 
L 364.860797 47.249367 
L 365.732899 50.186623 
L 366.605001 55.798095 
L 368.349206 50.055108 
L 369.221308 52.466282 
L 370.09341 47.380893 
L 370.965512 47.380893 
L 371.837614 50.318139 
L 372.709716 49.923582 
L 373.581818 49.792067 
L 373.581818 49.792067 
" style="fill:none;stroke:#0000ff;stroke-linecap:square;stroke-width:1.5;"/>
   </g>
   <g id="patch_3">
    <path d="M 54 252 
L 54 34.56 
" style="fill:none;stroke:#000000;stroke-linecap:square;stroke-linejoin:miter;stroke-width:0.8;"/>
   </g>
   <g id="patch_4">
    <path d="M 388.8 252 
L 388.8 34.56 
" style="fill:none;stroke:#000000;stroke-linecap:square;stroke-linejoin:miter;stroke-width:0.8;"/>
   </g>
   <g id="patch_5">
    <path d="M 54 252 
L 388.8 252 
" style="fill:none;stroke:#000000;stroke-linecap:square;stroke-linejoin:miter;stroke-width:0.8;"/>
   </g>
   <g id="patch_6">
    <path d="M 54 34.56 
L 388.8 34.56 
" style="fill:none;stroke:#000000;stroke-linecap:square;stroke-linejoin:miter;stroke-width:0.8;"/>
   </g>
   <g id="text_18">
    <!-- 准确率变化 -->
    <defs>
     <path d="M 44.140625 79.296875 
Q 48.828125 80.078125 53.515625 80.859375 
Q 54.6875 73.046875 55.078125 69.921875 
L 72.265625 69.921875 
Q 83.203125 69.921875 91.796875 70.3125 
L 91.796875 62.890625 
Q 82.8125 63.28125 72.265625 63.28125 
L 62.890625 63.28125 
L 62.890625 46.484375 
Q 62.890625 38.671875 63.28125 33.984375 
L 55.078125 33.984375 
Q 55.46875 38.671875 55.46875 46.484375 
L 55.46875 63.28125 
L 43.359375 63.28125 
L 43.359375 46.484375 
Q 43.359375 39.0625 43.75 33.984375 
L 35.546875 33.984375 
Q 35.9375 39.0625 35.9375 46.484375 
L 35.9375 63.28125 
L 27.734375 63.28125 
Q 16.796875 63.28125 8.59375 62.890625 
L 8.59375 70.3125 
Q 16.40625 69.921875 27.734375 69.921875 
L 46.484375 69.921875 
Q 45.703125 74.609375 44.140625 79.296875 
z
M 21.484375 57.8125 
Q 25 55.078125 29.6875 52.734375 
Q 27.34375 50.78125 23.234375 45.3125 
Q 19.140625 39.84375 14.453125 33.984375 
Q 10.546875 36.71875 7.421875 38.671875 
Q 16.015625 46.875 21.484375 57.8125 
z
M 69.53125 51.953125 
Q 73.046875 54.6875 75.78125 57.421875 
Q 83.59375 50 92.1875 40.625 
Q 88.671875 38.28125 85.15625 35.15625 
Q 78.90625 42.96875 69.53125 51.953125 
z
M 17.578125 28.515625 
Q 24.609375 28.125 33.984375 28.125 
L 79.6875 28.125 
Q 74.609375 20.3125 69.53125 14.0625 
Q 64.453125 7.8125 58.59375 3.515625 
Q 67.578125 0.78125 74.40625 -0.1875 
Q 81.25 -1.171875 92.1875 -0.78125 
Q 89.0625 -4.296875 87.890625 -9.765625 
Q 75 -8.203125 66.015625 -5.859375 
Q 57.03125 -3.515625 51.171875 -1.171875 
Q 41.40625 -5.078125 32.8125 -6.828125 
Q 24.21875 -8.59375 12.109375 -10.15625 
Q 10.546875 -5.859375 7.8125 -1.953125 
Q 17.96875 -1.953125 26.359375 -0.78125 
Q 34.765625 0.390625 44.140625 3.125 
Q 36.328125 7.421875 27.34375 21.484375 
L 35.9375 21.484375 
Q 42.1875 11.71875 51.5625 7.03125 
Q 59.375 11.71875 66.40625 21.484375 
L 33.59375 21.484375 
Q 23.828125 21.484375 17.578125 21.09375 
z
" id="SimHei-53d8"/>
     <path d="M 52.34375 79.296875 
L 60.9375 79.296875 
Q 60.15625 74.21875 60.15625 66.40625 
L 60.15625 37.890625 
Q 66.796875 43.75 71.875 50.96875 
Q 76.953125 58.203125 80.46875 65.234375 
Q 83.59375 62.890625 89.84375 60.15625 
Q 87.109375 57.8125 83.984375 53.90625 
Q 80.859375 50 77.34375 45.5 
Q 73.828125 41.015625 69.53125 36.515625 
Q 65.234375 32.03125 60.15625 28.125 
L 60.15625 6.25 
Q 60.15625 0.78125 65.234375 0.78125 
L 79.296875 0.78125 
Q 82.8125 1.171875 83.390625 4.09375 
Q 83.984375 7.03125 84.375 12.890625 
Q 88.28125 9.765625 93.75 8.984375 
Q 91.40625 -1.5625 88.859375 -3.90625 
Q 86.328125 -6.25 81.640625 -6.25 
L 60.9375 -6.25 
Q 52.734375 -6.25 52.734375 0.78125 
L 52.734375 23.4375 
Q 49.21875 21.09375 46.09375 19.140625 
Q 42.96875 17.1875 38.28125 14.0625 
Q 35.9375 18.359375 33.59375 21.09375 
Q 38.28125 23.046875 43.546875 25.96875 
Q 48.828125 28.90625 52.734375 32.421875 
L 52.734375 67.578125 
Q 52.734375 74.609375 52.34375 79.296875 
z
M 28.515625 80.859375 
Q 32.03125 78.515625 38.28125 76.5625 
Q 35.15625 72.265625 33.59375 68.15625 
Q 32.03125 64.0625 29.6875 58.59375 
L 29.6875 10.15625 
Q 29.6875 -1.953125 30.078125 -8.203125 
L 21.484375 -8.203125 
Q 22.265625 -2.34375 22.265625 9.765625 
L 22.265625 46.875 
Q 19.53125 42.1875 17.1875 39.0625 
Q 14.84375 35.9375 12.890625 33.59375 
Q 10.15625 36.71875 6.640625 39.453125 
Q 11.71875 44.53125 15.421875 50 
Q 19.140625 55.46875 21.484375 60.734375 
Q 23.828125 66.015625 25.578125 71.09375 
Q 27.34375 76.171875 28.515625 80.859375 
z
" id="SimHei-5316"/>
    </defs>
    <g transform="translate(191.4 28.56)scale(0.12 -0.12)">
     <use xlink:href="#SimHei-51c6"/>
     <use x="100" xlink:href="#SimHei-786e"/>
     <use x="200" xlink:href="#SimHei-7387"/>
     <use x="300" xlink:href="#SimHei-53d8"/>
     <use x="400" xlink:href="#SimHei-5316"/>
    </g>
   </g>
   <g id="legend_1">
    <g id="patch_7">
     <path d="M 309.8 247 
L 381.8 247 
Q 383.8 247 383.8 245 
L 383.8 232.710938 
Q 383.8 230.710938 381.8 230.710938 
L 309.8 230.710938 
Q 307.8 230.710938 307.8 232.710938 
L 307.8 245 
Q 307.8 247 309.8 247 
z
" style="fill:#ffffff;opacity:0.8;stroke:#cccccc;stroke-linejoin:miter;"/>
    </g>
    <g id="line2d_17">
     <path d="M 311.8 238.210938 
L 331.8 238.210938 
" style="fill:none;stroke:#0000ff;stroke-linecap:square;stroke-width:1.5;"/>
    </g>
    <g id="line2d_18"/>
    <g id="text_19">
     <!-- accuracy -->
     <defs>
      <path d="M 45.3125 1.5625 
L 35.9375 1.5625 
Q 35.15625 2.34375 34.765625 3.703125 
Q 34.375 5.078125 34.375 7.03125 
Q 31.640625 3.90625 27.734375 2.34375 
Q 23.828125 0.78125 19.53125 0.78125 
Q 13.28125 0.78125 8.984375 3.90625 
Q 4.6875 7.03125 4.6875 12.890625 
Q 4.6875 18.75 8.59375 22.265625 
Q 12.5 25.78125 20.703125 26.953125 
Q 26.171875 27.734375 30.265625 28.90625 
Q 34.375 30.078125 34.375 32.03125 
Q 34.375 34.375 32.609375 36.71875 
Q 30.859375 39.0625 25 39.0625 
Q 20.3125 39.0625 18.15625 37.296875 
Q 16.015625 35.546875 15.234375 32.421875 
L 6.640625 32.421875 
Q 7.421875 38.671875 12.296875 42.375 
Q 17.1875 46.09375 25 46.09375 
Q 33.59375 46.09375 37.890625 42.1875 
Q 42.1875 38.28125 42.1875 31.25 
L 42.1875 9.765625 
Q 42.1875 7.421875 42.96875 5.46875 
Q 43.75 3.515625 45.3125 1.5625 
z
M 34.375 16.015625 
L 34.375 23.828125 
Q 32.03125 23.046875 29.875 22.453125 
Q 27.734375 21.875 22.65625 21.09375 
Q 16.796875 20.3125 15.03125 18.359375 
Q 13.28125 16.40625 13.28125 13.671875 
Q 13.28125 11.328125 15.03125 9.5625 
Q 16.796875 7.8125 20.3125 7.8125 
Q 23.828125 7.8125 27.921875 9.765625 
Q 32.03125 11.71875 34.375 16.015625 
z
" id="SimHei-61"/>
      <path d="M 44.921875 19.140625 
Q 44.921875 10.9375 39.25 5.859375 
Q 33.59375 0.78125 25 0.78125 
Q 16.40625 0.78125 10.15625 6.828125 
Q 3.90625 12.890625 3.90625 23.4375 
Q 3.90625 33.984375 10.15625 40.03125 
Q 16.40625 46.09375 25 46.09375 
Q 33.59375 46.09375 38.671875 41.59375 
Q 43.75 37.109375 43.75 30.859375 
L 35.15625 30.859375 
Q 34.765625 35.546875 31.828125 37.296875 
Q 28.90625 39.0625 25 39.0625 
Q 20.3125 39.0625 16.40625 35.34375 
Q 12.5 31.640625 12.5 23.4375 
Q 12.5 15.234375 16.40625 11.515625 
Q 20.3125 7.8125 25 7.8125 
Q 30.078125 7.8125 33.203125 10.546875 
Q 36.328125 13.28125 36.328125 19.140625 
z
" id="SimHei-63"/>
      <path d="M 44.140625 1.5625 
L 36.328125 1.5625 
L 36.328125 9.765625 
Q 33.203125 5.46875 29.484375 3.125 
Q 25.78125 0.78125 19.921875 0.78125 
Q 12.890625 0.78125 9.375 4.6875 
Q 5.859375 8.59375 5.859375 14.453125 
L 5.859375 45.3125 
L 13.671875 45.3125 
L 13.671875 17.1875 
Q 13.671875 12.5 16.015625 9.765625 
Q 18.359375 7.03125 22.265625 7.03125 
Q 27.34375 7.03125 31.828125 12.296875 
Q 36.328125 17.578125 36.328125 25.390625 
L 36.328125 45.3125 
L 44.140625 45.3125 
z
" id="SimHei-75"/>
      <path d="M 39.453125 37.5 
Q 32.03125 38.671875 26.953125 35.34375 
Q 21.875 32.03125 18.359375 23.828125 
L 18.359375 1.5625 
L 10.546875 1.5625 
L 10.546875 45.3125 
L 18.359375 45.3125 
L 18.359375 33.984375 
Q 21.875 40.234375 27.140625 43.15625 
Q 32.421875 46.09375 39.453125 46.09375 
z
" id="SimHei-72"/>
      <path d="M 45.703125 45.3125 
L 27.734375 -1.953125 
Q 26.171875 -7.421875 23.046875 -10.15625 
Q 19.921875 -12.890625 15.234375 -12.890625 
Q 13.28125 -12.890625 11.515625 -12.6875 
Q 9.765625 -12.5 8.203125 -11.71875 
L 8.203125 -3.90625 
Q 9.765625 -4.6875 11.328125 -5.078125 
Q 12.890625 -5.46875 14.0625 -5.46875 
Q 17.1875 -5.46875 18.359375 -4.484375 
Q 19.53125 -3.515625 20.703125 0 
L 3.515625 45.3125 
L 12.109375 45.3125 
L 24.609375 10.9375 
L 25 10.9375 
L 37.109375 45.3125 
z
" id="SimHei-79"/>
     </defs>
     <g transform="translate(339.8 241.710938)scale(0.1 -0.1)">
      <use xlink:href="#SimHei-61"/>
      <use x="50" xlink:href="#SimHei-63"/>
      <use x="100" xlink:href="#SimHei-63"/>
      <use x="150" xlink:href="#SimHei-75"/>
      <use x="200" xlink:href="#SimHei-72"/>
      <use x="250" xlink:href="#SimHei-61"/>
      <use x="300" xlink:href="#SimHei-63"/>
      <use x="350" xlink:href="#SimHei-79"/>
     </g>
    </g>
   </g>
  </g>
 </g>
 <defs>
  <clipPath id="pbf07b352ff">
   <rect height="217.44" width="334.8" x="54" y="34.56"/>
  </clipPath>
 </defs>
</svg>
