<?xml version="1.0" encoding="utf-8" standalone="no"?>
<!DOCTYPE svg PUBLIC "-//W3C//DTD SVG 1.1//EN"
  "http://www.w3.org/Graphics/SVG/1.1/DTD/svg11.dtd">
<!-- Created with matplotlib (https://matplotlib.org/) -->
<svg height="288pt" version="1.1" viewBox="0 0 432 288" width="432pt" xmlns="http://www.w3.org/2000/svg" xmlns:xlink="http://www.w3.org/1999/xlink">
 <defs>
  <style type="text/css">
*{stroke-linecap:butt;stroke-linejoin:round;}
  </style>
 </defs>
 <g id="figure_1">
  <g id="patch_1">
   <path d="M 0 288 
L 432 288 
L 432 0 
L 0 0 
z
" style="fill:#ffffff;"/>
  </g>
  <g id="axes_1">
   <g id="patch_2">
    <path d="M 54 252 
L 388.8 252 
L 388.8 34.56 
L 54 34.56 
z
" style="fill:#ffffff;"/>
   </g>
   <g id="matplotlib.axis_1">
    <g id="xtick_1">
     <g id="line2d_1">
      <defs>
       <path d="M 0 0 
L 0 3.5 
" id="mf9da452d59" style="stroke:#000000;stroke-width:0.8;"/>
      </defs>
      <g>
       <use style="stroke:#000000;stroke-width:0.8;" x="69.218182" xlink:href="#mf9da452d59" y="252"/>
      </g>
     </g>
     <g id="text_1">
      <!-- 0.0 -->
      <defs>
       <path d="M 46.484375 35.15625 
Q 46.484375 21.09375 41.40625 10.9375 
Q 36.328125 0.78125 25 0.78125 
Q 13.671875 0.78125 8.390625 10.9375 
Q 3.125 21.09375 3.125 35.15625 
Q 3.125 49.21875 8.390625 59.171875 
Q 13.671875 69.140625 25 69.140625 
Q 36.328125 69.140625 41.40625 59.171875 
Q 46.484375 49.21875 46.484375 35.15625 
z
M 37.109375 35.15625 
Q 37.109375 47.65625 34.171875 54.6875 
Q 31.25 61.71875 25 61.71875 
Q 18.75 61.71875 15.625 54.6875 
Q 12.5 47.65625 12.5 35.15625 
Q 12.5 22.65625 15.625 15.421875 
Q 18.75 8.203125 25 8.203125 
Q 31.25 8.203125 34.171875 15.421875 
Q 37.109375 22.65625 37.109375 35.15625 
z
" id="SimHei-48"/>
       <path d="M 17.1875 1.5625 
L 8.203125 1.5625 
L 8.203125 10.15625 
L 17.1875 10.15625 
z
" id="SimHei-46"/>
      </defs>
      <g transform="translate(61.718182 265.835938)scale(0.1 -0.1)">
       <use xlink:href="#SimHei-48"/>
       <use x="50" xlink:href="#SimHei-46"/>
       <use x="100" xlink:href="#SimHei-48"/>
      </g>
     </g>
    </g>
    <g id="xtick_2">
     <g id="line2d_2">
      <g>
       <use style="stroke:#000000;stroke-width:0.8;" x="130.090909" xlink:href="#mf9da452d59" y="252"/>
      </g>
     </g>
     <g id="text_2">
      <!-- 0.2 -->
      <defs>
       <path d="M 44.53125 1.5625 
L 4.6875 1.5625 
L 4.6875 7.8125 
Q 7.03125 14.0625 11.125 19.328125 
Q 15.234375 24.609375 23.046875 31.25 
Q 28.90625 36.328125 31.4375 40.625 
Q 33.984375 44.921875 33.984375 50 
Q 33.984375 55.078125 31.828125 58.390625 
Q 29.6875 61.71875 25 61.71875 
Q 21.09375 61.71875 18.15625 58.203125 
Q 15.234375 54.6875 15.234375 45.703125 
L 6.25 45.703125 
Q 6.640625 57.03125 11.515625 63.078125 
Q 16.40625 69.140625 25.390625 69.140625 
Q 33.984375 69.140625 38.671875 63.859375 
Q 43.359375 58.59375 43.359375 49.609375 
Q 43.359375 42.1875 39.0625 36.71875 
Q 34.765625 31.25 28.515625 25.78125 
Q 21.484375 19.53125 18.75 16.40625 
Q 16.015625 13.28125 13.671875 8.984375 
L 44.53125 8.984375 
z
" id="SimHei-50"/>
      </defs>
      <g transform="translate(122.590909 265.835938)scale(0.1 -0.1)">
       <use xlink:href="#SimHei-48"/>
       <use x="50" xlink:href="#SimHei-46"/>
       <use x="100" xlink:href="#SimHei-50"/>
      </g>
     </g>
    </g>
    <g id="xtick_3">
     <g id="line2d_3">
      <g>
       <use style="stroke:#000000;stroke-width:0.8;" x="190.963636" xlink:href="#mf9da452d59" y="252"/>
      </g>
     </g>
     <g id="text_3">
      <!-- 0.4 -->
      <defs>
       <path d="M 46.484375 18.75 
L 38.28125 18.75 
L 38.28125 1.5625 
L 29.296875 1.5625 
L 29.296875 18.75 
L 3.125 18.75 
L 3.125 26.171875 
L 29.296875 69.140625 
L 38.28125 69.140625 
L 38.28125 26.171875 
L 46.484375 26.171875 
z
M 29.296875 26.171875 
L 29.296875 55.078125 
L 11.71875 26.171875 
z
" id="SimHei-52"/>
      </defs>
      <g transform="translate(183.463636 265.835938)scale(0.1 -0.1)">
       <use xlink:href="#SimHei-48"/>
       <use x="50" xlink:href="#SimHei-46"/>
       <use x="100" xlink:href="#SimHei-52"/>
      </g>
     </g>
    </g>
    <g id="xtick_4">
     <g id="line2d_4">
      <g>
       <use style="stroke:#000000;stroke-width:0.8;" x="251.836364" xlink:href="#mf9da452d59" y="252"/>
      </g>
     </g>
     <g id="text_4">
      <!-- 0.6 -->
      <defs>
       <path d="M 44.53125 24.21875 
Q 44.53125 13.28125 39.84375 7.03125 
Q 35.15625 0.78125 25.78125 0.78125 
Q 16.40625 0.78125 10.9375 8.59375 
Q 5.46875 16.40625 5.46875 33.984375 
Q 5.46875 50 11.125 59.5625 
Q 16.796875 69.140625 27.34375 69.140625 
Q 34.765625 69.140625 39.25 63.671875 
Q 43.75 58.203125 43.75 51.5625 
L 34.765625 51.5625 
Q 34.765625 55.46875 32.609375 58.59375 
Q 30.46875 61.71875 26.953125 61.71875 
Q 21.09375 61.71875 17.96875 55.65625 
Q 14.84375 49.609375 14.453125 37.109375 
Q 17.1875 42.1875 20.3125 44.140625 
Q 23.4375 46.09375 27.734375 46.09375 
Q 35.15625 46.09375 39.84375 40.234375 
Q 44.53125 34.375 44.53125 24.21875 
z
M 35.15625 24.21875 
Q 35.15625 31.25 32.8125 35.15625 
Q 30.46875 39.0625 26.171875 39.0625 
Q 21.09375 39.0625 18.15625 35.15625 
Q 15.234375 31.25 15.234375 25.78125 
Q 15.234375 17.1875 18.15625 12.5 
Q 21.09375 7.8125 26.171875 7.8125 
Q 29.6875 7.8125 32.421875 11.328125 
Q 35.15625 14.84375 35.15625 24.21875 
z
" id="SimHei-54"/>
      </defs>
      <g transform="translate(244.336364 265.835938)scale(0.1 -0.1)">
       <use xlink:href="#SimHei-48"/>
       <use x="50" xlink:href="#SimHei-46"/>
       <use x="100" xlink:href="#SimHei-54"/>
      </g>
     </g>
    </g>
    <g id="xtick_5">
     <g id="line2d_5">
      <g>
       <use style="stroke:#000000;stroke-width:0.8;" x="312.709091" xlink:href="#mf9da452d59" y="252"/>
      </g>
     </g>
     <g id="text_5">
      <!-- 0.8 -->
      <defs>
       <path d="M 44.921875 20.703125 
Q 44.921875 10.9375 39.453125 5.859375 
Q 33.984375 0.78125 24.609375 0.78125 
Q 15.234375 0.78125 9.765625 5.859375 
Q 4.296875 10.9375 4.296875 20.703125 
Q 4.296875 25.78125 7.421875 29.875 
Q 10.546875 33.984375 16.015625 35.9375 
Q 11.328125 37.890625 8.78125 41.40625 
Q 6.25 44.921875 6.25 50.390625 
Q 6.25 58.984375 11.71875 64.0625 
Q 17.1875 69.140625 24.609375 69.140625 
Q 32.03125 69.140625 37.5 64.0625 
Q 42.96875 58.984375 42.96875 50.390625 
Q 42.96875 44.921875 40.421875 41.40625 
Q 37.890625 37.890625 33.203125 35.9375 
Q 38.671875 33.984375 41.796875 29.875 
Q 44.921875 25.78125 44.921875 20.703125 
z
M 34.375 50.390625 
Q 34.375 56.640625 31.640625 59.375 
Q 28.90625 62.109375 24.609375 62.109375 
Q 20.3125 62.109375 17.578125 59.375 
Q 14.84375 56.640625 14.84375 50.390625 
Q 14.84375 44.140625 17.765625 41.59375 
Q 20.703125 39.0625 24.609375 39.0625 
Q 28.515625 39.0625 31.4375 41.59375 
Q 34.375 44.140625 34.375 50.390625 
z
M 35.9375 20.703125 
Q 35.9375 26.171875 33 29.296875 
Q 30.078125 32.421875 24.609375 32.421875 
Q 19.140625 32.421875 16.203125 29.296875 
Q 13.28125 26.171875 13.28125 20.703125 
Q 13.28125 14.453125 16.40625 11.125 
Q 19.53125 7.8125 24.609375 7.8125 
Q 29.6875 7.8125 32.8125 11.125 
Q 35.9375 14.453125 35.9375 20.703125 
z
" id="SimHei-56"/>
      </defs>
      <g transform="translate(305.209091 265.835938)scale(0.1 -0.1)">
       <use xlink:href="#SimHei-48"/>
       <use x="50" xlink:href="#SimHei-46"/>
       <use x="100" xlink:href="#SimHei-56"/>
      </g>
     </g>
    </g>
    <g id="xtick_6">
     <g id="line2d_6">
      <g>
       <use style="stroke:#000000;stroke-width:0.8;" x="373.581818" xlink:href="#mf9da452d59" y="252"/>
      </g>
     </g>
     <g id="text_6">
      <!-- 1.0 -->
      <defs>
       <path d="M 30.46875 1.5625 
L 21.484375 1.5625 
L 21.484375 53.515625 
L 9.765625 53.515625 
L 9.765625 58.203125 
Q 16.796875 58.203125 20.703125 60.9375 
Q 24.609375 63.671875 25.78125 69.140625 
L 30.46875 69.140625 
z
" id="SimHei-49"/>
      </defs>
      <g transform="translate(366.081818 265.835938)scale(0.1 -0.1)">
       <use xlink:href="#SimHei-49"/>
       <use x="50" xlink:href="#SimHei-46"/>
       <use x="100" xlink:href="#SimHei-48"/>
      </g>
     </g>
    </g>
    <g id="text_7">
     <!-- 迭代次数 -->
     <defs>
      <path d="M 81.640625 4.296875 
Q 74.21875 14.84375 61.328125 28.125 
Q 56.640625 19.921875 51.75 15.03125 
Q 46.875 10.15625 39.84375 4.296875 
Q 37.890625 6.25 32.03125 10.546875 
Q 40.625 14.84375 47.0625 21.671875 
Q 53.515625 28.515625 56.25 37.5 
Q 36.71875 37.5 30.46875 37.109375 
L 30.46875 44.140625 
Q 37.109375 43.75 57.421875 43.75 
Q 58.203125 49.609375 58.59375 57.8125 
L 42.578125 57.8125 
Q 40.625 53.125 39.0625 48.828125 
Q 34.765625 50.390625 30.46875 51.171875 
Q 33.203125 55.859375 35.546875 62.5 
Q 37.890625 69.140625 39.84375 78.90625 
Q 43.75 77.34375 49.609375 76.171875 
Q 46.875 72.265625 44.921875 64.0625 
L 58.59375 64.0625 
Q 58.59375 74.21875 57.8125 80.078125 
Q 62.5 79.296875 66.796875 79.6875 
Q 66.015625 75 65.625 64.0625 
L 76.953125 64.0625 
Q 80.46875 64.0625 86.71875 64.453125 
L 86.71875 57.03125 
Q 80.46875 57.8125 75.78125 57.8125 
L 66.015625 57.8125 
Q 65.625 49.609375 64.84375 43.75 
L 80.078125 43.75 
Q 85.15625 43.75 92.1875 44.140625 
L 92.1875 37.109375 
Q 85.15625 37.5 78.90625 37.5 
L 64.453125 37.5 
L 64.0625 35.15625 
Q 72.265625 26.953125 89.0625 10.9375 
Q 87.109375 9.765625 81.640625 4.296875 
z
M 11.328125 74.21875 
Q 15.234375 75.78125 19.921875 76.5625 
Q 23.828125 64.84375 26.171875 58.984375 
Q 21.875 58.59375 17.1875 57.03125 
Q 16.015625 60.546875 11.328125 74.21875 
z
M 6.25 45.3125 
Q 12.890625 44.921875 17.578125 44.921875 
L 25 44.921875 
Q 24.609375 37.890625 24.609375 30.859375 
L 24.609375 8.59375 
Q 34.375 0 57.8125 0 
Q 81.25 0 94.53125 1.953125 
Q 92.1875 -3.515625 91.40625 -7.421875 
Q 65.234375 -7.421875 55.65625 -7.21875 
Q 46.09375 -7.03125 38.859375 -5.65625 
Q 31.640625 -4.296875 26.75 -0.78125 
Q 21.875 2.734375 18.75 -0.390625 
Q 15.625 -3.515625 11.71875 -8.984375 
Q 8.203125 -5.078125 4.296875 -2.734375 
Q 12.890625 4.6875 17.578125 7.421875 
L 17.578125 38.671875 
Q 12.5 38.671875 6.25 38.28125 
z
" id="SimHei-36845"/>
      <path d="M 31.640625 42.1875 
Q 37.890625 42.96875 51.5625 45.703125 
Q 49.609375 70.703125 49.21875 78.90625 
Q 51.5625 78.515625 59.375 77.734375 
Q 57.8125 72.65625 59.375 47.265625 
Q 78.125 50.78125 88.28125 53.90625 
L 90.234375 46.484375 
Q 85.9375 46.09375 60.15625 40.625 
Q 64.84375 16.015625 73.625 7.21875 
Q 82.421875 -1.5625 83.78125 3.3125 
Q 85.15625 8.203125 85.9375 11.71875 
Q 91.796875 7.421875 94.921875 6.640625 
Q 92.1875 -1.953125 89.640625 -6.25 
Q 87.109375 -10.546875 80.65625 -8.984375 
Q 74.21875 -7.421875 65.03125 4.6875 
Q 55.859375 16.796875 52.34375 39.0625 
Q 37.5 35.9375 33.984375 34.375 
z
M 66.796875 70.703125 
Q 69.921875 72.65625 73.828125 75.390625 
Q 75.390625 73.4375 78.3125 69.328125 
Q 81.25 65.234375 83.203125 62.5 
Q 79.296875 60.15625 75.78125 57.8125 
Q 71.875 63.28125 66.796875 70.703125 
z
M 25.78125 80.46875 
Q 32.03125 77.734375 35.9375 76.5625 
Q 32.8125 73.046875 26.5625 56.25 
L 26.5625 7.421875 
Q 26.5625 -0.78125 26.953125 -9.375 
L 18.75 -9.375 
Q 19.140625 -0.78125 19.140625 7.421875 
L 19.140625 42.578125 
Q 13.28125 33.203125 9.765625 28.125 
Q 6.640625 31.25 3.125 34.375 
Q 8.203125 38.671875 15.421875 52.140625 
Q 22.65625 65.625 25.78125 80.46875 
z
" id="SimHei-20195"/>
      <path d="M 8.203125 67.1875 
Q 11.328125 69.140625 15.625 71.09375 
Q 17.96875 67.1875 21.09375 61.71875 
Q 24.21875 56.25 27.34375 50.78125 
Q 23.046875 48.828125 19.53125 46.484375 
Q 17.1875 51.171875 14.640625 56.640625 
Q 12.109375 62.109375 8.203125 67.1875 
z
M 23.046875 34.765625 
Q 25.78125 32.421875 30.46875 30.078125 
Q 28.125 26.5625 23.625 17.96875 
Q 19.140625 9.375 14.0625 -0.78125 
Q 10.546875 1.953125 6.25 4.6875 
Q 12.109375 10.9375 16.203125 19.328125 
Q 20.3125 27.734375 23.046875 34.765625 
z
M 46.875 79.296875 
Q 51.171875 77.734375 57.03125 75.390625 
Q 54.6875 73.828125 52.921875 69.53125 
Q 51.171875 65.234375 49.21875 60.9375 
L 90.625 60.9375 
Q 89.453125 57.8125 87.5 52.140625 
Q 85.546875 46.484375 83.203125 38.28125 
Q 78.90625 39.453125 74.609375 40.234375 
Q 76.171875 43.75 77.34375 47.265625 
Q 78.515625 50.78125 79.6875 54.6875 
L 46.484375 54.6875 
Q 44.53125 51.5625 42.375 46.875 
Q 40.234375 42.1875 37.5 37.5 
Q 34.765625 39.84375 30.46875 41.40625 
Q 33.203125 44.921875 35.734375 49.609375 
Q 38.28125 54.296875 40.421875 59.375 
Q 42.578125 64.453125 44.140625 69.53125 
Q 45.703125 74.609375 46.875 79.296875 
z
M 54.6875 47.65625 
Q 59.375 47.265625 64.0625 46.484375 
Q 62.890625 42.578125 62.6875 35.15625 
Q 62.5 27.734375 65.8125 21.484375 
Q 69.140625 15.234375 73.828125 10.9375 
Q 78.515625 6.640625 83.984375 4.09375 
Q 89.453125 1.5625 93.75 0.390625 
Q 91.40625 -1.171875 90.234375 -3.3125 
Q 89.0625 -5.46875 87.890625 -8.59375 
Q 79.296875 -3.90625 74.21875 0.1875 
Q 69.140625 4.296875 66.203125 8.203125 
Q 63.28125 12.109375 61.71875 15.8125 
Q 60.15625 19.53125 58.984375 23.046875 
Q 57.03125 17.1875 54.875 12.6875 
Q 52.734375 8.203125 49.40625 4.6875 
Q 46.09375 1.171875 41.796875 -2.140625 
Q 37.5 -5.46875 31.640625 -9.375 
Q 28.90625 -5.078125 25 -2.34375 
Q 34.765625 1.171875 40.625 6.4375 
Q 46.484375 11.71875 49.609375 17.1875 
Q 52.734375 22.65625 53.703125 27.921875 
Q 54.6875 33.203125 54.875 36.90625 
Q 55.078125 40.625 54.6875 47.65625 
z
" id="SimHei-27425"/>
      <path d="M 10.9375 75.78125 
Q 14.84375 76.953125 17.1875 78.515625 
Q 20.3125 73.4375 23.046875 68.359375 
Q 19.53125 66.796875 16.796875 65.234375 
Q 14.453125 71.09375 10.9375 75.78125 
z
M 44.921875 78.515625 
Q 49.21875 76.5625 53.125 75 
Q 50.78125 73.4375 49.21875 70.703125 
Q 47.65625 67.96875 45.703125 64.453125 
Q 42.578125 66.015625 39.453125 66.796875 
Q 42.578125 71.875 44.921875 78.515625 
z
M 38.28125 49.609375 
Q 41.796875 51.171875 44.140625 53.515625 
Q 48.828125 46.875 51.953125 41.40625 
Q 48.4375 39.84375 45.3125 37.5 
Q 42.1875 44.921875 38.28125 49.609375 
z
M 8.203125 61.71875 
Q 14.453125 61.328125 28.125 61.328125 
Q 28.125 72.65625 27.734375 80.859375 
L 35.546875 80.859375 
Q 35.15625 72.65625 35.15625 61.328125 
Q 48.046875 61.328125 53.90625 61.71875 
L 53.90625 54.6875 
Q 48.046875 55.078125 35.15625 55.078125 
Q 35.15625 46.09375 35.546875 39.453125 
L 27.734375 39.453125 
Q 28.125 45.3125 28.125 51.953125 
Q 26.171875 48.046875 21.671875 43.546875 
Q 17.1875 39.0625 11.71875 35.9375 
Q 10.15625 39.453125 6.640625 41.796875 
Q 10.15625 42.96875 15.421875 46.875 
Q 20.703125 50.78125 23.046875 55.078125 
Q 14.84375 55.078125 8.203125 54.6875 
z
M 26.953125 24.21875 
Q 25 20.3125 22.65625 16.40625 
Q 27.34375 15.234375 35.15625 13.28125 
Q 37.890625 16.796875 40.234375 24.21875 
z
M 24.21875 38.28125 
Q 28.515625 36.71875 32.8125 35.546875 
Q 31.25 33.984375 29.296875 30.46875 
L 44.53125 30.46875 
L 48.828125 30.46875 
Q 46.484375 20.3125 42.1875 11.328125 
Q 48.828125 9.375 52.734375 8.203125 
Q 49.609375 3.90625 48.046875 0.390625 
Q 44.53125 2.734375 37.5 5.46875 
Q 28.125 -3.90625 9.375 -10.15625 
Q 7.8125 -6.25 4.6875 -3.90625 
Q 21.484375 0 31.25 8.203125 
Q 20.3125 10.9375 13.28125 12.890625 
Q 15.625 16.015625 19.53125 24.21875 
Q 13.28125 24.21875 4.6875 23.828125 
L 4.6875 30.859375 
Q 12.109375 30.46875 21.875 30.46875 
Q 23.046875 33.59375 24.21875 38.28125 
z
M 63.671875 80.46875 
Q 68.359375 78.515625 73.4375 77.734375 
Q 71.484375 75.390625 70.5 72.265625 
Q 69.53125 69.140625 67.96875 63.28125 
L 85.546875 63.28125 
Q 89.0625 63.28125 94.53125 63.671875 
L 94.53125 56.640625 
Q 90.234375 57.03125 87.5 57.03125 
Q 87.109375 48.828125 85.546875 35.34375 
Q 83.984375 21.875 78.125 11.71875 
Q 82.03125 6.25 87.109375 2.734375 
Q 92.1875 -0.78125 96.09375 -2.34375 
Q 90.625 -5.859375 89.0625 -9.375 
Q 82.421875 -4.6875 79.296875 -1.359375 
Q 76.171875 1.953125 73.4375 5.859375 
Q 68.75 1.171875 64.640625 -1.953125 
Q 60.546875 -5.078125 51.5625 -10.15625 
Q 49.609375 -6.640625 45.3125 -3.90625 
Q 52.734375 -1.171875 58.984375 3.125 
Q 65.234375 7.421875 69.53125 12.109375 
Q 65.234375 20.703125 62.890625 29.09375 
Q 60.546875 37.5 60.15625 41.015625 
Q 59.375 38.28125 58.203125 34.765625 
Q 54.6875 36.328125 50.390625 37.890625 
Q 55.078125 46.484375 58.984375 58.59375 
Q 62.890625 70.703125 63.671875 80.46875 
z
M 66.40625 57.03125 
Q 64.84375 53.125 64.0625 50.578125 
Q 63.28125 48.046875 66.984375 36.71875 
Q 70.703125 25.390625 74.21875 19.140625 
Q 77.734375 28.515625 79.09375 38.671875 
Q 80.46875 48.828125 80.46875 57.03125 
z
" id="SimHei-25968"/>
     </defs>
     <g transform="translate(201.4 278.976562)scale(0.1 -0.1)">
      <use xlink:href="#SimHei-36845"/>
      <use x="100" xlink:href="#SimHei-20195"/>
      <use x="200" xlink:href="#SimHei-27425"/>
      <use x="300" xlink:href="#SimHei-25968"/>
     </g>
    </g>
   </g>
   <g id="matplotlib.axis_2">
    <g id="ytick_1">
     <g id="line2d_7">
      <defs>
       <path d="M 0 0 
L -3.5 0 
" id="mec42f4d0d7" style="stroke:#000000;stroke-width:0.8;"/>
      </defs>
      <g>
       <use style="stroke:#000000;stroke-width:0.8;" x="54" xlink:href="#mec42f4d0d7" y="248.909622"/>
      </g>
     </g>
     <g id="text_8">
      <!-- 0.405 -->
      <defs>
       <path d="M 44.140625 25.78125 
Q 44.140625 14.0625 38.46875 7.421875 
Q 32.8125 0.78125 23.4375 0.78125 
Q 15.234375 0.78125 9.953125 6.25 
Q 4.6875 11.71875 4.296875 21.09375 
L 13.28125 21.09375 
Q 13.28125 15.234375 16.015625 11.71875 
Q 18.75 8.203125 23.828125 8.203125 
Q 28.90625 8.203125 31.828125 12.5 
Q 34.765625 16.796875 34.765625 25.78125 
Q 34.765625 33.59375 32.21875 37.296875 
Q 29.6875 41.015625 25.390625 41.015625 
Q 21.875 41.015625 19.328125 39.453125 
Q 16.796875 37.890625 14.453125 33.984375 
L 6.640625 33.984375 
L 8.984375 68.359375 
L 42.578125 68.359375 
L 42.578125 60.9375 
L 16.40625 60.9375 
L 14.84375 42.96875 
Q 17.1875 45.3125 19.921875 46.484375 
Q 22.65625 47.65625 27.34375 47.65625 
Q 34.765625 47.65625 39.453125 41.984375 
Q 44.140625 36.328125 44.140625 25.78125 
z
" id="SimHei-53"/>
      </defs>
      <g transform="translate(22 252.327591)scale(0.1 -0.1)">
       <use xlink:href="#SimHei-48"/>
       <use x="50" xlink:href="#SimHei-46"/>
       <use x="100" xlink:href="#SimHei-52"/>
       <use x="150" xlink:href="#SimHei-48"/>
       <use x="200" xlink:href="#SimHei-53"/>
      </g>
     </g>
    </g>
    <g id="ytick_2">
     <g id="line2d_8">
      <g>
       <use style="stroke:#000000;stroke-width:0.8;" x="54" xlink:href="#mec42f4d0d7" y="221.736589"/>
      </g>
     </g>
     <g id="text_9">
      <!-- 0.410 -->
      <g transform="translate(22 225.154558)scale(0.1 -0.1)">
       <use xlink:href="#SimHei-48"/>
       <use x="50" xlink:href="#SimHei-46"/>
       <use x="100" xlink:href="#SimHei-52"/>
       <use x="150" xlink:href="#SimHei-49"/>
       <use x="200" xlink:href="#SimHei-48"/>
      </g>
     </g>
    </g>
    <g id="ytick_3">
     <g id="line2d_9">
      <g>
       <use style="stroke:#000000;stroke-width:0.8;" x="54" xlink:href="#mec42f4d0d7" y="194.563556"/>
      </g>
     </g>
     <g id="text_10">
      <!-- 0.415 -->
      <g transform="translate(22 197.981524)scale(0.1 -0.1)">
       <use xlink:href="#SimHei-48"/>
       <use x="50" xlink:href="#SimHei-46"/>
       <use x="100" xlink:href="#SimHei-52"/>
       <use x="150" xlink:href="#SimHei-49"/>
       <use x="200" xlink:href="#SimHei-53"/>
      </g>
     </g>
    </g>
    <g id="ytick_4">
     <g id="line2d_10">
      <g>
       <use style="stroke:#000000;stroke-width:0.8;" x="54" xlink:href="#mec42f4d0d7" y="167.390523"/>
      </g>
     </g>
     <g id="text_11">
      <!-- 0.420 -->
      <g transform="translate(22 170.808491)scale(0.1 -0.1)">
       <use xlink:href="#SimHei-48"/>
       <use x="50" xlink:href="#SimHei-46"/>
       <use x="100" xlink:href="#SimHei-52"/>
       <use x="150" xlink:href="#SimHei-50"/>
       <use x="200" xlink:href="#SimHei-48"/>
      </g>
     </g>
    </g>
    <g id="ytick_5">
     <g id="line2d_11">
      <g>
       <use style="stroke:#000000;stroke-width:0.8;" x="54" xlink:href="#mec42f4d0d7" y="140.217489"/>
      </g>
     </g>
     <g id="text_12">
      <!-- 0.425 -->
      <g transform="translate(22 143.635458)scale(0.1 -0.1)">
       <use xlink:href="#SimHei-48"/>
       <use x="50" xlink:href="#SimHei-46"/>
       <use x="100" xlink:href="#SimHei-52"/>
       <use x="150" xlink:href="#SimHei-50"/>
       <use x="200" xlink:href="#SimHei-53"/>
      </g>
     </g>
    </g>
    <g id="ytick_6">
     <g id="line2d_12">
      <g>
       <use style="stroke:#000000;stroke-width:0.8;" x="54" xlink:href="#mec42f4d0d7" y="113.044456"/>
      </g>
     </g>
     <g id="text_13">
      <!-- 0.430 -->
      <defs>
       <path d="M 44.140625 20.3125 
Q 44.140625 11.328125 38.46875 6.046875 
Q 32.8125 0.78125 24.21875 0.78125 
Q 15.625 0.78125 9.953125 6.046875 
Q 4.296875 11.328125 4.296875 22.265625 
L 13.28125 22.265625 
Q 13.28125 14.84375 16.203125 11.515625 
Q 19.140625 8.203125 24.21875 8.203125 
Q 29.296875 8.203125 32.03125 11.328125 
Q 34.765625 14.453125 34.765625 21.09375 
Q 34.765625 26.5625 31.828125 29.6875 
Q 28.90625 32.8125 21.484375 32.8125 
L 21.484375 39.453125 
Q 27.734375 39.453125 30.65625 42.578125 
Q 33.59375 45.703125 33.59375 51.953125 
Q 33.59375 56.640625 31.4375 59.375 
Q 29.296875 62.109375 24.609375 62.109375 
Q 19.921875 62.109375 17.375 58.78125 
Q 14.84375 55.46875 14.453125 49.21875 
L 5.859375 49.21875 
Q 6.640625 58.203125 11.515625 63.671875 
Q 16.40625 69.140625 24.609375 69.140625 
Q 33.203125 69.140625 37.890625 64.25 
Q 42.578125 59.375 42.578125 52.34375 
Q 42.578125 45.703125 40.234375 41.984375 
Q 37.890625 38.28125 32.421875 36.328125 
Q 37.890625 35.15625 41.015625 30.859375 
Q 44.140625 26.5625 44.140625 20.3125 
z
" id="SimHei-51"/>
      </defs>
      <g transform="translate(22 116.462425)scale(0.1 -0.1)">
       <use xlink:href="#SimHei-48"/>
       <use x="50" xlink:href="#SimHei-46"/>
       <use x="100" xlink:href="#SimHei-52"/>
       <use x="150" xlink:href="#SimHei-51"/>
       <use x="200" xlink:href="#SimHei-48"/>
      </g>
     </g>
    </g>
    <g id="ytick_7">
     <g id="line2d_13">
      <g>
       <use style="stroke:#000000;stroke-width:0.8;" x="54" xlink:href="#mec42f4d0d7" y="85.871423"/>
      </g>
     </g>
     <g id="text_14">
      <!-- 0.435 -->
      <g transform="translate(22 89.289392)scale(0.1 -0.1)">
       <use xlink:href="#SimHei-48"/>
       <use x="50" xlink:href="#SimHei-46"/>
       <use x="100" xlink:href="#SimHei-52"/>
       <use x="150" xlink:href="#SimHei-51"/>
       <use x="200" xlink:href="#SimHei-53"/>
      </g>
     </g>
    </g>
    <g id="ytick_8">
     <g id="line2d_14">
      <g>
       <use style="stroke:#000000;stroke-width:0.8;" x="54" xlink:href="#mec42f4d0d7" y="58.69839"/>
      </g>
     </g>
     <g id="text_15">
      <!-- 0.440 -->
      <g transform="translate(22 62.116359)scale(0.1 -0.1)">
       <use xlink:href="#SimHei-48"/>
       <use x="50" xlink:href="#SimHei-46"/>
       <use x="100" xlink:href="#SimHei-52"/>
       <use x="150" xlink:href="#SimHei-52"/>
       <use x="200" xlink:href="#SimHei-48"/>
      </g>
     </g>
    </g>
    <g id="text_16">
     <!-- 准确率 -->
     <defs>
      <path d="M 8.203125 70.703125 
Q 11.71875 72.65625 15.625 75.390625 
Q 17.578125 73.046875 21.671875 67.578125 
Q 25.78125 62.109375 29.296875 57.03125 
Q 24.609375 53.515625 21.875 51.171875 
Q 18.75 57.8125 8.203125 70.703125 
z
M 22.265625 38.671875 
Q 25.390625 35.15625 28.90625 32.03125 
Q 24.609375 24.21875 19.921875 14.25 
Q 15.234375 4.296875 12.5 -1.953125 
Q 8.203125 2.734375 4.6875 5.859375 
Q 10.546875 12.890625 14.453125 20.3125 
Q 18.359375 27.734375 22.265625 38.671875 
z
M 34.375 37.109375 
Q 30.859375 39.84375 26.5625 42.578125 
Q 31.25 47.265625 36.90625 58.78125 
Q 42.578125 70.3125 44.53125 80.46875 
Q 49.609375 78.515625 54.6875 76.953125 
Q 52.34375 74.21875 48.4375 63.671875 
L 76.171875 63.671875 
Q 84.765625 63.671875 92.1875 64.0625 
L 92.1875 57.03125 
Q 84.375 57.421875 76.171875 57.421875 
L 71.484375 57.421875 
L 71.484375 44.140625 
Q 82.421875 44.140625 89.453125 44.53125 
L 89.453125 37.5 
Q 82.421875 37.890625 71.484375 37.890625 
L 71.484375 24.609375 
Q 82.8125 24.609375 89.453125 25 
L 89.453125 17.96875 
Q 82.8125 18.359375 71.484375 18.359375 
L 71.484375 5.078125 
Q 87.5 5.078125 94.53125 5.46875 
L 94.53125 -1.953125 
Q 87.5 -1.5625 78.515625 -1.5625 
L 47.65625 -1.5625 
L 47.65625 -9.765625 
L 39.84375 -9.765625 
Q 40.234375 -2.734375 40.234375 10.15625 
L 40.234375 47.265625 
Q 37.890625 42.578125 34.375 37.109375 
z
M 63.671875 77.734375 
Q 67.578125 78.90625 71.484375 80.859375 
Q 74.21875 74.21875 75.78125 69.140625 
Q 71.484375 67.96875 67.578125 66.015625 
Q 66.40625 71.09375 63.671875 77.734375 
z
M 47.65625 57.421875 
L 47.65625 44.140625 
L 64.0625 44.140625 
L 64.0625 57.421875 
z
M 47.65625 37.890625 
L 47.65625 24.609375 
L 64.0625 24.609375 
L 64.0625 37.890625 
z
M 47.65625 18.359375 
L 47.65625 5.078125 
L 64.0625 5.078125 
L 64.0625 18.359375 
z
" id="SimHei-20934"/>
      <path d="M 21.484375 39.84375 
L 21.484375 14.84375 
L 32.03125 14.84375 
L 32.03125 39.84375 
z
M 10.15625 25 
Q 7.8125 28.125 3.515625 30.46875 
Q 8.984375 35.546875 13.671875 43.9375 
Q 18.359375 52.34375 20.703125 65.234375 
Q 13.28125 65.234375 8.59375 64.84375 
L 8.59375 71.09375 
Q 14.0625 70.703125 19.140625 70.703125 
L 29.296875 70.703125 
Q 35.9375 70.703125 40.625 71.09375 
L 40.625 64.84375 
Q 35.9375 65.234375 27.734375 65.234375 
Q 25.390625 54.6875 22.265625 45.3125 
L 38.671875 45.3125 
Q 38.28125 38.671875 38.28125 32.8125 
L 38.28125 16.40625 
Q 38.28125 10.15625 38.671875 1.953125 
L 32.03125 1.953125 
L 32.03125 9.375 
L 21.484375 9.375 
L 21.484375 -4.6875 
L 14.84375 -4.6875 
Q 15.234375 3.515625 15.234375 9.375 
L 15.234375 33.203125 
Q 12.890625 29.296875 10.15625 25 
z
M 70.3125 30.859375 
L 70.3125 20.3125 
L 83.203125 20.3125 
L 83.203125 30.859375 
z
M 78.515625 -10.546875 
Q 78.125 -6.640625 75.390625 -3.125 
Q 80.078125 -3.125 81.640625 -2.53125 
Q 83.203125 -1.953125 83.203125 1.953125 
L 83.203125 14.84375 
L 70.3125 14.84375 
L 70.3125 -6.25 
L 64.0625 -6.25 
L 64.0625 14.84375 
L 53.515625 14.84375 
Q 53.125 9.765625 50.78125 3.703125 
Q 48.4375 -2.34375 42.578125 -9.375 
Q 39.84375 -5.46875 35.546875 -4.6875 
Q 40.234375 -0.390625 42.765625 4.484375 
Q 45.3125 9.375 46.09375 15.625 
Q 46.875 21.875 47.0625 33.78125 
Q 47.265625 45.703125 46.875 53.125 
L 64.84375 53.125 
Q 68.359375 59.375 70.703125 65.234375 
L 55.46875 65.234375 
Q 52.34375 60.15625 44.921875 50.390625 
Q 41.796875 53.125 38.28125 54.296875 
Q 45.703125 61.71875 49.21875 68.15625 
Q 52.734375 74.609375 55.46875 82.03125 
Q 59.765625 80.078125 64.0625 78.90625 
Q 62.109375 77.734375 58.59375 70.703125 
L 81.25 70.703125 
Q 74.609375 58.59375 72.65625 53.125 
L 89.84375 53.125 
Q 89.453125 46.09375 89.453125 37.890625 
L 89.453125 -0.78125 
Q 89.84375 -5.46875 87.5 -7.21875 
Q 85.15625 -8.984375 78.515625 -10.546875 
z
M 53.515625 47.65625 
L 53.515625 36.328125 
L 64.0625 36.328125 
L 64.0625 47.65625 
z
M 53.515625 30.859375 
L 53.515625 20.3125 
L 64.0625 20.3125 
L 64.0625 30.859375 
z
M 70.3125 47.65625 
L 70.3125 36.328125 
L 83.203125 36.328125 
L 83.203125 47.65625 
z
" id="SimHei-30830"/>
      <path d="M 44.140625 79.6875 
Q 47.265625 80.46875 51.5625 81.640625 
Q 52.734375 77.734375 54.296875 72.265625 
L 73.046875 72.265625 
Q 83.203125 72.265625 91.40625 72.65625 
L 91.40625 65.625 
Q 83.203125 66.40625 72.65625 66.40625 
L 43.75 66.40625 
Q 46.484375 64.453125 51.171875 62.109375 
Q 47.65625 59.375 44.71875 56.046875 
Q 41.796875 52.734375 38.671875 49.21875 
L 50.78125 49.21875 
Q 55.078125 54.296875 58.59375 59.765625 
Q 61.71875 57.03125 66.015625 54.296875 
Q 60.9375 51.5625 55.46875 45.703125 
Q 50 39.84375 40.234375 31.640625 
L 58.59375 32.8125 
Q 56.640625 35.546875 54.6875 38.28125 
Q 57.03125 39.453125 60.15625 41.40625 
Q 63.28125 37.109375 70.3125 26.5625 
Q 67.578125 25.390625 64.0625 23.046875 
Q 62.890625 25 61.328125 28.125 
Q 57.03125 27.734375 52.734375 27.34375 
L 52.734375 15.625 
L 78.515625 15.625 
Q 86.328125 15.625 92.578125 16.015625 
L 92.578125 9.375 
Q 86.71875 9.765625 78.125 9.765625 
L 52.734375 9.765625 
L 52.734375 2.34375 
Q 52.734375 -4.6875 53.125 -10.15625 
L 45.3125 -10.15625 
Q 45.703125 -4.6875 45.703125 2.34375 
L 45.703125 9.765625 
L 21.875 9.765625 
Q 14.453125 9.765625 7.03125 8.984375 
L 7.03125 16.015625 
Q 14.453125 15.625 22.265625 15.625 
L 45.703125 15.625 
L 45.703125 26.5625 
Q 42.1875 26.171875 38.859375 25.578125 
Q 35.546875 25 32.421875 23.828125 
Q 31.25 28.125 29.6875 31.640625 
Q 32.8125 32.03125 36.515625 34.765625 
Q 40.234375 37.5 46.484375 44.53125 
Q 36.328125 43.359375 32.421875 41.796875 
Q 31.640625 45.703125 29.6875 50.390625 
Q 32.8125 50.390625 36.515625 55.265625 
Q 40.234375 60.15625 42.96875 66.40625 
L 25 66.40625 
Q 16.40625 66.40625 8.59375 65.625 
L 8.59375 72.65625 
Q 16.40625 72.265625 25 72.265625 
L 46.484375 72.265625 
Q 45.3125 76.5625 44.140625 79.6875 
z
M 12.890625 56.25 
Q 15.234375 58.59375 17.578125 61.328125 
Q 22.65625 57.03125 27.34375 52.34375 
Q 24.609375 49.21875 22.265625 46.875 
Q 17.96875 52.34375 12.890625 56.25 
z
M 9.765625 29.6875 
Q 14.0625 32.03125 18.359375 34.953125 
Q 22.65625 37.890625 26.171875 41.015625 
Q 27.734375 37.890625 29.296875 34.765625 
Q 25.390625 32.421875 21.671875 29.296875 
Q 17.96875 26.171875 14.84375 22.65625 
Q 12.5 26.171875 9.765625 29.6875 
z
M 80.859375 62.5 
Q 83.984375 58.59375 86.71875 55.859375 
Q 83.984375 55.078125 80.46875 51.953125 
Q 76.953125 48.828125 72.65625 45.3125 
Q 70.703125 48.046875 68.359375 50.390625 
Q 71.875 52.734375 74.609375 55.265625 
Q 77.34375 57.8125 80.859375 62.5 
z
M 69.921875 36.71875 
Q 72.265625 39.453125 74.21875 42.1875 
Q 78.125 39.453125 81.25 37.109375 
Q 84.375 34.765625 89.453125 30.859375 
Q 86.328125 28.515625 83.59375 25 
Q 80.859375 28.125 77.34375 31.25 
Q 73.828125 34.375 69.921875 36.71875 
z
" id="SimHei-29575"/>
     </defs>
     <g transform="translate(16.710938 158.28)rotate(-90)scale(0.1 -0.1)">
      <use xlink:href="#SimHei-20934"/>
      <use x="100" xlink:href="#SimHei-30830"/>
      <use x="200" xlink:href="#SimHei-29575"/>
     </g>
    </g>
   </g>
   <g id="line2d_15">
    <path clip-path="url(#pdc3f6ba2a2)" d="M 69.218182 242.116364 
L 373.581818 44.443636 
" style="fill:none;stroke:#0000ff;stroke-linecap:square;stroke-width:1.5;"/>
   </g>
   <g id="patch_3">
    <path d="M 54 252 
L 54 34.56 
" style="fill:none;stroke:#000000;stroke-linecap:square;stroke-linejoin:miter;stroke-width:0.8;"/>
   </g>
   <g id="patch_4">
    <path d="M 388.8 252 
L 388.8 34.56 
" style="fill:none;stroke:#000000;stroke-linecap:square;stroke-linejoin:miter;stroke-width:0.8;"/>
   </g>
   <g id="patch_5">
    <path d="M 54 252 
L 388.8 252 
" style="fill:none;stroke:#000000;stroke-linecap:square;stroke-linejoin:miter;stroke-width:0.8;"/>
   </g>
   <g id="patch_6">
    <path d="M 54 34.56 
L 388.8 34.56 
" style="fill:none;stroke:#000000;stroke-linecap:square;stroke-linejoin:miter;stroke-width:0.8;"/>
   </g>
   <g id="text_17">
    <!-- 准确率变化 -->
    <defs>
     <path d="M 44.140625 79.296875 
Q 48.828125 80.078125 53.515625 80.859375 
Q 54.6875 73.046875 55.078125 69.921875 
L 72.265625 69.921875 
Q 83.203125 69.921875 91.796875 70.3125 
L 91.796875 62.890625 
Q 82.8125 63.28125 72.265625 63.28125 
L 62.890625 63.28125 
L 62.890625 46.484375 
Q 62.890625 38.671875 63.28125 33.984375 
L 55.078125 33.984375 
Q 55.46875 38.671875 55.46875 46.484375 
L 55.46875 63.28125 
L 43.359375 63.28125 
L 43.359375 46.484375 
Q 43.359375 39.0625 43.75 33.984375 
L 35.546875 33.984375 
Q 35.9375 39.0625 35.9375 46.484375 
L 35.9375 63.28125 
L 27.734375 63.28125 
Q 16.796875 63.28125 8.59375 62.890625 
L 8.59375 70.3125 
Q 16.40625 69.921875 27.734375 69.921875 
L 46.484375 69.921875 
Q 45.703125 74.609375 44.140625 79.296875 
z
M 21.484375 57.8125 
Q 25 55.078125 29.6875 52.734375 
Q 27.34375 50.78125 23.234375 45.3125 
Q 19.140625 39.84375 14.453125 33.984375 
Q 10.546875 36.71875 7.421875 38.671875 
Q 16.015625 46.875 21.484375 57.8125 
z
M 69.53125 51.953125 
Q 73.046875 54.6875 75.78125 57.421875 
Q 83.59375 50 92.1875 40.625 
Q 88.671875 38.28125 85.15625 35.15625 
Q 78.90625 42.96875 69.53125 51.953125 
z
M 17.578125 28.515625 
Q 24.609375 28.125 33.984375 28.125 
L 79.6875 28.125 
Q 74.609375 20.3125 69.53125 14.0625 
Q 64.453125 7.8125 58.59375 3.515625 
Q 67.578125 0.78125 74.40625 -0.1875 
Q 81.25 -1.171875 92.1875 -0.78125 
Q 89.0625 -4.296875 87.890625 -9.765625 
Q 75 -8.203125 66.015625 -5.859375 
Q 57.03125 -3.515625 51.171875 -1.171875 
Q 41.40625 -5.078125 32.8125 -6.828125 
Q 24.21875 -8.59375 12.109375 -10.15625 
Q 10.546875 -5.859375 7.8125 -1.953125 
Q 17.96875 -1.953125 26.359375 -0.78125 
Q 34.765625 0.390625 44.140625 3.125 
Q 36.328125 7.421875 27.34375 21.484375 
L 35.9375 21.484375 
Q 42.1875 11.71875 51.5625 7.03125 
Q 59.375 11.71875 66.40625 21.484375 
L 33.59375 21.484375 
Q 23.828125 21.484375 17.578125 21.09375 
z
" id="SimHei-21464"/>
     <path d="M 52.34375 79.296875 
L 60.9375 79.296875 
Q 60.15625 74.21875 60.15625 66.40625 
L 60.15625 37.890625 
Q 66.796875 43.75 71.875 50.96875 
Q 76.953125 58.203125 80.46875 65.234375 
Q 83.59375 62.890625 89.84375 60.15625 
Q 87.109375 57.8125 83.984375 53.90625 
Q 80.859375 50 77.34375 45.5 
Q 73.828125 41.015625 69.53125 36.515625 
Q 65.234375 32.03125 60.15625 28.125 
L 60.15625 6.25 
Q 60.15625 0.78125 65.234375 0.78125 
L 79.296875 0.78125 
Q 82.8125 1.171875 83.390625 4.09375 
Q 83.984375 7.03125 84.375 12.890625 
Q 88.28125 9.765625 93.75 8.984375 
Q 91.40625 -1.5625 88.859375 -3.90625 
Q 86.328125 -6.25 81.640625 -6.25 
L 60.9375 -6.25 
Q 52.734375 -6.25 52.734375 0.78125 
L 52.734375 23.4375 
Q 49.21875 21.09375 46.09375 19.140625 
Q 42.96875 17.1875 38.28125 14.0625 
Q 35.9375 18.359375 33.59375 21.09375 
Q 38.28125 23.046875 43.546875 25.96875 
Q 48.828125 28.90625 52.734375 32.421875 
L 52.734375 67.578125 
Q 52.734375 74.609375 52.34375 79.296875 
z
M 28.515625 80.859375 
Q 32.03125 78.515625 38.28125 76.5625 
Q 35.15625 72.265625 33.59375 68.15625 
Q 32.03125 64.0625 29.6875 58.59375 
L 29.6875 10.15625 
Q 29.6875 -1.953125 30.078125 -8.203125 
L 21.484375 -8.203125 
Q 22.265625 -2.34375 22.265625 9.765625 
L 22.265625 46.875 
Q 19.53125 42.1875 17.1875 39.0625 
Q 14.84375 35.9375 12.890625 33.59375 
Q 10.15625 36.71875 6.640625 39.453125 
Q 11.71875 44.53125 15.421875 50 
Q 19.140625 55.46875 21.484375 60.734375 
Q 23.828125 66.015625 25.578125 71.09375 
Q 27.34375 76.171875 28.515625 80.859375 
z
" id="SimHei-21270"/>
    </defs>
    <g transform="translate(191.4 28.56)scale(0.12 -0.12)">
     <use xlink:href="#SimHei-20934"/>
     <use x="100" xlink:href="#SimHei-30830"/>
     <use x="200" xlink:href="#SimHei-29575"/>
     <use x="300" xlink:href="#SimHei-21464"/>
     <use x="400" xlink:href="#SimHei-21270"/>
    </g>
   </g>
   <g id="legend_1">
    <g id="patch_7">
     <path d="M 61 56.817813 
L 123 56.817813 
Q 125 56.817813 125 54.817813 
L 125 41.56 
Q 125 39.56 123 39.56 
L 61 39.56 
Q 59 39.56 59 41.56 
L 59 54.817813 
Q 59 56.817813 61 56.817813 
z
" style="fill:#ffffff;opacity:0.8;stroke:#cccccc;stroke-linejoin:miter;"/>
    </g>
    <g id="line2d_16">
     <path d="M 63 48.02875 
L 83 48.02875 
" style="fill:none;stroke:#0000ff;stroke-linecap:square;stroke-width:1.5;"/>
    </g>
    <g id="line2d_17"/>
    <g id="text_18">
     <!-- 准确率 -->
     <g transform="translate(91 51.52875)scale(0.1 -0.1)">
      <use xlink:href="#SimHei-20934"/>
      <use x="100" xlink:href="#SimHei-30830"/>
      <use x="200" xlink:href="#SimHei-29575"/>
     </g>
    </g>
   </g>
  </g>
 </g>
 <defs>
  <clipPath id="pdc3f6ba2a2">
   <rect height="217.44" width="334.8" x="54" y="34.56"/>
  </clipPath>
 </defs>
</svg>
