<?xml version="1.0" encoding="utf-8" standalone="no"?>
<!DOCTYPE svg PUBLIC "-//W3C//DTD SVG 1.1//EN"
  "http://www.w3.org/Graphics/SVG/1.1/DTD/svg11.dtd">
<!-- Created with matplotlib (http://matplotlib.org/) -->
<svg height="288pt" version="1.1" viewBox="0 0 432 288" width="432pt" xmlns="http://www.w3.org/2000/svg" xmlns:xlink="http://www.w3.org/1999/xlink">
 <defs>
  <style type="text/css">
*{stroke-linecap:butt;stroke-linejoin:round;}
  </style>
 </defs>
 <g id="figure_1">
  <g id="patch_1">
   <path d="M 0 288 
L 432 288 
L 432 0 
L 0 0 
z
" style="fill:#ffffff;"/>
  </g>
  <g id="axes_1">
   <g id="patch_2">
    <path d="M 54 252 
L 388.8 252 
L 388.8 34.56 
L 54 34.56 
z
" style="fill:#ffffff;"/>
   </g>
   <g id="matplotlib.axis_1">
    <g id="xtick_1">
     <g id="line2d_1">
      <defs>
       <path d="M 0 0 
L 0 3.5 
" id="m1f46fe8af6" style="stroke:#000000;stroke-width:0.8;"/>
      </defs>
      <g>
       <use style="stroke:#000000;stroke-width:0.8;" x="69.218182" xlink:href="#m1f46fe8af6" y="252"/>
      </g>
     </g>
     <g id="text_1">
      <!-- 0 -->
      <defs>
       <path d="M 46.484375 35.15625 
Q 46.484375 21.09375 41.40625 10.9375 
Q 36.328125 0.78125 25 0.78125 
Q 13.671875 0.78125 8.390625 10.9375 
Q 3.125 21.09375 3.125 35.15625 
Q 3.125 49.21875 8.390625 59.171875 
Q 13.671875 69.140625 25 69.140625 
Q 36.328125 69.140625 41.40625 59.171875 
Q 46.484375 49.21875 46.484375 35.15625 
z
M 37.109375 35.15625 
Q 37.109375 47.65625 34.171875 54.6875 
Q 31.25 61.71875 25 61.71875 
Q 18.75 61.71875 15.625 54.6875 
Q 12.5 47.65625 12.5 35.15625 
Q 12.5 22.65625 15.625 15.421875 
Q 18.75 8.203125 25 8.203125 
Q 31.25 8.203125 34.171875 15.421875 
Q 37.109375 22.65625 37.109375 35.15625 
z
" id="SimHei-30"/>
      </defs>
      <g transform="translate(66.718182 265.835938)scale(0.1 -0.1)">
       <use xlink:href="#SimHei-30"/>
      </g>
     </g>
    </g>
    <g id="xtick_2">
     <g id="line2d_2">
      <g>
       <use style="stroke:#000000;stroke-width:0.8;" x="112.823287" xlink:href="#m1f46fe8af6" y="252"/>
      </g>
     </g>
     <g id="text_2">
      <!-- 50 -->
      <defs>
       <path d="M 44.140625 25.78125 
Q 44.140625 14.0625 38.46875 7.421875 
Q 32.8125 0.78125 23.4375 0.78125 
Q 15.234375 0.78125 9.953125 6.25 
Q 4.6875 11.71875 4.296875 21.09375 
L 13.28125 21.09375 
Q 13.28125 15.234375 16.015625 11.71875 
Q 18.75 8.203125 23.828125 8.203125 
Q 28.90625 8.203125 31.828125 12.5 
Q 34.765625 16.796875 34.765625 25.78125 
Q 34.765625 33.59375 32.21875 37.296875 
Q 29.6875 41.015625 25.390625 41.015625 
Q 21.875 41.015625 19.328125 39.453125 
Q 16.796875 37.890625 14.453125 33.984375 
L 6.640625 33.984375 
L 8.984375 68.359375 
L 42.578125 68.359375 
L 42.578125 60.9375 
L 16.40625 60.9375 
L 14.84375 42.96875 
Q 17.1875 45.3125 19.921875 46.484375 
Q 22.65625 47.65625 27.34375 47.65625 
Q 34.765625 47.65625 39.453125 41.984375 
Q 44.140625 36.328125 44.140625 25.78125 
z
" id="SimHei-35"/>
      </defs>
      <g transform="translate(107.823287 265.835938)scale(0.1 -0.1)">
       <use xlink:href="#SimHei-35"/>
       <use x="50" xlink:href="#SimHei-30"/>
      </g>
     </g>
    </g>
    <g id="xtick_3">
     <g id="line2d_3">
      <g>
       <use style="stroke:#000000;stroke-width:0.8;" x="156.428393" xlink:href="#m1f46fe8af6" y="252"/>
      </g>
     </g>
     <g id="text_3">
      <!-- 100 -->
      <defs>
       <path d="M 30.46875 1.5625 
L 21.484375 1.5625 
L 21.484375 53.515625 
L 9.765625 53.515625 
L 9.765625 58.203125 
Q 16.796875 58.203125 20.703125 60.9375 
Q 24.609375 63.671875 25.78125 69.140625 
L 30.46875 69.140625 
z
" id="SimHei-31"/>
      </defs>
      <g transform="translate(148.928393 265.835938)scale(0.1 -0.1)">
       <use xlink:href="#SimHei-31"/>
       <use x="50" xlink:href="#SimHei-30"/>
       <use x="100" xlink:href="#SimHei-30"/>
      </g>
     </g>
    </g>
    <g id="xtick_4">
     <g id="line2d_4">
      <g>
       <use style="stroke:#000000;stroke-width:0.8;" x="200.033498" xlink:href="#m1f46fe8af6" y="252"/>
      </g>
     </g>
     <g id="text_4">
      <!-- 150 -->
      <g transform="translate(192.533498 265.835938)scale(0.1 -0.1)">
       <use xlink:href="#SimHei-31"/>
       <use x="50" xlink:href="#SimHei-35"/>
       <use x="100" xlink:href="#SimHei-30"/>
      </g>
     </g>
    </g>
    <g id="xtick_5">
     <g id="line2d_5">
      <g>
       <use style="stroke:#000000;stroke-width:0.8;" x="243.638604" xlink:href="#m1f46fe8af6" y="252"/>
      </g>
     </g>
     <g id="text_5">
      <!-- 200 -->
      <defs>
       <path d="M 44.53125 1.5625 
L 4.6875 1.5625 
L 4.6875 7.8125 
Q 7.03125 14.0625 11.125 19.328125 
Q 15.234375 24.609375 23.046875 31.25 
Q 28.90625 36.328125 31.4375 40.625 
Q 33.984375 44.921875 33.984375 50 
Q 33.984375 55.078125 31.828125 58.390625 
Q 29.6875 61.71875 25 61.71875 
Q 21.09375 61.71875 18.15625 58.203125 
Q 15.234375 54.6875 15.234375 45.703125 
L 6.25 45.703125 
Q 6.640625 57.03125 11.515625 63.078125 
Q 16.40625 69.140625 25.390625 69.140625 
Q 33.984375 69.140625 38.671875 63.859375 
Q 43.359375 58.59375 43.359375 49.609375 
Q 43.359375 42.1875 39.0625 36.71875 
Q 34.765625 31.25 28.515625 25.78125 
Q 21.484375 19.53125 18.75 16.40625 
Q 16.015625 13.28125 13.671875 8.984375 
L 44.53125 8.984375 
z
" id="SimHei-32"/>
      </defs>
      <g transform="translate(236.138604 265.835938)scale(0.1 -0.1)">
       <use xlink:href="#SimHei-32"/>
       <use x="50" xlink:href="#SimHei-30"/>
       <use x="100" xlink:href="#SimHei-30"/>
      </g>
     </g>
    </g>
    <g id="xtick_6">
     <g id="line2d_6">
      <g>
       <use style="stroke:#000000;stroke-width:0.8;" x="287.243709" xlink:href="#m1f46fe8af6" y="252"/>
      </g>
     </g>
     <g id="text_6">
      <!-- 250 -->
      <g transform="translate(279.743709 265.835938)scale(0.1 -0.1)">
       <use xlink:href="#SimHei-32"/>
       <use x="50" xlink:href="#SimHei-35"/>
       <use x="100" xlink:href="#SimHei-30"/>
      </g>
     </g>
    </g>
    <g id="xtick_7">
     <g id="line2d_7">
      <g>
       <use style="stroke:#000000;stroke-width:0.8;" x="330.848815" xlink:href="#m1f46fe8af6" y="252"/>
      </g>
     </g>
     <g id="text_7">
      <!-- 300 -->
      <defs>
       <path d="M 44.140625 20.3125 
Q 44.140625 11.328125 38.46875 6.046875 
Q 32.8125 0.78125 24.21875 0.78125 
Q 15.625 0.78125 9.953125 6.046875 
Q 4.296875 11.328125 4.296875 22.265625 
L 13.28125 22.265625 
Q 13.28125 14.84375 16.203125 11.515625 
Q 19.140625 8.203125 24.21875 8.203125 
Q 29.296875 8.203125 32.03125 11.328125 
Q 34.765625 14.453125 34.765625 21.09375 
Q 34.765625 26.5625 31.828125 29.6875 
Q 28.90625 32.8125 21.484375 32.8125 
L 21.484375 39.453125 
Q 27.734375 39.453125 30.65625 42.578125 
Q 33.59375 45.703125 33.59375 51.953125 
Q 33.59375 56.640625 31.4375 59.375 
Q 29.296875 62.109375 24.609375 62.109375 
Q 19.921875 62.109375 17.375 58.78125 
Q 14.84375 55.46875 14.453125 49.21875 
L 5.859375 49.21875 
Q 6.640625 58.203125 11.515625 63.671875 
Q 16.40625 69.140625 24.609375 69.140625 
Q 33.203125 69.140625 37.890625 64.25 
Q 42.578125 59.375 42.578125 52.34375 
Q 42.578125 45.703125 40.234375 41.984375 
Q 37.890625 38.28125 32.421875 36.328125 
Q 37.890625 35.15625 41.015625 30.859375 
Q 44.140625 26.5625 44.140625 20.3125 
z
" id="SimHei-33"/>
      </defs>
      <g transform="translate(323.348815 265.835938)scale(0.1 -0.1)">
       <use xlink:href="#SimHei-33"/>
       <use x="50" xlink:href="#SimHei-30"/>
       <use x="100" xlink:href="#SimHei-30"/>
      </g>
     </g>
    </g>
    <g id="xtick_8">
     <g id="line2d_8">
      <g>
       <use style="stroke:#000000;stroke-width:0.8;" x="374.45392" xlink:href="#m1f46fe8af6" y="252"/>
      </g>
     </g>
     <g id="text_8">
      <!-- 350 -->
      <g transform="translate(366.95392 265.835938)scale(0.1 -0.1)">
       <use xlink:href="#SimHei-33"/>
       <use x="50" xlink:href="#SimHei-35"/>
       <use x="100" xlink:href="#SimHei-30"/>
      </g>
     </g>
    </g>
    <g id="text_9">
     <!-- 迭代次数 -->
     <defs>
      <path d="M 81.640625 4.296875 
Q 74.21875 14.84375 61.328125 28.125 
Q 56.640625 19.921875 51.75 15.03125 
Q 46.875 10.15625 39.84375 4.296875 
Q 37.890625 6.25 32.03125 10.546875 
Q 40.625 14.84375 47.0625 21.671875 
Q 53.515625 28.515625 56.25 37.5 
Q 36.71875 37.5 30.46875 37.109375 
L 30.46875 44.140625 
Q 37.109375 43.75 57.421875 43.75 
Q 58.203125 49.609375 58.59375 57.8125 
L 42.578125 57.8125 
Q 40.625 53.125 39.0625 48.828125 
Q 34.765625 50.390625 30.46875 51.171875 
Q 33.203125 55.859375 35.546875 62.5 
Q 37.890625 69.140625 39.84375 78.90625 
Q 43.75 77.34375 49.609375 76.171875 
Q 46.875 72.265625 44.921875 64.0625 
L 58.59375 64.0625 
Q 58.59375 74.21875 57.8125 80.078125 
Q 62.5 79.296875 66.796875 79.6875 
Q 66.015625 75 65.625 64.0625 
L 76.953125 64.0625 
Q 80.46875 64.0625 86.71875 64.453125 
L 86.71875 57.03125 
Q 80.46875 57.8125 75.78125 57.8125 
L 66.015625 57.8125 
Q 65.625 49.609375 64.84375 43.75 
L 80.078125 43.75 
Q 85.15625 43.75 92.1875 44.140625 
L 92.1875 37.109375 
Q 85.15625 37.5 78.90625 37.5 
L 64.453125 37.5 
L 64.0625 35.15625 
Q 72.265625 26.953125 89.0625 10.9375 
Q 87.109375 9.765625 81.640625 4.296875 
z
M 11.328125 74.21875 
Q 15.234375 75.78125 19.921875 76.5625 
Q 23.828125 64.84375 26.171875 58.984375 
Q 21.875 58.59375 17.1875 57.03125 
Q 16.015625 60.546875 11.328125 74.21875 
z
M 6.25 45.3125 
Q 12.890625 44.921875 17.578125 44.921875 
L 25 44.921875 
Q 24.609375 37.890625 24.609375 30.859375 
L 24.609375 8.59375 
Q 34.375 0 57.8125 0 
Q 81.25 0 94.53125 1.953125 
Q 92.1875 -3.515625 91.40625 -7.421875 
Q 65.234375 -7.421875 55.65625 -7.21875 
Q 46.09375 -7.03125 38.859375 -5.65625 
Q 31.640625 -4.296875 26.75 -0.78125 
Q 21.875 2.734375 18.75 -0.390625 
Q 15.625 -3.515625 11.71875 -8.984375 
Q 8.203125 -5.078125 4.296875 -2.734375 
Q 12.890625 4.6875 17.578125 7.421875 
L 17.578125 38.671875 
Q 12.5 38.671875 6.25 38.28125 
z
" id="SimHei-8fed"/>
      <path d="M 31.640625 42.1875 
Q 37.890625 42.96875 51.5625 45.703125 
Q 49.609375 70.703125 49.21875 78.90625 
Q 51.5625 78.515625 59.375 77.734375 
Q 57.8125 72.65625 59.375 47.265625 
Q 78.125 50.78125 88.28125 53.90625 
L 90.234375 46.484375 
Q 85.9375 46.09375 60.15625 40.625 
Q 64.84375 16.015625 73.625 7.21875 
Q 82.421875 -1.5625 83.78125 3.3125 
Q 85.15625 8.203125 85.9375 11.71875 
Q 91.796875 7.421875 94.921875 6.640625 
Q 92.1875 -1.953125 89.640625 -6.25 
Q 87.109375 -10.546875 80.65625 -8.984375 
Q 74.21875 -7.421875 65.03125 4.6875 
Q 55.859375 16.796875 52.34375 39.0625 
Q 37.5 35.9375 33.984375 34.375 
z
M 66.796875 70.703125 
Q 69.921875 72.65625 73.828125 75.390625 
Q 75.390625 73.4375 78.3125 69.328125 
Q 81.25 65.234375 83.203125 62.5 
Q 79.296875 60.15625 75.78125 57.8125 
Q 71.875 63.28125 66.796875 70.703125 
z
M 25.78125 80.46875 
Q 32.03125 77.734375 35.9375 76.5625 
Q 32.8125 73.046875 26.5625 56.25 
L 26.5625 7.421875 
Q 26.5625 -0.78125 26.953125 -9.375 
L 18.75 -9.375 
Q 19.140625 -0.78125 19.140625 7.421875 
L 19.140625 42.578125 
Q 13.28125 33.203125 9.765625 28.125 
Q 6.640625 31.25 3.125 34.375 
Q 8.203125 38.671875 15.421875 52.140625 
Q 22.65625 65.625 25.78125 80.46875 
z
" id="SimHei-4ee3"/>
      <path d="M 8.203125 67.1875 
Q 11.328125 69.140625 15.625 71.09375 
Q 17.96875 67.1875 21.09375 61.71875 
Q 24.21875 56.25 27.34375 50.78125 
Q 23.046875 48.828125 19.53125 46.484375 
Q 17.1875 51.171875 14.640625 56.640625 
Q 12.109375 62.109375 8.203125 67.1875 
z
M 23.046875 34.765625 
Q 25.78125 32.421875 30.46875 30.078125 
Q 28.125 26.5625 23.625 17.96875 
Q 19.140625 9.375 14.0625 -0.78125 
Q 10.546875 1.953125 6.25 4.6875 
Q 12.109375 10.9375 16.203125 19.328125 
Q 20.3125 27.734375 23.046875 34.765625 
z
M 46.875 79.296875 
Q 51.171875 77.734375 57.03125 75.390625 
Q 54.6875 73.828125 52.921875 69.53125 
Q 51.171875 65.234375 49.21875 60.9375 
L 90.625 60.9375 
Q 89.453125 57.8125 87.5 52.140625 
Q 85.546875 46.484375 83.203125 38.28125 
Q 78.90625 39.453125 74.609375 40.234375 
Q 76.171875 43.75 77.34375 47.265625 
Q 78.515625 50.78125 79.6875 54.6875 
L 46.484375 54.6875 
Q 44.53125 51.5625 42.375 46.875 
Q 40.234375 42.1875 37.5 37.5 
Q 34.765625 39.84375 30.46875 41.40625 
Q 33.203125 44.921875 35.734375 49.609375 
Q 38.28125 54.296875 40.421875 59.375 
Q 42.578125 64.453125 44.140625 69.53125 
Q 45.703125 74.609375 46.875 79.296875 
z
M 54.6875 47.65625 
Q 59.375 47.265625 64.0625 46.484375 
Q 62.890625 42.578125 62.6875 35.15625 
Q 62.5 27.734375 65.8125 21.484375 
Q 69.140625 15.234375 73.828125 10.9375 
Q 78.515625 6.640625 83.984375 4.09375 
Q 89.453125 1.5625 93.75 0.390625 
Q 91.40625 -1.171875 90.234375 -3.3125 
Q 89.0625 -5.46875 87.890625 -8.59375 
Q 79.296875 -3.90625 74.21875 0.1875 
Q 69.140625 4.296875 66.203125 8.203125 
Q 63.28125 12.109375 61.71875 15.8125 
Q 60.15625 19.53125 58.984375 23.046875 
Q 57.03125 17.1875 54.875 12.6875 
Q 52.734375 8.203125 49.40625 4.6875 
Q 46.09375 1.171875 41.796875 -2.140625 
Q 37.5 -5.46875 31.640625 -9.375 
Q 28.90625 -5.078125 25 -2.34375 
Q 34.765625 1.171875 40.625 6.4375 
Q 46.484375 11.71875 49.609375 17.1875 
Q 52.734375 22.65625 53.703125 27.921875 
Q 54.6875 33.203125 54.875 36.90625 
Q 55.078125 40.625 54.6875 47.65625 
z
" id="SimHei-6b21"/>
      <path d="M 10.9375 75.78125 
Q 14.84375 76.953125 17.1875 78.515625 
Q 20.3125 73.4375 23.046875 68.359375 
Q 19.53125 66.796875 16.796875 65.234375 
Q 14.453125 71.09375 10.9375 75.78125 
z
M 44.921875 78.515625 
Q 49.21875 76.5625 53.125 75 
Q 50.78125 73.4375 49.21875 70.703125 
Q 47.65625 67.96875 45.703125 64.453125 
Q 42.578125 66.015625 39.453125 66.796875 
Q 42.578125 71.875 44.921875 78.515625 
z
M 38.28125 49.609375 
Q 41.796875 51.171875 44.140625 53.515625 
Q 48.828125 46.875 51.953125 41.40625 
Q 48.4375 39.84375 45.3125 37.5 
Q 42.1875 44.921875 38.28125 49.609375 
z
M 8.203125 61.71875 
Q 14.453125 61.328125 28.125 61.328125 
Q 28.125 72.65625 27.734375 80.859375 
L 35.546875 80.859375 
Q 35.15625 72.65625 35.15625 61.328125 
Q 48.046875 61.328125 53.90625 61.71875 
L 53.90625 54.6875 
Q 48.046875 55.078125 35.15625 55.078125 
Q 35.15625 46.09375 35.546875 39.453125 
L 27.734375 39.453125 
Q 28.125 45.3125 28.125 51.953125 
Q 26.171875 48.046875 21.671875 43.546875 
Q 17.1875 39.0625 11.71875 35.9375 
Q 10.15625 39.453125 6.640625 41.796875 
Q 10.15625 42.96875 15.421875 46.875 
Q 20.703125 50.78125 23.046875 55.078125 
Q 14.84375 55.078125 8.203125 54.6875 
z
M 26.953125 24.21875 
Q 25 20.3125 22.65625 16.40625 
Q 27.34375 15.234375 35.15625 13.28125 
Q 37.890625 16.796875 40.234375 24.21875 
z
M 24.21875 38.28125 
Q 28.515625 36.71875 32.8125 35.546875 
Q 31.25 33.984375 29.296875 30.46875 
L 44.53125 30.46875 
L 48.828125 30.46875 
Q 46.484375 20.3125 42.1875 11.328125 
Q 48.828125 9.375 52.734375 8.203125 
Q 49.609375 3.90625 48.046875 0.390625 
Q 44.53125 2.734375 37.5 5.46875 
Q 28.125 -3.90625 9.375 -10.15625 
Q 7.8125 -6.25 4.6875 -3.90625 
Q 21.484375 0 31.25 8.203125 
Q 20.3125 10.9375 13.28125 12.890625 
Q 15.625 16.015625 19.53125 24.21875 
Q 13.28125 24.21875 4.6875 23.828125 
L 4.6875 30.859375 
Q 12.109375 30.46875 21.875 30.46875 
Q 23.046875 33.59375 24.21875 38.28125 
z
M 63.671875 80.46875 
Q 68.359375 78.515625 73.4375 77.734375 
Q 71.484375 75.390625 70.5 72.265625 
Q 69.53125 69.140625 67.96875 63.28125 
L 85.546875 63.28125 
Q 89.0625 63.28125 94.53125 63.671875 
L 94.53125 56.640625 
Q 90.234375 57.03125 87.5 57.03125 
Q 87.109375 48.828125 85.546875 35.34375 
Q 83.984375 21.875 78.125 11.71875 
Q 82.03125 6.25 87.109375 2.734375 
Q 92.1875 -0.78125 96.09375 -2.34375 
Q 90.625 -5.859375 89.0625 -9.375 
Q 82.421875 -4.6875 79.296875 -1.359375 
Q 76.171875 1.953125 73.4375 5.859375 
Q 68.75 1.171875 64.640625 -1.953125 
Q 60.546875 -5.078125 51.5625 -10.15625 
Q 49.609375 -6.640625 45.3125 -3.90625 
Q 52.734375 -1.171875 58.984375 3.125 
Q 65.234375 7.421875 69.53125 12.109375 
Q 65.234375 20.703125 62.890625 29.09375 
Q 60.546875 37.5 60.15625 41.015625 
Q 59.375 38.28125 58.203125 34.765625 
Q 54.6875 36.328125 50.390625 37.890625 
Q 55.078125 46.484375 58.984375 58.59375 
Q 62.890625 70.703125 63.671875 80.46875 
z
M 66.40625 57.03125 
Q 64.84375 53.125 64.0625 50.578125 
Q 63.28125 48.046875 66.984375 36.71875 
Q 70.703125 25.390625 74.21875 19.140625 
Q 77.734375 28.515625 79.09375 38.671875 
Q 80.46875 48.828125 80.46875 57.03125 
z
" id="SimHei-6570"/>
     </defs>
     <g transform="translate(201.4 278.976562)scale(0.1 -0.1)">
      <use xlink:href="#SimHei-8fed"/>
      <use x="100" xlink:href="#SimHei-4ee3"/>
      <use x="200" xlink:href="#SimHei-6b21"/>
      <use x="300" xlink:href="#SimHei-6570"/>
     </g>
    </g>
   </g>
   <g id="matplotlib.axis_2">
    <g id="ytick_1">
     <g id="line2d_9">
      <defs>
       <path d="M 0 0 
L -3.5 0 
" id="ma9855bb28d" style="stroke:#000000;stroke-width:0.8;"/>
      </defs>
      <g>
       <use style="stroke:#000000;stroke-width:0.8;" x="54" xlink:href="#ma9855bb28d" y="248.622589"/>
      </g>
     </g>
     <g id="text_10">
      <!-- 0.0 -->
      <defs>
       <path d="M 17.1875 1.5625 
L 8.203125 1.5625 
L 8.203125 10.15625 
L 17.1875 10.15625 
z
" id="SimHei-2e"/>
      </defs>
      <g transform="translate(32 252.040558)scale(0.1 -0.1)">
       <use xlink:href="#SimHei-30"/>
       <use x="50" xlink:href="#SimHei-2e"/>
       <use x="100" xlink:href="#SimHei-30"/>
      </g>
     </g>
    </g>
    <g id="ytick_2">
     <g id="line2d_10">
      <g>
       <use style="stroke:#000000;stroke-width:0.8;" x="54" xlink:href="#ma9855bb28d" y="211.242987"/>
      </g>
     </g>
     <g id="text_11">
      <!-- 0.2 -->
      <g transform="translate(32 214.660956)scale(0.1 -0.1)">
       <use xlink:href="#SimHei-30"/>
       <use x="50" xlink:href="#SimHei-2e"/>
       <use x="100" xlink:href="#SimHei-32"/>
      </g>
     </g>
    </g>
    <g id="ytick_3">
     <g id="line2d_11">
      <g>
       <use style="stroke:#000000;stroke-width:0.8;" x="54" xlink:href="#ma9855bb28d" y="173.863385"/>
      </g>
     </g>
     <g id="text_12">
      <!-- 0.4 -->
      <defs>
       <path d="M 46.484375 18.75 
L 38.28125 18.75 
L 38.28125 1.5625 
L 29.296875 1.5625 
L 29.296875 18.75 
L 3.125 18.75 
L 3.125 26.171875 
L 29.296875 69.140625 
L 38.28125 69.140625 
L 38.28125 26.171875 
L 46.484375 26.171875 
z
M 29.296875 26.171875 
L 29.296875 55.078125 
L 11.71875 26.171875 
z
" id="SimHei-34"/>
      </defs>
      <g transform="translate(32 177.281354)scale(0.1 -0.1)">
       <use xlink:href="#SimHei-30"/>
       <use x="50" xlink:href="#SimHei-2e"/>
       <use x="100" xlink:href="#SimHei-34"/>
      </g>
     </g>
    </g>
    <g id="ytick_4">
     <g id="line2d_12">
      <g>
       <use style="stroke:#000000;stroke-width:0.8;" x="54" xlink:href="#ma9855bb28d" y="136.483783"/>
      </g>
     </g>
     <g id="text_13">
      <!-- 0.6 -->
      <defs>
       <path d="M 44.53125 24.21875 
Q 44.53125 13.28125 39.84375 7.03125 
Q 35.15625 0.78125 25.78125 0.78125 
Q 16.40625 0.78125 10.9375 8.59375 
Q 5.46875 16.40625 5.46875 33.984375 
Q 5.46875 50 11.125 59.5625 
Q 16.796875 69.140625 27.34375 69.140625 
Q 34.765625 69.140625 39.25 63.671875 
Q 43.75 58.203125 43.75 51.5625 
L 34.765625 51.5625 
Q 34.765625 55.46875 32.609375 58.59375 
Q 30.46875 61.71875 26.953125 61.71875 
Q 21.09375 61.71875 17.96875 55.65625 
Q 14.84375 49.609375 14.453125 37.109375 
Q 17.1875 42.1875 20.3125 44.140625 
Q 23.4375 46.09375 27.734375 46.09375 
Q 35.15625 46.09375 39.84375 40.234375 
Q 44.53125 34.375 44.53125 24.21875 
z
M 35.15625 24.21875 
Q 35.15625 31.25 32.8125 35.15625 
Q 30.46875 39.0625 26.171875 39.0625 
Q 21.09375 39.0625 18.15625 35.15625 
Q 15.234375 31.25 15.234375 25.78125 
Q 15.234375 17.1875 18.15625 12.5 
Q 21.09375 7.8125 26.171875 7.8125 
Q 29.6875 7.8125 32.421875 11.328125 
Q 35.15625 14.84375 35.15625 24.21875 
z
" id="SimHei-36"/>
      </defs>
      <g transform="translate(32 139.901751)scale(0.1 -0.1)">
       <use xlink:href="#SimHei-30"/>
       <use x="50" xlink:href="#SimHei-2e"/>
       <use x="100" xlink:href="#SimHei-36"/>
      </g>
     </g>
    </g>
    <g id="ytick_5">
     <g id="line2d_13">
      <g>
       <use style="stroke:#000000;stroke-width:0.8;" x="54" xlink:href="#ma9855bb28d" y="99.104181"/>
      </g>
     </g>
     <g id="text_14">
      <!-- 0.8 -->
      <defs>
       <path d="M 44.921875 20.703125 
Q 44.921875 10.9375 39.453125 5.859375 
Q 33.984375 0.78125 24.609375 0.78125 
Q 15.234375 0.78125 9.765625 5.859375 
Q 4.296875 10.9375 4.296875 20.703125 
Q 4.296875 25.78125 7.421875 29.875 
Q 10.546875 33.984375 16.015625 35.9375 
Q 11.328125 37.890625 8.78125 41.40625 
Q 6.25 44.921875 6.25 50.390625 
Q 6.25 58.984375 11.71875 64.0625 
Q 17.1875 69.140625 24.609375 69.140625 
Q 32.03125 69.140625 37.5 64.0625 
Q 42.96875 58.984375 42.96875 50.390625 
Q 42.96875 44.921875 40.421875 41.40625 
Q 37.890625 37.890625 33.203125 35.9375 
Q 38.671875 33.984375 41.796875 29.875 
Q 44.921875 25.78125 44.921875 20.703125 
z
M 34.375 50.390625 
Q 34.375 56.640625 31.640625 59.375 
Q 28.90625 62.109375 24.609375 62.109375 
Q 20.3125 62.109375 17.578125 59.375 
Q 14.84375 56.640625 14.84375 50.390625 
Q 14.84375 44.140625 17.765625 41.59375 
Q 20.703125 39.0625 24.609375 39.0625 
Q 28.515625 39.0625 31.4375 41.59375 
Q 34.375 44.140625 34.375 50.390625 
z
M 35.9375 20.703125 
Q 35.9375 26.171875 33 29.296875 
Q 30.078125 32.421875 24.609375 32.421875 
Q 19.140625 32.421875 16.203125 29.296875 
Q 13.28125 26.171875 13.28125 20.703125 
Q 13.28125 14.453125 16.40625 11.125 
Q 19.53125 7.8125 24.609375 7.8125 
Q 29.6875 7.8125 32.8125 11.125 
Q 35.9375 14.453125 35.9375 20.703125 
z
" id="SimHei-38"/>
      </defs>
      <g transform="translate(32 102.522149)scale(0.1 -0.1)">
       <use xlink:href="#SimHei-30"/>
       <use x="50" xlink:href="#SimHei-2e"/>
       <use x="100" xlink:href="#SimHei-38"/>
      </g>
     </g>
    </g>
    <g id="ytick_6">
     <g id="line2d_14">
      <g>
       <use style="stroke:#000000;stroke-width:0.8;" x="54" xlink:href="#ma9855bb28d" y="61.724579"/>
      </g>
     </g>
     <g id="text_15">
      <!-- 1.0 -->
      <g transform="translate(32 65.142547)scale(0.1 -0.1)">
       <use xlink:href="#SimHei-31"/>
       <use x="50" xlink:href="#SimHei-2e"/>
       <use x="100" xlink:href="#SimHei-30"/>
      </g>
     </g>
    </g>
    <g id="text_16">
     <!-- 损失大小 -->
     <defs>
      <path d="M 6.640625 61.71875 
Q 11.328125 61.328125 19.53125 61.328125 
L 19.53125 69.140625 
Q 19.53125 74.609375 19.140625 79.296875 
L 26.953125 79.296875 
Q 26.5625 75 26.5625 69.140625 
L 26.5625 61.328125 
Q 30.859375 61.328125 36.71875 61.71875 
L 36.71875 54.6875 
Q 30.859375 55.078125 26.5625 55.078125 
L 26.5625 37.5 
Q 29.6875 38.28125 35.9375 41.40625 
Q 35.9375 38.28125 36.328125 34.375 
Q 32.03125 32.8125 26.5625 30.46875 
L 26.5625 2.34375 
Q 26.5625 -3.90625 23.234375 -5.265625 
Q 19.921875 -6.640625 11.328125 -7.8125 
Q 10.9375 -4.296875 8.59375 0.390625 
Q 13.671875 0 16.59375 0.1875 
Q 19.53125 0.390625 19.53125 5.078125 
L 19.53125 27.734375 
Q 12.109375 25 7.8125 22.265625 
Q 7.421875 26.953125 5.46875 31.25 
Q 10.9375 32.03125 19.53125 35.15625 
L 19.53125 55.078125 
Q 11.71875 55.078125 6.640625 54.6875 
z
M 45.3125 75.78125 
L 84.765625 75.78125 
Q 84.375 69.921875 84.375 64.453125 
Q 84.375 58.984375 84.765625 53.125 
L 45.3125 53.125 
Q 45.703125 58.984375 45.703125 64.453125 
Q 45.703125 69.921875 45.3125 75.78125 
z
M 52.34375 69.921875 
L 52.34375 58.984375 
L 78.125 58.984375 
L 78.125 69.921875 
z
M 41.40625 46.09375 
L 87.890625 46.09375 
Q 87.5 41.015625 87.5 35.15625 
L 87.5 25.78125 
Q 87.5 19.921875 87.890625 12.890625 
L 80.46875 12.890625 
L 80.46875 39.84375 
L 48.828125 39.84375 
L 48.828125 12.5 
L 41.40625 12.5 
Q 41.796875 18.75 41.796875 25.390625 
L 41.796875 34.765625 
Q 41.796875 39.0625 41.40625 46.09375 
z
M 60.546875 33.984375 
Q 64.84375 33.203125 69.53125 32.8125 
Q 67.96875 27.34375 66.984375 19.921875 
Q 66.015625 12.5 63.46875 7.8125 
Q 60.9375 3.125 55.65625 -1.359375 
Q 50.390625 -5.859375 37.890625 -10.15625 
Q 36.71875 -7.03125 32.421875 -3.125 
Q 42.96875 -1.171875 48.625 2.53125 
Q 54.296875 6.25 57.03125 11.125 
Q 59.765625 16.015625 60.15625 21.875 
Q 60.546875 27.734375 60.546875 33.984375 
z
M 67.1875 5.078125 
Q 69.921875 7.8125 71.484375 10.9375 
Q 76.171875 8.203125 82.609375 4.6875 
Q 89.0625 1.171875 94.140625 -2.34375 
Q 91.015625 -5.46875 89.0625 -8.59375 
Q 84.375 -5.078125 79.484375 -1.75 
Q 74.609375 1.5625 67.1875 5.078125 
z
" id="SimHei-635f"/>
      <path d="M 23.828125 76.171875 
Q 28.90625 73.4375 33.203125 72.65625 
Q 30.859375 70.3125 27.34375 62.109375 
L 46.875 62.109375 
Q 46.875 75 46.484375 80.859375 
Q 50.390625 80.46875 56.25 79.6875 
Q 54.6875 75.78125 54.6875 72.0625 
Q 54.6875 68.359375 54.6875 62.109375 
L 73.046875 62.109375 
Q 78.125 62.109375 84.765625 62.5 
L 84.765625 54.6875 
Q 78.515625 55.078125 73.046875 55.078125 
L 54.6875 55.078125 
Q 54.6875 46.09375 53.90625 37.890625 
L 78.90625 37.890625 
Q 84.765625 37.890625 91.796875 38.28125 
L 91.796875 30.46875 
Q 84.765625 30.859375 78.90625 30.859375 
L 55.078125 30.859375 
Q 60.15625 19.53125 69.921875 12.109375 
Q 79.6875 4.6875 92.96875 1.953125 
Q 88.28125 -2.34375 87.890625 -6.640625 
Q 76.5625 -3.515625 66.40625 4.875 
Q 56.25 13.28125 50.78125 26.171875 
Q 45.703125 12.890625 36.90625 4.484375 
Q 28.125 -3.90625 15.625 -9.765625 
Q 13.671875 -5.46875 8.59375 -2.734375 
Q 20.703125 0.78125 30.65625 9.5625 
Q 40.625 18.359375 44.53125 30.859375 
L 22.265625 30.859375 
Q 16.015625 30.859375 8.59375 30.46875 
L 8.59375 38.28125 
Q 16.015625 37.890625 22.265625 37.890625 
L 45.703125 37.890625 
Q 46.484375 46.484375 46.875 55.078125 
L 24.609375 55.078125 
Q 21.875 49.609375 18.359375 43.75 
Q 14.453125 45.703125 10.15625 46.484375 
Q 15.625 53.515625 19.140625 61.515625 
Q 22.65625 69.53125 23.828125 76.171875 
z
" id="SimHei-5931"/>
      <path d="M 10.546875 54.296875 
Q 16.40625 53.90625 25 53.515625 
L 45.703125 53.515625 
Q 45.703125 66.015625 45.5 70.703125 
Q 45.3125 75.390625 44.921875 79.6875 
Q 49.609375 78.90625 55.078125 78.515625 
Q 53.90625 74.609375 53.515625 67.375 
Q 53.125 60.15625 53.125 53.515625 
L 75 53.515625 
Q 82.03125 53.90625 90.234375 54.296875 
L 90.234375 46.09375 
Q 82.03125 46.484375 75 46.484375 
L 53.515625 46.484375 
Q 54.296875 37.890625 57.03125 31.640625 
Q 59.765625 25.390625 65.03125 19.71875 
Q 70.3125 14.0625 77.140625 9.171875 
Q 83.984375 4.296875 92.1875 1.171875 
Q 87.890625 -2.34375 85.15625 -7.8125 
Q 79.296875 -4.296875 74.015625 -0.1875 
Q 68.75 3.90625 64.453125 8.59375 
Q 60.15625 13.28125 56.4375 19.140625 
Q 52.734375 25 50 31.640625 
Q 46.875 24.21875 43.75 18.9375 
Q 40.625 13.671875 36.328125 9.171875 
Q 32.03125 4.6875 26.359375 0.390625 
Q 20.703125 -3.90625 12.5 -8.59375 
Q 9.765625 -4.296875 5.859375 -0.390625 
Q 14.84375 2.734375 21.875 7.421875 
Q 28.90625 12.109375 33.984375 18.359375 
Q 39.0625 24.609375 41.984375 31.828125 
Q 44.921875 39.0625 45.3125 46.484375 
L 25 46.484375 
Q 16.40625 46.484375 10.546875 46.09375 
z
" id="SimHei-5927"/>
      <path d="M 21.484375 54.6875 
Q 26.171875 52.734375 31.25 51.953125 
Q 26.953125 42.96875 22.453125 31.640625 
Q 17.96875 20.3125 14.453125 12.890625 
Q 10.546875 15.625 6.25 16.796875 
Q 13.28125 28.125 16.984375 38.671875 
Q 20.703125 49.21875 21.484375 54.6875 
z
M 66.796875 50.78125 
Q 70.703125 52.34375 74.21875 55.078125 
Q 79.296875 46.875 84.765625 36.90625 
Q 90.234375 26.953125 94.140625 17.96875 
Q 89.453125 16.796875 85.15625 14.0625 
Q 81.25 24.609375 76.5625 33.78125 
Q 71.875 42.96875 66.796875 50.78125 
z
M 45.3125 77.734375 
L 54.6875 77.734375 
Q 53.90625 72.65625 53.90625 63.671875 
L 53.90625 2.734375 
Q 53.90625 -4.296875 50 -6.25 
Q 46.09375 -8.203125 37.5 -8.984375 
Q 36.328125 -3.515625 33.984375 0.390625 
Q 41.796875 0 43.75 0.390625 
Q 45.703125 0.78125 45.703125 5.078125 
L 45.703125 63.671875 
Q 45.703125 70.3125 45.3125 77.734375 
z
" id="SimHei-5c0f"/>
     </defs>
     <g transform="translate(26.710938 163.28)rotate(-90)scale(0.1 -0.1)">
      <use xlink:href="#SimHei-635f"/>
      <use x="100" xlink:href="#SimHei-5931"/>
      <use x="200" xlink:href="#SimHei-5927"/>
      <use x="300" xlink:href="#SimHei-5c0f"/>
     </g>
    </g>
   </g>
   <g id="line2d_15">
    <path clip-path="url(#p63b463e72b)" d="M 69.218182 44.587283 
L 70.090284 46.411404 
L 70.962386 46.798398 
L 71.834488 50.178577 
L 72.70659 69.694464 
L 73.578692 124.579736 
L 74.450794 160.096873 
L 75.322897 163.73829 
L 76.194999 165.28971 
L 77.067101 180.507355 
L 77.939203 185.448175 
L 78.811305 193.045441 
L 79.683407 196.002605 
L 80.555509 196.329865 
L 81.427611 198.289737 
L 82.299713 194.958401 
L 83.171816 201.656664 
L 84.043918 202.38364 
L 84.91602 200.070018 
L 85.788122 199.566734 
L 87.532326 205.520771 
L 88.404428 206.054743 
L 89.27653 203.655139 
L 90.148632 203.657676 
L 91.020735 202.552893 
L 91.892837 206.914208 
L 92.764939 205.447713 
L 93.637041 198.646416 
L 94.509143 194.844347 
L 95.381245 199.395893 
L 96.253347 207.008081 
L 97.125449 209.620248 
L 97.997551 211.481464 
L 98.869654 208.226694 
L 99.741756 213.700537 
L 100.613858 212.926424 
L 101.48596 214.263823 
L 102.358062 209.865345 
L 103.230164 215.126653 
L 104.102266 215.155088 
L 104.974368 216.397051 
L 105.84647 217.193267 
L 106.718573 207.748617 
L 107.590675 213.708426 
L 108.462777 218.310758 
L 109.334879 214.650077 
L 110.206981 217.498933 
L 111.079083 216.551188 
L 111.951185 216.312373 
L 112.823287 218.934113 
L 113.695389 216.141281 
L 114.567492 215.725392 
L 115.439594 217.680364 
L 116.311696 218.022316 
L 117.183798 221.157408 
L 118.0559 216.728965 
L 118.928002 218.934053 
L 119.800104 223.009686 
L 120.672206 223.514219 
L 121.544308 222.562981 
L 122.416411 220.783703 
L 123.288513 225.043088 
L 124.160615 224.380568 
L 125.032717 224.034012 
L 125.904819 224.675866 
L 126.776921 220.615216 
L 127.649023 218.903912 
L 128.521125 222.240697 
L 129.393227 224.074632 
L 130.26533 223.914906 
L 131.137432 222.992847 
L 132.009534 224.652188 
L 132.881636 225.123728 
L 133.753738 224.752158 
L 134.62584 223.707425 
L 135.497942 225.787119 
L 137.242146 218.490583 
L 138.114249 223.128838 
L 138.986351 222.28991 
L 139.858453 225.004036 
L 140.730555 219.653858 
L 141.602657 197.352614 
L 142.474759 215.792577 
L 143.346861 225.221933 
L 144.218963 228.394236 
L 145.091065 227.623115 
L 145.963167 222.796236 
L 146.83527 226.601665 
L 147.707372 227.591095 
L 148.579474 226.476022 
L 149.451576 222.118764 
L 150.323678 216.688012 
L 151.19578 223.016018 
L 152.067882 224.9742 
L 152.939984 221.509502 
L 153.812086 226.168279 
L 154.684189 226.032819 
L 155.556291 221.993674 
L 157.300495 227.485376 
L 158.172597 225.619426 
L 159.044699 221.429674 
L 159.916801 223.605025 
L 160.788903 225.055613 
L 161.661005 228.102546 
L 162.533108 228.36791 
L 163.40521 228.50645 
L 164.277312 226.579517 
L 165.149414 226.212726 
L 166.021516 226.990107 
L 166.893618 223.140902 
L 167.76572 226.518936 
L 168.637822 229.015929 
L 169.509924 229.601281 
L 170.382027 226.360505 
L 171.254129 229.101121 
L 172.126231 228.760479 
L 172.998333 230.421976 
L 173.870435 223.524967 
L 175.614639 228.538433 
L 176.486741 229.172822 
L 177.358843 228.990186 
L 178.230946 231.692618 
L 179.103048 221.354655 
L 179.97515 220.953278 
L 180.847252 227.389197 
L 181.719354 229.08592 
L 182.591456 226.954093 
L 183.463558 228.525886 
L 184.33566 226.39385 
L 185.207762 223.888195 
L 186.079865 228.998226 
L 186.951967 231.508467 
L 187.824069 230.756673 
L 188.696171 230.983927 
L 189.568273 229.226626 
L 190.440375 228.409025 
L 191.312477 230.468068 
L 192.184579 233.178765 
L 193.056681 231.146265 
L 193.928784 231.369982 
L 194.800886 232.897359 
L 195.672988 233.193244 
L 196.54509 230.652099 
L 197.417192 225.304683 
L 198.289294 230.653708 
L 199.161396 225.901925 
L 200.033498 228.289863 
L 200.9056 232.629725 
L 201.777703 231.64698 
L 202.649805 232.825817 
L 203.521907 233.234091 
L 204.394009 233.831507 
L 205.266111 227.659862 
L 206.138213 231.316899 
L 207.010315 232.214097 
L 207.882417 230.933329 
L 208.754519 230.909885 
L 209.626622 228.294129 
L 210.498724 232.005634 
L 211.370826 230.813341 
L 212.242928 232.588643 
L 213.11503 233.542258 
L 213.987132 232.312308 
L 214.859234 228.72392 
L 215.731336 234.259401 
L 216.603438 233.182366 
L 217.475541 232.830487 
L 218.347643 235.379249 
L 220.091847 234.592515 
L 221.836051 230.463951 
L 223.580255 235.924639 
L 224.452357 234.515167 
L 225.324459 236.105126 
L 226.196562 235.995818 
L 227.068664 235.125543 
L 227.940766 236.66707 
L 228.812868 234.483934 
L 230.557072 233.517005 
L 231.429174 233.865954 
L 232.301276 231.82344 
L 233.173378 231.543015 
L 234.045481 229.935645 
L 234.917583 234.946589 
L 235.789685 236.044201 
L 236.661787 235.191552 
L 237.533889 234.935893 
L 238.405991 233.097306 
L 239.278093 235.553523 
L 241.022297 234.072455 
L 241.8944 234.015719 
L 242.766502 236.651679 
L 243.638604 236.223749 
L 244.510706 236.425124 
L 245.382808 235.553165 
L 246.25491 234.295753 
L 247.127012 228.103211 
L 247.999114 230.836029 
L 248.871216 234.907739 
L 249.743319 233.439821 
L 250.615421 234.010731 
L 251.487523 236.888526 
L 252.359625 236.362694 
L 253.231727 236.992489 
L 254.103829 235.329139 
L 254.975931 236.217527 
L 255.848033 235.966361 
L 256.720135 235.582921 
L 257.592238 237.706227 
L 258.46434 236.069612 
L 259.336442 236.013018 
L 260.208544 238.331617 
L 261.080646 237.577733 
L 261.952748 236.382587 
L 262.82485 238.049164 
L 264.569054 235.176449 
L 265.441157 232.501131 
L 266.313259 235.701506 
L 267.185361 236.39908 
L 268.057463 236.75803 
L 269.801667 235.321067 
L 270.673769 236.146877 
L 271.545871 239.705599 
L 272.417973 238.101265 
L 273.290076 235.524256 
L 274.162178 239.25112 
L 275.03428 238.001982 
L 275.906382 238.436963 
L 276.778484 239.408448 
L 277.650586 238.969766 
L 278.522688 237.666184 
L 279.39479 232.535644 
L 280.266892 232.871204 
L 281.138995 236.205479 
L 282.011097 236.918192 
L 282.883199 238.755334 
L 284.627403 237.75215 
L 285.499505 236.854688 
L 286.371607 238.574204 
L 287.243709 237.954875 
L 288.115811 236.701958 
L 288.987914 236.718798 
L 289.860016 239.374336 
L 290.732118 238.546026 
L 291.60422 236.466916 
L 293.348424 239.788066 
L 294.220526 238.737255 
L 295.092628 235.127563 
L 296.836833 233.03087 
L 297.708935 230.928703 
L 298.581037 236.670651 
L 299.453139 238.815008 
L 300.325241 237.631765 
L 301.197343 238.720459 
L 302.069445 236.285038 
L 302.941547 237.101286 
L 303.813649 239.417373 
L 304.685751 240.296033 
L 305.557854 240.812735 
L 306.429956 235.934902 
L 307.302058 235.688626 
L 308.17416 237.945309 
L 309.046262 235.548272 
L 309.918364 236.561712 
L 310.790466 238.794579 
L 311.662568 236.578601 
L 312.53467 236.359722 
L 313.406773 236.604385 
L 314.278875 233.367013 
L 315.150977 237.236576 
L 316.023079 237.280122 
L 317.767283 239.4691 
L 318.639385 239.876211 
L 319.511487 237.029388 
L 320.383589 238.51507 
L 321.255692 237.803645 
L 322.127794 236.557945 
L 322.999896 236.754823 
L 323.871998 231.371101 
L 324.7441 231.835404 
L 325.616202 236.612472 
L 326.488304 238.453759 
L 327.360406 239.20198 
L 328.232508 240.48856 
L 329.104611 236.010359 
L 329.976713 232.768189 
L 330.848815 239.438846 
L 331.720917 240.012495 
L 332.593019 239.265357 
L 334.337223 238.159302 
L 335.209325 234.626047 
L 336.081427 237.340487 
L 336.95353 234.197923 
L 337.825632 237.762393 
L 338.697734 238.876169 
L 339.569836 240.489057 
L 340.441938 240.436186 
L 341.31404 241.001861 
L 342.186142 239.079666 
L 343.058244 238.5372 
L 343.930346 238.294018 
L 344.802449 239.980478 
L 345.674551 240.688451 
L 346.546653 234.67624 
L 347.418755 236.241996 
L 348.290857 239.202938 
L 349.162959 239.214045 
L 350.035061 241.119075 
L 350.907163 241.487071 
L 351.779265 240.579434 
L 352.651368 240.595674 
L 353.52347 237.934672 
L 354.395572 239.779692 
L 356.139776 240.723595 
L 357.011878 242.061038 
L 357.88398 241.092138 
L 358.756082 242.07654 
L 359.628184 242.116364 
L 360.500287 237.990961 
L 361.372389 241.355182 
L 362.244491 239.995177 
L 363.116593 240.575366 
L 363.988695 240.336928 
L 364.860797 237.169987 
L 365.732899 236.159074 
L 366.605001 237.458427 
L 367.477103 240.155871 
L 368.349206 239.535633 
L 369.221308 239.415174 
L 370.965512 241.770174 
L 371.837614 240.96777 
L 372.709716 239.763311 
L 373.581818 239.995605 
L 373.581818 239.995605 
" style="fill:none;stroke:#ff0000;stroke-linecap:square;stroke-width:1.5;"/>
   </g>
   <g id="line2d_16">
    <path clip-path="url(#p63b463e72b)" d="M 69.218182 44.595374 
L 70.090284 44.443636 
L 70.962386 46.675188 
L 71.834488 54.387002 
L 73.578692 155.106613 
L 74.450794 184.491549 
L 75.322897 173.030867 
L 76.194999 194.668356 
L 77.067101 196.705166 
L 77.939203 202.891453 
L 78.811305 201.296492 
L 79.683407 211.200128 
L 80.555509 206.654685 
L 81.427611 211.169858 
L 83.171816 210.221945 
L 84.043918 214.338668 
L 84.91602 217.131134 
L 85.788122 198.771879 
L 86.660224 215.093177 
L 87.532326 217.198579 
L 88.404428 218.631335 
L 89.27653 218.830557 
L 90.148632 212.473969 
L 91.020735 213.341148 
L 91.892837 216.851907 
L 92.764939 198.001283 
L 93.637041 209.091934 
L 94.509143 205.735523 
L 95.381245 217.528043 
L 96.253347 216.342429 
L 97.125449 218.372213 
L 97.997551 209.421303 
L 98.869654 217.302446 
L 99.741756 219.54735 
L 100.613858 222.489476 
L 101.48596 216.441833 
L 102.358062 216.07143 
L 103.230164 223.018482 
L 104.102266 208.186368 
L 104.974368 224.453489 
L 105.84647 208.26902 
L 106.718573 218.478173 
L 107.590675 220.82643 
L 108.462777 222.773451 
L 109.334879 220.183228 
L 110.206981 222.39175 
L 111.079083 222.016955 
L 111.951185 214.174021 
L 112.823287 219.220728 
L 113.695389 227.050683 
L 114.567492 224.851808 
L 115.439594 225.082101 
L 116.311696 226.091653 
L 117.183798 215.642864 
L 118.0559 218.113244 
L 118.928002 226.349765 
L 119.800104 226.307233 
L 120.672206 225.574108 
L 121.544308 227.797901 
L 122.416411 225.601478 
L 123.288513 226.443402 
L 124.160615 221.346435 
L 125.032717 227.273312 
L 125.904819 221.365996 
L 126.776921 227.315485 
L 127.649023 227.320998 
L 128.521125 223.623744 
L 129.393227 226.013257 
L 130.26533 224.564542 
L 131.137432 226.271816 
L 132.009534 221.584927 
L 132.881636 228.355405 
L 133.753738 228.584742 
L 134.62584 223.061309 
L 135.497942 220.994346 
L 136.370044 222.487999 
L 137.242146 228.873757 
L 138.114249 222.618486 
L 138.986351 229.414235 
L 139.858453 220.928029 
L 140.730555 224.840045 
L 141.602657 201.111048 
L 142.474759 225.122492 
L 143.346861 226.850596 
L 144.218963 229.336018 
L 145.091065 227.395301 
L 145.963167 228.124029 
L 146.83527 230.073949 
L 147.707372 230.214715 
L 148.579474 227.463724 
L 149.451576 231.28221 
L 150.323678 225.929995 
L 151.19578 222.699867 
L 152.067882 215.003288 
L 152.939984 218.657634 
L 153.812086 229.631984 
L 154.684189 218.505088 
L 155.556291 210.782474 
L 156.428393 231.591967 
L 157.300495 230.255431 
L 158.172597 218.614925 
L 159.916801 216.400485 
L 160.788903 228.707339 
L 161.661005 230.431572 
L 163.40521 231.236308 
L 164.277312 228.177569 
L 165.149414 219.129266 
L 166.021516 219.879849 
L 166.893618 232.374296 
L 167.76572 229.869148 
L 168.637822 232.234023 
L 169.509924 226.175142 
L 170.382027 232.108563 
L 171.254129 228.3513 
L 172.126231 231.565376 
L 172.998333 228.727406 
L 173.870435 231.577359 
L 174.742537 224.450313 
L 175.614639 227.457752 
L 176.486741 227.479339 
L 177.358843 232.769576 
L 178.230946 230.00628 
L 179.103048 230.986968 
L 179.97515 230.064899 
L 180.847252 230.349152 
L 181.719354 230.200101 
L 182.591456 225.485966 
L 183.463558 232.615371 
L 184.33566 227.206279 
L 185.207762 224.616705 
L 186.079865 228.616968 
L 186.951967 231.23008 
L 187.824069 226.729919 
L 188.696171 231.740254 
L 189.568273 228.238972 
L 190.440375 232.567032 
L 191.312477 233.21005 
L 193.056681 231.550832 
L 193.928784 232.148339 
L 194.800886 233.353963 
L 195.672988 230.976316 
L 196.54509 231.480851 
L 197.417192 228.274735 
L 198.289294 228.584692 
L 199.161396 231.206868 
L 200.033498 227.4993 
L 200.9056 232.246745 
L 201.777703 232.719664 
L 202.649805 231.613679 
L 203.521907 228.264061 
L 204.394009 231.836726 
L 205.266111 225.023171 
L 206.138213 220.824285 
L 207.010315 227.489423 
L 207.882417 223.847974 
L 208.754519 227.190783 
L 209.626622 223.629923 
L 210.498724 231.001943 
L 211.370826 229.52433 
L 212.242928 233.137152 
L 213.11503 228.623164 
L 213.987132 224.99486 
L 214.859234 223.329359 
L 215.731336 229.028762 
L 216.603438 230.72782 
L 217.475541 229.512587 
L 218.347643 229.698866 
L 220.091847 224.228252 
L 220.963949 225.53966 
L 221.836051 229.616422 
L 222.708153 230.073879 
L 223.580255 227.494062 
L 224.452357 230.227275 
L 226.196562 230.296706 
L 227.068664 227.845817 
L 227.940766 230.473864 
L 228.812868 228.608874 
L 229.68497 225.520461 
L 230.557072 225.409773 
L 231.429174 227.165748 
L 232.301276 227.04271 
L 233.173378 208.218669 
L 234.045481 218.775631 
L 234.917583 224.62776 
L 235.789685 226.398343 
L 236.661787 225.684736 
L 237.533889 223.642357 
L 238.405991 223.492736 
L 239.278093 219.181925 
L 240.150195 223.494466 
L 241.022297 224.130126 
L 241.8944 226.158082 
L 242.766502 217.420572 
L 243.638604 224.048994 
L 244.510706 218.47579 
L 245.382808 215.287481 
L 246.25491 223.663267 
L 247.127012 214.123281 
L 247.999114 223.03017 
L 248.871216 225.480368 
L 249.743319 223.604678 
L 250.615421 224.357784 
L 251.487523 225.753703 
L 253.231727 215.618566 
L 254.103829 216.258903 
L 254.975931 217.147401 
L 255.848033 222.053984 
L 256.720135 216.022996 
L 257.592238 219.894316 
L 258.46434 224.951071 
L 259.336442 220.044727 
L 260.208544 223.289609 
L 261.080646 219.561683 
L 261.952748 222.81152 
L 262.82485 220.490363 
L 263.696952 221.39058 
L 264.569054 220.109585 
L 265.441157 220.985842 
L 266.313259 219.613428 
L 267.185361 222.03408 
L 268.057463 220.171747 
L 268.929565 215.162809 
L 269.801667 213.942154 
L 270.673769 217.839295 
L 271.545871 219.760086 
L 272.417973 206.279223 
L 273.290076 221.511033 
L 274.162178 217.049377 
L 275.03428 219.391301 
L 275.906382 218.15072 
L 276.778484 217.234088 
L 277.650586 213.181748 
L 278.522688 215.145431 
L 279.39479 213.366999 
L 281.138995 211.19342 
L 282.011097 212.85957 
L 282.883199 213.503136 
L 283.755301 207.274133 
L 284.627403 216.036371 
L 285.499505 210.598002 
L 286.371607 214.050097 
L 287.243709 216.140975 
L 288.115811 212.972947 
L 289.860016 207.6667 
L 290.732118 207.434541 
L 291.60422 212.706554 
L 292.476322 211.960941 
L 293.348424 210.015302 
L 294.220526 210.183573 
L 295.092628 209.779043 
L 295.96473 215.23723 
L 296.836833 211.589244 
L 297.708935 208.727085 
L 298.581037 209.491046 
L 299.453139 208.786921 
L 300.325241 206.368845 
L 301.197343 209.353502 
L 302.069445 206.77063 
L 302.941547 213.533711 
L 303.813649 208.316656 
L 304.685751 205.509306 
L 305.557854 200.582807 
L 306.429956 194.551905 
L 307.302058 201.575993 
L 308.17416 205.726972 
L 309.046262 209.040654 
L 309.918364 215.709324 
L 310.790466 204.673942 
L 311.662568 212.636907 
L 312.53467 210.766578 
L 313.406773 207.236103 
L 314.278875 209.021076 
L 315.150977 211.906375 
L 316.023079 211.29796 
L 316.895181 210.85197 
L 317.767283 212.200338 
L 318.639385 208.70346 
L 319.511487 211.273478 
L 320.383589 204.234897 
L 321.255692 204.125614 
L 322.127794 201.872792 
L 322.999896 207.422776 
L 323.871998 201.939673 
L 325.616202 202.292176 
L 326.488304 206.064944 
L 327.360406 202.407072 
L 328.232508 208.743721 
L 329.104611 199.867027 
L 329.976713 208.285573 
L 330.848815 202.54794 
L 331.720917 211.92849 
L 332.593019 212.598605 
L 334.337223 194.864049 
L 335.209325 197.560947 
L 336.081427 205.918322 
L 336.95353 199.9434 
L 337.825632 200.399731 
L 338.697734 209.330475 
L 339.569836 204.320669 
L 340.441938 208.307719 
L 341.31404 201.998133 
L 342.186142 204.513533 
L 343.058244 199.356038 
L 343.930346 198.276786 
L 344.802449 204.947135 
L 345.674551 199.946013 
L 346.546653 190.090678 
L 347.418755 204.964595 
L 348.290857 203.68072 
L 349.162959 199.446611 
L 350.035061 203.51336 
L 350.907163 200.159758 
L 351.779265 199.694846 
L 352.651368 201.481384 
L 353.52347 199.598415 
L 354.395572 198.267057 
L 355.267674 191.605874 
L 356.139776 199.478776 
L 357.011878 199.141476 
L 357.88398 195.781748 
L 358.756082 195.14884 
L 359.628184 196.606692 
L 360.500287 196.464913 
L 361.372389 192.092623 
L 363.116593 197.642726 
L 363.988695 197.154618 
L 364.860797 195.66789 
L 365.732899 192.305965 
L 366.605001 194.056165 
L 367.477103 196.351331 
L 368.349206 195.347572 
L 369.221308 189.354915 
L 370.09341 191.344361 
L 370.965512 195.466976 
L 371.837614 197.474195 
L 372.709716 192.324814 
L 373.581818 195.461487 
L 373.581818 195.461487 
" style="fill:none;stroke:#008000;stroke-linecap:square;stroke-width:1.5;"/>
   </g>
   <g id="patch_3">
    <path d="M 54 252 
L 54 34.56 
" style="fill:none;stroke:#000000;stroke-linecap:square;stroke-linejoin:miter;stroke-width:0.8;"/>
   </g>
   <g id="patch_4">
    <path d="M 388.8 252 
L 388.8 34.56 
" style="fill:none;stroke:#000000;stroke-linecap:square;stroke-linejoin:miter;stroke-width:0.8;"/>
   </g>
   <g id="patch_5">
    <path d="M 54 252 
L 388.8 252 
" style="fill:none;stroke:#000000;stroke-linecap:square;stroke-linejoin:miter;stroke-width:0.8;"/>
   </g>
   <g id="patch_6">
    <path d="M 54 34.56 
L 388.8 34.56 
" style="fill:none;stroke:#000000;stroke-linecap:square;stroke-linejoin:miter;stroke-width:0.8;"/>
   </g>
   <g id="text_17">
    <!-- 损失变化 -->
    <defs>
     <path d="M 44.140625 79.296875 
Q 48.828125 80.078125 53.515625 80.859375 
Q 54.6875 73.046875 55.078125 69.921875 
L 72.265625 69.921875 
Q 83.203125 69.921875 91.796875 70.3125 
L 91.796875 62.890625 
Q 82.8125 63.28125 72.265625 63.28125 
L 62.890625 63.28125 
L 62.890625 46.484375 
Q 62.890625 38.671875 63.28125 33.984375 
L 55.078125 33.984375 
Q 55.46875 38.671875 55.46875 46.484375 
L 55.46875 63.28125 
L 43.359375 63.28125 
L 43.359375 46.484375 
Q 43.359375 39.0625 43.75 33.984375 
L 35.546875 33.984375 
Q 35.9375 39.0625 35.9375 46.484375 
L 35.9375 63.28125 
L 27.734375 63.28125 
Q 16.796875 63.28125 8.59375 62.890625 
L 8.59375 70.3125 
Q 16.40625 69.921875 27.734375 69.921875 
L 46.484375 69.921875 
Q 45.703125 74.609375 44.140625 79.296875 
z
M 21.484375 57.8125 
Q 25 55.078125 29.6875 52.734375 
Q 27.34375 50.78125 23.234375 45.3125 
Q 19.140625 39.84375 14.453125 33.984375 
Q 10.546875 36.71875 7.421875 38.671875 
Q 16.015625 46.875 21.484375 57.8125 
z
M 69.53125 51.953125 
Q 73.046875 54.6875 75.78125 57.421875 
Q 83.59375 50 92.1875 40.625 
Q 88.671875 38.28125 85.15625 35.15625 
Q 78.90625 42.96875 69.53125 51.953125 
z
M 17.578125 28.515625 
Q 24.609375 28.125 33.984375 28.125 
L 79.6875 28.125 
Q 74.609375 20.3125 69.53125 14.0625 
Q 64.453125 7.8125 58.59375 3.515625 
Q 67.578125 0.78125 74.40625 -0.1875 
Q 81.25 -1.171875 92.1875 -0.78125 
Q 89.0625 -4.296875 87.890625 -9.765625 
Q 75 -8.203125 66.015625 -5.859375 
Q 57.03125 -3.515625 51.171875 -1.171875 
Q 41.40625 -5.078125 32.8125 -6.828125 
Q 24.21875 -8.59375 12.109375 -10.15625 
Q 10.546875 -5.859375 7.8125 -1.953125 
Q 17.96875 -1.953125 26.359375 -0.78125 
Q 34.765625 0.390625 44.140625 3.125 
Q 36.328125 7.421875 27.34375 21.484375 
L 35.9375 21.484375 
Q 42.1875 11.71875 51.5625 7.03125 
Q 59.375 11.71875 66.40625 21.484375 
L 33.59375 21.484375 
Q 23.828125 21.484375 17.578125 21.09375 
z
" id="SimHei-53d8"/>
     <path d="M 52.34375 79.296875 
L 60.9375 79.296875 
Q 60.15625 74.21875 60.15625 66.40625 
L 60.15625 37.890625 
Q 66.796875 43.75 71.875 50.96875 
Q 76.953125 58.203125 80.46875 65.234375 
Q 83.59375 62.890625 89.84375 60.15625 
Q 87.109375 57.8125 83.984375 53.90625 
Q 80.859375 50 77.34375 45.5 
Q 73.828125 41.015625 69.53125 36.515625 
Q 65.234375 32.03125 60.15625 28.125 
L 60.15625 6.25 
Q 60.15625 0.78125 65.234375 0.78125 
L 79.296875 0.78125 
Q 82.8125 1.171875 83.390625 4.09375 
Q 83.984375 7.03125 84.375 12.890625 
Q 88.28125 9.765625 93.75 8.984375 
Q 91.40625 -1.5625 88.859375 -3.90625 
Q 86.328125 -6.25 81.640625 -6.25 
L 60.9375 -6.25 
Q 52.734375 -6.25 52.734375 0.78125 
L 52.734375 23.4375 
Q 49.21875 21.09375 46.09375 19.140625 
Q 42.96875 17.1875 38.28125 14.0625 
Q 35.9375 18.359375 33.59375 21.09375 
Q 38.28125 23.046875 43.546875 25.96875 
Q 48.828125 28.90625 52.734375 32.421875 
L 52.734375 67.578125 
Q 52.734375 74.609375 52.34375 79.296875 
z
M 28.515625 80.859375 
Q 32.03125 78.515625 38.28125 76.5625 
Q 35.15625 72.265625 33.59375 68.15625 
Q 32.03125 64.0625 29.6875 58.59375 
L 29.6875 10.15625 
Q 29.6875 -1.953125 30.078125 -8.203125 
L 21.484375 -8.203125 
Q 22.265625 -2.34375 22.265625 9.765625 
L 22.265625 46.875 
Q 19.53125 42.1875 17.1875 39.0625 
Q 14.84375 35.9375 12.890625 33.59375 
Q 10.15625 36.71875 6.640625 39.453125 
Q 11.71875 44.53125 15.421875 50 
Q 19.140625 55.46875 21.484375 60.734375 
Q 23.828125 66.015625 25.578125 71.09375 
Q 27.34375 76.171875 28.515625 80.859375 
z
" id="SimHei-5316"/>
    </defs>
    <g transform="translate(197.4 28.56)scale(0.12 -0.12)">
     <use xlink:href="#SimHei-635f"/>
     <use x="100" xlink:href="#SimHei-5931"/>
     <use x="200" xlink:href="#SimHei-53d8"/>
     <use x="300" xlink:href="#SimHei-5316"/>
    </g>
   </g>
   <g id="legend_1">
    <g id="patch_7">
     <path d="M 309.8 70.763125 
L 381.8 70.763125 
Q 383.8 70.763125 383.8 68.763125 
L 383.8 41.56 
Q 383.8 39.56 381.8 39.56 
L 309.8 39.56 
Q 307.8 39.56 307.8 41.56 
L 307.8 68.763125 
Q 307.8 70.763125 309.8 70.763125 
z
" style="fill:#ffffff;opacity:0.8;stroke:#cccccc;stroke-linejoin:miter;"/>
    </g>
    <g id="line2d_17">
     <path d="M 311.8 47.8725 
L 331.8 47.8725 
" style="fill:none;stroke:#ff0000;stroke-linecap:square;stroke-width:1.5;"/>
    </g>
    <g id="line2d_18"/>
    <g id="text_18">
     <!-- 训练损失 -->
     <defs>
      <path d="M 42.1875 77.34375 
Q 47.265625 76.953125 51.5625 76.5625 
Q 50.390625 71.875 50.1875 65.8125 
Q 50 59.765625 50 47.265625 
Q 50 34.765625 49.21875 26.5625 
Q 48.4375 18.359375 47.0625 12.109375 
Q 45.703125 5.859375 43.359375 0.96875 
Q 41.015625 -3.90625 37.890625 -8.59375 
Q 33.984375 -6.25 29.296875 -4.296875 
Q 33.984375 0 36.71875 5.46875 
Q 39.453125 10.9375 41.015625 19.140625 
Q 42.578125 27.34375 42.765625 38.859375 
Q 42.96875 50.390625 42.765625 58.390625 
Q 42.578125 66.40625 42.1875 77.34375 
z
M 59.765625 72.265625 
L 67.578125 72.265625 
Q 67.1875 65.234375 67.1875 57.8125 
L 67.1875 18.359375 
Q 67.1875 7.421875 67.578125 0.390625 
L 59.765625 0.390625 
Q 60.15625 7.421875 60.15625 18.359375 
L 60.15625 57.8125 
Q 60.15625 66.796875 59.765625 72.265625 
z
M 79.296875 76.953125 
L 87.109375 76.953125 
Q 86.71875 70.3125 86.71875 61.71875 
L 86.71875 14.84375 
Q 86.71875 3.90625 87.109375 -7.8125 
L 79.296875 -7.8125 
Q 79.6875 3.90625 79.6875 14.84375 
L 79.6875 61.71875 
Q 79.6875 70.3125 79.296875 76.953125 
z
M 13.28125 75 
Q 16.015625 76.953125 19.921875 79.296875 
Q 26.5625 69.140625 29.6875 64.0625 
Q 25.78125 62.109375 23.046875 59.765625 
Q 17.1875 70.3125 13.28125 75 
z
M 5.46875 51.5625 
Q 10.15625 51.171875 15.234375 51.171875 
L 25.390625 51.171875 
Q 25 42.1875 25 34.765625 
L 25 11.71875 
Q 30.078125 18.359375 31.640625 20.703125 
Q 33.59375 18.359375 36.328125 14.84375 
Q 31.25 9.375 27.734375 5.078125 
Q 24.21875 0.78125 20.703125 -4.296875 
Q 17.96875 -1.171875 14.84375 1.171875 
Q 17.96875 5.078125 17.96875 10.9375 
L 17.96875 44.140625 
L 15.234375 44.140625 
Q 10.15625 44.140625 5.46875 43.75 
z
" id="SimHei-8bad"/>
      <path d="M 14.0625 49.609375 
Q 21.875 50.390625 25.390625 50.390625 
Q 29.6875 57.03125 32.03125 63.28125 
Q 35.15625 60.546875 39.84375 57.8125 
Q 35.9375 54.296875 31.640625 47.265625 
Q 27.34375 40.234375 18.359375 27.734375 
Q 20.703125 28.125 25.390625 28.90625 
Q 30.078125 29.6875 35.9375 30.46875 
Q 35.546875 26.5625 35.15625 23.4375 
Q 32.8125 23.4375 25.1875 22.65625 
Q 17.578125 21.875 11.71875 19.921875 
Q 9.765625 23.828125 7.8125 27.734375 
Q 12.109375 30.46875 15.421875 34.5625 
Q 18.75 38.671875 22.265625 44.921875 
Q 19.921875 44.921875 15.8125 44.140625 
Q 11.71875 43.359375 8.203125 42.1875 
Q 6.640625 46.09375 5.078125 50 
Q 8.984375 53.515625 12.890625 61.71875 
Q 16.796875 69.921875 19.921875 79.296875 
Q 23.828125 76.171875 28.515625 73.828125 
Q 25.390625 71.875 22.65625 65.8125 
Q 19.921875 59.765625 14.0625 49.609375 
z
M 6.25 8.203125 
Q 16.40625 9.765625 20.109375 10.546875 
Q 23.828125 11.328125 38.671875 14.453125 
Q 37.890625 10.546875 37.890625 7.421875 
Q 31.640625 6.25 23.4375 4.296875 
Q 15.234375 2.34375 8.984375 -0.390625 
Q 7.8125 4.296875 6.25 8.203125 
z
M 55.078125 43.75 
Q 50.390625 35.546875 49.21875 32.8125 
L 64.84375 32.8125 
L 64.84375 43.75 
z
M 51.171875 20.703125 
Q 54.296875 18.359375 59.375 16.015625 
Q 55.859375 13.28125 50.78125 6.25 
Q 45.703125 -0.78125 41.015625 -6.640625 
Q 37.109375 -4.296875 33.203125 -2.34375 
Q 37.109375 0.78125 42.375 7.21875 
Q 47.65625 13.671875 51.171875 20.703125 
z
M 76.5625 16.015625 
Q 79.6875 18.359375 83.203125 19.921875 
Q 85.546875 15.625 89.25 10.34375 
Q 92.96875 5.078125 95.703125 0.390625 
Q 91.796875 -1.171875 88.28125 -3.515625 
Q 85.15625 2.34375 82.609375 6.640625 
Q 80.078125 10.9375 76.5625 16.015625 
z
M 49.609375 49.609375 
Q 52.34375 55.078125 54.296875 60.15625 
L 52.34375 60.15625 
Q 46.484375 60.15625 39.453125 59.765625 
L 39.453125 66.40625 
Q 46.484375 66.015625 52.734375 66.015625 
L 55.859375 66.015625 
Q 57.03125 68.75 58.203125 72.453125 
Q 59.375 76.171875 59.765625 80.859375 
Q 65.625 77.734375 69.140625 76.5625 
Q 67.1875 74.21875 65.8125 71.484375 
Q 64.453125 68.75 63.28125 66.015625 
L 78.125 66.015625 
Q 84.765625 66.015625 90.625 66.40625 
L 90.625 59.765625 
Q 84.765625 60.15625 78.125 60.15625 
L 61.71875 60.15625 
Q 59.375 54.6875 57.03125 49.609375 
L 72.65625 49.609375 
Q 72.265625 44.921875 72.265625 39.0625 
L 72.265625 32.8125 
L 77.34375 32.8125 
Q 83.59375 32.8125 89.453125 33.203125 
L 89.453125 26.5625 
Q 83.59375 26.953125 77.34375 26.953125 
L 72.265625 26.953125 
L 72.265625 2.734375 
Q 72.265625 -5.46875 68.546875 -7.609375 
Q 64.84375 -9.765625 58.59375 -10.15625 
Q 57.421875 -5.078125 54.6875 -0.390625 
Q 62.890625 -1.171875 63.859375 0.390625 
Q 64.84375 1.953125 64.84375 5.859375 
L 64.84375 26.953125 
L 52.734375 26.953125 
Q 49.609375 26.953125 47.0625 26.359375 
Q 44.53125 25.78125 42.1875 24.609375 
Q 40.625 28.515625 38.28125 31.640625 
Q 42.1875 33.203125 47.65625 43.75 
Q 44.53125 43.75 40.625 43.359375 
L 40.625 50 
Q 46.09375 49.609375 49.609375 49.609375 
z
" id="SimHei-7ec3"/>
     </defs>
     <g transform="translate(339.8 51.3725)scale(0.1 -0.1)">
      <use xlink:href="#SimHei-8bad"/>
      <use x="100" xlink:href="#SimHei-7ec3"/>
      <use x="200" xlink:href="#SimHei-635f"/>
      <use x="300" xlink:href="#SimHei-5931"/>
     </g>
    </g>
    <g id="line2d_19">
     <path d="M 311.8 61.974063 
L 331.8 61.974063 
" style="fill:none;stroke:#008000;stroke-linecap:square;stroke-width:1.5;"/>
    </g>
    <g id="line2d_20"/>
    <g id="text_19">
     <!-- 验证损失 -->
     <defs>
      <path d="M 6.25 73.046875 
Q 12.109375 72.65625 17.96875 72.65625 
L 36.328125 72.65625 
Q 35.546875 69.140625 35.15625 62.5 
L 32.421875 32.8125 
L 39.453125 32.8125 
Q 39.0625 29.6875 38.671875 22.65625 
L 37.5 1.5625 
Q 37.5 -6.25 32.8125 -7.421875 
Q 28.125 -8.59375 19.921875 -9.765625 
Q 18.75 -4.6875 16.796875 -1.171875 
Q 25 -1.171875 27.53125 -0.96875 
Q 30.078125 -0.78125 30.859375 2.734375 
L 32.03125 26.5625 
L 9.375 26.5625 
Q 9.765625 33.59375 9.953125 42.1875 
Q 10.15625 50.78125 10.15625 58.59375 
L 17.578125 58.59375 
Q 16.796875 54.296875 16.40625 47.65625 
Q 16.015625 41.015625 16.015625 32.8125 
L 25.78125 32.8125 
L 28.515625 66.40625 
L 17.96875 66.40625 
Q 12.109375 66.40625 6.25 66.015625 
z
M 3.90625 14.453125 
Q 9.375 14.84375 15.03125 15.625 
Q 20.703125 16.40625 28.125 17.578125 
Q 27.734375 14.84375 27.34375 10.9375 
Q 21.484375 10.15625 17.765625 9.375 
Q 14.0625 8.59375 6.640625 6.25 
Q 5.46875 10.546875 3.90625 14.453125 
z
M 58.984375 80.078125 
Q 63.671875 78.90625 69.140625 77.734375 
L 67.1875 75 
Q 73.4375 63.28125 80.078125 58 
Q 86.71875 52.734375 95.3125 49.609375 
Q 91.796875 46.484375 89.84375 42.1875 
Q 84.765625 44.921875 79.6875 49.21875 
L 79.6875 42.96875 
Q 74.609375 43.359375 65.421875 43.359375 
Q 56.25 43.359375 50.390625 42.96875 
L 50.390625 48.828125 
Q 48.046875 45.703125 43.75 41.015625 
Q 40.234375 44.140625 36.71875 46.09375 
Q 42.578125 50.390625 45.890625 54.6875 
Q 49.21875 58.984375 51.75 63.46875 
Q 54.296875 67.96875 56.046875 71.875 
Q 57.8125 75.78125 58.984375 80.078125 
z
M 62.890625 70.703125 
Q 60.15625 64.453125 57.609375 60.15625 
Q 55.078125 55.859375 50.78125 49.609375 
L 79.296875 49.609375 
Q 74.609375 53.125 70.703125 58 
Q 66.796875 62.890625 62.890625 70.703125 
z
M 44.53125 31.640625 
Q 47.65625 32.8125 50.78125 33.59375 
Q 52.34375 28.125 54.09375 21.28125 
Q 55.859375 14.453125 57.421875 8.984375 
Q 53.90625 8.59375 50.78125 7.03125 
Q 49.609375 14.0625 48.234375 19.140625 
Q 46.875 24.21875 44.53125 31.640625 
z
M 58.59375 34.375 
Q 62.109375 35.15625 65.234375 35.546875 
Q 66.015625 30.46875 66.796875 25.578125 
Q 67.578125 20.703125 68.75 12.890625 
Q 65.625 12.109375 62.5 11.328125 
Q 61.328125 19.921875 60.546875 24.21875 
Q 59.765625 28.515625 58.59375 34.375 
z
M 78.515625 35.546875 
Q 81.640625 34.375 87.109375 33.203125 
Q 85.15625 30.859375 83.984375 26.953125 
Q 82.8125 23.046875 80.265625 14.453125 
Q 77.734375 5.859375 76.171875 0.78125 
L 81.640625 0.78125 
Q 84.375 0.78125 89.84375 1.171875 
L 89.84375 -5.859375 
Q 85.15625 -5.46875 81.640625 -5.46875 
L 51.953125 -5.46875 
Q 44.921875 -5.46875 41.796875 -5.859375 
L 41.796875 1.171875 
Q 46.484375 0.78125 52.34375 0.78125 
L 69.53125 0.78125 
Q 72.65625 9.375 74.609375 18.15625 
Q 76.5625 26.953125 78.515625 35.546875 
z
" id="SimHei-9a8c"/>
      <path d="M 30.859375 64.453125 
Q 27.34375 61.71875 25 58.984375 
Q 18.75 67.578125 14.0625 72.265625 
Q 17.1875 74.609375 19.921875 77.34375 
Q 27.34375 68.75 30.859375 64.453125 
z
M 20.703125 -5.859375 
Q 17.96875 -2.34375 14.453125 0 
Q 19.140625 4.6875 19.140625 9.375 
L 19.140625 42.1875 
L 16.015625 42.1875 
Q 10.9375 42.1875 5.46875 41.796875 
L 5.46875 48.828125 
Q 10.546875 48.4375 16.015625 48.4375 
L 26.953125 48.4375 
Q 26.5625 41.40625 26.5625 33.59375 
L 26.5625 13.671875 
Q 29.6875 17.578125 32.421875 21.484375 
Q 34.375 17.1875 37.109375 14.0625 
Q 32.8125 9.375 29.296875 5.078125 
Q 25.78125 0.78125 20.703125 -5.859375 
z
M 38.671875 72.65625 
Q 46.484375 72.265625 55.078125 72.265625 
L 78.90625 72.265625 
Q 86.328125 72.265625 92.578125 72.65625 
L 92.578125 65.625 
Q 86.328125 66.015625 78.90625 66.015625 
L 69.53125 66.015625 
L 69.53125 40.234375 
L 78.125 40.234375 
Q 84.375 40.234375 90.234375 40.625 
L 90.234375 33.59375 
Q 84.765625 33.984375 78.125 33.984375 
L 69.53125 33.984375 
L 69.53125 3.90625 
L 79.6875 3.90625 
Q 86.328125 3.90625 94.53125 4.296875 
L 94.53125 -2.734375 
Q 86.328125 -2.34375 79.6875 -2.34375 
L 46.875 -2.34375 
Q 37.890625 -2.34375 32.03125 -2.734375 
L 32.03125 4.296875 
Q 37.890625 3.90625 43.75 3.90625 
L 43.75 32.421875 
Q 43.75 39.84375 43.359375 44.921875 
L 51.5625 44.921875 
Q 51.171875 40.234375 51.171875 32.421875 
L 51.171875 3.90625 
L 62.109375 3.90625 
L 62.109375 66.015625 
L 55.078125 66.015625 
Q 46.484375 66.015625 38.671875 65.625 
z
" id="SimHei-8bc1"/>
     </defs>
     <g transform="translate(339.8 65.474063)scale(0.1 -0.1)">
      <use xlink:href="#SimHei-9a8c"/>
      <use x="100" xlink:href="#SimHei-8bc1"/>
      <use x="200" xlink:href="#SimHei-635f"/>
      <use x="300" xlink:href="#SimHei-5931"/>
     </g>
    </g>
   </g>
  </g>
 </g>
 <defs>
  <clipPath id="p63b463e72b">
   <rect height="217.44" width="334.8" x="54" y="34.56"/>
  </clipPath>
 </defs>
</svg>
