<?xml version="1.0" encoding="utf-8" standalone="no"?>
<!DOCTYPE svg PUBLIC "-//W3C//DTD SVG 1.1//EN"
  "http://www.w3.org/Graphics/SVG/1.1/DTD/svg11.dtd">
<!-- Created with matplotlib (https://matplotlib.org/) -->
<svg height="288pt" version="1.1" viewBox="0 0 432 288" width="432pt" xmlns="http://www.w3.org/2000/svg" xmlns:xlink="http://www.w3.org/1999/xlink">
 <defs>
  <style type="text/css">
*{stroke-linecap:butt;stroke-linejoin:round;}
  </style>
 </defs>
 <g id="figure_1">
  <g id="patch_1">
   <path d="M 0 288 
L 432 288 
L 432 0 
L 0 0 
z
" style="fill:#ffffff;"/>
  </g>
  <g id="axes_1">
   <g id="patch_2">
    <path d="M 54 252 
L 388.8 252 
L 388.8 34.56 
L 54 34.56 
z
" style="fill:#ffffff;"/>
   </g>
   <g id="matplotlib.axis_1">
    <g id="xtick_1">
     <g id="line2d_1">
      <defs>
       <path d="M 0 0 
L 0 3.5 
" id="mfdff4a9582" style="stroke:#000000;stroke-width:0.8;"/>
      </defs>
      <g>
       <use style="stroke:#000000;stroke-width:0.8;" x="69.218182" xlink:href="#mfdff4a9582" y="252"/>
      </g>
     </g>
     <g id="text_1">
      <!-- 0 -->
      <defs>
       <path d="M 46.484375 35.15625 
Q 46.484375 21.09375 41.40625 10.9375 
Q 36.328125 0.78125 25 0.78125 
Q 13.671875 0.78125 8.390625 10.9375 
Q 3.125 21.09375 3.125 35.15625 
Q 3.125 49.21875 8.390625 59.171875 
Q 13.671875 69.140625 25 69.140625 
Q 36.328125 69.140625 41.40625 59.171875 
Q 46.484375 49.21875 46.484375 35.15625 
z
M 37.109375 35.15625 
Q 37.109375 47.65625 34.171875 54.6875 
Q 31.25 61.71875 25 61.71875 
Q 18.75 61.71875 15.625 54.6875 
Q 12.5 47.65625 12.5 35.15625 
Q 12.5 22.65625 15.625 15.421875 
Q 18.75 8.203125 25 8.203125 
Q 31.25 8.203125 34.171875 15.421875 
Q 37.109375 22.65625 37.109375 35.15625 
z
" id="SimHei-48"/>
      </defs>
      <g transform="translate(66.718182 265.835938)scale(0.1 -0.1)">
       <use xlink:href="#SimHei-48"/>
      </g>
     </g>
    </g>
    <g id="xtick_2">
     <g id="line2d_2">
      <g>
       <use style="stroke:#000000;stroke-width:0.8;" x="112.823287" xlink:href="#mfdff4a9582" y="252"/>
      </g>
     </g>
     <g id="text_2">
      <!-- 50 -->
      <defs>
       <path d="M 44.140625 25.78125 
Q 44.140625 14.0625 38.46875 7.421875 
Q 32.8125 0.78125 23.4375 0.78125 
Q 15.234375 0.78125 9.953125 6.25 
Q 4.6875 11.71875 4.296875 21.09375 
L 13.28125 21.09375 
Q 13.28125 15.234375 16.015625 11.71875 
Q 18.75 8.203125 23.828125 8.203125 
Q 28.90625 8.203125 31.828125 12.5 
Q 34.765625 16.796875 34.765625 25.78125 
Q 34.765625 33.59375 32.21875 37.296875 
Q 29.6875 41.015625 25.390625 41.015625 
Q 21.875 41.015625 19.328125 39.453125 
Q 16.796875 37.890625 14.453125 33.984375 
L 6.640625 33.984375 
L 8.984375 68.359375 
L 42.578125 68.359375 
L 42.578125 60.9375 
L 16.40625 60.9375 
L 14.84375 42.96875 
Q 17.1875 45.3125 19.921875 46.484375 
Q 22.65625 47.65625 27.34375 47.65625 
Q 34.765625 47.65625 39.453125 41.984375 
Q 44.140625 36.328125 44.140625 25.78125 
z
" id="SimHei-53"/>
      </defs>
      <g transform="translate(107.823287 265.835938)scale(0.1 -0.1)">
       <use xlink:href="#SimHei-53"/>
       <use x="50" xlink:href="#SimHei-48"/>
      </g>
     </g>
    </g>
    <g id="xtick_3">
     <g id="line2d_3">
      <g>
       <use style="stroke:#000000;stroke-width:0.8;" x="156.428393" xlink:href="#mfdff4a9582" y="252"/>
      </g>
     </g>
     <g id="text_3">
      <!-- 100 -->
      <defs>
       <path d="M 30.46875 1.5625 
L 21.484375 1.5625 
L 21.484375 53.515625 
L 9.765625 53.515625 
L 9.765625 58.203125 
Q 16.796875 58.203125 20.703125 60.9375 
Q 24.609375 63.671875 25.78125 69.140625 
L 30.46875 69.140625 
z
" id="SimHei-49"/>
      </defs>
      <g transform="translate(148.928393 265.835938)scale(0.1 -0.1)">
       <use xlink:href="#SimHei-49"/>
       <use x="50" xlink:href="#SimHei-48"/>
       <use x="100" xlink:href="#SimHei-48"/>
      </g>
     </g>
    </g>
    <g id="xtick_4">
     <g id="line2d_4">
      <g>
       <use style="stroke:#000000;stroke-width:0.8;" x="200.033498" xlink:href="#mfdff4a9582" y="252"/>
      </g>
     </g>
     <g id="text_4">
      <!-- 150 -->
      <g transform="translate(192.533498 265.835938)scale(0.1 -0.1)">
       <use xlink:href="#SimHei-49"/>
       <use x="50" xlink:href="#SimHei-53"/>
       <use x="100" xlink:href="#SimHei-48"/>
      </g>
     </g>
    </g>
    <g id="xtick_5">
     <g id="line2d_5">
      <g>
       <use style="stroke:#000000;stroke-width:0.8;" x="243.638604" xlink:href="#mfdff4a9582" y="252"/>
      </g>
     </g>
     <g id="text_5">
      <!-- 200 -->
      <defs>
       <path d="M 44.53125 1.5625 
L 4.6875 1.5625 
L 4.6875 7.8125 
Q 7.03125 14.0625 11.125 19.328125 
Q 15.234375 24.609375 23.046875 31.25 
Q 28.90625 36.328125 31.4375 40.625 
Q 33.984375 44.921875 33.984375 50 
Q 33.984375 55.078125 31.828125 58.390625 
Q 29.6875 61.71875 25 61.71875 
Q 21.09375 61.71875 18.15625 58.203125 
Q 15.234375 54.6875 15.234375 45.703125 
L 6.25 45.703125 
Q 6.640625 57.03125 11.515625 63.078125 
Q 16.40625 69.140625 25.390625 69.140625 
Q 33.984375 69.140625 38.671875 63.859375 
Q 43.359375 58.59375 43.359375 49.609375 
Q 43.359375 42.1875 39.0625 36.71875 
Q 34.765625 31.25 28.515625 25.78125 
Q 21.484375 19.53125 18.75 16.40625 
Q 16.015625 13.28125 13.671875 8.984375 
L 44.53125 8.984375 
z
" id="SimHei-50"/>
      </defs>
      <g transform="translate(236.138604 265.835938)scale(0.1 -0.1)">
       <use xlink:href="#SimHei-50"/>
       <use x="50" xlink:href="#SimHei-48"/>
       <use x="100" xlink:href="#SimHei-48"/>
      </g>
     </g>
    </g>
    <g id="xtick_6">
     <g id="line2d_6">
      <g>
       <use style="stroke:#000000;stroke-width:0.8;" x="287.243709" xlink:href="#mfdff4a9582" y="252"/>
      </g>
     </g>
     <g id="text_6">
      <!-- 250 -->
      <g transform="translate(279.743709 265.835938)scale(0.1 -0.1)">
       <use xlink:href="#SimHei-50"/>
       <use x="50" xlink:href="#SimHei-53"/>
       <use x="100" xlink:href="#SimHei-48"/>
      </g>
     </g>
    </g>
    <g id="xtick_7">
     <g id="line2d_7">
      <g>
       <use style="stroke:#000000;stroke-width:0.8;" x="330.848815" xlink:href="#mfdff4a9582" y="252"/>
      </g>
     </g>
     <g id="text_7">
      <!-- 300 -->
      <defs>
       <path d="M 44.140625 20.3125 
Q 44.140625 11.328125 38.46875 6.046875 
Q 32.8125 0.78125 24.21875 0.78125 
Q 15.625 0.78125 9.953125 6.046875 
Q 4.296875 11.328125 4.296875 22.265625 
L 13.28125 22.265625 
Q 13.28125 14.84375 16.203125 11.515625 
Q 19.140625 8.203125 24.21875 8.203125 
Q 29.296875 8.203125 32.03125 11.328125 
Q 34.765625 14.453125 34.765625 21.09375 
Q 34.765625 26.5625 31.828125 29.6875 
Q 28.90625 32.8125 21.484375 32.8125 
L 21.484375 39.453125 
Q 27.734375 39.453125 30.65625 42.578125 
Q 33.59375 45.703125 33.59375 51.953125 
Q 33.59375 56.640625 31.4375 59.375 
Q 29.296875 62.109375 24.609375 62.109375 
Q 19.921875 62.109375 17.375 58.78125 
Q 14.84375 55.46875 14.453125 49.21875 
L 5.859375 49.21875 
Q 6.640625 58.203125 11.515625 63.671875 
Q 16.40625 69.140625 24.609375 69.140625 
Q 33.203125 69.140625 37.890625 64.25 
Q 42.578125 59.375 42.578125 52.34375 
Q 42.578125 45.703125 40.234375 41.984375 
Q 37.890625 38.28125 32.421875 36.328125 
Q 37.890625 35.15625 41.015625 30.859375 
Q 44.140625 26.5625 44.140625 20.3125 
z
" id="SimHei-51"/>
      </defs>
      <g transform="translate(323.348815 265.835938)scale(0.1 -0.1)">
       <use xlink:href="#SimHei-51"/>
       <use x="50" xlink:href="#SimHei-48"/>
       <use x="100" xlink:href="#SimHei-48"/>
      </g>
     </g>
    </g>
    <g id="xtick_8">
     <g id="line2d_8">
      <g>
       <use style="stroke:#000000;stroke-width:0.8;" x="374.45392" xlink:href="#mfdff4a9582" y="252"/>
      </g>
     </g>
     <g id="text_8">
      <!-- 350 -->
      <g transform="translate(366.95392 265.835938)scale(0.1 -0.1)">
       <use xlink:href="#SimHei-51"/>
       <use x="50" xlink:href="#SimHei-53"/>
       <use x="100" xlink:href="#SimHei-48"/>
      </g>
     </g>
    </g>
    <g id="text_9">
     <!-- 迭代次数 -->
     <defs>
      <path d="M 81.640625 4.296875 
Q 74.21875 14.84375 61.328125 28.125 
Q 56.640625 19.921875 51.75 15.03125 
Q 46.875 10.15625 39.84375 4.296875 
Q 37.890625 6.25 32.03125 10.546875 
Q 40.625 14.84375 47.0625 21.671875 
Q 53.515625 28.515625 56.25 37.5 
Q 36.71875 37.5 30.46875 37.109375 
L 30.46875 44.140625 
Q 37.109375 43.75 57.421875 43.75 
Q 58.203125 49.609375 58.59375 57.8125 
L 42.578125 57.8125 
Q 40.625 53.125 39.0625 48.828125 
Q 34.765625 50.390625 30.46875 51.171875 
Q 33.203125 55.859375 35.546875 62.5 
Q 37.890625 69.140625 39.84375 78.90625 
Q 43.75 77.34375 49.609375 76.171875 
Q 46.875 72.265625 44.921875 64.0625 
L 58.59375 64.0625 
Q 58.59375 74.21875 57.8125 80.078125 
Q 62.5 79.296875 66.796875 79.6875 
Q 66.015625 75 65.625 64.0625 
L 76.953125 64.0625 
Q 80.46875 64.0625 86.71875 64.453125 
L 86.71875 57.03125 
Q 80.46875 57.8125 75.78125 57.8125 
L 66.015625 57.8125 
Q 65.625 49.609375 64.84375 43.75 
L 80.078125 43.75 
Q 85.15625 43.75 92.1875 44.140625 
L 92.1875 37.109375 
Q 85.15625 37.5 78.90625 37.5 
L 64.453125 37.5 
L 64.0625 35.15625 
Q 72.265625 26.953125 89.0625 10.9375 
Q 87.109375 9.765625 81.640625 4.296875 
z
M 11.328125 74.21875 
Q 15.234375 75.78125 19.921875 76.5625 
Q 23.828125 64.84375 26.171875 58.984375 
Q 21.875 58.59375 17.1875 57.03125 
Q 16.015625 60.546875 11.328125 74.21875 
z
M 6.25 45.3125 
Q 12.890625 44.921875 17.578125 44.921875 
L 25 44.921875 
Q 24.609375 37.890625 24.609375 30.859375 
L 24.609375 8.59375 
Q 34.375 0 57.8125 0 
Q 81.25 0 94.53125 1.953125 
Q 92.1875 -3.515625 91.40625 -7.421875 
Q 65.234375 -7.421875 55.65625 -7.21875 
Q 46.09375 -7.03125 38.859375 -5.65625 
Q 31.640625 -4.296875 26.75 -0.78125 
Q 21.875 2.734375 18.75 -0.390625 
Q 15.625 -3.515625 11.71875 -8.984375 
Q 8.203125 -5.078125 4.296875 -2.734375 
Q 12.890625 4.6875 17.578125 7.421875 
L 17.578125 38.671875 
Q 12.5 38.671875 6.25 38.28125 
z
" id="SimHei-36845"/>
      <path d="M 31.640625 42.1875 
Q 37.890625 42.96875 51.5625 45.703125 
Q 49.609375 70.703125 49.21875 78.90625 
Q 51.5625 78.515625 59.375 77.734375 
Q 57.8125 72.65625 59.375 47.265625 
Q 78.125 50.78125 88.28125 53.90625 
L 90.234375 46.484375 
Q 85.9375 46.09375 60.15625 40.625 
Q 64.84375 16.015625 73.625 7.21875 
Q 82.421875 -1.5625 83.78125 3.3125 
Q 85.15625 8.203125 85.9375 11.71875 
Q 91.796875 7.421875 94.921875 6.640625 
Q 92.1875 -1.953125 89.640625 -6.25 
Q 87.109375 -10.546875 80.65625 -8.984375 
Q 74.21875 -7.421875 65.03125 4.6875 
Q 55.859375 16.796875 52.34375 39.0625 
Q 37.5 35.9375 33.984375 34.375 
z
M 66.796875 70.703125 
Q 69.921875 72.65625 73.828125 75.390625 
Q 75.390625 73.4375 78.3125 69.328125 
Q 81.25 65.234375 83.203125 62.5 
Q 79.296875 60.15625 75.78125 57.8125 
Q 71.875 63.28125 66.796875 70.703125 
z
M 25.78125 80.46875 
Q 32.03125 77.734375 35.9375 76.5625 
Q 32.8125 73.046875 26.5625 56.25 
L 26.5625 7.421875 
Q 26.5625 -0.78125 26.953125 -9.375 
L 18.75 -9.375 
Q 19.140625 -0.78125 19.140625 7.421875 
L 19.140625 42.578125 
Q 13.28125 33.203125 9.765625 28.125 
Q 6.640625 31.25 3.125 34.375 
Q 8.203125 38.671875 15.421875 52.140625 
Q 22.65625 65.625 25.78125 80.46875 
z
" id="SimHei-20195"/>
      <path d="M 8.203125 67.1875 
Q 11.328125 69.140625 15.625 71.09375 
Q 17.96875 67.1875 21.09375 61.71875 
Q 24.21875 56.25 27.34375 50.78125 
Q 23.046875 48.828125 19.53125 46.484375 
Q 17.1875 51.171875 14.640625 56.640625 
Q 12.109375 62.109375 8.203125 67.1875 
z
M 23.046875 34.765625 
Q 25.78125 32.421875 30.46875 30.078125 
Q 28.125 26.5625 23.625 17.96875 
Q 19.140625 9.375 14.0625 -0.78125 
Q 10.546875 1.953125 6.25 4.6875 
Q 12.109375 10.9375 16.203125 19.328125 
Q 20.3125 27.734375 23.046875 34.765625 
z
M 46.875 79.296875 
Q 51.171875 77.734375 57.03125 75.390625 
Q 54.6875 73.828125 52.921875 69.53125 
Q 51.171875 65.234375 49.21875 60.9375 
L 90.625 60.9375 
Q 89.453125 57.8125 87.5 52.140625 
Q 85.546875 46.484375 83.203125 38.28125 
Q 78.90625 39.453125 74.609375 40.234375 
Q 76.171875 43.75 77.34375 47.265625 
Q 78.515625 50.78125 79.6875 54.6875 
L 46.484375 54.6875 
Q 44.53125 51.5625 42.375 46.875 
Q 40.234375 42.1875 37.5 37.5 
Q 34.765625 39.84375 30.46875 41.40625 
Q 33.203125 44.921875 35.734375 49.609375 
Q 38.28125 54.296875 40.421875 59.375 
Q 42.578125 64.453125 44.140625 69.53125 
Q 45.703125 74.609375 46.875 79.296875 
z
M 54.6875 47.65625 
Q 59.375 47.265625 64.0625 46.484375 
Q 62.890625 42.578125 62.6875 35.15625 
Q 62.5 27.734375 65.8125 21.484375 
Q 69.140625 15.234375 73.828125 10.9375 
Q 78.515625 6.640625 83.984375 4.09375 
Q 89.453125 1.5625 93.75 0.390625 
Q 91.40625 -1.171875 90.234375 -3.3125 
Q 89.0625 -5.46875 87.890625 -8.59375 
Q 79.296875 -3.90625 74.21875 0.1875 
Q 69.140625 4.296875 66.203125 8.203125 
Q 63.28125 12.109375 61.71875 15.8125 
Q 60.15625 19.53125 58.984375 23.046875 
Q 57.03125 17.1875 54.875 12.6875 
Q 52.734375 8.203125 49.40625 4.6875 
Q 46.09375 1.171875 41.796875 -2.140625 
Q 37.5 -5.46875 31.640625 -9.375 
Q 28.90625 -5.078125 25 -2.34375 
Q 34.765625 1.171875 40.625 6.4375 
Q 46.484375 11.71875 49.609375 17.1875 
Q 52.734375 22.65625 53.703125 27.921875 
Q 54.6875 33.203125 54.875 36.90625 
Q 55.078125 40.625 54.6875 47.65625 
z
" id="SimHei-27425"/>
      <path d="M 10.9375 75.78125 
Q 14.84375 76.953125 17.1875 78.515625 
Q 20.3125 73.4375 23.046875 68.359375 
Q 19.53125 66.796875 16.796875 65.234375 
Q 14.453125 71.09375 10.9375 75.78125 
z
M 44.921875 78.515625 
Q 49.21875 76.5625 53.125 75 
Q 50.78125 73.4375 49.21875 70.703125 
Q 47.65625 67.96875 45.703125 64.453125 
Q 42.578125 66.015625 39.453125 66.796875 
Q 42.578125 71.875 44.921875 78.515625 
z
M 38.28125 49.609375 
Q 41.796875 51.171875 44.140625 53.515625 
Q 48.828125 46.875 51.953125 41.40625 
Q 48.4375 39.84375 45.3125 37.5 
Q 42.1875 44.921875 38.28125 49.609375 
z
M 8.203125 61.71875 
Q 14.453125 61.328125 28.125 61.328125 
Q 28.125 72.65625 27.734375 80.859375 
L 35.546875 80.859375 
Q 35.15625 72.65625 35.15625 61.328125 
Q 48.046875 61.328125 53.90625 61.71875 
L 53.90625 54.6875 
Q 48.046875 55.078125 35.15625 55.078125 
Q 35.15625 46.09375 35.546875 39.453125 
L 27.734375 39.453125 
Q 28.125 45.3125 28.125 51.953125 
Q 26.171875 48.046875 21.671875 43.546875 
Q 17.1875 39.0625 11.71875 35.9375 
Q 10.15625 39.453125 6.640625 41.796875 
Q 10.15625 42.96875 15.421875 46.875 
Q 20.703125 50.78125 23.046875 55.078125 
Q 14.84375 55.078125 8.203125 54.6875 
z
M 26.953125 24.21875 
Q 25 20.3125 22.65625 16.40625 
Q 27.34375 15.234375 35.15625 13.28125 
Q 37.890625 16.796875 40.234375 24.21875 
z
M 24.21875 38.28125 
Q 28.515625 36.71875 32.8125 35.546875 
Q 31.25 33.984375 29.296875 30.46875 
L 44.53125 30.46875 
L 48.828125 30.46875 
Q 46.484375 20.3125 42.1875 11.328125 
Q 48.828125 9.375 52.734375 8.203125 
Q 49.609375 3.90625 48.046875 0.390625 
Q 44.53125 2.734375 37.5 5.46875 
Q 28.125 -3.90625 9.375 -10.15625 
Q 7.8125 -6.25 4.6875 -3.90625 
Q 21.484375 0 31.25 8.203125 
Q 20.3125 10.9375 13.28125 12.890625 
Q 15.625 16.015625 19.53125 24.21875 
Q 13.28125 24.21875 4.6875 23.828125 
L 4.6875 30.859375 
Q 12.109375 30.46875 21.875 30.46875 
Q 23.046875 33.59375 24.21875 38.28125 
z
M 63.671875 80.46875 
Q 68.359375 78.515625 73.4375 77.734375 
Q 71.484375 75.390625 70.5 72.265625 
Q 69.53125 69.140625 67.96875 63.28125 
L 85.546875 63.28125 
Q 89.0625 63.28125 94.53125 63.671875 
L 94.53125 56.640625 
Q 90.234375 57.03125 87.5 57.03125 
Q 87.109375 48.828125 85.546875 35.34375 
Q 83.984375 21.875 78.125 11.71875 
Q 82.03125 6.25 87.109375 2.734375 
Q 92.1875 -0.78125 96.09375 -2.34375 
Q 90.625 -5.859375 89.0625 -9.375 
Q 82.421875 -4.6875 79.296875 -1.359375 
Q 76.171875 1.953125 73.4375 5.859375 
Q 68.75 1.171875 64.640625 -1.953125 
Q 60.546875 -5.078125 51.5625 -10.15625 
Q 49.609375 -6.640625 45.3125 -3.90625 
Q 52.734375 -1.171875 58.984375 3.125 
Q 65.234375 7.421875 69.53125 12.109375 
Q 65.234375 20.703125 62.890625 29.09375 
Q 60.546875 37.5 60.15625 41.015625 
Q 59.375 38.28125 58.203125 34.765625 
Q 54.6875 36.328125 50.390625 37.890625 
Q 55.078125 46.484375 58.984375 58.59375 
Q 62.890625 70.703125 63.671875 80.46875 
z
M 66.40625 57.03125 
Q 64.84375 53.125 64.0625 50.578125 
Q 63.28125 48.046875 66.984375 36.71875 
Q 70.703125 25.390625 74.21875 19.140625 
Q 77.734375 28.515625 79.09375 38.671875 
Q 80.46875 48.828125 80.46875 57.03125 
z
" id="SimHei-25968"/>
     </defs>
     <g transform="translate(201.4 278.976562)scale(0.1 -0.1)">
      <use xlink:href="#SimHei-36845"/>
      <use x="100" xlink:href="#SimHei-20195"/>
      <use x="200" xlink:href="#SimHei-27425"/>
      <use x="300" xlink:href="#SimHei-25968"/>
     </g>
    </g>
   </g>
   <g id="matplotlib.axis_2">
    <g id="ytick_1">
     <g id="line2d_9">
      <defs>
       <path d="M 0 0 
L -3.5 0 
" id="mb8e2108460" style="stroke:#000000;stroke-width:0.8;"/>
      </defs>
      <g>
       <use style="stroke:#000000;stroke-width:0.8;" x="54" xlink:href="#mb8e2108460" y="215.89078"/>
      </g>
     </g>
     <g id="text_10">
      <!-- 0.4 -->
      <defs>
       <path d="M 17.1875 1.5625 
L 8.203125 1.5625 
L 8.203125 10.15625 
L 17.1875 10.15625 
z
" id="SimHei-46"/>
       <path d="M 46.484375 18.75 
L 38.28125 18.75 
L 38.28125 1.5625 
L 29.296875 1.5625 
L 29.296875 18.75 
L 3.125 18.75 
L 3.125 26.171875 
L 29.296875 69.140625 
L 38.28125 69.140625 
L 38.28125 26.171875 
L 46.484375 26.171875 
z
M 29.296875 26.171875 
L 29.296875 55.078125 
L 11.71875 26.171875 
z
" id="SimHei-52"/>
      </defs>
      <g transform="translate(32 219.308749)scale(0.1 -0.1)">
       <use xlink:href="#SimHei-48"/>
       <use x="50" xlink:href="#SimHei-46"/>
       <use x="100" xlink:href="#SimHei-52"/>
      </g>
     </g>
    </g>
    <g id="ytick_2">
     <g id="line2d_10">
      <g>
       <use style="stroke:#000000;stroke-width:0.8;" x="54" xlink:href="#mb8e2108460" y="176.420712"/>
      </g>
     </g>
     <g id="text_11">
      <!-- 0.6 -->
      <defs>
       <path d="M 44.53125 24.21875 
Q 44.53125 13.28125 39.84375 7.03125 
Q 35.15625 0.78125 25.78125 0.78125 
Q 16.40625 0.78125 10.9375 8.59375 
Q 5.46875 16.40625 5.46875 33.984375 
Q 5.46875 50 11.125 59.5625 
Q 16.796875 69.140625 27.34375 69.140625 
Q 34.765625 69.140625 39.25 63.671875 
Q 43.75 58.203125 43.75 51.5625 
L 34.765625 51.5625 
Q 34.765625 55.46875 32.609375 58.59375 
Q 30.46875 61.71875 26.953125 61.71875 
Q 21.09375 61.71875 17.96875 55.65625 
Q 14.84375 49.609375 14.453125 37.109375 
Q 17.1875 42.1875 20.3125 44.140625 
Q 23.4375 46.09375 27.734375 46.09375 
Q 35.15625 46.09375 39.84375 40.234375 
Q 44.53125 34.375 44.53125 24.21875 
z
M 35.15625 24.21875 
Q 35.15625 31.25 32.8125 35.15625 
Q 30.46875 39.0625 26.171875 39.0625 
Q 21.09375 39.0625 18.15625 35.15625 
Q 15.234375 31.25 15.234375 25.78125 
Q 15.234375 17.1875 18.15625 12.5 
Q 21.09375 7.8125 26.171875 7.8125 
Q 29.6875 7.8125 32.421875 11.328125 
Q 35.15625 14.84375 35.15625 24.21875 
z
" id="SimHei-54"/>
      </defs>
      <g transform="translate(32 179.838681)scale(0.1 -0.1)">
       <use xlink:href="#SimHei-48"/>
       <use x="50" xlink:href="#SimHei-46"/>
       <use x="100" xlink:href="#SimHei-54"/>
      </g>
     </g>
    </g>
    <g id="ytick_3">
     <g id="line2d_11">
      <g>
       <use style="stroke:#000000;stroke-width:0.8;" x="54" xlink:href="#mb8e2108460" y="136.950643"/>
      </g>
     </g>
     <g id="text_12">
      <!-- 0.8 -->
      <defs>
       <path d="M 44.921875 20.703125 
Q 44.921875 10.9375 39.453125 5.859375 
Q 33.984375 0.78125 24.609375 0.78125 
Q 15.234375 0.78125 9.765625 5.859375 
Q 4.296875 10.9375 4.296875 20.703125 
Q 4.296875 25.78125 7.421875 29.875 
Q 10.546875 33.984375 16.015625 35.9375 
Q 11.328125 37.890625 8.78125 41.40625 
Q 6.25 44.921875 6.25 50.390625 
Q 6.25 58.984375 11.71875 64.0625 
Q 17.1875 69.140625 24.609375 69.140625 
Q 32.03125 69.140625 37.5 64.0625 
Q 42.96875 58.984375 42.96875 50.390625 
Q 42.96875 44.921875 40.421875 41.40625 
Q 37.890625 37.890625 33.203125 35.9375 
Q 38.671875 33.984375 41.796875 29.875 
Q 44.921875 25.78125 44.921875 20.703125 
z
M 34.375 50.390625 
Q 34.375 56.640625 31.640625 59.375 
Q 28.90625 62.109375 24.609375 62.109375 
Q 20.3125 62.109375 17.578125 59.375 
Q 14.84375 56.640625 14.84375 50.390625 
Q 14.84375 44.140625 17.765625 41.59375 
Q 20.703125 39.0625 24.609375 39.0625 
Q 28.515625 39.0625 31.4375 41.59375 
Q 34.375 44.140625 34.375 50.390625 
z
M 35.9375 20.703125 
Q 35.9375 26.171875 33 29.296875 
Q 30.078125 32.421875 24.609375 32.421875 
Q 19.140625 32.421875 16.203125 29.296875 
Q 13.28125 26.171875 13.28125 20.703125 
Q 13.28125 14.453125 16.40625 11.125 
Q 19.53125 7.8125 24.609375 7.8125 
Q 29.6875 7.8125 32.8125 11.125 
Q 35.9375 14.453125 35.9375 20.703125 
z
" id="SimHei-56"/>
      </defs>
      <g transform="translate(32 140.368612)scale(0.1 -0.1)">
       <use xlink:href="#SimHei-48"/>
       <use x="50" xlink:href="#SimHei-46"/>
       <use x="100" xlink:href="#SimHei-56"/>
      </g>
     </g>
    </g>
    <g id="ytick_4">
     <g id="line2d_12">
      <g>
       <use style="stroke:#000000;stroke-width:0.8;" x="54" xlink:href="#mb8e2108460" y="97.480575"/>
      </g>
     </g>
     <g id="text_13">
      <!-- 1.0 -->
      <g transform="translate(32 100.898544)scale(0.1 -0.1)">
       <use xlink:href="#SimHei-49"/>
       <use x="50" xlink:href="#SimHei-46"/>
       <use x="100" xlink:href="#SimHei-48"/>
      </g>
     </g>
    </g>
    <g id="ytick_5">
     <g id="line2d_13">
      <g>
       <use style="stroke:#000000;stroke-width:0.8;" x="54" xlink:href="#mb8e2108460" y="58.010506"/>
      </g>
     </g>
     <g id="text_14">
      <!-- 1.2 -->
      <g transform="translate(32 61.428475)scale(0.1 -0.1)">
       <use xlink:href="#SimHei-49"/>
       <use x="50" xlink:href="#SimHei-46"/>
       <use x="100" xlink:href="#SimHei-50"/>
      </g>
     </g>
    </g>
    <g id="text_15">
     <!-- 损失大小 -->
     <defs>
      <path d="M 6.640625 61.71875 
Q 11.328125 61.328125 19.53125 61.328125 
L 19.53125 69.140625 
Q 19.53125 74.609375 19.140625 79.296875 
L 26.953125 79.296875 
Q 26.5625 75 26.5625 69.140625 
L 26.5625 61.328125 
Q 30.859375 61.328125 36.71875 61.71875 
L 36.71875 54.6875 
Q 30.859375 55.078125 26.5625 55.078125 
L 26.5625 37.5 
Q 29.6875 38.28125 35.9375 41.40625 
Q 35.9375 38.28125 36.328125 34.375 
Q 32.03125 32.8125 26.5625 30.46875 
L 26.5625 2.34375 
Q 26.5625 -3.90625 23.234375 -5.265625 
Q 19.921875 -6.640625 11.328125 -7.8125 
Q 10.9375 -4.296875 8.59375 0.390625 
Q 13.671875 0 16.59375 0.1875 
Q 19.53125 0.390625 19.53125 5.078125 
L 19.53125 27.734375 
Q 12.109375 25 7.8125 22.265625 
Q 7.421875 26.953125 5.46875 31.25 
Q 10.9375 32.03125 19.53125 35.15625 
L 19.53125 55.078125 
Q 11.71875 55.078125 6.640625 54.6875 
z
M 45.3125 75.78125 
L 84.765625 75.78125 
Q 84.375 69.921875 84.375 64.453125 
Q 84.375 58.984375 84.765625 53.125 
L 45.3125 53.125 
Q 45.703125 58.984375 45.703125 64.453125 
Q 45.703125 69.921875 45.3125 75.78125 
z
M 52.34375 69.921875 
L 52.34375 58.984375 
L 78.125 58.984375 
L 78.125 69.921875 
z
M 41.40625 46.09375 
L 87.890625 46.09375 
Q 87.5 41.015625 87.5 35.15625 
L 87.5 25.78125 
Q 87.5 19.921875 87.890625 12.890625 
L 80.46875 12.890625 
L 80.46875 39.84375 
L 48.828125 39.84375 
L 48.828125 12.5 
L 41.40625 12.5 
Q 41.796875 18.75 41.796875 25.390625 
L 41.796875 34.765625 
Q 41.796875 39.0625 41.40625 46.09375 
z
M 60.546875 33.984375 
Q 64.84375 33.203125 69.53125 32.8125 
Q 67.96875 27.34375 66.984375 19.921875 
Q 66.015625 12.5 63.46875 7.8125 
Q 60.9375 3.125 55.65625 -1.359375 
Q 50.390625 -5.859375 37.890625 -10.15625 
Q 36.71875 -7.03125 32.421875 -3.125 
Q 42.96875 -1.171875 48.625 2.53125 
Q 54.296875 6.25 57.03125 11.125 
Q 59.765625 16.015625 60.15625 21.875 
Q 60.546875 27.734375 60.546875 33.984375 
z
M 67.1875 5.078125 
Q 69.921875 7.8125 71.484375 10.9375 
Q 76.171875 8.203125 82.609375 4.6875 
Q 89.0625 1.171875 94.140625 -2.34375 
Q 91.015625 -5.46875 89.0625 -8.59375 
Q 84.375 -5.078125 79.484375 -1.75 
Q 74.609375 1.5625 67.1875 5.078125 
z
" id="SimHei-25439"/>
      <path d="M 23.828125 76.171875 
Q 28.90625 73.4375 33.203125 72.65625 
Q 30.859375 70.3125 27.34375 62.109375 
L 46.875 62.109375 
Q 46.875 75 46.484375 80.859375 
Q 50.390625 80.46875 56.25 79.6875 
Q 54.6875 75.78125 54.6875 72.0625 
Q 54.6875 68.359375 54.6875 62.109375 
L 73.046875 62.109375 
Q 78.125 62.109375 84.765625 62.5 
L 84.765625 54.6875 
Q 78.515625 55.078125 73.046875 55.078125 
L 54.6875 55.078125 
Q 54.6875 46.09375 53.90625 37.890625 
L 78.90625 37.890625 
Q 84.765625 37.890625 91.796875 38.28125 
L 91.796875 30.46875 
Q 84.765625 30.859375 78.90625 30.859375 
L 55.078125 30.859375 
Q 60.15625 19.53125 69.921875 12.109375 
Q 79.6875 4.6875 92.96875 1.953125 
Q 88.28125 -2.34375 87.890625 -6.640625 
Q 76.5625 -3.515625 66.40625 4.875 
Q 56.25 13.28125 50.78125 26.171875 
Q 45.703125 12.890625 36.90625 4.484375 
Q 28.125 -3.90625 15.625 -9.765625 
Q 13.671875 -5.46875 8.59375 -2.734375 
Q 20.703125 0.78125 30.65625 9.5625 
Q 40.625 18.359375 44.53125 30.859375 
L 22.265625 30.859375 
Q 16.015625 30.859375 8.59375 30.46875 
L 8.59375 38.28125 
Q 16.015625 37.890625 22.265625 37.890625 
L 45.703125 37.890625 
Q 46.484375 46.484375 46.875 55.078125 
L 24.609375 55.078125 
Q 21.875 49.609375 18.359375 43.75 
Q 14.453125 45.703125 10.15625 46.484375 
Q 15.625 53.515625 19.140625 61.515625 
Q 22.65625 69.53125 23.828125 76.171875 
z
" id="SimHei-22833"/>
      <path d="M 10.546875 54.296875 
Q 16.40625 53.90625 25 53.515625 
L 45.703125 53.515625 
Q 45.703125 66.015625 45.5 70.703125 
Q 45.3125 75.390625 44.921875 79.6875 
Q 49.609375 78.90625 55.078125 78.515625 
Q 53.90625 74.609375 53.515625 67.375 
Q 53.125 60.15625 53.125 53.515625 
L 75 53.515625 
Q 82.03125 53.90625 90.234375 54.296875 
L 90.234375 46.09375 
Q 82.03125 46.484375 75 46.484375 
L 53.515625 46.484375 
Q 54.296875 37.890625 57.03125 31.640625 
Q 59.765625 25.390625 65.03125 19.71875 
Q 70.3125 14.0625 77.140625 9.171875 
Q 83.984375 4.296875 92.1875 1.171875 
Q 87.890625 -2.34375 85.15625 -7.8125 
Q 79.296875 -4.296875 74.015625 -0.1875 
Q 68.75 3.90625 64.453125 8.59375 
Q 60.15625 13.28125 56.4375 19.140625 
Q 52.734375 25 50 31.640625 
Q 46.875 24.21875 43.75 18.9375 
Q 40.625 13.671875 36.328125 9.171875 
Q 32.03125 4.6875 26.359375 0.390625 
Q 20.703125 -3.90625 12.5 -8.59375 
Q 9.765625 -4.296875 5.859375 -0.390625 
Q 14.84375 2.734375 21.875 7.421875 
Q 28.90625 12.109375 33.984375 18.359375 
Q 39.0625 24.609375 41.984375 31.828125 
Q 44.921875 39.0625 45.3125 46.484375 
L 25 46.484375 
Q 16.40625 46.484375 10.546875 46.09375 
z
" id="SimHei-22823"/>
      <path d="M 21.484375 54.6875 
Q 26.171875 52.734375 31.25 51.953125 
Q 26.953125 42.96875 22.453125 31.640625 
Q 17.96875 20.3125 14.453125 12.890625 
Q 10.546875 15.625 6.25 16.796875 
Q 13.28125 28.125 16.984375 38.671875 
Q 20.703125 49.21875 21.484375 54.6875 
z
M 66.796875 50.78125 
Q 70.703125 52.34375 74.21875 55.078125 
Q 79.296875 46.875 84.765625 36.90625 
Q 90.234375 26.953125 94.140625 17.96875 
Q 89.453125 16.796875 85.15625 14.0625 
Q 81.25 24.609375 76.5625 33.78125 
Q 71.875 42.96875 66.796875 50.78125 
z
M 45.3125 77.734375 
L 54.6875 77.734375 
Q 53.90625 72.65625 53.90625 63.671875 
L 53.90625 2.734375 
Q 53.90625 -4.296875 50 -6.25 
Q 46.09375 -8.203125 37.5 -8.984375 
Q 36.328125 -3.515625 33.984375 0.390625 
Q 41.796875 0 43.75 0.390625 
Q 45.703125 0.78125 45.703125 5.078125 
L 45.703125 63.671875 
Q 45.703125 70.3125 45.3125 77.734375 
z
" id="SimHei-23567"/>
     </defs>
     <g transform="translate(26.710938 163.28)rotate(-90)scale(0.1 -0.1)">
      <use xlink:href="#SimHei-25439"/>
      <use x="100" xlink:href="#SimHei-22833"/>
      <use x="200" xlink:href="#SimHei-22823"/>
      <use x="300" xlink:href="#SimHei-23567"/>
     </g>
    </g>
   </g>
   <g id="line2d_14">
    <path clip-path="url(#p2599fd58a5)" d="M 69.218182 44.443636 
L 70.090284 50.924685 
L 70.962386 56.051658 
L 71.834488 58.035679 
L 72.70659 60.673624 
L 73.578692 61.012376 
L 74.450794 61.071954 
L 75.322897 62.054335 
L 76.194999 66.631862 
L 77.067101 73.197573 
L 77.939203 78.390132 
L 78.811305 79.887754 
L 79.683407 78.936484 
L 80.555509 77.21029 
L 81.427611 76.025755 
L 83.171816 77.350483 
L 84.043918 79.466809 
L 84.91602 84.98997 
L 85.788122 89.500177 
L 86.660224 91.763931 
L 87.532326 91.503054 
L 88.404428 88.218679 
L 90.148632 77.801104 
L 91.020735 76.660789 
L 91.892837 76.983532 
L 92.764939 81.146025 
L 93.637041 87.418497 
L 94.509143 91.974902 
L 95.381245 94.113659 
L 96.253347 93.494634 
L 97.125449 88.221576 
L 97.997551 82.160359 
L 98.869654 77.377819 
L 99.741756 74.82534 
L 100.613858 75.85709 
L 101.48596 78.87714 
L 102.358062 79.094741 
L 103.230164 76.767274 
L 104.102266 75.483731 
L 104.974368 76.474713 
L 105.84647 82.284669 
L 106.718573 89.774209 
L 107.590675 95.057628 
L 108.462777 90.925599 
L 109.334879 82.57216 
L 110.206981 69.241487 
L 111.079083 57.936778 
L 111.951185 54.143882 
L 112.823287 58.535528 
L 113.695389 69.357336 
L 115.439594 95.989835 
L 116.311696 103.08708 
L 117.183798 103.0591 
L 118.0559 98.426234 
L 118.928002 91.623536 
L 120.672206 70.900975 
L 121.544308 64.552521 
L 122.416411 61.224344 
L 123.288513 60.310341 
L 124.160615 63.020334 
L 125.032717 67.111583 
L 125.904819 73.831163 
L 126.776921 78.215139 
L 127.649023 84.411023 
L 130.26533 98.195172 
L 132.009534 107.131838 
L 132.881636 110.300382 
L 133.753738 112.441449 
L 134.62584 111.150082 
L 136.370044 103.300131 
L 137.242146 98.27025 
L 138.114249 93.975115 
L 139.858453 89.972254 
L 140.730555 90.533567 
L 141.602657 92.67841 
L 142.474759 95.434271 
L 144.218963 102.017345 
L 145.091065 104.47578 
L 145.963167 105.960963 
L 146.83527 109.265896 
L 147.707372 111.57783 
L 148.579474 114.399633 
L 149.451576 116.664678 
L 152.067882 124.556171 
L 152.939984 125.754553 
L 153.812086 126.59861 
L 154.684189 125.429655 
L 155.556291 123.702749 
L 157.300495 117.074274 
L 159.044699 108.337233 
L 159.916801 104.336905 
L 160.788903 103.075739 
L 161.661005 102.217812 
L 162.533108 103.372782 
L 163.40521 105.468865 
L 164.277312 110.796201 
L 165.149414 115.358717 
L 166.021516 122.025408 
L 168.637822 138.467758 
L 169.509924 142.464023 
L 170.382027 144.878589 
L 171.254129 145.329067 
L 172.126231 145.472294 
L 172.998333 143.541345 
L 173.870435 141.922523 
L 174.742537 139.000413 
L 177.358843 129.291612 
L 179.103048 125.338029 
L 179.97515 124.964301 
L 180.847252 124.713734 
L 181.719354 125.32447 
L 182.591456 126.515477 
L 183.463558 128.869784 
L 185.207762 134.988923 
L 187.824069 147.881686 
L 188.696171 151.837307 
L 189.568273 154.51693 
L 190.440375 157.956352 
L 191.312477 159.718139 
L 192.184579 161.136018 
L 193.056681 161.688357 
L 193.928784 161.881888 
L 194.800886 159.83637 
L 196.54509 157.151952 
L 197.417192 155.346415 
L 198.289294 152.972006 
L 199.161396 151.467817 
L 200.033498 149.225574 
L 200.9056 147.415317 
L 201.777703 147.729121 
L 202.649805 148.791444 
L 203.521907 148.846382 
L 204.394009 150.345499 
L 205.266111 152.224466 
L 207.010315 157.88274 
L 207.882417 162.233829 
L 211.370826 173.798064 
L 212.242928 175.713738 
L 213.11503 176.950949 
L 213.987132 176.887567 
L 214.859234 177.017662 
L 215.731336 176.808331 
L 216.603438 175.189417 
L 217.475541 174.386613 
L 218.347643 172.776156 
L 219.219745 172.099771 
L 220.091847 170.508544 
L 220.963949 169.831699 
L 222.708153 170.246289 
L 223.580255 170.868597 
L 224.452357 172.68183 
L 225.324459 175.877187 
L 226.196562 178.331528 
L 228.812868 189.674746 
L 230.557072 195.246345 
L 231.429174 196.477654 
L 232.301276 196.638588 
L 233.173378 196.007273 
L 234.045481 193.904809 
L 234.917583 191.118088 
L 236.661787 184.340545 
L 237.533889 181.638014 
L 238.405991 180.767855 
L 239.278093 180.431648 
L 240.150195 180.478416 
L 241.022297 182.049076 
L 242.766502 186.572762 
L 243.638604 190.164618 
L 244.510706 192.769808 
L 245.382808 193.487869 
L 246.25491 195.582801 
L 247.127012 195.523067 
L 247.999114 194.654083 
L 248.871216 194.39551 
L 249.743319 191.866528 
L 250.615421 192.858907 
L 251.487523 191.922621 
L 252.359625 192.744723 
L 253.231727 192.67477 
L 254.103829 194.047665 
L 254.975931 194.479065 
L 255.848033 194.008411 
L 258.46434 190.64979 
L 260.208544 187.669181 
L 261.080646 188.031261 
L 261.952748 189.205845 
L 263.696952 194.015829 
L 264.569054 196.692474 
L 265.441157 198.619204 
L 266.313259 197.945671 
L 267.185361 198.396168 
L 268.057463 198.108322 
L 270.673769 195.675505 
L 271.545871 195.282348 
L 272.417973 194.510265 
L 273.290076 192.968793 
L 274.162178 192.365723 
L 275.03428 190.45517 
L 275.906382 187.901636 
L 276.778484 186.088917 
L 277.650586 185.005481 
L 278.522688 181.293449 
L 279.39479 180.156022 
L 280.266892 179.747683 
L 281.138995 181.142543 
L 282.011097 183.313063 
L 282.883199 185.822726 
L 285.499505 203.008437 
L 286.371607 208.571043 
L 287.243709 213.35576 
L 288.115811 216.482399 
L 288.987914 216.316877 
L 289.860016 215.483596 
L 291.60422 204.758351 
L 293.348424 188.126286 
L 295.092628 176.018159 
L 295.96473 172.38619 
L 296.836833 172.422299 
L 297.708935 174.831356 
L 298.581037 179.697753 
L 299.453139 185.535086 
L 302.941547 212.434918 
L 303.813649 216.563091 
L 304.685751 218.867014 
L 305.557854 219.592541 
L 306.429956 218.524277 
L 307.302058 214.050033 
L 308.17416 208.463063 
L 309.918364 195.050772 
L 310.790466 184.654317 
L 311.662568 177.348975 
L 312.53467 171.400289 
L 313.406773 164.344256 
L 314.278875 161.107654 
L 315.150977 161.202974 
L 316.023079 162.20424 
L 317.767283 173.884573 
L 318.639385 181.217623 
L 321.255692 207.110513 
L 322.999896 219.043068 
L 323.871998 221.300695 
L 324.7441 222.50864 
L 325.616202 222.203146 
L 326.488304 219.243738 
L 328.232508 210.156969 
L 329.976713 198.435776 
L 332.593019 176.525856 
L 334.337223 168.214204 
L 335.209325 166.709818 
L 336.081427 168.003608 
L 336.95353 172.014424 
L 338.697734 187.904947 
L 339.569836 199.37415 
L 341.31404 216.996405 
L 342.186142 223.260462 
L 343.058244 227.320414 
L 343.930346 227.187557 
L 344.802449 225.39893 
L 345.674551 222.941317 
L 346.546653 218.523811 
L 348.290857 207.220346 
L 349.162959 202.748715 
L 350.035061 195.797757 
L 350.907163 190.27239 
L 353.52347 177.078196 
L 354.395572 173.128625 
L 355.267674 165.94697 
L 356.139776 167.241934 
L 357.011878 163.583013 
L 357.88398 164.916802 
L 358.756082 159.827971 
L 359.628184 162.131177 
L 361.372389 165.671522 
L 362.244491 166.386578 
L 363.116593 170.824859 
L 364.860797 181.785348 
L 365.732899 185.938659 
L 366.605001 191.962482 
L 367.477103 200.555468 
L 368.349206 206.680362 
L 370.09341 220.941092 
L 371.837614 229.369298 
L 372.709716 232.467535 
L 373.581818 233.031505 
L 373.581818 233.031505 
" style="fill:none;stroke:#ff0000;stroke-linecap:square;stroke-width:1.5;"/>
   </g>
   <g id="line2d_15">
    <path clip-path="url(#p2599fd58a5)" d="M 69.218182 48.515323 
L 70.090284 53.987411 
L 70.962386 58.723558 
L 71.834488 61.164027 
L 72.70659 62.58602 
L 74.450794 62.839066 
L 75.322897 65.660044 
L 77.067101 78.741144 
L 77.939203 83.137858 
L 78.811305 83.861753 
L 79.683407 83.286013 
L 80.555509 82.505433 
L 81.427611 82.055027 
L 82.299713 82.198124 
L 83.171816 83.916751 
L 84.043918 87.152346 
L 84.91602 92.091205 
L 85.788122 96.24906 
L 86.660224 97.511482 
L 87.532326 95.766094 
L 89.27653 87.847362 
L 90.148632 85.103314 
L 91.020735 84.800429 
L 91.892837 87.594858 
L 93.637041 98.411845 
L 94.509143 101.754683 
L 95.381245 101.887064 
L 96.253347 98.144373 
L 97.997551 87.417119 
L 98.869654 84.76441 
L 99.741756 85.240659 
L 101.48596 89.170076 
L 102.358062 89.415017 
L 104.102266 85.877237 
L 104.974368 88.576609 
L 105.84647 94.829107 
L 106.718573 100.078015 
L 107.590675 99.137322 
L 108.462777 91.724611 
L 110.206981 66.857623 
L 111.079083 59.013833 
L 111.951185 58.626701 
L 112.823287 66.627763 
L 114.567492 92.832703 
L 115.439594 102.615641 
L 116.311696 106.733966 
L 117.183798 105.24597 
L 118.0559 99.170135 
L 118.928002 91.709278 
L 119.800104 82.749597 
L 120.672206 75.050669 
L 121.544308 70.131501 
L 122.416411 67.924833 
L 124.160615 72.062656 
L 125.904819 82.560872 
L 126.776921 87.706477 
L 128.521125 94.733209 
L 130.26533 102.184833 
L 132.009534 108.485264 
L 132.881636 109.720014 
L 133.753738 109.020234 
L 134.62584 106.461858 
L 136.370044 97.626136 
L 137.242146 92.513808 
L 138.114249 89.197096 
L 138.986351 87.279774 
L 139.858453 86.578317 
L 140.730555 88.293445 
L 141.602657 91.311965 
L 145.963167 109.022698 
L 147.707372 115.405689 
L 151.19578 129.500417 
L 152.939984 133.66573 
L 153.812086 134.029312 
L 154.684189 132.754533 
L 155.556291 130.754082 
L 159.044699 116.334695 
L 159.916801 114.274465 
L 160.788903 112.509215 
L 161.661005 112.806096 
L 162.533108 114.321969 
L 163.40521 117.231153 
L 164.277312 121.384079 
L 167.76572 140.862667 
L 168.637822 144.058314 
L 169.509924 146.089907 
L 170.382027 146.687038 
L 171.254129 146.09346 
L 172.126231 144.097297 
L 172.998333 141.513884 
L 177.358843 124.762641 
L 178.230946 122.73263 
L 179.103048 121.026413 
L 179.97515 120.465636 
L 180.847252 120.658361 
L 181.719354 121.942674 
L 182.591456 124.479806 
L 183.463558 128.033472 
L 185.207762 136.454243 
L 186.951967 147.564011 
L 188.696171 157.879989 
L 190.440375 166.141059 
L 191.312477 169.210666 
L 192.184579 171.61734 
L 193.056681 172.758427 
L 193.928784 173.480352 
L 194.800886 173.239522 
L 196.54509 171.67909 
L 197.417192 171.205959 
L 199.161396 168.857829 
L 200.033498 168.708757 
L 200.9056 168.197878 
L 201.777703 169.391158 
L 202.649805 170.09525 
L 203.521907 171.068391 
L 204.394009 172.49436 
L 205.266111 175.659965 
L 206.138213 177.765924 
L 207.010315 180.204658 
L 207.882417 182.995411 
L 208.754519 184.909168 
L 209.626622 187.227279 
L 210.498724 188.755027 
L 211.370826 189.889186 
L 212.242928 189.982478 
L 213.987132 188.69386 
L 215.731336 184.754073 
L 216.603438 182.172183 
L 217.475541 180.073371 
L 218.347643 177.330851 
L 220.091847 173.524781 
L 221.836051 172.184352 
L 222.708153 172.65499 
L 223.580255 174.043311 
L 224.452357 176.05516 
L 225.324459 178.768737 
L 227.068664 186.512671 
L 228.812868 195.093977 
L 229.68497 198.896666 
L 230.557072 201.446536 
L 231.429174 203.22626 
L 232.301276 204.066279 
L 233.173378 203.378462 
L 234.045481 202.056724 
L 234.917583 200.487649 
L 236.661787 196.415826 
L 237.533889 194.856664 
L 238.405991 194.175922 
L 239.278093 194.108747 
L 240.150195 195.012521 
L 243.638604 202.570508 
L 244.510706 203.303481 
L 245.382808 203.337418 
L 246.25491 202.61349 
L 247.127012 201.580876 
L 248.871216 198.303817 
L 249.743319 196.300463 
L 250.615421 194.953968 
L 251.487523 194.156848 
L 252.359625 194.117878 
L 253.231727 193.698912 
L 254.103829 194.959849 
L 255.848033 195.492942 
L 256.720135 194.740564 
L 258.46434 192.785256 
L 259.336442 192.675305 
L 260.208544 192.977146 
L 261.952748 197.711135 
L 263.696952 204.412864 
L 264.569054 207.376422 
L 265.441157 209.530547 
L 266.313259 210.829679 
L 267.185361 211.472827 
L 268.057463 212.344439 
L 270.673769 212.23951 
L 271.545871 211.673624 
L 272.417973 211.575089 
L 273.290076 210.40095 
L 275.03428 206.400431 
L 275.906382 204.378975 
L 276.778484 200.951891 
L 277.650586 198.444661 
L 278.522688 195.530252 
L 279.39479 194.813871 
L 280.266892 193.61376 
L 281.138995 193.61608 
L 282.011097 195.720401 
L 283.755301 204.282963 
L 286.371607 218.767988 
L 287.243709 222.513158 
L 288.115811 223.742803 
L 288.987914 222.941579 
L 289.860016 219.621202 
L 290.732118 214.370603 
L 293.348424 192.527567 
L 294.220526 186.880658 
L 295.092628 182.83754 
L 295.96473 181.745557 
L 296.836833 183.195564 
L 297.708935 186.292885 
L 299.453139 199.73947 
L 301.197343 214.883849 
L 302.941547 228.362806 
L 303.813649 232.243751 
L 304.685751 234.041216 
L 305.557854 233.819166 
L 306.429956 231.109351 
L 307.302058 225.764571 
L 308.17416 218.482438 
L 311.662568 183.557909 
L 312.53467 177.353342 
L 313.406773 173.350406 
L 314.278875 170.226933 
L 315.150977 171.230908 
L 316.023079 174.329861 
L 316.895181 180.720253 
L 318.639385 198.091509 
L 320.383589 217.007011 
L 321.255692 225.402895 
L 322.127794 231.655827 
L 322.999896 236.052603 
L 323.871998 237.715584 
L 324.7441 238.148664 
L 325.616202 235.914388 
L 326.488304 232.174023 
L 327.360406 227.763884 
L 329.104611 216.554868 
L 329.976713 209.573479 
L 332.593019 191.99211 
L 333.465121 187.227102 
L 334.337223 184.884601 
L 335.209325 184.533587 
L 336.081427 186.546401 
L 336.95353 191.23267 
L 337.825632 198.733901 
L 340.441938 224.27999 
L 341.31404 230.590473 
L 342.186142 234.169818 
L 343.058244 235.704527 
L 343.930346 234.794218 
L 344.802449 232.649304 
L 345.674551 229.198331 
L 347.418755 219.429709 
L 348.290857 214.237743 
L 349.162959 208.247745 
L 350.035061 203.528425 
L 352.651368 192.053819 
L 353.52347 188.271653 
L 355.267674 183.508531 
L 356.139776 182.111639 
L 357.011878 181.408194 
L 358.756082 181.067547 
L 359.628184 181.73662 
L 360.500287 183.972498 
L 362.244491 190.00339 
L 363.988695 197.639416 
L 369.221308 233.251813 
L 370.965512 240.942825 
L 371.837614 242.116364 
L 372.709716 241.619036 
L 373.581818 239.89196 
L 373.581818 239.89196 
" style="fill:none;stroke:#008000;stroke-linecap:square;stroke-width:1.5;"/>
   </g>
   <g id="patch_3">
    <path d="M 54 252 
L 54 34.56 
" style="fill:none;stroke:#000000;stroke-linecap:square;stroke-linejoin:miter;stroke-width:0.8;"/>
   </g>
   <g id="patch_4">
    <path d="M 388.8 252 
L 388.8 34.56 
" style="fill:none;stroke:#000000;stroke-linecap:square;stroke-linejoin:miter;stroke-width:0.8;"/>
   </g>
   <g id="patch_5">
    <path d="M 54 252 
L 388.8 252 
" style="fill:none;stroke:#000000;stroke-linecap:square;stroke-linejoin:miter;stroke-width:0.8;"/>
   </g>
   <g id="patch_6">
    <path d="M 54 34.56 
L 388.8 34.56 
" style="fill:none;stroke:#000000;stroke-linecap:square;stroke-linejoin:miter;stroke-width:0.8;"/>
   </g>
   <g id="text_16">
    <!-- 损失变化 -->
    <defs>
     <path d="M 44.140625 79.296875 
Q 48.828125 80.078125 53.515625 80.859375 
Q 54.6875 73.046875 55.078125 69.921875 
L 72.265625 69.921875 
Q 83.203125 69.921875 91.796875 70.3125 
L 91.796875 62.890625 
Q 82.8125 63.28125 72.265625 63.28125 
L 62.890625 63.28125 
L 62.890625 46.484375 
Q 62.890625 38.671875 63.28125 33.984375 
L 55.078125 33.984375 
Q 55.46875 38.671875 55.46875 46.484375 
L 55.46875 63.28125 
L 43.359375 63.28125 
L 43.359375 46.484375 
Q 43.359375 39.0625 43.75 33.984375 
L 35.546875 33.984375 
Q 35.9375 39.0625 35.9375 46.484375 
L 35.9375 63.28125 
L 27.734375 63.28125 
Q 16.796875 63.28125 8.59375 62.890625 
L 8.59375 70.3125 
Q 16.40625 69.921875 27.734375 69.921875 
L 46.484375 69.921875 
Q 45.703125 74.609375 44.140625 79.296875 
z
M 21.484375 57.8125 
Q 25 55.078125 29.6875 52.734375 
Q 27.34375 50.78125 23.234375 45.3125 
Q 19.140625 39.84375 14.453125 33.984375 
Q 10.546875 36.71875 7.421875 38.671875 
Q 16.015625 46.875 21.484375 57.8125 
z
M 69.53125 51.953125 
Q 73.046875 54.6875 75.78125 57.421875 
Q 83.59375 50 92.1875 40.625 
Q 88.671875 38.28125 85.15625 35.15625 
Q 78.90625 42.96875 69.53125 51.953125 
z
M 17.578125 28.515625 
Q 24.609375 28.125 33.984375 28.125 
L 79.6875 28.125 
Q 74.609375 20.3125 69.53125 14.0625 
Q 64.453125 7.8125 58.59375 3.515625 
Q 67.578125 0.78125 74.40625 -0.1875 
Q 81.25 -1.171875 92.1875 -0.78125 
Q 89.0625 -4.296875 87.890625 -9.765625 
Q 75 -8.203125 66.015625 -5.859375 
Q 57.03125 -3.515625 51.171875 -1.171875 
Q 41.40625 -5.078125 32.8125 -6.828125 
Q 24.21875 -8.59375 12.109375 -10.15625 
Q 10.546875 -5.859375 7.8125 -1.953125 
Q 17.96875 -1.953125 26.359375 -0.78125 
Q 34.765625 0.390625 44.140625 3.125 
Q 36.328125 7.421875 27.34375 21.484375 
L 35.9375 21.484375 
Q 42.1875 11.71875 51.5625 7.03125 
Q 59.375 11.71875 66.40625 21.484375 
L 33.59375 21.484375 
Q 23.828125 21.484375 17.578125 21.09375 
z
" id="SimHei-21464"/>
     <path d="M 52.34375 79.296875 
L 60.9375 79.296875 
Q 60.15625 74.21875 60.15625 66.40625 
L 60.15625 37.890625 
Q 66.796875 43.75 71.875 50.96875 
Q 76.953125 58.203125 80.46875 65.234375 
Q 83.59375 62.890625 89.84375 60.15625 
Q 87.109375 57.8125 83.984375 53.90625 
Q 80.859375 50 77.34375 45.5 
Q 73.828125 41.015625 69.53125 36.515625 
Q 65.234375 32.03125 60.15625 28.125 
L 60.15625 6.25 
Q 60.15625 0.78125 65.234375 0.78125 
L 79.296875 0.78125 
Q 82.8125 1.171875 83.390625 4.09375 
Q 83.984375 7.03125 84.375 12.890625 
Q 88.28125 9.765625 93.75 8.984375 
Q 91.40625 -1.5625 88.859375 -3.90625 
Q 86.328125 -6.25 81.640625 -6.25 
L 60.9375 -6.25 
Q 52.734375 -6.25 52.734375 0.78125 
L 52.734375 23.4375 
Q 49.21875 21.09375 46.09375 19.140625 
Q 42.96875 17.1875 38.28125 14.0625 
Q 35.9375 18.359375 33.59375 21.09375 
Q 38.28125 23.046875 43.546875 25.96875 
Q 48.828125 28.90625 52.734375 32.421875 
L 52.734375 67.578125 
Q 52.734375 74.609375 52.34375 79.296875 
z
M 28.515625 80.859375 
Q 32.03125 78.515625 38.28125 76.5625 
Q 35.15625 72.265625 33.59375 68.15625 
Q 32.03125 64.0625 29.6875 58.59375 
L 29.6875 10.15625 
Q 29.6875 -1.953125 30.078125 -8.203125 
L 21.484375 -8.203125 
Q 22.265625 -2.34375 22.265625 9.765625 
L 22.265625 46.875 
Q 19.53125 42.1875 17.1875 39.0625 
Q 14.84375 35.9375 12.890625 33.59375 
Q 10.15625 36.71875 6.640625 39.453125 
Q 11.71875 44.53125 15.421875 50 
Q 19.140625 55.46875 21.484375 60.734375 
Q 23.828125 66.015625 25.578125 71.09375 
Q 27.34375 76.171875 28.515625 80.859375 
z
" id="SimHei-21270"/>
    </defs>
    <g transform="translate(197.4 28.56)scale(0.12 -0.12)">
     <use xlink:href="#SimHei-25439"/>
     <use x="100" xlink:href="#SimHei-22833"/>
     <use x="200" xlink:href="#SimHei-21464"/>
     <use x="300" xlink:href="#SimHei-21270"/>
    </g>
   </g>
   <g id="legend_1">
    <g id="patch_7">
     <path d="M 309.8 70.763125 
L 381.8 70.763125 
Q 383.8 70.763125 383.8 68.763125 
L 383.8 41.56 
Q 383.8 39.56 381.8 39.56 
L 309.8 39.56 
Q 307.8 39.56 307.8 41.56 
L 307.8 68.763125 
Q 307.8 70.763125 309.8 70.763125 
z
" style="fill:#ffffff;opacity:0.8;stroke:#cccccc;stroke-linejoin:miter;"/>
    </g>
    <g id="line2d_16">
     <path d="M 311.8 47.8725 
L 331.8 47.8725 
" style="fill:none;stroke:#ff0000;stroke-linecap:square;stroke-width:1.5;"/>
    </g>
    <g id="line2d_17"/>
    <g id="text_17">
     <!-- 训练损失 -->
     <defs>
      <path d="M 42.1875 77.34375 
Q 47.265625 76.953125 51.5625 76.5625 
Q 50.390625 71.875 50.1875 65.8125 
Q 50 59.765625 50 47.265625 
Q 50 34.765625 49.21875 26.5625 
Q 48.4375 18.359375 47.0625 12.109375 
Q 45.703125 5.859375 43.359375 0.96875 
Q 41.015625 -3.90625 37.890625 -8.59375 
Q 33.984375 -6.25 29.296875 -4.296875 
Q 33.984375 0 36.71875 5.46875 
Q 39.453125 10.9375 41.015625 19.140625 
Q 42.578125 27.34375 42.765625 38.859375 
Q 42.96875 50.390625 42.765625 58.390625 
Q 42.578125 66.40625 42.1875 77.34375 
z
M 59.765625 72.265625 
L 67.578125 72.265625 
Q 67.1875 65.234375 67.1875 57.8125 
L 67.1875 18.359375 
Q 67.1875 7.421875 67.578125 0.390625 
L 59.765625 0.390625 
Q 60.15625 7.421875 60.15625 18.359375 
L 60.15625 57.8125 
Q 60.15625 66.796875 59.765625 72.265625 
z
M 79.296875 76.953125 
L 87.109375 76.953125 
Q 86.71875 70.3125 86.71875 61.71875 
L 86.71875 14.84375 
Q 86.71875 3.90625 87.109375 -7.8125 
L 79.296875 -7.8125 
Q 79.6875 3.90625 79.6875 14.84375 
L 79.6875 61.71875 
Q 79.6875 70.3125 79.296875 76.953125 
z
M 13.28125 75 
Q 16.015625 76.953125 19.921875 79.296875 
Q 26.5625 69.140625 29.6875 64.0625 
Q 25.78125 62.109375 23.046875 59.765625 
Q 17.1875 70.3125 13.28125 75 
z
M 5.46875 51.5625 
Q 10.15625 51.171875 15.234375 51.171875 
L 25.390625 51.171875 
Q 25 42.1875 25 34.765625 
L 25 11.71875 
Q 30.078125 18.359375 31.640625 20.703125 
Q 33.59375 18.359375 36.328125 14.84375 
Q 31.25 9.375 27.734375 5.078125 
Q 24.21875 0.78125 20.703125 -4.296875 
Q 17.96875 -1.171875 14.84375 1.171875 
Q 17.96875 5.078125 17.96875 10.9375 
L 17.96875 44.140625 
L 15.234375 44.140625 
Q 10.15625 44.140625 5.46875 43.75 
z
" id="SimHei-35757"/>
      <path d="M 14.0625 49.609375 
Q 21.875 50.390625 25.390625 50.390625 
Q 29.6875 57.03125 32.03125 63.28125 
Q 35.15625 60.546875 39.84375 57.8125 
Q 35.9375 54.296875 31.640625 47.265625 
Q 27.34375 40.234375 18.359375 27.734375 
Q 20.703125 28.125 25.390625 28.90625 
Q 30.078125 29.6875 35.9375 30.46875 
Q 35.546875 26.5625 35.15625 23.4375 
Q 32.8125 23.4375 25.1875 22.65625 
Q 17.578125 21.875 11.71875 19.921875 
Q 9.765625 23.828125 7.8125 27.734375 
Q 12.109375 30.46875 15.421875 34.5625 
Q 18.75 38.671875 22.265625 44.921875 
Q 19.921875 44.921875 15.8125 44.140625 
Q 11.71875 43.359375 8.203125 42.1875 
Q 6.640625 46.09375 5.078125 50 
Q 8.984375 53.515625 12.890625 61.71875 
Q 16.796875 69.921875 19.921875 79.296875 
Q 23.828125 76.171875 28.515625 73.828125 
Q 25.390625 71.875 22.65625 65.8125 
Q 19.921875 59.765625 14.0625 49.609375 
z
M 6.25 8.203125 
Q 16.40625 9.765625 20.109375 10.546875 
Q 23.828125 11.328125 38.671875 14.453125 
Q 37.890625 10.546875 37.890625 7.421875 
Q 31.640625 6.25 23.4375 4.296875 
Q 15.234375 2.34375 8.984375 -0.390625 
Q 7.8125 4.296875 6.25 8.203125 
z
M 55.078125 43.75 
Q 50.390625 35.546875 49.21875 32.8125 
L 64.84375 32.8125 
L 64.84375 43.75 
z
M 51.171875 20.703125 
Q 54.296875 18.359375 59.375 16.015625 
Q 55.859375 13.28125 50.78125 6.25 
Q 45.703125 -0.78125 41.015625 -6.640625 
Q 37.109375 -4.296875 33.203125 -2.34375 
Q 37.109375 0.78125 42.375 7.21875 
Q 47.65625 13.671875 51.171875 20.703125 
z
M 76.5625 16.015625 
Q 79.6875 18.359375 83.203125 19.921875 
Q 85.546875 15.625 89.25 10.34375 
Q 92.96875 5.078125 95.703125 0.390625 
Q 91.796875 -1.171875 88.28125 -3.515625 
Q 85.15625 2.34375 82.609375 6.640625 
Q 80.078125 10.9375 76.5625 16.015625 
z
M 49.609375 49.609375 
Q 52.34375 55.078125 54.296875 60.15625 
L 52.34375 60.15625 
Q 46.484375 60.15625 39.453125 59.765625 
L 39.453125 66.40625 
Q 46.484375 66.015625 52.734375 66.015625 
L 55.859375 66.015625 
Q 57.03125 68.75 58.203125 72.453125 
Q 59.375 76.171875 59.765625 80.859375 
Q 65.625 77.734375 69.140625 76.5625 
Q 67.1875 74.21875 65.8125 71.484375 
Q 64.453125 68.75 63.28125 66.015625 
L 78.125 66.015625 
Q 84.765625 66.015625 90.625 66.40625 
L 90.625 59.765625 
Q 84.765625 60.15625 78.125 60.15625 
L 61.71875 60.15625 
Q 59.375 54.6875 57.03125 49.609375 
L 72.65625 49.609375 
Q 72.265625 44.921875 72.265625 39.0625 
L 72.265625 32.8125 
L 77.34375 32.8125 
Q 83.59375 32.8125 89.453125 33.203125 
L 89.453125 26.5625 
Q 83.59375 26.953125 77.34375 26.953125 
L 72.265625 26.953125 
L 72.265625 2.734375 
Q 72.265625 -5.46875 68.546875 -7.609375 
Q 64.84375 -9.765625 58.59375 -10.15625 
Q 57.421875 -5.078125 54.6875 -0.390625 
Q 62.890625 -1.171875 63.859375 0.390625 
Q 64.84375 1.953125 64.84375 5.859375 
L 64.84375 26.953125 
L 52.734375 26.953125 
Q 49.609375 26.953125 47.0625 26.359375 
Q 44.53125 25.78125 42.1875 24.609375 
Q 40.625 28.515625 38.28125 31.640625 
Q 42.1875 33.203125 47.65625 43.75 
Q 44.53125 43.75 40.625 43.359375 
L 40.625 50 
Q 46.09375 49.609375 49.609375 49.609375 
z
" id="SimHei-32451"/>
     </defs>
     <g transform="translate(339.8 51.3725)scale(0.1 -0.1)">
      <use xlink:href="#SimHei-35757"/>
      <use x="100" xlink:href="#SimHei-32451"/>
      <use x="200" xlink:href="#SimHei-25439"/>
      <use x="300" xlink:href="#SimHei-22833"/>
     </g>
    </g>
    <g id="line2d_18">
     <path d="M 311.8 61.974063 
L 331.8 61.974063 
" style="fill:none;stroke:#008000;stroke-linecap:square;stroke-width:1.5;"/>
    </g>
    <g id="line2d_19"/>
    <g id="text_18">
     <!-- 验证损失 -->
     <defs>
      <path d="M 6.25 73.046875 
Q 12.109375 72.65625 17.96875 72.65625 
L 36.328125 72.65625 
Q 35.546875 69.140625 35.15625 62.5 
L 32.421875 32.8125 
L 39.453125 32.8125 
Q 39.0625 29.6875 38.671875 22.65625 
L 37.5 1.5625 
Q 37.5 -6.25 32.8125 -7.421875 
Q 28.125 -8.59375 19.921875 -9.765625 
Q 18.75 -4.6875 16.796875 -1.171875 
Q 25 -1.171875 27.53125 -0.96875 
Q 30.078125 -0.78125 30.859375 2.734375 
L 32.03125 26.5625 
L 9.375 26.5625 
Q 9.765625 33.59375 9.953125 42.1875 
Q 10.15625 50.78125 10.15625 58.59375 
L 17.578125 58.59375 
Q 16.796875 54.296875 16.40625 47.65625 
Q 16.015625 41.015625 16.015625 32.8125 
L 25.78125 32.8125 
L 28.515625 66.40625 
L 17.96875 66.40625 
Q 12.109375 66.40625 6.25 66.015625 
z
M 3.90625 14.453125 
Q 9.375 14.84375 15.03125 15.625 
Q 20.703125 16.40625 28.125 17.578125 
Q 27.734375 14.84375 27.34375 10.9375 
Q 21.484375 10.15625 17.765625 9.375 
Q 14.0625 8.59375 6.640625 6.25 
Q 5.46875 10.546875 3.90625 14.453125 
z
M 58.984375 80.078125 
Q 63.671875 78.90625 69.140625 77.734375 
L 67.1875 75 
Q 73.4375 63.28125 80.078125 58 
Q 86.71875 52.734375 95.3125 49.609375 
Q 91.796875 46.484375 89.84375 42.1875 
Q 84.765625 44.921875 79.6875 49.21875 
L 79.6875 42.96875 
Q 74.609375 43.359375 65.421875 43.359375 
Q 56.25 43.359375 50.390625 42.96875 
L 50.390625 48.828125 
Q 48.046875 45.703125 43.75 41.015625 
Q 40.234375 44.140625 36.71875 46.09375 
Q 42.578125 50.390625 45.890625 54.6875 
Q 49.21875 58.984375 51.75 63.46875 
Q 54.296875 67.96875 56.046875 71.875 
Q 57.8125 75.78125 58.984375 80.078125 
z
M 62.890625 70.703125 
Q 60.15625 64.453125 57.609375 60.15625 
Q 55.078125 55.859375 50.78125 49.609375 
L 79.296875 49.609375 
Q 74.609375 53.125 70.703125 58 
Q 66.796875 62.890625 62.890625 70.703125 
z
M 44.53125 31.640625 
Q 47.65625 32.8125 50.78125 33.59375 
Q 52.34375 28.125 54.09375 21.28125 
Q 55.859375 14.453125 57.421875 8.984375 
Q 53.90625 8.59375 50.78125 7.03125 
Q 49.609375 14.0625 48.234375 19.140625 
Q 46.875 24.21875 44.53125 31.640625 
z
M 58.59375 34.375 
Q 62.109375 35.15625 65.234375 35.546875 
Q 66.015625 30.46875 66.796875 25.578125 
Q 67.578125 20.703125 68.75 12.890625 
Q 65.625 12.109375 62.5 11.328125 
Q 61.328125 19.921875 60.546875 24.21875 
Q 59.765625 28.515625 58.59375 34.375 
z
M 78.515625 35.546875 
Q 81.640625 34.375 87.109375 33.203125 
Q 85.15625 30.859375 83.984375 26.953125 
Q 82.8125 23.046875 80.265625 14.453125 
Q 77.734375 5.859375 76.171875 0.78125 
L 81.640625 0.78125 
Q 84.375 0.78125 89.84375 1.171875 
L 89.84375 -5.859375 
Q 85.15625 -5.46875 81.640625 -5.46875 
L 51.953125 -5.46875 
Q 44.921875 -5.46875 41.796875 -5.859375 
L 41.796875 1.171875 
Q 46.484375 0.78125 52.34375 0.78125 
L 69.53125 0.78125 
Q 72.65625 9.375 74.609375 18.15625 
Q 76.5625 26.953125 78.515625 35.546875 
z
" id="SimHei-39564"/>
      <path d="M 30.859375 64.453125 
Q 27.34375 61.71875 25 58.984375 
Q 18.75 67.578125 14.0625 72.265625 
Q 17.1875 74.609375 19.921875 77.34375 
Q 27.34375 68.75 30.859375 64.453125 
z
M 20.703125 -5.859375 
Q 17.96875 -2.34375 14.453125 0 
Q 19.140625 4.6875 19.140625 9.375 
L 19.140625 42.1875 
L 16.015625 42.1875 
Q 10.9375 42.1875 5.46875 41.796875 
L 5.46875 48.828125 
Q 10.546875 48.4375 16.015625 48.4375 
L 26.953125 48.4375 
Q 26.5625 41.40625 26.5625 33.59375 
L 26.5625 13.671875 
Q 29.6875 17.578125 32.421875 21.484375 
Q 34.375 17.1875 37.109375 14.0625 
Q 32.8125 9.375 29.296875 5.078125 
Q 25.78125 0.78125 20.703125 -5.859375 
z
M 38.671875 72.65625 
Q 46.484375 72.265625 55.078125 72.265625 
L 78.90625 72.265625 
Q 86.328125 72.265625 92.578125 72.65625 
L 92.578125 65.625 
Q 86.328125 66.015625 78.90625 66.015625 
L 69.53125 66.015625 
L 69.53125 40.234375 
L 78.125 40.234375 
Q 84.375 40.234375 90.234375 40.625 
L 90.234375 33.59375 
Q 84.765625 33.984375 78.125 33.984375 
L 69.53125 33.984375 
L 69.53125 3.90625 
L 79.6875 3.90625 
Q 86.328125 3.90625 94.53125 4.296875 
L 94.53125 -2.734375 
Q 86.328125 -2.34375 79.6875 -2.34375 
L 46.875 -2.34375 
Q 37.890625 -2.34375 32.03125 -2.734375 
L 32.03125 4.296875 
Q 37.890625 3.90625 43.75 3.90625 
L 43.75 32.421875 
Q 43.75 39.84375 43.359375 44.921875 
L 51.5625 44.921875 
Q 51.171875 40.234375 51.171875 32.421875 
L 51.171875 3.90625 
L 62.109375 3.90625 
L 62.109375 66.015625 
L 55.078125 66.015625 
Q 46.484375 66.015625 38.671875 65.625 
z
" id="SimHei-35777"/>
     </defs>
     <g transform="translate(339.8 65.474063)scale(0.1 -0.1)">
      <use xlink:href="#SimHei-39564"/>
      <use x="100" xlink:href="#SimHei-35777"/>
      <use x="200" xlink:href="#SimHei-25439"/>
      <use x="300" xlink:href="#SimHei-22833"/>
     </g>
    </g>
   </g>
  </g>
 </g>
 <defs>
  <clipPath id="p2599fd58a5">
   <rect height="217.44" width="334.8" x="54" y="34.56"/>
  </clipPath>
 </defs>
</svg>
