<?xml version="1.0" encoding="utf-8" standalone="no"?>
<!DOCTYPE svg PUBLIC "-//W3C//DTD SVG 1.1//EN"
  "http://www.w3.org/Graphics/SVG/1.1/DTD/svg11.dtd">
<!-- Created with matplotlib (http://matplotlib.org/) -->
<svg height="288pt" version="1.1" viewBox="0 0 432 288" width="432pt" xmlns="http://www.w3.org/2000/svg" xmlns:xlink="http://www.w3.org/1999/xlink">
 <defs>
  <style type="text/css">
*{stroke-linecap:butt;stroke-linejoin:round;}
  </style>
 </defs>
 <g id="figure_1">
  <g id="patch_1">
   <path d="M 0 288 
L 432 288 
L 432 0 
L 0 0 
z
" style="fill:#ffffff;"/>
  </g>
  <g id="axes_1">
   <g id="patch_2">
    <path d="M 54 252 
L 388.8 252 
L 388.8 34.56 
L 54 34.56 
z
" style="fill:#ffffff;"/>
   </g>
   <g id="matplotlib.axis_1">
    <g id="xtick_1">
     <g id="line2d_1">
      <defs>
       <path d="M 0 0 
L 0 3.5 
" id="m6e356fd0f9" style="stroke:#000000;stroke-width:0.8;"/>
      </defs>
      <g>
       <use style="stroke:#000000;stroke-width:0.8;" x="69.218182" xlink:href="#m6e356fd0f9" y="252"/>
      </g>
     </g>
     <g id="text_1">
      <!-- 0 -->
      <defs>
       <path d="M 31.78125 66.40625 
Q 24.171875 66.40625 20.328125 58.90625 
Q 16.5 51.421875 16.5 36.375 
Q 16.5 21.390625 20.328125 13.890625 
Q 24.171875 6.390625 31.78125 6.390625 
Q 39.453125 6.390625 43.28125 13.890625 
Q 47.125 21.390625 47.125 36.375 
Q 47.125 51.421875 43.28125 58.90625 
Q 39.453125 66.40625 31.78125 66.40625 
z
M 31.78125 74.21875 
Q 44.046875 74.21875 50.515625 64.515625 
Q 56.984375 54.828125 56.984375 36.375 
Q 56.984375 17.96875 50.515625 8.265625 
Q 44.046875 -1.421875 31.78125 -1.421875 
Q 19.53125 -1.421875 13.0625 8.265625 
Q 6.59375 17.96875 6.59375 36.375 
Q 6.59375 54.828125 13.0625 64.515625 
Q 19.53125 74.21875 31.78125 74.21875 
z
" id="DejaVuSans-30"/>
      </defs>
      <g transform="translate(66.036932 266.598437)scale(0.1 -0.1)">
       <use xlink:href="#DejaVuSans-30"/>
      </g>
     </g>
    </g>
    <g id="xtick_2">
     <g id="line2d_2">
      <g>
       <use style="stroke:#000000;stroke-width:0.8;" x="112.823287" xlink:href="#m6e356fd0f9" y="252"/>
      </g>
     </g>
     <g id="text_2">
      <!-- 50 -->
      <defs>
       <path d="M 10.796875 72.90625 
L 49.515625 72.90625 
L 49.515625 64.59375 
L 19.828125 64.59375 
L 19.828125 46.734375 
Q 21.96875 47.46875 24.109375 47.828125 
Q 26.265625 48.1875 28.421875 48.1875 
Q 40.625 48.1875 47.75 41.5 
Q 54.890625 34.8125 54.890625 23.390625 
Q 54.890625 11.625 47.5625 5.09375 
Q 40.234375 -1.421875 26.90625 -1.421875 
Q 22.3125 -1.421875 17.546875 -0.640625 
Q 12.796875 0.140625 7.71875 1.703125 
L 7.71875 11.625 
Q 12.109375 9.234375 16.796875 8.0625 
Q 21.484375 6.890625 26.703125 6.890625 
Q 35.15625 6.890625 40.078125 11.328125 
Q 45.015625 15.765625 45.015625 23.390625 
Q 45.015625 31 40.078125 35.4375 
Q 35.15625 39.890625 26.703125 39.890625 
Q 22.75 39.890625 18.8125 39.015625 
Q 14.890625 38.140625 10.796875 36.28125 
z
" id="DejaVuSans-35"/>
      </defs>
      <g transform="translate(106.460787 266.598437)scale(0.1 -0.1)">
       <use xlink:href="#DejaVuSans-35"/>
       <use x="63.623047" xlink:href="#DejaVuSans-30"/>
      </g>
     </g>
    </g>
    <g id="xtick_3">
     <g id="line2d_3">
      <g>
       <use style="stroke:#000000;stroke-width:0.8;" x="156.428393" xlink:href="#m6e356fd0f9" y="252"/>
      </g>
     </g>
     <g id="text_3">
      <!-- 100 -->
      <defs>
       <path d="M 12.40625 8.296875 
L 28.515625 8.296875 
L 28.515625 63.921875 
L 10.984375 60.40625 
L 10.984375 69.390625 
L 28.421875 72.90625 
L 38.28125 72.90625 
L 38.28125 8.296875 
L 54.390625 8.296875 
L 54.390625 0 
L 12.40625 0 
z
" id="DejaVuSans-31"/>
      </defs>
      <g transform="translate(146.884643 266.598437)scale(0.1 -0.1)">
       <use xlink:href="#DejaVuSans-31"/>
       <use x="63.623047" xlink:href="#DejaVuSans-30"/>
       <use x="127.246094" xlink:href="#DejaVuSans-30"/>
      </g>
     </g>
    </g>
    <g id="xtick_4">
     <g id="line2d_4">
      <g>
       <use style="stroke:#000000;stroke-width:0.8;" x="200.033498" xlink:href="#m6e356fd0f9" y="252"/>
      </g>
     </g>
     <g id="text_4">
      <!-- 150 -->
      <g transform="translate(190.489748 266.598437)scale(0.1 -0.1)">
       <use xlink:href="#DejaVuSans-31"/>
       <use x="63.623047" xlink:href="#DejaVuSans-35"/>
       <use x="127.246094" xlink:href="#DejaVuSans-30"/>
      </g>
     </g>
    </g>
    <g id="xtick_5">
     <g id="line2d_5">
      <g>
       <use style="stroke:#000000;stroke-width:0.8;" x="243.638604" xlink:href="#m6e356fd0f9" y="252"/>
      </g>
     </g>
     <g id="text_5">
      <!-- 200 -->
      <defs>
       <path d="M 19.1875 8.296875 
L 53.609375 8.296875 
L 53.609375 0 
L 7.328125 0 
L 7.328125 8.296875 
Q 12.9375 14.109375 22.625 23.890625 
Q 32.328125 33.6875 34.8125 36.53125 
Q 39.546875 41.84375 41.421875 45.53125 
Q 43.3125 49.21875 43.3125 52.78125 
Q 43.3125 58.59375 39.234375 62.25 
Q 35.15625 65.921875 28.609375 65.921875 
Q 23.96875 65.921875 18.8125 64.3125 
Q 13.671875 62.703125 7.8125 59.421875 
L 7.8125 69.390625 
Q 13.765625 71.78125 18.9375 73 
Q 24.125 74.21875 28.421875 74.21875 
Q 39.75 74.21875 46.484375 68.546875 
Q 53.21875 62.890625 53.21875 53.421875 
Q 53.21875 48.921875 51.53125 44.890625 
Q 49.859375 40.875 45.40625 35.40625 
Q 44.1875 33.984375 37.640625 27.21875 
Q 31.109375 20.453125 19.1875 8.296875 
z
" id="DejaVuSans-32"/>
      </defs>
      <g transform="translate(234.094854 266.598437)scale(0.1 -0.1)">
       <use xlink:href="#DejaVuSans-32"/>
       <use x="63.623047" xlink:href="#DejaVuSans-30"/>
       <use x="127.246094" xlink:href="#DejaVuSans-30"/>
      </g>
     </g>
    </g>
    <g id="xtick_6">
     <g id="line2d_6">
      <g>
       <use style="stroke:#000000;stroke-width:0.8;" x="287.243709" xlink:href="#m6e356fd0f9" y="252"/>
      </g>
     </g>
     <g id="text_6">
      <!-- 250 -->
      <g transform="translate(277.699959 266.598437)scale(0.1 -0.1)">
       <use xlink:href="#DejaVuSans-32"/>
       <use x="63.623047" xlink:href="#DejaVuSans-35"/>
       <use x="127.246094" xlink:href="#DejaVuSans-30"/>
      </g>
     </g>
    </g>
    <g id="xtick_7">
     <g id="line2d_7">
      <g>
       <use style="stroke:#000000;stroke-width:0.8;" x="330.848815" xlink:href="#m6e356fd0f9" y="252"/>
      </g>
     </g>
     <g id="text_7">
      <!-- 300 -->
      <defs>
       <path d="M 40.578125 39.3125 
Q 47.65625 37.796875 51.625 33 
Q 55.609375 28.21875 55.609375 21.1875 
Q 55.609375 10.40625 48.1875 4.484375 
Q 40.765625 -1.421875 27.09375 -1.421875 
Q 22.515625 -1.421875 17.65625 -0.515625 
Q 12.796875 0.390625 7.625 2.203125 
L 7.625 11.71875 
Q 11.71875 9.328125 16.59375 8.109375 
Q 21.484375 6.890625 26.8125 6.890625 
Q 36.078125 6.890625 40.9375 10.546875 
Q 45.796875 14.203125 45.796875 21.1875 
Q 45.796875 27.640625 41.28125 31.265625 
Q 36.765625 34.90625 28.71875 34.90625 
L 20.21875 34.90625 
L 20.21875 43.015625 
L 29.109375 43.015625 
Q 36.375 43.015625 40.234375 45.921875 
Q 44.09375 48.828125 44.09375 54.296875 
Q 44.09375 59.90625 40.109375 62.90625 
Q 36.140625 65.921875 28.71875 65.921875 
Q 24.65625 65.921875 20.015625 65.03125 
Q 15.375 64.15625 9.8125 62.3125 
L 9.8125 71.09375 
Q 15.4375 72.65625 20.34375 73.4375 
Q 25.25 74.21875 29.59375 74.21875 
Q 40.828125 74.21875 47.359375 69.109375 
Q 53.90625 64.015625 53.90625 55.328125 
Q 53.90625 49.265625 50.4375 45.09375 
Q 46.96875 40.921875 40.578125 39.3125 
z
" id="DejaVuSans-33"/>
      </defs>
      <g transform="translate(321.305065 266.598437)scale(0.1 -0.1)">
       <use xlink:href="#DejaVuSans-33"/>
       <use x="63.623047" xlink:href="#DejaVuSans-30"/>
       <use x="127.246094" xlink:href="#DejaVuSans-30"/>
      </g>
     </g>
    </g>
    <g id="xtick_8">
     <g id="line2d_8">
      <g>
       <use style="stroke:#000000;stroke-width:0.8;" x="374.45392" xlink:href="#m6e356fd0f9" y="252"/>
      </g>
     </g>
     <g id="text_8">
      <!-- 350 -->
      <g transform="translate(364.91017 266.598437)scale(0.1 -0.1)">
       <use xlink:href="#DejaVuSans-33"/>
       <use x="63.623047" xlink:href="#DejaVuSans-35"/>
       <use x="127.246094" xlink:href="#DejaVuSans-30"/>
      </g>
     </g>
    </g>
    <g id="text_9">
     <!-- Epoches -->
     <defs>
      <path d="M 9.8125 72.90625 
L 55.90625 72.90625 
L 55.90625 64.59375 
L 19.671875 64.59375 
L 19.671875 43.015625 
L 54.390625 43.015625 
L 54.390625 34.71875 
L 19.671875 34.71875 
L 19.671875 8.296875 
L 56.78125 8.296875 
L 56.78125 0 
L 9.8125 0 
z
" id="DejaVuSans-45"/>
      <path d="M 18.109375 8.203125 
L 18.109375 -20.796875 
L 9.078125 -20.796875 
L 9.078125 54.6875 
L 18.109375 54.6875 
L 18.109375 46.390625 
Q 20.953125 51.265625 25.265625 53.625 
Q 29.59375 56 35.59375 56 
Q 45.5625 56 51.78125 48.09375 
Q 58.015625 40.1875 58.015625 27.296875 
Q 58.015625 14.40625 51.78125 6.484375 
Q 45.5625 -1.421875 35.59375 -1.421875 
Q 29.59375 -1.421875 25.265625 0.953125 
Q 20.953125 3.328125 18.109375 8.203125 
z
M 48.6875 27.296875 
Q 48.6875 37.203125 44.609375 42.84375 
Q 40.53125 48.484375 33.40625 48.484375 
Q 26.265625 48.484375 22.1875 42.84375 
Q 18.109375 37.203125 18.109375 27.296875 
Q 18.109375 17.390625 22.1875 11.75 
Q 26.265625 6.109375 33.40625 6.109375 
Q 40.53125 6.109375 44.609375 11.75 
Q 48.6875 17.390625 48.6875 27.296875 
z
" id="DejaVuSans-70"/>
      <path d="M 30.609375 48.390625 
Q 23.390625 48.390625 19.1875 42.75 
Q 14.984375 37.109375 14.984375 27.296875 
Q 14.984375 17.484375 19.15625 11.84375 
Q 23.34375 6.203125 30.609375 6.203125 
Q 37.796875 6.203125 41.984375 11.859375 
Q 46.1875 17.53125 46.1875 27.296875 
Q 46.1875 37.015625 41.984375 42.703125 
Q 37.796875 48.390625 30.609375 48.390625 
z
M 30.609375 56 
Q 42.328125 56 49.015625 48.375 
Q 55.71875 40.765625 55.71875 27.296875 
Q 55.71875 13.875 49.015625 6.21875 
Q 42.328125 -1.421875 30.609375 -1.421875 
Q 18.84375 -1.421875 12.171875 6.21875 
Q 5.515625 13.875 5.515625 27.296875 
Q 5.515625 40.765625 12.171875 48.375 
Q 18.84375 56 30.609375 56 
z
" id="DejaVuSans-6f"/>
      <path d="M 48.78125 52.59375 
L 48.78125 44.1875 
Q 44.96875 46.296875 41.140625 47.34375 
Q 37.3125 48.390625 33.40625 48.390625 
Q 24.65625 48.390625 19.8125 42.84375 
Q 14.984375 37.3125 14.984375 27.296875 
Q 14.984375 17.28125 19.8125 11.734375 
Q 24.65625 6.203125 33.40625 6.203125 
Q 37.3125 6.203125 41.140625 7.25 
Q 44.96875 8.296875 48.78125 10.40625 
L 48.78125 2.09375 
Q 45.015625 0.34375 40.984375 -0.53125 
Q 36.96875 -1.421875 32.421875 -1.421875 
Q 20.0625 -1.421875 12.78125 6.34375 
Q 5.515625 14.109375 5.515625 27.296875 
Q 5.515625 40.671875 12.859375 48.328125 
Q 20.21875 56 33.015625 56 
Q 37.15625 56 41.109375 55.140625 
Q 45.0625 54.296875 48.78125 52.59375 
z
" id="DejaVuSans-63"/>
      <path d="M 54.890625 33.015625 
L 54.890625 0 
L 45.90625 0 
L 45.90625 32.71875 
Q 45.90625 40.484375 42.875 44.328125 
Q 39.84375 48.1875 33.796875 48.1875 
Q 26.515625 48.1875 22.3125 43.546875 
Q 18.109375 38.921875 18.109375 30.90625 
L 18.109375 0 
L 9.078125 0 
L 9.078125 75.984375 
L 18.109375 75.984375 
L 18.109375 46.1875 
Q 21.34375 51.125 25.703125 53.5625 
Q 30.078125 56 35.796875 56 
Q 45.21875 56 50.046875 50.171875 
Q 54.890625 44.34375 54.890625 33.015625 
z
" id="DejaVuSans-68"/>
      <path d="M 56.203125 29.59375 
L 56.203125 25.203125 
L 14.890625 25.203125 
Q 15.484375 15.921875 20.484375 11.0625 
Q 25.484375 6.203125 34.421875 6.203125 
Q 39.59375 6.203125 44.453125 7.46875 
Q 49.3125 8.734375 54.109375 11.28125 
L 54.109375 2.78125 
Q 49.265625 0.734375 44.1875 -0.34375 
Q 39.109375 -1.421875 33.890625 -1.421875 
Q 20.796875 -1.421875 13.15625 6.1875 
Q 5.515625 13.8125 5.515625 26.8125 
Q 5.515625 40.234375 12.765625 48.109375 
Q 20.015625 56 32.328125 56 
Q 43.359375 56 49.78125 48.890625 
Q 56.203125 41.796875 56.203125 29.59375 
z
M 47.21875 32.234375 
Q 47.125 39.59375 43.09375 43.984375 
Q 39.0625 48.390625 32.421875 48.390625 
Q 24.90625 48.390625 20.390625 44.140625 
Q 15.875 39.890625 15.1875 32.171875 
z
" id="DejaVuSans-65"/>
      <path d="M 44.28125 53.078125 
L 44.28125 44.578125 
Q 40.484375 46.53125 36.375 47.5 
Q 32.28125 48.484375 27.875 48.484375 
Q 21.1875 48.484375 17.84375 46.4375 
Q 14.5 44.390625 14.5 40.28125 
Q 14.5 37.15625 16.890625 35.375 
Q 19.28125 33.59375 26.515625 31.984375 
L 29.59375 31.296875 
Q 39.15625 29.25 43.1875 25.515625 
Q 47.21875 21.78125 47.21875 15.09375 
Q 47.21875 7.46875 41.1875 3.015625 
Q 35.15625 -1.421875 24.609375 -1.421875 
Q 20.21875 -1.421875 15.453125 -0.5625 
Q 10.6875 0.296875 5.421875 2 
L 5.421875 11.28125 
Q 10.40625 8.6875 15.234375 7.390625 
Q 20.0625 6.109375 24.8125 6.109375 
Q 31.15625 6.109375 34.5625 8.28125 
Q 37.984375 10.453125 37.984375 14.40625 
Q 37.984375 18.0625 35.515625 20.015625 
Q 33.0625 21.96875 24.703125 23.78125 
L 21.578125 24.515625 
Q 13.234375 26.265625 9.515625 29.90625 
Q 5.8125 33.546875 5.8125 39.890625 
Q 5.8125 47.609375 11.28125 51.796875 
Q 16.75 56 26.8125 56 
Q 31.78125 56 36.171875 55.265625 
Q 40.578125 54.546875 44.28125 53.078125 
z
" id="DejaVuSans-73"/>
     </defs>
     <g transform="translate(200.407813 280.276563)scale(0.1 -0.1)">
      <use xlink:href="#DejaVuSans-45"/>
      <use x="63.183594" xlink:href="#DejaVuSans-70"/>
      <use x="126.660156" xlink:href="#DejaVuSans-6f"/>
      <use x="187.841797" xlink:href="#DejaVuSans-63"/>
      <use x="242.822266" xlink:href="#DejaVuSans-68"/>
      <use x="306.201172" xlink:href="#DejaVuSans-65"/>
      <use x="367.724609" xlink:href="#DejaVuSans-73"/>
     </g>
    </g>
   </g>
   <g id="matplotlib.axis_2">
    <g id="ytick_1">
     <g id="line2d_9">
      <defs>
       <path d="M 0 0 
L -3.5 0 
" id="ma446d57be1" style="stroke:#000000;stroke-width:0.8;"/>
      </defs>
      <g>
       <use style="stroke:#000000;stroke-width:0.8;" x="54" xlink:href="#ma446d57be1" y="251.661478"/>
      </g>
     </g>
     <g id="text_10">
      <!-- 0.0 -->
      <defs>
       <path d="M 10.6875 12.40625 
L 21 12.40625 
L 21 0 
L 10.6875 0 
z
" id="DejaVuSans-2e"/>
      </defs>
      <g transform="translate(31.096875 255.460697)scale(0.1 -0.1)">
       <use xlink:href="#DejaVuSans-30"/>
       <use x="63.623047" xlink:href="#DejaVuSans-2e"/>
       <use x="95.410156" xlink:href="#DejaVuSans-30"/>
      </g>
     </g>
    </g>
    <g id="ytick_2">
     <g id="line2d_10">
      <g>
       <use style="stroke:#000000;stroke-width:0.8;" x="54" xlink:href="#ma446d57be1" y="213.68178"/>
      </g>
     </g>
     <g id="text_11">
      <!-- 0.2 -->
      <g transform="translate(31.096875 217.480999)scale(0.1 -0.1)">
       <use xlink:href="#DejaVuSans-30"/>
       <use x="63.623047" xlink:href="#DejaVuSans-2e"/>
       <use x="95.410156" xlink:href="#DejaVuSans-32"/>
      </g>
     </g>
    </g>
    <g id="ytick_3">
     <g id="line2d_11">
      <g>
       <use style="stroke:#000000;stroke-width:0.8;" x="54" xlink:href="#ma446d57be1" y="175.702083"/>
      </g>
     </g>
     <g id="text_12">
      <!-- 0.4 -->
      <defs>
       <path d="M 37.796875 64.3125 
L 12.890625 25.390625 
L 37.796875 25.390625 
z
M 35.203125 72.90625 
L 47.609375 72.90625 
L 47.609375 25.390625 
L 58.015625 25.390625 
L 58.015625 17.1875 
L 47.609375 17.1875 
L 47.609375 0 
L 37.796875 0 
L 37.796875 17.1875 
L 4.890625 17.1875 
L 4.890625 26.703125 
z
" id="DejaVuSans-34"/>
      </defs>
      <g transform="translate(31.096875 179.501301)scale(0.1 -0.1)">
       <use xlink:href="#DejaVuSans-30"/>
       <use x="63.623047" xlink:href="#DejaVuSans-2e"/>
       <use x="95.410156" xlink:href="#DejaVuSans-34"/>
      </g>
     </g>
    </g>
    <g id="ytick_4">
     <g id="line2d_12">
      <g>
       <use style="stroke:#000000;stroke-width:0.8;" x="54" xlink:href="#ma446d57be1" y="137.722385"/>
      </g>
     </g>
     <g id="text_13">
      <!-- 0.6 -->
      <defs>
       <path d="M 33.015625 40.375 
Q 26.375 40.375 22.484375 35.828125 
Q 18.609375 31.296875 18.609375 23.390625 
Q 18.609375 15.53125 22.484375 10.953125 
Q 26.375 6.390625 33.015625 6.390625 
Q 39.65625 6.390625 43.53125 10.953125 
Q 47.40625 15.53125 47.40625 23.390625 
Q 47.40625 31.296875 43.53125 35.828125 
Q 39.65625 40.375 33.015625 40.375 
z
M 52.59375 71.296875 
L 52.59375 62.3125 
Q 48.875 64.0625 45.09375 64.984375 
Q 41.3125 65.921875 37.59375 65.921875 
Q 27.828125 65.921875 22.671875 59.328125 
Q 17.53125 52.734375 16.796875 39.40625 
Q 19.671875 43.65625 24.015625 45.921875 
Q 28.375 48.1875 33.59375 48.1875 
Q 44.578125 48.1875 50.953125 41.515625 
Q 57.328125 34.859375 57.328125 23.390625 
Q 57.328125 12.15625 50.6875 5.359375 
Q 44.046875 -1.421875 33.015625 -1.421875 
Q 20.359375 -1.421875 13.671875 8.265625 
Q 6.984375 17.96875 6.984375 36.375 
Q 6.984375 53.65625 15.1875 63.9375 
Q 23.390625 74.21875 37.203125 74.21875 
Q 40.921875 74.21875 44.703125 73.484375 
Q 48.484375 72.75 52.59375 71.296875 
z
" id="DejaVuSans-36"/>
      </defs>
      <g transform="translate(31.096875 141.521603)scale(0.1 -0.1)">
       <use xlink:href="#DejaVuSans-30"/>
       <use x="63.623047" xlink:href="#DejaVuSans-2e"/>
       <use x="95.410156" xlink:href="#DejaVuSans-36"/>
      </g>
     </g>
    </g>
    <g id="ytick_5">
     <g id="line2d_13">
      <g>
       <use style="stroke:#000000;stroke-width:0.8;" x="54" xlink:href="#ma446d57be1" y="99.742687"/>
      </g>
     </g>
     <g id="text_14">
      <!-- 0.8 -->
      <defs>
       <path d="M 31.78125 34.625 
Q 24.75 34.625 20.71875 30.859375 
Q 16.703125 27.09375 16.703125 20.515625 
Q 16.703125 13.921875 20.71875 10.15625 
Q 24.75 6.390625 31.78125 6.390625 
Q 38.8125 6.390625 42.859375 10.171875 
Q 46.921875 13.96875 46.921875 20.515625 
Q 46.921875 27.09375 42.890625 30.859375 
Q 38.875 34.625 31.78125 34.625 
z
M 21.921875 38.8125 
Q 15.578125 40.375 12.03125 44.71875 
Q 8.5 49.078125 8.5 55.328125 
Q 8.5 64.0625 14.71875 69.140625 
Q 20.953125 74.21875 31.78125 74.21875 
Q 42.671875 74.21875 48.875 69.140625 
Q 55.078125 64.0625 55.078125 55.328125 
Q 55.078125 49.078125 51.53125 44.71875 
Q 48 40.375 41.703125 38.8125 
Q 48.828125 37.15625 52.796875 32.3125 
Q 56.78125 27.484375 56.78125 20.515625 
Q 56.78125 9.90625 50.3125 4.234375 
Q 43.84375 -1.421875 31.78125 -1.421875 
Q 19.734375 -1.421875 13.25 4.234375 
Q 6.78125 9.90625 6.78125 20.515625 
Q 6.78125 27.484375 10.78125 32.3125 
Q 14.796875 37.15625 21.921875 38.8125 
z
M 18.3125 54.390625 
Q 18.3125 48.734375 21.84375 45.5625 
Q 25.390625 42.390625 31.78125 42.390625 
Q 38.140625 42.390625 41.71875 45.5625 
Q 45.3125 48.734375 45.3125 54.390625 
Q 45.3125 60.0625 41.71875 63.234375 
Q 38.140625 66.40625 31.78125 66.40625 
Q 25.390625 66.40625 21.84375 63.234375 
Q 18.3125 60.0625 18.3125 54.390625 
z
" id="DejaVuSans-38"/>
      </defs>
      <g transform="translate(31.096875 103.541905)scale(0.1 -0.1)">
       <use xlink:href="#DejaVuSans-30"/>
       <use x="63.623047" xlink:href="#DejaVuSans-2e"/>
       <use x="95.410156" xlink:href="#DejaVuSans-38"/>
      </g>
     </g>
    </g>
    <g id="ytick_6">
     <g id="line2d_14">
      <g>
       <use style="stroke:#000000;stroke-width:0.8;" x="54" xlink:href="#ma446d57be1" y="61.762989"/>
      </g>
     </g>
     <g id="text_15">
      <!-- 1.0 -->
      <g transform="translate(31.096875 65.562207)scale(0.1 -0.1)">
       <use xlink:href="#DejaVuSans-31"/>
       <use x="63.623047" xlink:href="#DejaVuSans-2e"/>
       <use x="95.410156" xlink:href="#DejaVuSans-30"/>
      </g>
     </g>
    </g>
    <g id="text_16">
     <!-- Loss -->
     <defs>
      <path d="M 9.8125 72.90625 
L 19.671875 72.90625 
L 19.671875 8.296875 
L 55.171875 8.296875 
L 55.171875 0 
L 9.8125 0 
z
" id="DejaVuSans-4c"/>
     </defs>
     <g transform="translate(25.017187 154.333906)rotate(-90)scale(0.1 -0.1)">
      <use xlink:href="#DejaVuSans-4c"/>
      <use x="55.697266" xlink:href="#DejaVuSans-6f"/>
      <use x="116.878906" xlink:href="#DejaVuSans-73"/>
      <use x="168.978516" xlink:href="#DejaVuSans-73"/>
     </g>
    </g>
   </g>
   <g id="line2d_15">
    <path clip-path="url(#p54cc4f4bb7)" d="M 69.218182 45.302575 
L 70.090284 49.229978 
L 70.962386 59.636695 
L 71.834488 86.816295 
L 72.70659 119.861514 
L 73.578692 159.322784 
L 74.450794 181.964432 
L 75.322897 189.559558 
L 76.194999 190.015903 
L 77.067101 201.022656 
L 77.939203 204.02339 
L 78.811305 204.353077 
L 79.683407 200.581679 
L 80.555509 206.151483 
L 81.427611 209.594732 
L 82.299713 214.816655 
L 83.171816 213.119451 
L 84.043918 216.709143 
L 84.91602 211.724288 
L 85.788122 201.092049 
L 86.660224 217.235848 
L 87.532326 219.50451 
L 88.404428 216.899183 
L 89.27653 219.655788 
L 90.148632 217.455466 
L 91.020735 218.689356 
L 91.892837 220.390726 
L 92.764939 221.404572 
L 93.637041 223.70537 
L 94.509143 221.37879 
L 95.381245 222.29301 
L 96.253347 218.42098 
L 97.125449 219.398479 
L 97.997551 215.42832 
L 98.869654 222.136985 
L 99.741756 221.478368 
L 100.613858 219.056956 
L 101.48596 222.956926 
L 102.358062 223.210897 
L 103.230164 220.064461 
L 104.102266 224.157129 
L 104.974368 222.62263 
L 105.84647 221.521412 
L 106.718573 220.034074 
L 107.590675 223.566607 
L 108.462777 226.520859 
L 109.334879 216.66352 
L 110.206981 217.542562 
L 111.951185 227.478475 
L 112.823287 225.535909 
L 113.695389 222.485266 
L 114.567492 222.222949 
L 115.439594 222.161957 
L 116.311696 224.10392 
L 117.183798 225.753854 
L 118.0559 227.682651 
L 119.800104 229.764182 
L 120.672206 228.993575 
L 121.544308 224.831443 
L 122.416411 225.774285 
L 123.288513 223.942213 
L 124.160615 217.850812 
L 125.032717 220.907652 
L 125.904819 227.525119 
L 126.776921 224.641206 
L 127.649023 228.244035 
L 128.521125 220.32855 
L 129.393227 226.419272 
L 130.26533 223.421122 
L 131.137432 230.683154 
L 132.009534 228.281612 
L 132.881636 229.859999 
L 133.753738 230.482638 
L 134.62584 223.126973 
L 136.370044 211.586727 
L 137.242146 219.018047 
L 138.114249 222.347706 
L 138.986351 228.45485 
L 139.858453 231.134391 
L 141.602657 224.106168 
L 142.474759 229.514122 
L 143.346861 227.719373 
L 144.218963 230.694714 
L 145.091065 227.732649 
L 145.963167 230.477738 
L 146.83527 228.397619 
L 147.707372 231.288038 
L 148.579474 232.450474 
L 149.451576 232.59906 
L 150.323678 231.275864 
L 151.19578 228.19068 
L 152.067882 231.18669 
L 152.939984 231.530254 
L 153.812086 232.690714 
L 154.684189 227.342553 
L 155.556291 229.845289 
L 156.428393 229.20477 
L 158.172597 234.39649 
L 159.044699 231.932897 
L 159.916801 225.730441 
L 160.788903 231.296633 
L 161.661005 233.219523 
L 162.533108 232.798733 
L 163.40521 233.375154 
L 164.277312 230.506254 
L 165.149414 232.469632 
L 166.021516 232.364933 
L 166.893618 221.807372 
L 167.76572 231.488939 
L 168.637822 233.942534 
L 169.509924 222.842442 
L 170.382027 223.853147 
L 171.254129 227.934753 
L 172.126231 227.313862 
L 172.998333 230.721707 
L 173.870435 231.33589 
L 174.742537 233.30116 
L 175.614639 233.912226 
L 176.486741 232.204264 
L 177.358843 231.801768 
L 178.230946 229.575257 
L 179.97515 233.117924 
L 180.847252 231.421533 
L 181.719354 234.426076 
L 182.591456 234.283996 
L 183.463558 233.562314 
L 184.33566 235.299375 
L 185.207762 231.592958 
L 186.079865 228.745092 
L 186.951967 229.627513 
L 187.824069 231.940845 
L 188.696171 234.917012 
L 189.568273 234.711733 
L 190.440375 232.327048 
L 191.312477 234.105703 
L 192.184579 232.320999 
L 193.056681 231.497819 
L 193.928784 232.46705 
L 194.800886 229.166924 
L 195.672988 235.845436 
L 196.54509 232.590278 
L 197.417192 232.4689 
L 198.289294 233.36253 
L 199.161396 232.591015 
L 200.033498 234.342308 
L 200.9056 236.889359 
L 201.777703 236.576824 
L 202.649805 236.502918 
L 203.521907 233.859858 
L 204.394009 229.875684 
L 205.266111 232.056263 
L 206.138213 231.987451 
L 207.010315 231.233675 
L 207.882417 234.139817 
L 208.754519 236.510269 
L 209.626622 233.342751 
L 210.498724 233.332764 
L 211.370826 234.197759 
L 212.242928 233.187752 
L 213.11503 231.198612 
L 213.987132 234.159666 
L 214.859234 233.584064 
L 215.731336 233.745382 
L 216.603438 236.097523 
L 217.475541 235.695503 
L 218.347643 233.335902 
L 219.219745 234.03531 
L 220.091847 235.766428 
L 220.963949 233.73127 
L 221.836051 230.671216 
L 222.708153 235.92662 
L 223.580255 236.976702 
L 224.452357 229.935919 
L 225.324459 238.092069 
L 226.196562 236.848191 
L 227.068664 234.238509 
L 227.940766 234.125421 
L 228.812868 237.967047 
L 230.557072 235.60864 
L 231.429174 235.97107 
L 232.301276 231.66225 
L 233.173378 233.075798 
L 234.045481 228.214543 
L 234.917583 229.901574 
L 235.789685 235.488212 
L 236.661787 236.442106 
L 237.533889 233.961908 
L 238.405991 234.158279 
L 239.278093 237.606107 
L 240.150195 236.203493 
L 241.022297 238.077898 
L 241.8944 236.888831 
L 242.766502 237.276311 
L 243.638604 238.394283 
L 244.510706 238.591658 
L 245.382808 236.009715 
L 246.25491 237.520543 
L 247.127012 236.588452 
L 247.999114 236.690463 
L 248.871216 238.000194 
L 249.743319 234.292157 
L 250.615421 235.561942 
L 251.487523 237.210832 
L 252.359625 236.684895 
L 253.231727 235.495955 
L 254.103829 237.277993 
L 254.975931 235.258455 
L 255.848033 234.38393 
L 256.720135 238.609628 
L 257.592238 236.473504 
L 258.46434 236.183515 
L 259.336442 238.203423 
L 260.208544 237.64466 
L 261.080646 238.286405 
L 261.952748 238.547568 
L 263.696952 236.41015 
L 264.569054 238.176202 
L 265.441157 236.157898 
L 266.313259 229.460238 
L 267.185361 233.615647 
L 268.057463 235.437666 
L 268.929565 237.519149 
L 269.801667 238.792789 
L 270.673769 233.177852 
L 271.545871 237.891574 
L 272.417973 236.620702 
L 273.290076 237.919428 
L 274.162178 236.829699 
L 275.03428 237.500354 
L 275.906382 237.822264 
L 276.778484 239.496084 
L 277.650586 238.206612 
L 278.522688 232.308093 
L 279.39479 235.45702 
L 280.266892 236.815123 
L 281.138995 238.822516 
L 282.011097 234.498099 
L 282.883199 237.989183 
L 283.755301 235.282679 
L 284.627403 235.068905 
L 285.499505 236.28458 
L 286.371607 238.376128 
L 287.243709 237.193621 
L 288.115811 238.964146 
L 288.987914 238.788464 
L 289.860016 238.465715 
L 290.732118 239.030047 
L 291.60422 233.096602 
L 292.476322 236.142156 
L 293.348424 239.666815 
L 294.220526 236.316698 
L 295.092628 238.41947 
L 295.96473 239.698878 
L 296.836833 239.22997 
L 297.708935 237.986984 
L 298.581037 238.229092 
L 299.453139 233.425693 
L 300.325241 239.127506 
L 301.197343 239.640063 
L 302.069445 234.057183 
L 302.941547 236.990559 
L 303.813649 237.802417 
L 305.557854 239.918416 
L 306.429956 233.352125 
L 307.302058 237.978288 
L 308.17416 238.803625 
L 309.046262 235.715148 
L 309.918364 237.579595 
L 310.790466 233.673939 
L 311.662568 237.753352 
L 312.53467 238.432963 
L 313.406773 237.056099 
L 314.278875 237.966406 
L 315.150977 238.339179 
L 316.023079 239.779442 
L 316.895181 235.481992 
L 317.767283 238.735612 
L 318.639385 239.617486 
L 319.511487 238.189867 
L 320.383589 238.1474 
L 321.255692 240.708324 
L 322.127794 238.393626 
L 322.999896 240.140895 
L 323.871998 235.311665 
L 324.7441 237.52238 
L 325.616202 239.066029 
L 326.488304 239.8826 
L 327.360406 235.877942 
L 328.232508 238.597733 
L 329.104611 239.036144 
L 329.976713 239.881491 
L 330.848815 241.363775 
L 331.720917 239.518153 
L 332.593019 238.041322 
L 333.465121 238.346226 
L 334.337223 237.360005 
L 335.209325 240.779508 
L 336.081427 241.063874 
L 336.95353 240.314528 
L 338.697734 239.909456 
L 339.569836 239.395175 
L 341.31404 240.071549 
L 342.186142 237.258985 
L 343.058244 240.808796 
L 343.930346 238.136066 
L 344.802449 239.622926 
L 345.674551 240.79497 
L 347.418755 236.949361 
L 349.162959 240.081164 
L 350.035061 239.369019 
L 350.907163 240.5494 
L 351.779265 239.103521 
L 352.651368 236.698469 
L 353.52347 240.379981 
L 354.395572 239.013148 
L 355.267674 239.382633 
L 356.139776 241.575101 
L 357.011878 241.218297 
L 357.88398 240.030283 
L 358.756082 237.624533 
L 359.628184 241.033345 
L 360.500287 241.085903 
L 361.372389 238.359594 
L 362.244491 242.116364 
L 363.116593 238.729345 
L 363.988695 238.122294 
L 364.860797 238.859615 
L 365.732899 241.739969 
L 366.605001 239.953968 
L 367.477103 240.97869 
L 368.349206 240.404083 
L 369.221308 241.285248 
L 370.09341 240.765723 
L 370.965512 241.4565 
L 371.837614 239.773208 
L 372.709716 239.298905 
L 373.581818 239.604103 
L 373.581818 239.604103 
" style="fill:none;stroke:#ff0000;stroke-linecap:square;stroke-width:1.5;"/>
   </g>
   <g id="line2d_16">
    <path clip-path="url(#p54cc4f4bb7)" d="M 69.218182 44.443636 
L 70.090284 50.385072 
L 70.962386 66.148781 
L 71.834488 100.769302 
L 72.70659 143.854838 
L 74.450794 194.318835 
L 75.322897 177.578045 
L 76.194999 200.588923 
L 77.067101 208.759186 
L 77.939203 214.857284 
L 78.811305 212.024393 
L 79.683407 205.722814 
L 80.555509 216.185258 
L 81.427611 215.249571 
L 82.299713 219.373863 
L 83.171816 220.742058 
L 84.043918 215.388946 
L 84.91602 219.466214 
L 85.788122 207.011811 
L 86.660224 221.989126 
L 87.532326 214.893766 
L 88.404428 223.263889 
L 89.27653 221.85478 
L 90.148632 226.732968 
L 91.020735 226.081038 
L 91.892837 226.947863 
L 92.764939 223.060232 
L 94.509143 213.883329 
L 95.381245 223.948916 
L 96.253347 227.234441 
L 97.125449 225.75562 
L 97.997551 227.465557 
L 98.869654 229.44876 
L 99.741756 223.336844 
L 100.613858 229.543374 
L 101.48596 223.126797 
L 102.358062 218.001796 
L 103.230164 229.236897 
L 104.102266 231.550209 
L 104.974368 217.307524 
L 105.84647 228.146183 
L 106.718573 230.308325 
L 107.590675 230.869421 
L 108.462777 225.881791 
L 109.334879 228.134521 
L 110.206981 231.104845 
L 111.079083 232.233635 
L 111.951185 231.864218 
L 112.823287 228.783283 
L 113.695389 219.862895 
L 114.567492 225.678427 
L 115.439594 213.464502 
L 116.311696 227.704017 
L 117.183798 231.033746 
L 118.0559 232.049387 
L 118.928002 235.155594 
L 119.800104 232.756392 
L 120.672206 231.237825 
L 121.544308 228.717677 
L 122.416411 216.010893 
L 123.288513 229.865127 
L 124.160615 219.465898 
L 125.904819 235.142426 
L 126.776921 232.182176 
L 127.649023 235.203691 
L 128.521125 233.831777 
L 129.393227 228.785957 
L 130.26533 231.096974 
L 131.137432 222.455338 
L 132.009534 235.054992 
L 132.881636 235.254238 
L 133.753738 219.63139 
L 134.62584 234.172179 
L 135.497942 221.531405 
L 136.370044 228.10353 
L 137.242146 216.371006 
L 138.114249 236.020601 
L 138.986351 233.856428 
L 139.858453 236.796913 
L 140.730555 232.929719 
L 141.602657 234.088981 
L 142.474759 230.33891 
L 143.346861 233.719965 
L 144.218963 224.148203 
L 145.091065 235.466652 
L 146.83527 233.658346 
L 147.707372 233.578409 
L 148.579474 234.937386 
L 150.323678 236.155579 
L 151.19578 231.968046 
L 152.067882 231.788242 
L 152.939984 235.936081 
L 153.812086 227.94212 
L 154.684189 233.978152 
L 155.556291 231.153841 
L 156.428393 234.122896 
L 157.300495 238.236325 
L 158.172597 238.84196 
L 159.044699 236.135651 
L 159.916801 235.87913 
L 160.788903 233.595793 
L 161.661005 236.960214 
L 162.533108 237.590854 
L 163.40521 236.745331 
L 164.277312 236.690168 
L 165.149414 235.252964 
L 166.021516 205.181845 
L 166.893618 237.635905 
L 167.76572 236.2167 
L 168.637822 232.098335 
L 169.509924 230.823494 
L 170.382027 231.658603 
L 171.254129 236.771957 
L 172.126231 234.30648 
L 172.998333 228.746021 
L 173.870435 232.203264 
L 174.742537 237.731956 
L 175.614639 233.183504 
L 176.486741 229.687309 
L 177.358843 233.951593 
L 178.230946 232.680559 
L 179.103048 230.85385 
L 179.97515 237.065969 
L 180.847252 234.98448 
L 181.719354 237.436624 
L 182.591456 238.153047 
L 184.33566 239.169014 
L 185.207762 239.062061 
L 186.079865 237.856706 
L 186.951967 238.945074 
L 187.824069 238.59236 
L 188.696171 232.305161 
L 189.568273 230.76877 
L 190.440375 237.093451 
L 191.312477 235.179879 
L 192.184579 225.536509 
L 193.056681 231.40159 
L 193.928784 234.238321 
L 194.800886 238.507609 
L 195.672988 238.145359 
L 196.54509 234.164295 
L 197.417192 237.410352 
L 198.289294 234.507204 
L 199.161396 238.188401 
L 200.033498 238.943373 
L 201.777703 237.296867 
L 202.649805 238.379817 
L 203.521907 231.707468 
L 204.394009 229.263204 
L 205.266111 235.685385 
L 206.138213 238.296378 
L 207.010315 236.620106 
L 207.882417 238.587997 
L 208.754519 236.257565 
L 209.626622 237.606515 
L 211.370826 235.619254 
L 212.242928 239.62574 
L 213.11503 234.995827 
L 213.987132 234.512795 
L 214.859234 236.969813 
L 215.731336 237.035562 
L 216.603438 238.70216 
L 217.475541 239.111075 
L 218.347643 231.195586 
L 219.219745 236.542433 
L 220.091847 235.354076 
L 220.963949 230.106308 
L 221.836051 237.983125 
L 222.708153 239.314787 
L 223.580255 236.112677 
L 224.452357 237.024091 
L 225.324459 237.44727 
L 226.196562 239.308408 
L 227.068664 239.286967 
L 227.940766 239.728082 
L 228.812868 236.684668 
L 229.68497 239.610278 
L 230.557072 237.423648 
L 231.429174 239.183513 
L 232.301276 232.289935 
L 233.173378 230.999413 
L 234.045481 237.488549 
L 234.917583 238.434686 
L 235.789685 236.960633 
L 236.661787 225.282538 
L 237.533889 233.720366 
L 238.405991 239.68239 
L 239.278093 239.604502 
L 240.150195 238.973025 
L 241.022297 234.641823 
L 241.8944 236.4188 
L 242.766502 240.044072 
L 243.638604 238.728741 
L 244.510706 233.345499 
L 245.382808 238.340771 
L 246.25491 237.225097 
L 247.127012 238.178645 
L 247.999114 239.548306 
L 248.871216 235.838075 
L 249.743319 233.488553 
L 250.615421 229.295473 
L 251.487523 236.756249 
L 252.359625 239.018685 
L 253.231727 237.52232 
L 254.975931 238.28628 
L 255.848033 239.038188 
L 256.720135 236.542706 
L 257.592238 237.114404 
L 258.46434 234.745905 
L 259.336442 239.434802 
L 260.208544 238.094879 
L 261.080646 237.716747 
L 261.952748 238.480006 
L 262.82485 238.0076 
L 263.696952 237.830117 
L 264.569054 239.81798 
L 265.441157 234.651656 
L 266.313259 238.416168 
L 267.185361 229.510384 
L 268.057463 230.705636 
L 268.929565 239.556767 
L 269.801667 240.186269 
L 270.673769 237.797637 
L 271.545871 237.432423 
L 272.417973 239.308632 
L 273.290076 240.084181 
L 274.162178 231.827333 
L 275.03428 239.596552 
L 275.906382 239.137307 
L 276.778484 237.296035 
L 277.650586 233.504676 
L 278.522688 239.059793 
L 279.39479 239.645682 
L 280.266892 240.031808 
L 281.138995 236.246875 
L 282.011097 237.044382 
L 282.883199 231.490485 
L 283.755301 239.088571 
L 284.627403 238.009091 
L 285.499505 239.027409 
L 286.371607 238.830602 
L 287.243709 236.656538 
L 288.115811 237.361621 
L 288.987914 238.259513 
L 289.860016 238.247111 
L 290.732118 239.257634 
L 291.60422 229.240708 
L 292.476322 237.994884 
L 293.348424 237.973988 
L 294.220526 237.207697 
L 295.96473 239.986712 
L 296.836833 232.577384 
L 297.708935 238.268284 
L 298.581037 230.547165 
L 299.453139 236.87386 
L 300.325241 238.924363 
L 301.197343 232.561561 
L 302.069445 235.27361 
L 302.941547 229.863806 
L 303.813649 237.964909 
L 304.685751 238.27347 
L 305.557854 236.154049 
L 306.429956 236.630079 
L 307.302058 233.940958 
L 308.17416 235.478774 
L 309.046262 236.593544 
L 309.918364 238.20148 
L 310.790466 233.120642 
L 311.662568 236.499504 
L 312.53467 229.564797 
L 313.406773 227.60534 
L 314.278875 235.198396 
L 315.150977 236.74358 
L 316.023079 230.976809 
L 316.895181 239.295075 
L 318.639385 236.207247 
L 319.511487 232.385935 
L 321.255692 237.600253 
L 322.127794 232.704063 
L 322.999896 236.888878 
L 323.871998 237.691757 
L 324.7441 228.202919 
L 325.616202 238.826615 
L 326.488304 238.125965 
L 327.360406 236.357609 
L 328.232508 232.627555 
L 329.104611 239.262985 
L 329.976713 235.845278 
L 330.848815 236.11983 
L 331.720917 237.397062 
L 332.593019 239.300823 
L 333.465121 215.383266 
L 334.337223 235.363368 
L 335.209325 237.394028 
L 336.081427 237.88045 
L 336.95353 237.113152 
L 337.825632 236.789287 
L 338.697734 238.430294 
L 339.569836 236.835945 
L 340.441938 235.611882 
L 341.31404 230.118887 
L 342.186142 233.807994 
L 343.058244 238.126955 
L 343.930346 235.450668 
L 344.802449 234.318048 
L 345.674551 237.139273 
L 346.546653 229.243976 
L 347.418755 228.495308 
L 348.290857 233.026903 
L 349.162959 233.669224 
L 350.035061 233.480696 
L 350.907163 231.18821 
L 351.779265 231.752592 
L 352.651368 234.75767 
L 354.395572 236.871165 
L 355.267674 236.431548 
L 356.139776 233.704301 
L 357.011878 233.876707 
L 357.88398 230.448435 
L 358.756082 237.173308 
L 359.628184 236.767394 
L 360.500287 233.955981 
L 361.372389 234.550956 
L 362.244491 226.790325 
L 363.116593 232.950501 
L 363.988695 229.144909 
L 364.860797 235.072232 
L 365.732899 233.989555 
L 366.605001 232.015863 
L 367.477103 234.612844 
L 368.349206 235.053138 
L 369.221308 232.686665 
L 370.09341 224.878616 
L 370.965512 235.725901 
L 371.837614 232.861155 
L 372.709716 221.827895 
L 373.581818 235.021055 
L 373.581818 235.021055 
" style="fill:none;stroke:#008000;stroke-linecap:square;stroke-width:1.5;"/>
   </g>
   <g id="patch_3">
    <path d="M 54 252 
L 54 34.56 
" style="fill:none;stroke:#000000;stroke-linecap:square;stroke-linejoin:miter;stroke-width:0.8;"/>
   </g>
   <g id="patch_4">
    <path d="M 388.8 252 
L 388.8 34.56 
" style="fill:none;stroke:#000000;stroke-linecap:square;stroke-linejoin:miter;stroke-width:0.8;"/>
   </g>
   <g id="patch_5">
    <path d="M 54 252 
L 388.8 252 
" style="fill:none;stroke:#000000;stroke-linecap:square;stroke-linejoin:miter;stroke-width:0.8;"/>
   </g>
   <g id="patch_6">
    <path d="M 54 34.56 
L 388.8 34.56 
" style="fill:none;stroke:#000000;stroke-linecap:square;stroke-linejoin:miter;stroke-width:0.8;"/>
   </g>
   <g id="text_17">
    <!-- Loss_Trend -->
    <defs>
     <path d="M 50.984375 -16.609375 
L 50.984375 -23.578125 
L -0.984375 -23.578125 
L -0.984375 -16.609375 
z
" id="DejaVuSans-5f"/>
     <path d="M -0.296875 72.90625 
L 61.375 72.90625 
L 61.375 64.59375 
L 35.5 64.59375 
L 35.5 0 
L 25.59375 0 
L 25.59375 64.59375 
L -0.296875 64.59375 
z
" id="DejaVuSans-54"/>
     <path d="M 41.109375 46.296875 
Q 39.59375 47.171875 37.8125 47.578125 
Q 36.03125 48 33.890625 48 
Q 26.265625 48 22.1875 43.046875 
Q 18.109375 38.09375 18.109375 28.8125 
L 18.109375 0 
L 9.078125 0 
L 9.078125 54.6875 
L 18.109375 54.6875 
L 18.109375 46.1875 
Q 20.953125 51.171875 25.484375 53.578125 
Q 30.03125 56 36.53125 56 
Q 37.453125 56 38.578125 55.875 
Q 39.703125 55.765625 41.0625 55.515625 
z
" id="DejaVuSans-72"/>
     <path d="M 54.890625 33.015625 
L 54.890625 0 
L 45.90625 0 
L 45.90625 32.71875 
Q 45.90625 40.484375 42.875 44.328125 
Q 39.84375 48.1875 33.796875 48.1875 
Q 26.515625 48.1875 22.3125 43.546875 
Q 18.109375 38.921875 18.109375 30.90625 
L 18.109375 0 
L 9.078125 0 
L 9.078125 54.6875 
L 18.109375 54.6875 
L 18.109375 46.1875 
Q 21.34375 51.125 25.703125 53.5625 
Q 30.078125 56 35.796875 56 
Q 45.21875 56 50.046875 50.171875 
Q 54.890625 44.34375 54.890625 33.015625 
z
" id="DejaVuSans-6e"/>
     <path d="M 45.40625 46.390625 
L 45.40625 75.984375 
L 54.390625 75.984375 
L 54.390625 0 
L 45.40625 0 
L 45.40625 8.203125 
Q 42.578125 3.328125 38.25 0.953125 
Q 33.9375 -1.421875 27.875 -1.421875 
Q 17.96875 -1.421875 11.734375 6.484375 
Q 5.515625 14.40625 5.515625 27.296875 
Q 5.515625 40.1875 11.734375 48.09375 
Q 17.96875 56 27.875 56 
Q 33.9375 56 38.25 53.625 
Q 42.578125 51.265625 45.40625 46.390625 
z
M 14.796875 27.296875 
Q 14.796875 17.390625 18.875 11.75 
Q 22.953125 6.109375 30.078125 6.109375 
Q 37.203125 6.109375 41.296875 11.75 
Q 45.40625 17.390625 45.40625 27.296875 
Q 45.40625 37.203125 41.296875 42.84375 
Q 37.203125 48.484375 30.078125 48.484375 
Q 22.953125 48.484375 18.875 42.84375 
Q 14.796875 37.203125 14.796875 27.296875 
z
" id="DejaVuSans-64"/>
    </defs>
    <g transform="translate(187.715625 28.56)scale(0.12 -0.12)">
     <use xlink:href="#DejaVuSans-4c"/>
     <use x="55.697266" xlink:href="#DejaVuSans-6f"/>
     <use x="116.878906" xlink:href="#DejaVuSans-73"/>
     <use x="168.978516" xlink:href="#DejaVuSans-73"/>
     <use x="221.078125" xlink:href="#DejaVuSans-5f"/>
     <use x="271.078125" xlink:href="#DejaVuSans-54"/>
     <use x="331.943359" xlink:href="#DejaVuSans-72"/>
     <use x="373.025391" xlink:href="#DejaVuSans-65"/>
     <use x="434.548828" xlink:href="#DejaVuSans-6e"/>
     <use x="497.927734" xlink:href="#DejaVuSans-64"/>
    </g>
   </g>
   <g id="legend_1">
    <g id="patch_7">
     <path d="M 301.532812 72.4725 
L 381.8 72.4725 
Q 383.8 72.4725 383.8 70.4725 
L 383.8 41.56 
Q 383.8 39.56 381.8 39.56 
L 301.532812 39.56 
Q 299.532812 39.56 299.532812 41.56 
L 299.532812 70.4725 
Q 299.532812 72.4725 301.532812 72.4725 
z
" style="fill:#ffffff;opacity:0.8;stroke:#cccccc;stroke-linejoin:miter;"/>
    </g>
    <g id="line2d_17">
     <path d="M 303.532812 47.658437 
L 323.532812 47.658437 
" style="fill:none;stroke:#ff0000;stroke-linecap:square;stroke-width:1.5;"/>
    </g>
    <g id="line2d_18"/>
    <g id="text_18">
     <!-- train_loss -->
     <defs>
      <path d="M 18.3125 70.21875 
L 18.3125 54.6875 
L 36.8125 54.6875 
L 36.8125 47.703125 
L 18.3125 47.703125 
L 18.3125 18.015625 
Q 18.3125 11.328125 20.140625 9.421875 
Q 21.96875 7.515625 27.59375 7.515625 
L 36.8125 7.515625 
L 36.8125 0 
L 27.59375 0 
Q 17.1875 0 13.234375 3.875 
Q 9.28125 7.765625 9.28125 18.015625 
L 9.28125 47.703125 
L 2.6875 47.703125 
L 2.6875 54.6875 
L 9.28125 54.6875 
L 9.28125 70.21875 
z
" id="DejaVuSans-74"/>
      <path d="M 34.28125 27.484375 
Q 23.390625 27.484375 19.1875 25 
Q 14.984375 22.515625 14.984375 16.5 
Q 14.984375 11.71875 18.140625 8.90625 
Q 21.296875 6.109375 26.703125 6.109375 
Q 34.1875 6.109375 38.703125 11.40625 
Q 43.21875 16.703125 43.21875 25.484375 
L 43.21875 27.484375 
z
M 52.203125 31.203125 
L 52.203125 0 
L 43.21875 0 
L 43.21875 8.296875 
Q 40.140625 3.328125 35.546875 0.953125 
Q 30.953125 -1.421875 24.3125 -1.421875 
Q 15.921875 -1.421875 10.953125 3.296875 
Q 6 8.015625 6 15.921875 
Q 6 25.140625 12.171875 29.828125 
Q 18.359375 34.515625 30.609375 34.515625 
L 43.21875 34.515625 
L 43.21875 35.40625 
Q 43.21875 41.609375 39.140625 45 
Q 35.0625 48.390625 27.6875 48.390625 
Q 23 48.390625 18.546875 47.265625 
Q 14.109375 46.140625 10.015625 43.890625 
L 10.015625 52.203125 
Q 14.9375 54.109375 19.578125 55.046875 
Q 24.21875 56 28.609375 56 
Q 40.484375 56 46.34375 49.84375 
Q 52.203125 43.703125 52.203125 31.203125 
z
" id="DejaVuSans-61"/>
      <path d="M 9.421875 54.6875 
L 18.40625 54.6875 
L 18.40625 0 
L 9.421875 0 
z
M 9.421875 75.984375 
L 18.40625 75.984375 
L 18.40625 64.59375 
L 9.421875 64.59375 
z
" id="DejaVuSans-69"/>
      <path d="M 9.421875 75.984375 
L 18.40625 75.984375 
L 18.40625 0 
L 9.421875 0 
z
" id="DejaVuSans-6c"/>
     </defs>
     <g transform="translate(331.532812 51.158437)scale(0.1 -0.1)">
      <use xlink:href="#DejaVuSans-74"/>
      <use x="39.208984" xlink:href="#DejaVuSans-72"/>
      <use x="80.322266" xlink:href="#DejaVuSans-61"/>
      <use x="141.601562" xlink:href="#DejaVuSans-69"/>
      <use x="169.384766" xlink:href="#DejaVuSans-6e"/>
      <use x="232.763672" xlink:href="#DejaVuSans-5f"/>
      <use x="282.763672" xlink:href="#DejaVuSans-6c"/>
      <use x="310.546875" xlink:href="#DejaVuSans-6f"/>
      <use x="371.728516" xlink:href="#DejaVuSans-73"/>
      <use x="423.828125" xlink:href="#DejaVuSans-73"/>
     </g>
    </g>
    <g id="line2d_19">
     <path d="M 303.532812 62.614688 
L 323.532812 62.614688 
" style="fill:none;stroke:#008000;stroke-linecap:square;stroke-width:1.5;"/>
    </g>
    <g id="line2d_20"/>
    <g id="text_19">
     <!-- valid_loss -->
     <defs>
      <path d="M 2.984375 54.6875 
L 12.5 54.6875 
L 29.59375 8.796875 
L 46.6875 54.6875 
L 56.203125 54.6875 
L 35.6875 0 
L 23.484375 0 
z
" id="DejaVuSans-76"/>
     </defs>
     <g transform="translate(331.532812 66.114688)scale(0.1 -0.1)">
      <use xlink:href="#DejaVuSans-76"/>
      <use x="59.179688" xlink:href="#DejaVuSans-61"/>
      <use x="120.458984" xlink:href="#DejaVuSans-6c"/>
      <use x="148.242188" xlink:href="#DejaVuSans-69"/>
      <use x="176.025391" xlink:href="#DejaVuSans-64"/>
      <use x="239.501953" xlink:href="#DejaVuSans-5f"/>
      <use x="289.501953" xlink:href="#DejaVuSans-6c"/>
      <use x="317.285156" xlink:href="#DejaVuSans-6f"/>
      <use x="378.466797" xlink:href="#DejaVuSans-73"/>
      <use x="430.566406" xlink:href="#DejaVuSans-73"/>
     </g>
    </g>
   </g>
  </g>
 </g>
 <defs>
  <clipPath id="p54cc4f4bb7">
   <rect height="217.44" width="334.8" x="54" y="34.56"/>
  </clipPath>
 </defs>
</svg>
