<?xml version="1.0" encoding="utf-8" standalone="no"?>
<!DOCTYPE svg PUBLIC "-//W3C//DTD SVG 1.1//EN"
  "http://www.w3.org/Graphics/SVG/1.1/DTD/svg11.dtd">
<!-- Created with matplotlib (http://matplotlib.org/) -->
<svg height="288pt" version="1.1" viewBox="0 0 432 288" width="432pt" xmlns="http://www.w3.org/2000/svg" xmlns:xlink="http://www.w3.org/1999/xlink">
 <defs>
  <style type="text/css">
*{stroke-linecap:butt;stroke-linejoin:round;}
  </style>
 </defs>
 <g id="figure_1">
  <g id="patch_1">
   <path d="M 0 288 
L 432 288 
L 432 0 
L 0 0 
z
" style="fill:#ffffff;"/>
  </g>
  <g id="axes_1">
   <g id="patch_2">
    <path d="M 54 252 
L 388.8 252 
L 388.8 34.56 
L 54 34.56 
z
" style="fill:#ffffff;"/>
   </g>
   <g id="matplotlib.axis_1">
    <g id="xtick_1">
     <g id="line2d_1">
      <defs>
       <path d="M 0 0 
L 0 3.5 
" id="m6fcc41a342" style="stroke:#000000;stroke-width:0.8;"/>
      </defs>
      <g>
       <use style="stroke:#000000;stroke-width:0.8;" x="69.218182" xlink:href="#m6fcc41a342" y="252"/>
      </g>
     </g>
     <g id="text_1">
      <!-- 0 -->
      <defs>
       <path d="M 46.484375 35.15625 
Q 46.484375 21.09375 41.40625 10.9375 
Q 36.328125 0.78125 25 0.78125 
Q 13.671875 0.78125 8.390625 10.9375 
Q 3.125 21.09375 3.125 35.15625 
Q 3.125 49.21875 8.390625 59.171875 
Q 13.671875 69.140625 25 69.140625 
Q 36.328125 69.140625 41.40625 59.171875 
Q 46.484375 49.21875 46.484375 35.15625 
z
M 37.109375 35.15625 
Q 37.109375 47.65625 34.171875 54.6875 
Q 31.25 61.71875 25 61.71875 
Q 18.75 61.71875 15.625 54.6875 
Q 12.5 47.65625 12.5 35.15625 
Q 12.5 22.65625 15.625 15.421875 
Q 18.75 8.203125 25 8.203125 
Q 31.25 8.203125 34.171875 15.421875 
Q 37.109375 22.65625 37.109375 35.15625 
z
" id="SimHei-30"/>
      </defs>
      <g transform="translate(66.718182 265.835938)scale(0.1 -0.1)">
       <use xlink:href="#SimHei-30"/>
      </g>
     </g>
    </g>
    <g id="xtick_2">
     <g id="line2d_2">
      <g>
       <use style="stroke:#000000;stroke-width:0.8;" x="112.823287" xlink:href="#m6fcc41a342" y="252"/>
      </g>
     </g>
     <g id="text_2">
      <!-- 50 -->
      <defs>
       <path d="M 44.140625 25.78125 
Q 44.140625 14.0625 38.46875 7.421875 
Q 32.8125 0.78125 23.4375 0.78125 
Q 15.234375 0.78125 9.953125 6.25 
Q 4.6875 11.71875 4.296875 21.09375 
L 13.28125 21.09375 
Q 13.28125 15.234375 16.015625 11.71875 
Q 18.75 8.203125 23.828125 8.203125 
Q 28.90625 8.203125 31.828125 12.5 
Q 34.765625 16.796875 34.765625 25.78125 
Q 34.765625 33.59375 32.21875 37.296875 
Q 29.6875 41.015625 25.390625 41.015625 
Q 21.875 41.015625 19.328125 39.453125 
Q 16.796875 37.890625 14.453125 33.984375 
L 6.640625 33.984375 
L 8.984375 68.359375 
L 42.578125 68.359375 
L 42.578125 60.9375 
L 16.40625 60.9375 
L 14.84375 42.96875 
Q 17.1875 45.3125 19.921875 46.484375 
Q 22.65625 47.65625 27.34375 47.65625 
Q 34.765625 47.65625 39.453125 41.984375 
Q 44.140625 36.328125 44.140625 25.78125 
z
" id="SimHei-35"/>
      </defs>
      <g transform="translate(107.823287 265.835938)scale(0.1 -0.1)">
       <use xlink:href="#SimHei-35"/>
       <use x="50" xlink:href="#SimHei-30"/>
      </g>
     </g>
    </g>
    <g id="xtick_3">
     <g id="line2d_3">
      <g>
       <use style="stroke:#000000;stroke-width:0.8;" x="156.428393" xlink:href="#m6fcc41a342" y="252"/>
      </g>
     </g>
     <g id="text_3">
      <!-- 100 -->
      <defs>
       <path d="M 30.46875 1.5625 
L 21.484375 1.5625 
L 21.484375 53.515625 
L 9.765625 53.515625 
L 9.765625 58.203125 
Q 16.796875 58.203125 20.703125 60.9375 
Q 24.609375 63.671875 25.78125 69.140625 
L 30.46875 69.140625 
z
" id="SimHei-31"/>
      </defs>
      <g transform="translate(148.928393 265.835938)scale(0.1 -0.1)">
       <use xlink:href="#SimHei-31"/>
       <use x="50" xlink:href="#SimHei-30"/>
       <use x="100" xlink:href="#SimHei-30"/>
      </g>
     </g>
    </g>
    <g id="xtick_4">
     <g id="line2d_4">
      <g>
       <use style="stroke:#000000;stroke-width:0.8;" x="200.033498" xlink:href="#m6fcc41a342" y="252"/>
      </g>
     </g>
     <g id="text_4">
      <!-- 150 -->
      <g transform="translate(192.533498 265.835938)scale(0.1 -0.1)">
       <use xlink:href="#SimHei-31"/>
       <use x="50" xlink:href="#SimHei-35"/>
       <use x="100" xlink:href="#SimHei-30"/>
      </g>
     </g>
    </g>
    <g id="xtick_5">
     <g id="line2d_5">
      <g>
       <use style="stroke:#000000;stroke-width:0.8;" x="243.638604" xlink:href="#m6fcc41a342" y="252"/>
      </g>
     </g>
     <g id="text_5">
      <!-- 200 -->
      <defs>
       <path d="M 44.53125 1.5625 
L 4.6875 1.5625 
L 4.6875 7.8125 
Q 7.03125 14.0625 11.125 19.328125 
Q 15.234375 24.609375 23.046875 31.25 
Q 28.90625 36.328125 31.4375 40.625 
Q 33.984375 44.921875 33.984375 50 
Q 33.984375 55.078125 31.828125 58.390625 
Q 29.6875 61.71875 25 61.71875 
Q 21.09375 61.71875 18.15625 58.203125 
Q 15.234375 54.6875 15.234375 45.703125 
L 6.25 45.703125 
Q 6.640625 57.03125 11.515625 63.078125 
Q 16.40625 69.140625 25.390625 69.140625 
Q 33.984375 69.140625 38.671875 63.859375 
Q 43.359375 58.59375 43.359375 49.609375 
Q 43.359375 42.1875 39.0625 36.71875 
Q 34.765625 31.25 28.515625 25.78125 
Q 21.484375 19.53125 18.75 16.40625 
Q 16.015625 13.28125 13.671875 8.984375 
L 44.53125 8.984375 
z
" id="SimHei-32"/>
      </defs>
      <g transform="translate(236.138604 265.835938)scale(0.1 -0.1)">
       <use xlink:href="#SimHei-32"/>
       <use x="50" xlink:href="#SimHei-30"/>
       <use x="100" xlink:href="#SimHei-30"/>
      </g>
     </g>
    </g>
    <g id="xtick_6">
     <g id="line2d_6">
      <g>
       <use style="stroke:#000000;stroke-width:0.8;" x="287.243709" xlink:href="#m6fcc41a342" y="252"/>
      </g>
     </g>
     <g id="text_6">
      <!-- 250 -->
      <g transform="translate(279.743709 265.835938)scale(0.1 -0.1)">
       <use xlink:href="#SimHei-32"/>
       <use x="50" xlink:href="#SimHei-35"/>
       <use x="100" xlink:href="#SimHei-30"/>
      </g>
     </g>
    </g>
    <g id="xtick_7">
     <g id="line2d_7">
      <g>
       <use style="stroke:#000000;stroke-width:0.8;" x="330.848815" xlink:href="#m6fcc41a342" y="252"/>
      </g>
     </g>
     <g id="text_7">
      <!-- 300 -->
      <defs>
       <path d="M 44.140625 20.3125 
Q 44.140625 11.328125 38.46875 6.046875 
Q 32.8125 0.78125 24.21875 0.78125 
Q 15.625 0.78125 9.953125 6.046875 
Q 4.296875 11.328125 4.296875 22.265625 
L 13.28125 22.265625 
Q 13.28125 14.84375 16.203125 11.515625 
Q 19.140625 8.203125 24.21875 8.203125 
Q 29.296875 8.203125 32.03125 11.328125 
Q 34.765625 14.453125 34.765625 21.09375 
Q 34.765625 26.5625 31.828125 29.6875 
Q 28.90625 32.8125 21.484375 32.8125 
L 21.484375 39.453125 
Q 27.734375 39.453125 30.65625 42.578125 
Q 33.59375 45.703125 33.59375 51.953125 
Q 33.59375 56.640625 31.4375 59.375 
Q 29.296875 62.109375 24.609375 62.109375 
Q 19.921875 62.109375 17.375 58.78125 
Q 14.84375 55.46875 14.453125 49.21875 
L 5.859375 49.21875 
Q 6.640625 58.203125 11.515625 63.671875 
Q 16.40625 69.140625 24.609375 69.140625 
Q 33.203125 69.140625 37.890625 64.25 
Q 42.578125 59.375 42.578125 52.34375 
Q 42.578125 45.703125 40.234375 41.984375 
Q 37.890625 38.28125 32.421875 36.328125 
Q 37.890625 35.15625 41.015625 30.859375 
Q 44.140625 26.5625 44.140625 20.3125 
z
" id="SimHei-33"/>
      </defs>
      <g transform="translate(323.348815 265.835938)scale(0.1 -0.1)">
       <use xlink:href="#SimHei-33"/>
       <use x="50" xlink:href="#SimHei-30"/>
       <use x="100" xlink:href="#SimHei-30"/>
      </g>
     </g>
    </g>
    <g id="xtick_8">
     <g id="line2d_8">
      <g>
       <use style="stroke:#000000;stroke-width:0.8;" x="374.45392" xlink:href="#m6fcc41a342" y="252"/>
      </g>
     </g>
     <g id="text_8">
      <!-- 350 -->
      <g transform="translate(366.95392 265.835938)scale(0.1 -0.1)">
       <use xlink:href="#SimHei-33"/>
       <use x="50" xlink:href="#SimHei-35"/>
       <use x="100" xlink:href="#SimHei-30"/>
      </g>
     </g>
    </g>
    <g id="text_9">
     <!-- 迭代次数 -->
     <defs>
      <path d="M 81.640625 4.296875 
Q 74.21875 14.84375 61.328125 28.125 
Q 56.640625 19.921875 51.75 15.03125 
Q 46.875 10.15625 39.84375 4.296875 
Q 37.890625 6.25 32.03125 10.546875 
Q 40.625 14.84375 47.0625 21.671875 
Q 53.515625 28.515625 56.25 37.5 
Q 36.71875 37.5 30.46875 37.109375 
L 30.46875 44.140625 
Q 37.109375 43.75 57.421875 43.75 
Q 58.203125 49.609375 58.59375 57.8125 
L 42.578125 57.8125 
Q 40.625 53.125 39.0625 48.828125 
Q 34.765625 50.390625 30.46875 51.171875 
Q 33.203125 55.859375 35.546875 62.5 
Q 37.890625 69.140625 39.84375 78.90625 
Q 43.75 77.34375 49.609375 76.171875 
Q 46.875 72.265625 44.921875 64.0625 
L 58.59375 64.0625 
Q 58.59375 74.21875 57.8125 80.078125 
Q 62.5 79.296875 66.796875 79.6875 
Q 66.015625 75 65.625 64.0625 
L 76.953125 64.0625 
Q 80.46875 64.0625 86.71875 64.453125 
L 86.71875 57.03125 
Q 80.46875 57.8125 75.78125 57.8125 
L 66.015625 57.8125 
Q 65.625 49.609375 64.84375 43.75 
L 80.078125 43.75 
Q 85.15625 43.75 92.1875 44.140625 
L 92.1875 37.109375 
Q 85.15625 37.5 78.90625 37.5 
L 64.453125 37.5 
L 64.0625 35.15625 
Q 72.265625 26.953125 89.0625 10.9375 
Q 87.109375 9.765625 81.640625 4.296875 
z
M 11.328125 74.21875 
Q 15.234375 75.78125 19.921875 76.5625 
Q 23.828125 64.84375 26.171875 58.984375 
Q 21.875 58.59375 17.1875 57.03125 
Q 16.015625 60.546875 11.328125 74.21875 
z
M 6.25 45.3125 
Q 12.890625 44.921875 17.578125 44.921875 
L 25 44.921875 
Q 24.609375 37.890625 24.609375 30.859375 
L 24.609375 8.59375 
Q 34.375 0 57.8125 0 
Q 81.25 0 94.53125 1.953125 
Q 92.1875 -3.515625 91.40625 -7.421875 
Q 65.234375 -7.421875 55.65625 -7.21875 
Q 46.09375 -7.03125 38.859375 -5.65625 
Q 31.640625 -4.296875 26.75 -0.78125 
Q 21.875 2.734375 18.75 -0.390625 
Q 15.625 -3.515625 11.71875 -8.984375 
Q 8.203125 -5.078125 4.296875 -2.734375 
Q 12.890625 4.6875 17.578125 7.421875 
L 17.578125 38.671875 
Q 12.5 38.671875 6.25 38.28125 
z
" id="SimHei-8fed"/>
      <path d="M 31.640625 42.1875 
Q 37.890625 42.96875 51.5625 45.703125 
Q 49.609375 70.703125 49.21875 78.90625 
Q 51.5625 78.515625 59.375 77.734375 
Q 57.8125 72.65625 59.375 47.265625 
Q 78.125 50.78125 88.28125 53.90625 
L 90.234375 46.484375 
Q 85.9375 46.09375 60.15625 40.625 
Q 64.84375 16.015625 73.625 7.21875 
Q 82.421875 -1.5625 83.78125 3.3125 
Q 85.15625 8.203125 85.9375 11.71875 
Q 91.796875 7.421875 94.921875 6.640625 
Q 92.1875 -1.953125 89.640625 -6.25 
Q 87.109375 -10.546875 80.65625 -8.984375 
Q 74.21875 -7.421875 65.03125 4.6875 
Q 55.859375 16.796875 52.34375 39.0625 
Q 37.5 35.9375 33.984375 34.375 
z
M 66.796875 70.703125 
Q 69.921875 72.65625 73.828125 75.390625 
Q 75.390625 73.4375 78.3125 69.328125 
Q 81.25 65.234375 83.203125 62.5 
Q 79.296875 60.15625 75.78125 57.8125 
Q 71.875 63.28125 66.796875 70.703125 
z
M 25.78125 80.46875 
Q 32.03125 77.734375 35.9375 76.5625 
Q 32.8125 73.046875 26.5625 56.25 
L 26.5625 7.421875 
Q 26.5625 -0.78125 26.953125 -9.375 
L 18.75 -9.375 
Q 19.140625 -0.78125 19.140625 7.421875 
L 19.140625 42.578125 
Q 13.28125 33.203125 9.765625 28.125 
Q 6.640625 31.25 3.125 34.375 
Q 8.203125 38.671875 15.421875 52.140625 
Q 22.65625 65.625 25.78125 80.46875 
z
" id="SimHei-4ee3"/>
      <path d="M 8.203125 67.1875 
Q 11.328125 69.140625 15.625 71.09375 
Q 17.96875 67.1875 21.09375 61.71875 
Q 24.21875 56.25 27.34375 50.78125 
Q 23.046875 48.828125 19.53125 46.484375 
Q 17.1875 51.171875 14.640625 56.640625 
Q 12.109375 62.109375 8.203125 67.1875 
z
M 23.046875 34.765625 
Q 25.78125 32.421875 30.46875 30.078125 
Q 28.125 26.5625 23.625 17.96875 
Q 19.140625 9.375 14.0625 -0.78125 
Q 10.546875 1.953125 6.25 4.6875 
Q 12.109375 10.9375 16.203125 19.328125 
Q 20.3125 27.734375 23.046875 34.765625 
z
M 46.875 79.296875 
Q 51.171875 77.734375 57.03125 75.390625 
Q 54.6875 73.828125 52.921875 69.53125 
Q 51.171875 65.234375 49.21875 60.9375 
L 90.625 60.9375 
Q 89.453125 57.8125 87.5 52.140625 
Q 85.546875 46.484375 83.203125 38.28125 
Q 78.90625 39.453125 74.609375 40.234375 
Q 76.171875 43.75 77.34375 47.265625 
Q 78.515625 50.78125 79.6875 54.6875 
L 46.484375 54.6875 
Q 44.53125 51.5625 42.375 46.875 
Q 40.234375 42.1875 37.5 37.5 
Q 34.765625 39.84375 30.46875 41.40625 
Q 33.203125 44.921875 35.734375 49.609375 
Q 38.28125 54.296875 40.421875 59.375 
Q 42.578125 64.453125 44.140625 69.53125 
Q 45.703125 74.609375 46.875 79.296875 
z
M 54.6875 47.65625 
Q 59.375 47.265625 64.0625 46.484375 
Q 62.890625 42.578125 62.6875 35.15625 
Q 62.5 27.734375 65.8125 21.484375 
Q 69.140625 15.234375 73.828125 10.9375 
Q 78.515625 6.640625 83.984375 4.09375 
Q 89.453125 1.5625 93.75 0.390625 
Q 91.40625 -1.171875 90.234375 -3.3125 
Q 89.0625 -5.46875 87.890625 -8.59375 
Q 79.296875 -3.90625 74.21875 0.1875 
Q 69.140625 4.296875 66.203125 8.203125 
Q 63.28125 12.109375 61.71875 15.8125 
Q 60.15625 19.53125 58.984375 23.046875 
Q 57.03125 17.1875 54.875 12.6875 
Q 52.734375 8.203125 49.40625 4.6875 
Q 46.09375 1.171875 41.796875 -2.140625 
Q 37.5 -5.46875 31.640625 -9.375 
Q 28.90625 -5.078125 25 -2.34375 
Q 34.765625 1.171875 40.625 6.4375 
Q 46.484375 11.71875 49.609375 17.1875 
Q 52.734375 22.65625 53.703125 27.921875 
Q 54.6875 33.203125 54.875 36.90625 
Q 55.078125 40.625 54.6875 47.65625 
z
" id="SimHei-6b21"/>
      <path d="M 10.9375 75.78125 
Q 14.84375 76.953125 17.1875 78.515625 
Q 20.3125 73.4375 23.046875 68.359375 
Q 19.53125 66.796875 16.796875 65.234375 
Q 14.453125 71.09375 10.9375 75.78125 
z
M 44.921875 78.515625 
Q 49.21875 76.5625 53.125 75 
Q 50.78125 73.4375 49.21875 70.703125 
Q 47.65625 67.96875 45.703125 64.453125 
Q 42.578125 66.015625 39.453125 66.796875 
Q 42.578125 71.875 44.921875 78.515625 
z
M 38.28125 49.609375 
Q 41.796875 51.171875 44.140625 53.515625 
Q 48.828125 46.875 51.953125 41.40625 
Q 48.4375 39.84375 45.3125 37.5 
Q 42.1875 44.921875 38.28125 49.609375 
z
M 8.203125 61.71875 
Q 14.453125 61.328125 28.125 61.328125 
Q 28.125 72.65625 27.734375 80.859375 
L 35.546875 80.859375 
Q 35.15625 72.65625 35.15625 61.328125 
Q 48.046875 61.328125 53.90625 61.71875 
L 53.90625 54.6875 
Q 48.046875 55.078125 35.15625 55.078125 
Q 35.15625 46.09375 35.546875 39.453125 
L 27.734375 39.453125 
Q 28.125 45.3125 28.125 51.953125 
Q 26.171875 48.046875 21.671875 43.546875 
Q 17.1875 39.0625 11.71875 35.9375 
Q 10.15625 39.453125 6.640625 41.796875 
Q 10.15625 42.96875 15.421875 46.875 
Q 20.703125 50.78125 23.046875 55.078125 
Q 14.84375 55.078125 8.203125 54.6875 
z
M 26.953125 24.21875 
Q 25 20.3125 22.65625 16.40625 
Q 27.34375 15.234375 35.15625 13.28125 
Q 37.890625 16.796875 40.234375 24.21875 
z
M 24.21875 38.28125 
Q 28.515625 36.71875 32.8125 35.546875 
Q 31.25 33.984375 29.296875 30.46875 
L 44.53125 30.46875 
L 48.828125 30.46875 
Q 46.484375 20.3125 42.1875 11.328125 
Q 48.828125 9.375 52.734375 8.203125 
Q 49.609375 3.90625 48.046875 0.390625 
Q 44.53125 2.734375 37.5 5.46875 
Q 28.125 -3.90625 9.375 -10.15625 
Q 7.8125 -6.25 4.6875 -3.90625 
Q 21.484375 0 31.25 8.203125 
Q 20.3125 10.9375 13.28125 12.890625 
Q 15.625 16.015625 19.53125 24.21875 
Q 13.28125 24.21875 4.6875 23.828125 
L 4.6875 30.859375 
Q 12.109375 30.46875 21.875 30.46875 
Q 23.046875 33.59375 24.21875 38.28125 
z
M 63.671875 80.46875 
Q 68.359375 78.515625 73.4375 77.734375 
Q 71.484375 75.390625 70.5 72.265625 
Q 69.53125 69.140625 67.96875 63.28125 
L 85.546875 63.28125 
Q 89.0625 63.28125 94.53125 63.671875 
L 94.53125 56.640625 
Q 90.234375 57.03125 87.5 57.03125 
Q 87.109375 48.828125 85.546875 35.34375 
Q 83.984375 21.875 78.125 11.71875 
Q 82.03125 6.25 87.109375 2.734375 
Q 92.1875 -0.78125 96.09375 -2.34375 
Q 90.625 -5.859375 89.0625 -9.375 
Q 82.421875 -4.6875 79.296875 -1.359375 
Q 76.171875 1.953125 73.4375 5.859375 
Q 68.75 1.171875 64.640625 -1.953125 
Q 60.546875 -5.078125 51.5625 -10.15625 
Q 49.609375 -6.640625 45.3125 -3.90625 
Q 52.734375 -1.171875 58.984375 3.125 
Q 65.234375 7.421875 69.53125 12.109375 
Q 65.234375 20.703125 62.890625 29.09375 
Q 60.546875 37.5 60.15625 41.015625 
Q 59.375 38.28125 58.203125 34.765625 
Q 54.6875 36.328125 50.390625 37.890625 
Q 55.078125 46.484375 58.984375 58.59375 
Q 62.890625 70.703125 63.671875 80.46875 
z
M 66.40625 57.03125 
Q 64.84375 53.125 64.0625 50.578125 
Q 63.28125 48.046875 66.984375 36.71875 
Q 70.703125 25.390625 74.21875 19.140625 
Q 77.734375 28.515625 79.09375 38.671875 
Q 80.46875 48.828125 80.46875 57.03125 
z
" id="SimHei-6570"/>
     </defs>
     <g transform="translate(201.4 278.976562)scale(0.1 -0.1)">
      <use xlink:href="#SimHei-8fed"/>
      <use x="100" xlink:href="#SimHei-4ee3"/>
      <use x="200" xlink:href="#SimHei-6b21"/>
      <use x="300" xlink:href="#SimHei-6570"/>
     </g>
    </g>
   </g>
   <g id="matplotlib.axis_2">
    <g id="ytick_1">
     <g id="line2d_9">
      <defs>
       <path d="M 0 0 
L -3.5 0 
" id="m613a1f9778" style="stroke:#000000;stroke-width:0.8;"/>
      </defs>
      <g>
       <use style="stroke:#000000;stroke-width:0.8;" x="54" xlink:href="#m613a1f9778" y="250.972759"/>
      </g>
     </g>
     <g id="text_10">
      <!-- 0.0 -->
      <defs>
       <path d="M 17.1875 1.5625 
L 8.203125 1.5625 
L 8.203125 10.15625 
L 17.1875 10.15625 
z
" id="SimHei-2e"/>
      </defs>
      <g transform="translate(32 254.390728)scale(0.1 -0.1)">
       <use xlink:href="#SimHei-30"/>
       <use x="50" xlink:href="#SimHei-2e"/>
       <use x="100" xlink:href="#SimHei-30"/>
      </g>
     </g>
    </g>
    <g id="ytick_2">
     <g id="line2d_10">
      <g>
       <use style="stroke:#000000;stroke-width:0.8;" x="54" xlink:href="#m613a1f9778" y="212.886566"/>
      </g>
     </g>
     <g id="text_11">
      <!-- 0.2 -->
      <g transform="translate(32 216.304535)scale(0.1 -0.1)">
       <use xlink:href="#SimHei-30"/>
       <use x="50" xlink:href="#SimHei-2e"/>
       <use x="100" xlink:href="#SimHei-32"/>
      </g>
     </g>
    </g>
    <g id="ytick_3">
     <g id="line2d_11">
      <g>
       <use style="stroke:#000000;stroke-width:0.8;" x="54" xlink:href="#m613a1f9778" y="174.800372"/>
      </g>
     </g>
     <g id="text_12">
      <!-- 0.4 -->
      <defs>
       <path d="M 46.484375 18.75 
L 38.28125 18.75 
L 38.28125 1.5625 
L 29.296875 1.5625 
L 29.296875 18.75 
L 3.125 18.75 
L 3.125 26.171875 
L 29.296875 69.140625 
L 38.28125 69.140625 
L 38.28125 26.171875 
L 46.484375 26.171875 
z
M 29.296875 26.171875 
L 29.296875 55.078125 
L 11.71875 26.171875 
z
" id="SimHei-34"/>
      </defs>
      <g transform="translate(32 178.218341)scale(0.1 -0.1)">
       <use xlink:href="#SimHei-30"/>
       <use x="50" xlink:href="#SimHei-2e"/>
       <use x="100" xlink:href="#SimHei-34"/>
      </g>
     </g>
    </g>
    <g id="ytick_4">
     <g id="line2d_12">
      <g>
       <use style="stroke:#000000;stroke-width:0.8;" x="54" xlink:href="#m613a1f9778" y="136.714179"/>
      </g>
     </g>
     <g id="text_13">
      <!-- 0.6 -->
      <defs>
       <path d="M 44.53125 24.21875 
Q 44.53125 13.28125 39.84375 7.03125 
Q 35.15625 0.78125 25.78125 0.78125 
Q 16.40625 0.78125 10.9375 8.59375 
Q 5.46875 16.40625 5.46875 33.984375 
Q 5.46875 50 11.125 59.5625 
Q 16.796875 69.140625 27.34375 69.140625 
Q 34.765625 69.140625 39.25 63.671875 
Q 43.75 58.203125 43.75 51.5625 
L 34.765625 51.5625 
Q 34.765625 55.46875 32.609375 58.59375 
Q 30.46875 61.71875 26.953125 61.71875 
Q 21.09375 61.71875 17.96875 55.65625 
Q 14.84375 49.609375 14.453125 37.109375 
Q 17.1875 42.1875 20.3125 44.140625 
Q 23.4375 46.09375 27.734375 46.09375 
Q 35.15625 46.09375 39.84375 40.234375 
Q 44.53125 34.375 44.53125 24.21875 
z
M 35.15625 24.21875 
Q 35.15625 31.25 32.8125 35.15625 
Q 30.46875 39.0625 26.171875 39.0625 
Q 21.09375 39.0625 18.15625 35.15625 
Q 15.234375 31.25 15.234375 25.78125 
Q 15.234375 17.1875 18.15625 12.5 
Q 21.09375 7.8125 26.171875 7.8125 
Q 29.6875 7.8125 32.421875 11.328125 
Q 35.15625 14.84375 35.15625 24.21875 
z
" id="SimHei-36"/>
      </defs>
      <g transform="translate(32 140.132148)scale(0.1 -0.1)">
       <use xlink:href="#SimHei-30"/>
       <use x="50" xlink:href="#SimHei-2e"/>
       <use x="100" xlink:href="#SimHei-36"/>
      </g>
     </g>
    </g>
    <g id="ytick_5">
     <g id="line2d_13">
      <g>
       <use style="stroke:#000000;stroke-width:0.8;" x="54" xlink:href="#m613a1f9778" y="98.627986"/>
      </g>
     </g>
     <g id="text_14">
      <!-- 0.8 -->
      <defs>
       <path d="M 44.921875 20.703125 
Q 44.921875 10.9375 39.453125 5.859375 
Q 33.984375 0.78125 24.609375 0.78125 
Q 15.234375 0.78125 9.765625 5.859375 
Q 4.296875 10.9375 4.296875 20.703125 
Q 4.296875 25.78125 7.421875 29.875 
Q 10.546875 33.984375 16.015625 35.9375 
Q 11.328125 37.890625 8.78125 41.40625 
Q 6.25 44.921875 6.25 50.390625 
Q 6.25 58.984375 11.71875 64.0625 
Q 17.1875 69.140625 24.609375 69.140625 
Q 32.03125 69.140625 37.5 64.0625 
Q 42.96875 58.984375 42.96875 50.390625 
Q 42.96875 44.921875 40.421875 41.40625 
Q 37.890625 37.890625 33.203125 35.9375 
Q 38.671875 33.984375 41.796875 29.875 
Q 44.921875 25.78125 44.921875 20.703125 
z
M 34.375 50.390625 
Q 34.375 56.640625 31.640625 59.375 
Q 28.90625 62.109375 24.609375 62.109375 
Q 20.3125 62.109375 17.578125 59.375 
Q 14.84375 56.640625 14.84375 50.390625 
Q 14.84375 44.140625 17.765625 41.59375 
Q 20.703125 39.0625 24.609375 39.0625 
Q 28.515625 39.0625 31.4375 41.59375 
Q 34.375 44.140625 34.375 50.390625 
z
M 35.9375 20.703125 
Q 35.9375 26.171875 33 29.296875 
Q 30.078125 32.421875 24.609375 32.421875 
Q 19.140625 32.421875 16.203125 29.296875 
Q 13.28125 26.171875 13.28125 20.703125 
Q 13.28125 14.453125 16.40625 11.125 
Q 19.53125 7.8125 24.609375 7.8125 
Q 29.6875 7.8125 32.8125 11.125 
Q 35.9375 14.453125 35.9375 20.703125 
z
" id="SimHei-38"/>
      </defs>
      <g transform="translate(32 102.045955)scale(0.1 -0.1)">
       <use xlink:href="#SimHei-30"/>
       <use x="50" xlink:href="#SimHei-2e"/>
       <use x="100" xlink:href="#SimHei-38"/>
      </g>
     </g>
    </g>
    <g id="ytick_6">
     <g id="line2d_14">
      <g>
       <use style="stroke:#000000;stroke-width:0.8;" x="54" xlink:href="#m613a1f9778" y="60.541792"/>
      </g>
     </g>
     <g id="text_15">
      <!-- 1.0 -->
      <g transform="translate(32 63.959761)scale(0.1 -0.1)">
       <use xlink:href="#SimHei-31"/>
       <use x="50" xlink:href="#SimHei-2e"/>
       <use x="100" xlink:href="#SimHei-30"/>
      </g>
     </g>
    </g>
    <g id="text_16">
     <!-- 损失大小 -->
     <defs>
      <path d="M 6.640625 61.71875 
Q 11.328125 61.328125 19.53125 61.328125 
L 19.53125 69.140625 
Q 19.53125 74.609375 19.140625 79.296875 
L 26.953125 79.296875 
Q 26.5625 75 26.5625 69.140625 
L 26.5625 61.328125 
Q 30.859375 61.328125 36.71875 61.71875 
L 36.71875 54.6875 
Q 30.859375 55.078125 26.5625 55.078125 
L 26.5625 37.5 
Q 29.6875 38.28125 35.9375 41.40625 
Q 35.9375 38.28125 36.328125 34.375 
Q 32.03125 32.8125 26.5625 30.46875 
L 26.5625 2.34375 
Q 26.5625 -3.90625 23.234375 -5.265625 
Q 19.921875 -6.640625 11.328125 -7.8125 
Q 10.9375 -4.296875 8.59375 0.390625 
Q 13.671875 0 16.59375 0.1875 
Q 19.53125 0.390625 19.53125 5.078125 
L 19.53125 27.734375 
Q 12.109375 25 7.8125 22.265625 
Q 7.421875 26.953125 5.46875 31.25 
Q 10.9375 32.03125 19.53125 35.15625 
L 19.53125 55.078125 
Q 11.71875 55.078125 6.640625 54.6875 
z
M 45.3125 75.78125 
L 84.765625 75.78125 
Q 84.375 69.921875 84.375 64.453125 
Q 84.375 58.984375 84.765625 53.125 
L 45.3125 53.125 
Q 45.703125 58.984375 45.703125 64.453125 
Q 45.703125 69.921875 45.3125 75.78125 
z
M 52.34375 69.921875 
L 52.34375 58.984375 
L 78.125 58.984375 
L 78.125 69.921875 
z
M 41.40625 46.09375 
L 87.890625 46.09375 
Q 87.5 41.015625 87.5 35.15625 
L 87.5 25.78125 
Q 87.5 19.921875 87.890625 12.890625 
L 80.46875 12.890625 
L 80.46875 39.84375 
L 48.828125 39.84375 
L 48.828125 12.5 
L 41.40625 12.5 
Q 41.796875 18.75 41.796875 25.390625 
L 41.796875 34.765625 
Q 41.796875 39.0625 41.40625 46.09375 
z
M 60.546875 33.984375 
Q 64.84375 33.203125 69.53125 32.8125 
Q 67.96875 27.34375 66.984375 19.921875 
Q 66.015625 12.5 63.46875 7.8125 
Q 60.9375 3.125 55.65625 -1.359375 
Q 50.390625 -5.859375 37.890625 -10.15625 
Q 36.71875 -7.03125 32.421875 -3.125 
Q 42.96875 -1.171875 48.625 2.53125 
Q 54.296875 6.25 57.03125 11.125 
Q 59.765625 16.015625 60.15625 21.875 
Q 60.546875 27.734375 60.546875 33.984375 
z
M 67.1875 5.078125 
Q 69.921875 7.8125 71.484375 10.9375 
Q 76.171875 8.203125 82.609375 4.6875 
Q 89.0625 1.171875 94.140625 -2.34375 
Q 91.015625 -5.46875 89.0625 -8.59375 
Q 84.375 -5.078125 79.484375 -1.75 
Q 74.609375 1.5625 67.1875 5.078125 
z
" id="SimHei-635f"/>
      <path d="M 23.828125 76.171875 
Q 28.90625 73.4375 33.203125 72.65625 
Q 30.859375 70.3125 27.34375 62.109375 
L 46.875 62.109375 
Q 46.875 75 46.484375 80.859375 
Q 50.390625 80.46875 56.25 79.6875 
Q 54.6875 75.78125 54.6875 72.0625 
Q 54.6875 68.359375 54.6875 62.109375 
L 73.046875 62.109375 
Q 78.125 62.109375 84.765625 62.5 
L 84.765625 54.6875 
Q 78.515625 55.078125 73.046875 55.078125 
L 54.6875 55.078125 
Q 54.6875 46.09375 53.90625 37.890625 
L 78.90625 37.890625 
Q 84.765625 37.890625 91.796875 38.28125 
L 91.796875 30.46875 
Q 84.765625 30.859375 78.90625 30.859375 
L 55.078125 30.859375 
Q 60.15625 19.53125 69.921875 12.109375 
Q 79.6875 4.6875 92.96875 1.953125 
Q 88.28125 -2.34375 87.890625 -6.640625 
Q 76.5625 -3.515625 66.40625 4.875 
Q 56.25 13.28125 50.78125 26.171875 
Q 45.703125 12.890625 36.90625 4.484375 
Q 28.125 -3.90625 15.625 -9.765625 
Q 13.671875 -5.46875 8.59375 -2.734375 
Q 20.703125 0.78125 30.65625 9.5625 
Q 40.625 18.359375 44.53125 30.859375 
L 22.265625 30.859375 
Q 16.015625 30.859375 8.59375 30.46875 
L 8.59375 38.28125 
Q 16.015625 37.890625 22.265625 37.890625 
L 45.703125 37.890625 
Q 46.484375 46.484375 46.875 55.078125 
L 24.609375 55.078125 
Q 21.875 49.609375 18.359375 43.75 
Q 14.453125 45.703125 10.15625 46.484375 
Q 15.625 53.515625 19.140625 61.515625 
Q 22.65625 69.53125 23.828125 76.171875 
z
" id="SimHei-5931"/>
      <path d="M 10.546875 54.296875 
Q 16.40625 53.90625 25 53.515625 
L 45.703125 53.515625 
Q 45.703125 66.015625 45.5 70.703125 
Q 45.3125 75.390625 44.921875 79.6875 
Q 49.609375 78.90625 55.078125 78.515625 
Q 53.90625 74.609375 53.515625 67.375 
Q 53.125 60.15625 53.125 53.515625 
L 75 53.515625 
Q 82.03125 53.90625 90.234375 54.296875 
L 90.234375 46.09375 
Q 82.03125 46.484375 75 46.484375 
L 53.515625 46.484375 
Q 54.296875 37.890625 57.03125 31.640625 
Q 59.765625 25.390625 65.03125 19.71875 
Q 70.3125 14.0625 77.140625 9.171875 
Q 83.984375 4.296875 92.1875 1.171875 
Q 87.890625 -2.34375 85.15625 -7.8125 
Q 79.296875 -4.296875 74.015625 -0.1875 
Q 68.75 3.90625 64.453125 8.59375 
Q 60.15625 13.28125 56.4375 19.140625 
Q 52.734375 25 50 31.640625 
Q 46.875 24.21875 43.75 18.9375 
Q 40.625 13.671875 36.328125 9.171875 
Q 32.03125 4.6875 26.359375 0.390625 
Q 20.703125 -3.90625 12.5 -8.59375 
Q 9.765625 -4.296875 5.859375 -0.390625 
Q 14.84375 2.734375 21.875 7.421875 
Q 28.90625 12.109375 33.984375 18.359375 
Q 39.0625 24.609375 41.984375 31.828125 
Q 44.921875 39.0625 45.3125 46.484375 
L 25 46.484375 
Q 16.40625 46.484375 10.546875 46.09375 
z
" id="SimHei-5927"/>
      <path d="M 21.484375 54.6875 
Q 26.171875 52.734375 31.25 51.953125 
Q 26.953125 42.96875 22.453125 31.640625 
Q 17.96875 20.3125 14.453125 12.890625 
Q 10.546875 15.625 6.25 16.796875 
Q 13.28125 28.125 16.984375 38.671875 
Q 20.703125 49.21875 21.484375 54.6875 
z
M 66.796875 50.78125 
Q 70.703125 52.34375 74.21875 55.078125 
Q 79.296875 46.875 84.765625 36.90625 
Q 90.234375 26.953125 94.140625 17.96875 
Q 89.453125 16.796875 85.15625 14.0625 
Q 81.25 24.609375 76.5625 33.78125 
Q 71.875 42.96875 66.796875 50.78125 
z
M 45.3125 77.734375 
L 54.6875 77.734375 
Q 53.90625 72.65625 53.90625 63.671875 
L 53.90625 2.734375 
Q 53.90625 -4.296875 50 -6.25 
Q 46.09375 -8.203125 37.5 -8.984375 
Q 36.328125 -3.515625 33.984375 0.390625 
Q 41.796875 0 43.75 0.390625 
Q 45.703125 0.78125 45.703125 5.078125 
L 45.703125 63.671875 
Q 45.703125 70.3125 45.3125 77.734375 
z
" id="SimHei-5c0f"/>
     </defs>
     <g transform="translate(26.710938 163.28)rotate(-90)scale(0.1 -0.1)">
      <use xlink:href="#SimHei-635f"/>
      <use x="100" xlink:href="#SimHei-5931"/>
      <use x="200" xlink:href="#SimHei-5927"/>
      <use x="300" xlink:href="#SimHei-5c0f"/>
     </g>
    </g>
   </g>
   <g id="line2d_15">
    <path clip-path="url(#pe27b84bcfb)" d="M 69.218182 44.443636 
L 70.090284 48.256 
L 70.962386 60.003407 
L 71.834488 89.496738 
L 73.578692 166.461843 
L 74.450794 183.276027 
L 75.322897 195.126645 
L 76.194999 196.459577 
L 77.067101 202.31908 
L 77.939203 204.927241 
L 78.811305 205.575015 
L 79.683407 209.539376 
L 80.555509 211.2506 
L 81.427611 213.727905 
L 82.299713 210.208079 
L 83.171816 215.293866 
L 84.043918 216.810992 
L 84.91602 212.159146 
L 85.788122 214.944637 
L 86.660224 216.05402 
L 87.532326 216.267827 
L 88.404428 216.707159 
L 89.27653 215.773966 
L 90.148632 217.530865 
L 91.020735 218.754266 
L 91.892837 219.475447 
L 92.764939 221.748983 
L 93.637041 223.306566 
L 94.509143 221.08783 
L 95.381245 221.612946 
L 96.253347 221.068405 
L 97.125449 223.043418 
L 97.997551 223.209697 
L 98.869654 224.99097 
L 99.741756 222.153903 
L 100.613858 211.671269 
L 101.48596 207.752309 
L 102.358062 213.290421 
L 103.230164 220.679231 
L 104.102266 225.887047 
L 104.974368 227.496731 
L 105.84647 224.828729 
L 106.718573 226.374293 
L 107.590675 225.504418 
L 108.462777 227.020616 
L 109.334879 223.325958 
L 110.206981 223.113537 
L 111.079083 226.352246 
L 111.951185 225.50271 
L 112.823287 227.735047 
L 113.695389 224.204554 
L 114.567492 229.209525 
L 115.439594 225.555041 
L 116.311696 225.991928 
L 117.183798 219.741401 
L 118.0559 227.700519 
L 118.928002 227.481021 
L 119.800104 218.252991 
L 120.672206 227.271124 
L 121.544308 228.027531 
L 122.416411 223.685666 
L 123.288513 225.916837 
L 124.160615 227.654544 
L 125.032717 227.606958 
L 125.904819 227.254909 
L 126.776921 229.747526 
L 127.649023 229.564332 
L 128.521125 230.500388 
L 129.393227 227.627178 
L 130.26533 227.7561 
L 131.137432 231.325404 
L 132.009534 229.051665 
L 132.881636 224.052838 
L 133.753738 230.567878 
L 134.62584 231.320516 
L 135.497942 229.42875 
L 136.370044 232.034054 
L 137.242146 231.236502 
L 138.114249 229.362909 
L 138.986351 226.227042 
L 139.858453 221.727098 
L 140.730555 221.013369 
L 141.602657 229.648795 
L 142.474759 228.163495 
L 143.346861 231.197201 
L 144.218963 230.676101 
L 145.091065 232.268501 
L 145.963167 224.006025 
L 146.83527 224.426709 
L 147.707372 231.495195 
L 148.579474 225.593696 
L 149.451576 227.594781 
L 150.323678 230.564818 
L 151.19578 231.173196 
L 152.067882 229.272626 
L 152.939984 232.297672 
L 153.812086 232.479934 
L 154.684189 229.899117 
L 156.428393 232.371963 
L 157.300495 227.715182 
L 158.172597 232.154687 
L 159.044699 232.795423 
L 159.916801 232.694138 
L 160.788903 231.212939 
L 161.661005 227.592144 
L 162.533108 225.01666 
L 163.40521 231.821857 
L 164.277312 231.53713 
L 165.149414 232.595465 
L 166.021516 232.755255 
L 166.893618 229.963319 
L 167.76572 232.871941 
L 168.637822 232.541214 
L 169.509924 233.1767 
L 170.382027 228.302186 
L 171.254129 227.729576 
L 172.998333 234.323664 
L 173.870435 232.768588 
L 174.742537 233.662824 
L 175.614639 231.060555 
L 176.486741 230.811101 
L 177.358843 230.384427 
L 178.230946 231.307192 
L 179.103048 232.745572 
L 179.97515 233.503743 
L 180.847252 231.985983 
L 181.719354 233.374461 
L 182.591456 230.442136 
L 183.463558 230.186366 
L 184.33566 233.63874 
L 185.207762 233.298964 
L 186.079865 234.360668 
L 186.951967 229.488763 
L 187.824069 227.075178 
L 188.696171 231.960155 
L 189.568273 230.27643 
L 191.312477 233.650334 
L 192.184579 236.615802 
L 193.056681 233.761879 
L 193.928784 232.600003 
L 194.800886 233.236088 
L 195.672988 234.053182 
L 196.54509 235.337295 
L 197.417192 236.212771 
L 198.289294 234.930592 
L 199.161396 235.358477 
L 200.033498 229.360627 
L 200.9056 228.757491 
L 201.777703 230.263977 
L 202.649805 235.233954 
L 203.521907 233.276062 
L 204.394009 233.54343 
L 205.266111 231.458148 
L 206.138213 234.630679 
L 207.010315 231.217997 
L 207.882417 230.025817 
L 208.754519 230.803056 
L 209.626622 232.844831 
L 210.498724 233.057954 
L 211.370826 232.94554 
L 212.242928 233.767105 
L 213.11503 235.178986 
L 213.987132 236.243608 
L 214.859234 236.07231 
L 216.603438 232.187511 
L 217.475541 232.140835 
L 218.347643 235.648041 
L 219.219745 234.675692 
L 220.091847 233.081613 
L 220.963949 235.659692 
L 221.836051 235.169459 
L 222.708153 234.427435 
L 223.580255 234.63977 
L 224.452357 236.747187 
L 225.324459 233.544977 
L 226.196562 235.678534 
L 227.068664 231.020457 
L 227.940766 231.027307 
L 228.812868 236.634668 
L 229.68497 235.751499 
L 230.557072 235.334805 
L 231.429174 236.21149 
L 232.301276 236.781419 
L 233.173378 235.241038 
L 234.045481 230.66194 
L 234.917583 233.038621 
L 235.789685 230.510213 
L 236.661787 232.969694 
L 237.533889 228.986733 
L 238.405991 235.652272 
L 239.278093 234.737968 
L 240.150195 236.380352 
L 241.022297 236.614322 
L 241.8944 234.861344 
L 242.766502 236.374828 
L 243.638604 235.99014 
L 244.510706 238.425672 
L 245.382808 236.210325 
L 246.25491 234.626381 
L 247.127012 236.119023 
L 247.999114 237.38705 
L 248.871216 237.307681 
L 249.743319 235.521037 
L 250.615421 230.987737 
L 251.487523 231.830622 
L 252.359625 235.219157 
L 253.231727 237.170541 
L 254.103829 236.746131 
L 254.975931 234.441175 
L 255.848033 234.922792 
L 256.720135 233.351373 
L 257.592238 235.640585 
L 258.46434 238.356504 
L 259.336442 234.394684 
L 260.208544 233.235078 
L 261.080646 222.775134 
L 261.952748 230.398405 
L 262.82485 235.92066 
L 263.696952 237.168176 
L 264.569054 236.38872 
L 265.441157 236.649666 
L 266.313259 236.479549 
L 267.185361 238.051667 
L 268.057463 236.90879 
L 268.929565 237.584342 
L 269.801667 237.392293 
L 270.673769 236.565743 
L 271.545871 236.761125 
L 272.417973 235.152988 
L 273.290076 235.372855 
L 274.162178 237.565728 
L 275.03428 238.0589 
L 275.906382 236.345241 
L 276.778484 236.541193 
L 277.650586 237.1156 
L 278.522688 232.064322 
L 279.39479 238.349011 
L 280.266892 239.064581 
L 281.138995 237.785465 
L 282.011097 238.937372 
L 282.883199 237.398778 
L 283.755301 236.167361 
L 285.499505 238.018001 
L 286.371607 235.084485 
L 287.243709 238.424981 
L 288.115811 236.250289 
L 288.987914 238.212907 
L 289.860016 231.894158 
L 290.732118 234.81189 
L 291.60422 233.316784 
L 292.476322 234.494749 
L 293.348424 236.511862 
L 294.220526 237.005409 
L 295.092628 235.402507 
L 295.96473 238.322921 
L 296.836833 237.801443 
L 297.708935 237.662485 
L 298.581037 237.398738 
L 299.453139 237.67227 
L 300.325241 238.764217 
L 301.197343 237.082021 
L 302.069445 238.913755 
L 302.941547 237.31397 
L 303.813649 238.077387 
L 304.685751 239.359587 
L 305.557854 234.831588 
L 306.429956 235.643651 
L 307.302058 238.834412 
L 308.17416 239.771405 
L 309.046262 237.880657 
L 309.918364 239.630608 
L 310.790466 237.391529 
L 311.662568 236.250703 
L 312.53467 234.738343 
L 313.406773 238.273872 
L 314.278875 239.759545 
L 315.150977 237.626064 
L 316.023079 237.045441 
L 316.895181 238.78954 
L 317.767283 238.425578 
L 318.639385 234.152112 
L 319.511487 237.350041 
L 320.383589 239.790183 
L 321.255692 240.059752 
L 322.127794 238.561691 
L 322.999896 238.223033 
L 323.871998 239.330859 
L 324.7441 239.52914 
L 325.616202 237.633762 
L 326.488304 235.286419 
L 327.360406 230.827099 
L 328.232508 239.540763 
L 329.104611 238.932297 
L 329.976713 238.568296 
L 330.848815 237.231616 
L 331.720917 234.904991 
L 332.593019 234.578202 
L 333.465121 238.361477 
L 334.337223 237.709441 
L 335.209325 235.015712 
L 336.081427 235.735793 
L 336.95353 238.773099 
L 337.825632 237.109176 
L 338.697734 237.684895 
L 339.569836 239.082872 
L 340.441938 237.98861 
L 341.31404 236.256081 
L 342.186142 239.147722 
L 343.058244 236.618798 
L 343.930346 239.353845 
L 344.802449 237.633513 
L 345.674551 239.541936 
L 346.546653 239.497635 
L 347.418755 238.623313 
L 348.290857 238.932821 
L 349.162959 237.263041 
L 350.035061 238.639834 
L 350.907163 240.275326 
L 351.779265 239.450362 
L 352.651368 239.590288 
L 353.52347 241.248497 
L 354.395572 240.367077 
L 355.267674 238.396315 
L 356.139776 237.129705 
L 357.011878 237.683023 
L 357.88398 237.748731 
L 358.756082 237.245093 
L 359.628184 237.119095 
L 360.500287 238.590584 
L 361.372389 238.299886 
L 362.244491 240.400076 
L 363.116593 239.538686 
L 363.988695 239.875475 
L 366.605001 240.243482 
L 367.477103 242.116364 
L 368.349206 237.751144 
L 369.221308 236.362472 
L 370.09341 237.629105 
L 370.965512 241.127118 
L 371.837614 239.89878 
L 372.709716 239.99328 
L 373.581818 238.904056 
L 373.581818 238.904056 
" style="fill:none;stroke:#ff0000;stroke-linecap:square;stroke-width:1.5;"/>
   </g>
   <g id="line2d_16">
    <path clip-path="url(#pe27b84bcfb)" d="M 69.218182 44.909855 
L 70.090284 48.829332 
L 70.962386 71.192174 
L 71.834488 109.28853 
L 72.70659 153.360702 
L 73.578692 186.423962 
L 74.450794 198.078995 
L 75.322897 199.542161 
L 76.194999 197.604805 
L 77.067101 212.875798 
L 77.939203 214.970768 
L 78.811305 214.392621 
L 79.683407 214.106956 
L 80.555509 216.922279 
L 81.427611 212.867147 
L 82.299713 216.106582 
L 83.171816 220.893492 
L 84.043918 222.73946 
L 84.91602 222.545458 
L 85.788122 222.726155 
L 86.660224 219.130399 
L 87.532326 219.624052 
L 88.404428 223.07392 
L 90.148632 224.852514 
L 91.020735 219.478832 
L 91.892837 227.719519 
L 92.764939 220.419644 
L 93.637041 226.538888 
L 94.509143 219.403655 
L 95.381245 227.167603 
L 96.253347 227.161528 
L 97.997551 225.965824 
L 98.869654 229.893657 
L 99.741756 227.89462 
L 101.48596 217.577696 
L 102.358062 222.864228 
L 103.230164 226.478479 
L 104.102266 230.741203 
L 104.974368 228.820063 
L 105.84647 232.046486 
L 106.718573 232.783883 
L 107.590675 228.749708 
L 108.462777 232.197812 
L 109.334879 232.273229 
L 110.206981 226.786152 
L 111.079083 211.12242 
L 111.951185 232.75116 
L 112.823287 234.493533 
L 113.695389 233.196389 
L 114.567492 227.045466 
L 115.439594 227.201061 
L 116.311696 223.88956 
L 117.183798 217.764205 
L 118.0559 226.40674 
L 118.928002 211.67732 
L 119.800104 232.293826 
L 120.672206 233.508854 
L 121.544308 233.856548 
L 122.416411 230.956036 
L 123.288513 235.151334 
L 124.160615 233.687729 
L 125.032717 221.339078 
L 125.904819 233.487478 
L 126.776921 229.558723 
L 127.649023 234.991979 
L 128.521125 235.105525 
L 129.393227 228.422202 
L 130.26533 230.164397 
L 131.137432 231.173116 
L 132.009534 227.09685 
L 132.881636 230.229575 
L 133.753738 227.894377 
L 134.62584 230.045063 
L 135.497942 234.69056 
L 136.370044 236.98985 
L 137.242146 232.843158 
L 138.114249 235.056015 
L 138.986351 226.043606 
L 139.858453 229.519733 
L 140.730555 234.995653 
L 141.602657 234.088567 
L 142.474759 229.448898 
L 143.346861 233.995372 
L 144.218963 228.119711 
L 145.091065 234.125902 
L 145.963167 228.651744 
L 146.83527 235.536103 
L 147.707372 233.54789 
L 148.579474 233.065235 
L 149.451576 231.289477 
L 150.323678 236.363058 
L 151.19578 229.654199 
L 152.067882 235.420519 
L 152.939984 235.121196 
L 153.812086 234.512968 
L 154.684189 229.084253 
L 155.556291 231.271779 
L 156.428393 210.285991 
L 157.300495 228.319279 
L 158.172597 231.778087 
L 159.044699 231.664777 
L 159.916801 233.759873 
L 160.788903 228.594411 
L 161.661005 228.181555 
L 162.533108 234.026827 
L 163.40521 238.452258 
L 164.277312 236.948307 
L 165.149414 237.381728 
L 166.021516 234.566043 
L 166.893618 233.70944 
L 167.76572 235.873897 
L 168.637822 236.343597 
L 170.382027 234.859225 
L 171.254129 232.225086 
L 172.126231 236.794833 
L 172.998333 238.229587 
L 173.870435 235.357813 
L 174.742537 236.089724 
L 175.614639 237.844244 
L 176.486741 236.355687 
L 177.358843 227.946798 
L 179.103048 237.58548 
L 179.97515 236.28857 
L 180.847252 228.58595 
L 181.719354 236.180489 
L 182.591456 223.824589 
L 183.463558 236.444932 
L 184.33566 234.90797 
L 185.207762 238.088973 
L 186.951967 235.20933 
L 187.824069 232.568594 
L 188.696171 235.216121 
L 189.568273 238.554399 
L 190.440375 236.823333 
L 191.312477 235.41895 
L 192.184579 236.834112 
L 193.056681 236.861019 
L 193.928784 237.545653 
L 194.800886 237.930361 
L 195.672988 233.328165 
L 196.54509 238.023959 
L 197.417192 236.760371 
L 198.289294 239.021821 
L 199.161396 239.139471 
L 200.033498 235.97983 
L 200.9056 231.581617 
L 201.777703 234.886259 
L 202.649805 235.258761 
L 203.521907 223.528014 
L 204.394009 227.147446 
L 205.266111 237.987516 
L 206.138213 234.570307 
L 207.010315 234.961731 
L 207.882417 234.780089 
L 208.754519 226.229689 
L 209.626622 237.609294 
L 210.498724 236.157493 
L 211.370826 236.841913 
L 212.242928 238.068998 
L 213.11503 230.570637 
L 213.987132 235.898825 
L 214.859234 231.631764 
L 215.731336 234.617722 
L 216.603438 232.255609 
L 217.475541 238.914395 
L 218.347643 238.982721 
L 219.219745 235.280422 
L 220.091847 238.267093 
L 220.963949 240.216143 
L 221.836051 235.923256 
L 222.708153 235.759206 
L 223.580255 236.066047 
L 224.452357 238.450324 
L 225.324459 237.87789 
L 226.196562 216.521311 
L 227.068664 235.611676 
L 227.940766 236.217472 
L 228.812868 239.126009 
L 231.429174 229.754526 
L 232.301276 236.279041 
L 233.173378 231.128178 
L 234.045481 237.040731 
L 234.917583 235.296585 
L 235.789685 234.778272 
L 236.661787 235.07297 
L 237.533889 235.048712 
L 239.278093 237.921784 
L 240.150195 239.178359 
L 241.022297 235.13803 
L 241.8944 237.219813 
L 242.766502 238.927098 
L 243.638604 238.891236 
L 244.510706 238.03666 
L 245.382808 236.110954 
L 246.25491 230.824618 
L 247.127012 233.388428 
L 247.999114 233.560542 
L 249.743319 237.434703 
L 250.615421 235.56125 
L 251.487523 238.861198 
L 252.359625 236.969653 
L 253.231727 236.714422 
L 254.103829 229.124907 
L 254.975931 238.152838 
L 255.848033 238.058655 
L 256.720135 238.772852 
L 258.46434 237.865441 
L 260.208544 224.503567 
L 261.080646 223.802589 
L 261.952748 231.774684 
L 262.82485 230.774798 
L 263.696952 238.86058 
L 264.569054 239.647966 
L 265.441157 239.114783 
L 266.313259 234.740664 
L 267.185361 237.875871 
L 268.057463 238.976692 
L 268.929565 237.822915 
L 269.801667 238.519298 
L 270.673769 238.754555 
L 271.545871 231.702311 
L 272.417973 234.284481 
L 273.290076 239.98754 
L 274.162178 234.975102 
L 275.03428 239.487466 
L 275.906382 236.031835 
L 276.778484 240.338265 
L 277.650586 235.919635 
L 278.522688 238.614758 
L 279.39479 239.588621 
L 281.138995 237.138169 
L 282.011097 240.026397 
L 282.883199 239.659617 
L 283.755301 238.499068 
L 284.627403 238.889844 
L 285.499505 235.9737 
L 286.371607 238.480943 
L 287.243709 239.247942 
L 288.115811 236.680678 
L 288.987914 232.033238 
L 289.860016 238.542495 
L 290.732118 235.777295 
L 291.60422 229.648263 
L 292.476322 237.051367 
L 293.348424 237.510175 
L 294.220526 239.50013 
L 295.092628 236.160416 
L 295.96473 238.592187 
L 296.836833 237.402583 
L 297.708935 239.481011 
L 298.581037 238.940956 
L 299.453139 238.25482 
L 300.325241 239.65599 
L 301.197343 240.240454 
L 302.069445 237.068171 
L 302.941547 238.751908 
L 303.813649 240.825365 
L 304.685751 239.760436 
L 305.557854 232.733687 
L 306.429956 240.247868 
L 307.302058 238.948742 
L 308.17416 239.80957 
L 309.046262 235.84224 
L 309.918364 238.478632 
L 310.790466 238.780654 
L 311.662568 233.058387 
L 312.53467 239.936718 
L 314.278875 235.828251 
L 315.150977 236.220906 
L 316.023079 240.799261 
L 316.895181 239.156343 
L 317.767283 238.227908 
L 318.639385 237.986914 
L 319.511487 240.185422 
L 320.383589 240.038034 
L 321.255692 235.644822 
L 322.127794 235.656402 
L 322.999896 238.999751 
L 323.871998 238.210581 
L 324.7441 239.809295 
L 325.616202 238.749835 
L 326.488304 232.112552 
L 327.360406 237.377156 
L 328.232508 228.072322 
L 329.104611 240.735217 
L 329.976713 236.343608 
L 330.848815 236.480116 
L 331.720917 238.838243 
L 332.593019 238.827927 
L 333.465121 238.154066 
L 334.337223 239.434901 
L 335.209325 236.072753 
L 336.081427 240.352894 
L 336.95353 240.643337 
L 337.825632 231.424278 
L 338.697734 237.856006 
L 339.569836 239.323636 
L 340.441938 240.163251 
L 341.31404 239.307289 
L 342.186142 234.689795 
L 343.058244 240.011759 
L 343.930346 239.511559 
L 344.802449 239.448781 
L 345.674551 240.890373 
L 346.546653 240.423348 
L 347.418755 232.293377 
L 350.035061 239.929599 
L 350.907163 239.395862 
L 351.779265 240.117951 
L 352.651368 237.921757 
L 354.395572 239.43198 
L 355.267674 238.689621 
L 356.139776 227.661747 
L 357.011878 237.652842 
L 357.88398 238.363087 
L 358.756082 239.913494 
L 359.628184 239.233907 
L 360.500287 239.230235 
L 361.372389 240.796895 
L 362.244491 240.099545 
L 363.116593 238.548086 
L 363.988695 240.011269 
L 364.860797 237.617561 
L 365.732899 239.596994 
L 366.605001 238.543312 
L 367.477103 240.067529 
L 368.349206 239.234782 
L 369.221308 228.60908 
L 370.09341 236.941823 
L 370.965512 237.083594 
L 371.837614 234.55706 
L 372.709716 235.466584 
L 373.581818 238.882448 
L 373.581818 238.882448 
" style="fill:none;stroke:#008000;stroke-linecap:square;stroke-width:1.5;"/>
   </g>
   <g id="patch_3">
    <path d="M 54 252 
L 54 34.56 
" style="fill:none;stroke:#000000;stroke-linecap:square;stroke-linejoin:miter;stroke-width:0.8;"/>
   </g>
   <g id="patch_4">
    <path d="M 388.8 252 
L 388.8 34.56 
" style="fill:none;stroke:#000000;stroke-linecap:square;stroke-linejoin:miter;stroke-width:0.8;"/>
   </g>
   <g id="patch_5">
    <path d="M 54 252 
L 388.8 252 
" style="fill:none;stroke:#000000;stroke-linecap:square;stroke-linejoin:miter;stroke-width:0.8;"/>
   </g>
   <g id="patch_6">
    <path d="M 54 34.56 
L 388.8 34.56 
" style="fill:none;stroke:#000000;stroke-linecap:square;stroke-linejoin:miter;stroke-width:0.8;"/>
   </g>
   <g id="text_17">
    <!-- 损失变化 -->
    <defs>
     <path d="M 44.140625 79.296875 
Q 48.828125 80.078125 53.515625 80.859375 
Q 54.6875 73.046875 55.078125 69.921875 
L 72.265625 69.921875 
Q 83.203125 69.921875 91.796875 70.3125 
L 91.796875 62.890625 
Q 82.8125 63.28125 72.265625 63.28125 
L 62.890625 63.28125 
L 62.890625 46.484375 
Q 62.890625 38.671875 63.28125 33.984375 
L 55.078125 33.984375 
Q 55.46875 38.671875 55.46875 46.484375 
L 55.46875 63.28125 
L 43.359375 63.28125 
L 43.359375 46.484375 
Q 43.359375 39.0625 43.75 33.984375 
L 35.546875 33.984375 
Q 35.9375 39.0625 35.9375 46.484375 
L 35.9375 63.28125 
L 27.734375 63.28125 
Q 16.796875 63.28125 8.59375 62.890625 
L 8.59375 70.3125 
Q 16.40625 69.921875 27.734375 69.921875 
L 46.484375 69.921875 
Q 45.703125 74.609375 44.140625 79.296875 
z
M 21.484375 57.8125 
Q 25 55.078125 29.6875 52.734375 
Q 27.34375 50.78125 23.234375 45.3125 
Q 19.140625 39.84375 14.453125 33.984375 
Q 10.546875 36.71875 7.421875 38.671875 
Q 16.015625 46.875 21.484375 57.8125 
z
M 69.53125 51.953125 
Q 73.046875 54.6875 75.78125 57.421875 
Q 83.59375 50 92.1875 40.625 
Q 88.671875 38.28125 85.15625 35.15625 
Q 78.90625 42.96875 69.53125 51.953125 
z
M 17.578125 28.515625 
Q 24.609375 28.125 33.984375 28.125 
L 79.6875 28.125 
Q 74.609375 20.3125 69.53125 14.0625 
Q 64.453125 7.8125 58.59375 3.515625 
Q 67.578125 0.78125 74.40625 -0.1875 
Q 81.25 -1.171875 92.1875 -0.78125 
Q 89.0625 -4.296875 87.890625 -9.765625 
Q 75 -8.203125 66.015625 -5.859375 
Q 57.03125 -3.515625 51.171875 -1.171875 
Q 41.40625 -5.078125 32.8125 -6.828125 
Q 24.21875 -8.59375 12.109375 -10.15625 
Q 10.546875 -5.859375 7.8125 -1.953125 
Q 17.96875 -1.953125 26.359375 -0.78125 
Q 34.765625 0.390625 44.140625 3.125 
Q 36.328125 7.421875 27.34375 21.484375 
L 35.9375 21.484375 
Q 42.1875 11.71875 51.5625 7.03125 
Q 59.375 11.71875 66.40625 21.484375 
L 33.59375 21.484375 
Q 23.828125 21.484375 17.578125 21.09375 
z
" id="SimHei-53d8"/>
     <path d="M 52.34375 79.296875 
L 60.9375 79.296875 
Q 60.15625 74.21875 60.15625 66.40625 
L 60.15625 37.890625 
Q 66.796875 43.75 71.875 50.96875 
Q 76.953125 58.203125 80.46875 65.234375 
Q 83.59375 62.890625 89.84375 60.15625 
Q 87.109375 57.8125 83.984375 53.90625 
Q 80.859375 50 77.34375 45.5 
Q 73.828125 41.015625 69.53125 36.515625 
Q 65.234375 32.03125 60.15625 28.125 
L 60.15625 6.25 
Q 60.15625 0.78125 65.234375 0.78125 
L 79.296875 0.78125 
Q 82.8125 1.171875 83.390625 4.09375 
Q 83.984375 7.03125 84.375 12.890625 
Q 88.28125 9.765625 93.75 8.984375 
Q 91.40625 -1.5625 88.859375 -3.90625 
Q 86.328125 -6.25 81.640625 -6.25 
L 60.9375 -6.25 
Q 52.734375 -6.25 52.734375 0.78125 
L 52.734375 23.4375 
Q 49.21875 21.09375 46.09375 19.140625 
Q 42.96875 17.1875 38.28125 14.0625 
Q 35.9375 18.359375 33.59375 21.09375 
Q 38.28125 23.046875 43.546875 25.96875 
Q 48.828125 28.90625 52.734375 32.421875 
L 52.734375 67.578125 
Q 52.734375 74.609375 52.34375 79.296875 
z
M 28.515625 80.859375 
Q 32.03125 78.515625 38.28125 76.5625 
Q 35.15625 72.265625 33.59375 68.15625 
Q 32.03125 64.0625 29.6875 58.59375 
L 29.6875 10.15625 
Q 29.6875 -1.953125 30.078125 -8.203125 
L 21.484375 -8.203125 
Q 22.265625 -2.34375 22.265625 9.765625 
L 22.265625 46.875 
Q 19.53125 42.1875 17.1875 39.0625 
Q 14.84375 35.9375 12.890625 33.59375 
Q 10.15625 36.71875 6.640625 39.453125 
Q 11.71875 44.53125 15.421875 50 
Q 19.140625 55.46875 21.484375 60.734375 
Q 23.828125 66.015625 25.578125 71.09375 
Q 27.34375 76.171875 28.515625 80.859375 
z
" id="SimHei-5316"/>
    </defs>
    <g transform="translate(197.4 28.56)scale(0.12 -0.12)">
     <use xlink:href="#SimHei-635f"/>
     <use x="100" xlink:href="#SimHei-5931"/>
     <use x="200" xlink:href="#SimHei-53d8"/>
     <use x="300" xlink:href="#SimHei-5316"/>
    </g>
   </g>
   <g id="legend_1">
    <g id="patch_7">
     <path d="M 309.8 70.763125 
L 381.8 70.763125 
Q 383.8 70.763125 383.8 68.763125 
L 383.8 41.56 
Q 383.8 39.56 381.8 39.56 
L 309.8 39.56 
Q 307.8 39.56 307.8 41.56 
L 307.8 68.763125 
Q 307.8 70.763125 309.8 70.763125 
z
" style="fill:#ffffff;opacity:0.8;stroke:#cccccc;stroke-linejoin:miter;"/>
    </g>
    <g id="line2d_17">
     <path d="M 311.8 47.8725 
L 331.8 47.8725 
" style="fill:none;stroke:#ff0000;stroke-linecap:square;stroke-width:1.5;"/>
    </g>
    <g id="line2d_18"/>
    <g id="text_18">
     <!-- 训练损失 -->
     <defs>
      <path d="M 42.1875 77.34375 
Q 47.265625 76.953125 51.5625 76.5625 
Q 50.390625 71.875 50.1875 65.8125 
Q 50 59.765625 50 47.265625 
Q 50 34.765625 49.21875 26.5625 
Q 48.4375 18.359375 47.0625 12.109375 
Q 45.703125 5.859375 43.359375 0.96875 
Q 41.015625 -3.90625 37.890625 -8.59375 
Q 33.984375 -6.25 29.296875 -4.296875 
Q 33.984375 0 36.71875 5.46875 
Q 39.453125 10.9375 41.015625 19.140625 
Q 42.578125 27.34375 42.765625 38.859375 
Q 42.96875 50.390625 42.765625 58.390625 
Q 42.578125 66.40625 42.1875 77.34375 
z
M 59.765625 72.265625 
L 67.578125 72.265625 
Q 67.1875 65.234375 67.1875 57.8125 
L 67.1875 18.359375 
Q 67.1875 7.421875 67.578125 0.390625 
L 59.765625 0.390625 
Q 60.15625 7.421875 60.15625 18.359375 
L 60.15625 57.8125 
Q 60.15625 66.796875 59.765625 72.265625 
z
M 79.296875 76.953125 
L 87.109375 76.953125 
Q 86.71875 70.3125 86.71875 61.71875 
L 86.71875 14.84375 
Q 86.71875 3.90625 87.109375 -7.8125 
L 79.296875 -7.8125 
Q 79.6875 3.90625 79.6875 14.84375 
L 79.6875 61.71875 
Q 79.6875 70.3125 79.296875 76.953125 
z
M 13.28125 75 
Q 16.015625 76.953125 19.921875 79.296875 
Q 26.5625 69.140625 29.6875 64.0625 
Q 25.78125 62.109375 23.046875 59.765625 
Q 17.1875 70.3125 13.28125 75 
z
M 5.46875 51.5625 
Q 10.15625 51.171875 15.234375 51.171875 
L 25.390625 51.171875 
Q 25 42.1875 25 34.765625 
L 25 11.71875 
Q 30.078125 18.359375 31.640625 20.703125 
Q 33.59375 18.359375 36.328125 14.84375 
Q 31.25 9.375 27.734375 5.078125 
Q 24.21875 0.78125 20.703125 -4.296875 
Q 17.96875 -1.171875 14.84375 1.171875 
Q 17.96875 5.078125 17.96875 10.9375 
L 17.96875 44.140625 
L 15.234375 44.140625 
Q 10.15625 44.140625 5.46875 43.75 
z
" id="SimHei-8bad"/>
      <path d="M 14.0625 49.609375 
Q 21.875 50.390625 25.390625 50.390625 
Q 29.6875 57.03125 32.03125 63.28125 
Q 35.15625 60.546875 39.84375 57.8125 
Q 35.9375 54.296875 31.640625 47.265625 
Q 27.34375 40.234375 18.359375 27.734375 
Q 20.703125 28.125 25.390625 28.90625 
Q 30.078125 29.6875 35.9375 30.46875 
Q 35.546875 26.5625 35.15625 23.4375 
Q 32.8125 23.4375 25.1875 22.65625 
Q 17.578125 21.875 11.71875 19.921875 
Q 9.765625 23.828125 7.8125 27.734375 
Q 12.109375 30.46875 15.421875 34.5625 
Q 18.75 38.671875 22.265625 44.921875 
Q 19.921875 44.921875 15.8125 44.140625 
Q 11.71875 43.359375 8.203125 42.1875 
Q 6.640625 46.09375 5.078125 50 
Q 8.984375 53.515625 12.890625 61.71875 
Q 16.796875 69.921875 19.921875 79.296875 
Q 23.828125 76.171875 28.515625 73.828125 
Q 25.390625 71.875 22.65625 65.8125 
Q 19.921875 59.765625 14.0625 49.609375 
z
M 6.25 8.203125 
Q 16.40625 9.765625 20.109375 10.546875 
Q 23.828125 11.328125 38.671875 14.453125 
Q 37.890625 10.546875 37.890625 7.421875 
Q 31.640625 6.25 23.4375 4.296875 
Q 15.234375 2.34375 8.984375 -0.390625 
Q 7.8125 4.296875 6.25 8.203125 
z
M 55.078125 43.75 
Q 50.390625 35.546875 49.21875 32.8125 
L 64.84375 32.8125 
L 64.84375 43.75 
z
M 51.171875 20.703125 
Q 54.296875 18.359375 59.375 16.015625 
Q 55.859375 13.28125 50.78125 6.25 
Q 45.703125 -0.78125 41.015625 -6.640625 
Q 37.109375 -4.296875 33.203125 -2.34375 
Q 37.109375 0.78125 42.375 7.21875 
Q 47.65625 13.671875 51.171875 20.703125 
z
M 76.5625 16.015625 
Q 79.6875 18.359375 83.203125 19.921875 
Q 85.546875 15.625 89.25 10.34375 
Q 92.96875 5.078125 95.703125 0.390625 
Q 91.796875 -1.171875 88.28125 -3.515625 
Q 85.15625 2.34375 82.609375 6.640625 
Q 80.078125 10.9375 76.5625 16.015625 
z
M 49.609375 49.609375 
Q 52.34375 55.078125 54.296875 60.15625 
L 52.34375 60.15625 
Q 46.484375 60.15625 39.453125 59.765625 
L 39.453125 66.40625 
Q 46.484375 66.015625 52.734375 66.015625 
L 55.859375 66.015625 
Q 57.03125 68.75 58.203125 72.453125 
Q 59.375 76.171875 59.765625 80.859375 
Q 65.625 77.734375 69.140625 76.5625 
Q 67.1875 74.21875 65.8125 71.484375 
Q 64.453125 68.75 63.28125 66.015625 
L 78.125 66.015625 
Q 84.765625 66.015625 90.625 66.40625 
L 90.625 59.765625 
Q 84.765625 60.15625 78.125 60.15625 
L 61.71875 60.15625 
Q 59.375 54.6875 57.03125 49.609375 
L 72.65625 49.609375 
Q 72.265625 44.921875 72.265625 39.0625 
L 72.265625 32.8125 
L 77.34375 32.8125 
Q 83.59375 32.8125 89.453125 33.203125 
L 89.453125 26.5625 
Q 83.59375 26.953125 77.34375 26.953125 
L 72.265625 26.953125 
L 72.265625 2.734375 
Q 72.265625 -5.46875 68.546875 -7.609375 
Q 64.84375 -9.765625 58.59375 -10.15625 
Q 57.421875 -5.078125 54.6875 -0.390625 
Q 62.890625 -1.171875 63.859375 0.390625 
Q 64.84375 1.953125 64.84375 5.859375 
L 64.84375 26.953125 
L 52.734375 26.953125 
Q 49.609375 26.953125 47.0625 26.359375 
Q 44.53125 25.78125 42.1875 24.609375 
Q 40.625 28.515625 38.28125 31.640625 
Q 42.1875 33.203125 47.65625 43.75 
Q 44.53125 43.75 40.625 43.359375 
L 40.625 50 
Q 46.09375 49.609375 49.609375 49.609375 
z
" id="SimHei-7ec3"/>
     </defs>
     <g transform="translate(339.8 51.3725)scale(0.1 -0.1)">
      <use xlink:href="#SimHei-8bad"/>
      <use x="100" xlink:href="#SimHei-7ec3"/>
      <use x="200" xlink:href="#SimHei-635f"/>
      <use x="300" xlink:href="#SimHei-5931"/>
     </g>
    </g>
    <g id="line2d_19">
     <path d="M 311.8 61.974063 
L 331.8 61.974063 
" style="fill:none;stroke:#008000;stroke-linecap:square;stroke-width:1.5;"/>
    </g>
    <g id="line2d_20"/>
    <g id="text_19">
     <!-- 验证损失 -->
     <defs>
      <path d="M 6.25 73.046875 
Q 12.109375 72.65625 17.96875 72.65625 
L 36.328125 72.65625 
Q 35.546875 69.140625 35.15625 62.5 
L 32.421875 32.8125 
L 39.453125 32.8125 
Q 39.0625 29.6875 38.671875 22.65625 
L 37.5 1.5625 
Q 37.5 -6.25 32.8125 -7.421875 
Q 28.125 -8.59375 19.921875 -9.765625 
Q 18.75 -4.6875 16.796875 -1.171875 
Q 25 -1.171875 27.53125 -0.96875 
Q 30.078125 -0.78125 30.859375 2.734375 
L 32.03125 26.5625 
L 9.375 26.5625 
Q 9.765625 33.59375 9.953125 42.1875 
Q 10.15625 50.78125 10.15625 58.59375 
L 17.578125 58.59375 
Q 16.796875 54.296875 16.40625 47.65625 
Q 16.015625 41.015625 16.015625 32.8125 
L 25.78125 32.8125 
L 28.515625 66.40625 
L 17.96875 66.40625 
Q 12.109375 66.40625 6.25 66.015625 
z
M 3.90625 14.453125 
Q 9.375 14.84375 15.03125 15.625 
Q 20.703125 16.40625 28.125 17.578125 
Q 27.734375 14.84375 27.34375 10.9375 
Q 21.484375 10.15625 17.765625 9.375 
Q 14.0625 8.59375 6.640625 6.25 
Q 5.46875 10.546875 3.90625 14.453125 
z
M 58.984375 80.078125 
Q 63.671875 78.90625 69.140625 77.734375 
L 67.1875 75 
Q 73.4375 63.28125 80.078125 58 
Q 86.71875 52.734375 95.3125 49.609375 
Q 91.796875 46.484375 89.84375 42.1875 
Q 84.765625 44.921875 79.6875 49.21875 
L 79.6875 42.96875 
Q 74.609375 43.359375 65.421875 43.359375 
Q 56.25 43.359375 50.390625 42.96875 
L 50.390625 48.828125 
Q 48.046875 45.703125 43.75 41.015625 
Q 40.234375 44.140625 36.71875 46.09375 
Q 42.578125 50.390625 45.890625 54.6875 
Q 49.21875 58.984375 51.75 63.46875 
Q 54.296875 67.96875 56.046875 71.875 
Q 57.8125 75.78125 58.984375 80.078125 
z
M 62.890625 70.703125 
Q 60.15625 64.453125 57.609375 60.15625 
Q 55.078125 55.859375 50.78125 49.609375 
L 79.296875 49.609375 
Q 74.609375 53.125 70.703125 58 
Q 66.796875 62.890625 62.890625 70.703125 
z
M 44.53125 31.640625 
Q 47.65625 32.8125 50.78125 33.59375 
Q 52.34375 28.125 54.09375 21.28125 
Q 55.859375 14.453125 57.421875 8.984375 
Q 53.90625 8.59375 50.78125 7.03125 
Q 49.609375 14.0625 48.234375 19.140625 
Q 46.875 24.21875 44.53125 31.640625 
z
M 58.59375 34.375 
Q 62.109375 35.15625 65.234375 35.546875 
Q 66.015625 30.46875 66.796875 25.578125 
Q 67.578125 20.703125 68.75 12.890625 
Q 65.625 12.109375 62.5 11.328125 
Q 61.328125 19.921875 60.546875 24.21875 
Q 59.765625 28.515625 58.59375 34.375 
z
M 78.515625 35.546875 
Q 81.640625 34.375 87.109375 33.203125 
Q 85.15625 30.859375 83.984375 26.953125 
Q 82.8125 23.046875 80.265625 14.453125 
Q 77.734375 5.859375 76.171875 0.78125 
L 81.640625 0.78125 
Q 84.375 0.78125 89.84375 1.171875 
L 89.84375 -5.859375 
Q 85.15625 -5.46875 81.640625 -5.46875 
L 51.953125 -5.46875 
Q 44.921875 -5.46875 41.796875 -5.859375 
L 41.796875 1.171875 
Q 46.484375 0.78125 52.34375 0.78125 
L 69.53125 0.78125 
Q 72.65625 9.375 74.609375 18.15625 
Q 76.5625 26.953125 78.515625 35.546875 
z
" id="SimHei-9a8c"/>
      <path d="M 30.859375 64.453125 
Q 27.34375 61.71875 25 58.984375 
Q 18.75 67.578125 14.0625 72.265625 
Q 17.1875 74.609375 19.921875 77.34375 
Q 27.34375 68.75 30.859375 64.453125 
z
M 20.703125 -5.859375 
Q 17.96875 -2.34375 14.453125 0 
Q 19.140625 4.6875 19.140625 9.375 
L 19.140625 42.1875 
L 16.015625 42.1875 
Q 10.9375 42.1875 5.46875 41.796875 
L 5.46875 48.828125 
Q 10.546875 48.4375 16.015625 48.4375 
L 26.953125 48.4375 
Q 26.5625 41.40625 26.5625 33.59375 
L 26.5625 13.671875 
Q 29.6875 17.578125 32.421875 21.484375 
Q 34.375 17.1875 37.109375 14.0625 
Q 32.8125 9.375 29.296875 5.078125 
Q 25.78125 0.78125 20.703125 -5.859375 
z
M 38.671875 72.65625 
Q 46.484375 72.265625 55.078125 72.265625 
L 78.90625 72.265625 
Q 86.328125 72.265625 92.578125 72.65625 
L 92.578125 65.625 
Q 86.328125 66.015625 78.90625 66.015625 
L 69.53125 66.015625 
L 69.53125 40.234375 
L 78.125 40.234375 
Q 84.375 40.234375 90.234375 40.625 
L 90.234375 33.59375 
Q 84.765625 33.984375 78.125 33.984375 
L 69.53125 33.984375 
L 69.53125 3.90625 
L 79.6875 3.90625 
Q 86.328125 3.90625 94.53125 4.296875 
L 94.53125 -2.734375 
Q 86.328125 -2.34375 79.6875 -2.34375 
L 46.875 -2.34375 
Q 37.890625 -2.34375 32.03125 -2.734375 
L 32.03125 4.296875 
Q 37.890625 3.90625 43.75 3.90625 
L 43.75 32.421875 
Q 43.75 39.84375 43.359375 44.921875 
L 51.5625 44.921875 
Q 51.171875 40.234375 51.171875 32.421875 
L 51.171875 3.90625 
L 62.109375 3.90625 
L 62.109375 66.015625 
L 55.078125 66.015625 
Q 46.484375 66.015625 38.671875 65.625 
z
" id="SimHei-8bc1"/>
     </defs>
     <g transform="translate(339.8 65.474063)scale(0.1 -0.1)">
      <use xlink:href="#SimHei-9a8c"/>
      <use x="100" xlink:href="#SimHei-8bc1"/>
      <use x="200" xlink:href="#SimHei-635f"/>
      <use x="300" xlink:href="#SimHei-5931"/>
     </g>
    </g>
   </g>
  </g>
 </g>
 <defs>
  <clipPath id="pe27b84bcfb">
   <rect height="217.44" width="334.8" x="54" y="34.56"/>
  </clipPath>
 </defs>
</svg>
