<?xml version="1.0" encoding="utf-8" standalone="no"?>
<!DOCTYPE svg PUBLIC "-//W3C//DTD SVG 1.1//EN"
  "http://www.w3.org/Graphics/SVG/1.1/DTD/svg11.dtd">
<!-- Created with matplotlib (http://matplotlib.org/) -->
<svg height="288pt" version="1.1" viewBox="0 0 432 288" width="432pt" xmlns="http://www.w3.org/2000/svg" xmlns:xlink="http://www.w3.org/1999/xlink">
 <defs>
  <style type="text/css">
*{stroke-linecap:butt;stroke-linejoin:round;}
  </style>
 </defs>
 <g id="figure_1">
  <g id="patch_1">
   <path d="M 0 288 
L 432 288 
L 432 0 
L 0 0 
z
" style="fill:#ffffff;"/>
  </g>
  <g id="axes_1">
   <g id="patch_2">
    <path d="M 54 252 
L 388.8 252 
L 388.8 34.56 
L 54 34.56 
z
" style="fill:#ffffff;"/>
   </g>
   <g id="matplotlib.axis_1">
    <g id="xtick_1">
     <g id="line2d_1">
      <defs>
       <path d="M 0 0 
L 0 3.5 
" id="mf87e1325c0" style="stroke:#000000;stroke-width:0.8;"/>
      </defs>
      <g>
       <use style="stroke:#000000;stroke-width:0.8;" x="69.218182" xlink:href="#mf87e1325c0" y="252"/>
      </g>
     </g>
     <g id="text_1">
      <!-- 0 -->
      <defs>
       <path d="M 31.78125 66.40625 
Q 24.171875 66.40625 20.328125 58.90625 
Q 16.5 51.421875 16.5 36.375 
Q 16.5 21.390625 20.328125 13.890625 
Q 24.171875 6.390625 31.78125 6.390625 
Q 39.453125 6.390625 43.28125 13.890625 
Q 47.125 21.390625 47.125 36.375 
Q 47.125 51.421875 43.28125 58.90625 
Q 39.453125 66.40625 31.78125 66.40625 
z
M 31.78125 74.21875 
Q 44.046875 74.21875 50.515625 64.515625 
Q 56.984375 54.828125 56.984375 36.375 
Q 56.984375 17.96875 50.515625 8.265625 
Q 44.046875 -1.421875 31.78125 -1.421875 
Q 19.53125 -1.421875 13.0625 8.265625 
Q 6.59375 17.96875 6.59375 36.375 
Q 6.59375 54.828125 13.0625 64.515625 
Q 19.53125 74.21875 31.78125 74.21875 
z
" id="DejaVuSans-30"/>
      </defs>
      <g transform="translate(66.036932 266.598437)scale(0.1 -0.1)">
       <use xlink:href="#DejaVuSans-30"/>
      </g>
     </g>
    </g>
    <g id="xtick_2">
     <g id="line2d_2">
      <g>
       <use style="stroke:#000000;stroke-width:0.8;" x="112.823287" xlink:href="#mf87e1325c0" y="252"/>
      </g>
     </g>
     <g id="text_2">
      <!-- 50 -->
      <defs>
       <path d="M 10.796875 72.90625 
L 49.515625 72.90625 
L 49.515625 64.59375 
L 19.828125 64.59375 
L 19.828125 46.734375 
Q 21.96875 47.46875 24.109375 47.828125 
Q 26.265625 48.1875 28.421875 48.1875 
Q 40.625 48.1875 47.75 41.5 
Q 54.890625 34.8125 54.890625 23.390625 
Q 54.890625 11.625 47.5625 5.09375 
Q 40.234375 -1.421875 26.90625 -1.421875 
Q 22.3125 -1.421875 17.546875 -0.640625 
Q 12.796875 0.140625 7.71875 1.703125 
L 7.71875 11.625 
Q 12.109375 9.234375 16.796875 8.0625 
Q 21.484375 6.890625 26.703125 6.890625 
Q 35.15625 6.890625 40.078125 11.328125 
Q 45.015625 15.765625 45.015625 23.390625 
Q 45.015625 31 40.078125 35.4375 
Q 35.15625 39.890625 26.703125 39.890625 
Q 22.75 39.890625 18.8125 39.015625 
Q 14.890625 38.140625 10.796875 36.28125 
z
" id="DejaVuSans-35"/>
      </defs>
      <g transform="translate(106.460787 266.598437)scale(0.1 -0.1)">
       <use xlink:href="#DejaVuSans-35"/>
       <use x="63.623047" xlink:href="#DejaVuSans-30"/>
      </g>
     </g>
    </g>
    <g id="xtick_3">
     <g id="line2d_3">
      <g>
       <use style="stroke:#000000;stroke-width:0.8;" x="156.428393" xlink:href="#mf87e1325c0" y="252"/>
      </g>
     </g>
     <g id="text_3">
      <!-- 100 -->
      <defs>
       <path d="M 12.40625 8.296875 
L 28.515625 8.296875 
L 28.515625 63.921875 
L 10.984375 60.40625 
L 10.984375 69.390625 
L 28.421875 72.90625 
L 38.28125 72.90625 
L 38.28125 8.296875 
L 54.390625 8.296875 
L 54.390625 0 
L 12.40625 0 
z
" id="DejaVuSans-31"/>
      </defs>
      <g transform="translate(146.884643 266.598437)scale(0.1 -0.1)">
       <use xlink:href="#DejaVuSans-31"/>
       <use x="63.623047" xlink:href="#DejaVuSans-30"/>
       <use x="127.246094" xlink:href="#DejaVuSans-30"/>
      </g>
     </g>
    </g>
    <g id="xtick_4">
     <g id="line2d_4">
      <g>
       <use style="stroke:#000000;stroke-width:0.8;" x="200.033498" xlink:href="#mf87e1325c0" y="252"/>
      </g>
     </g>
     <g id="text_4">
      <!-- 150 -->
      <g transform="translate(190.489748 266.598437)scale(0.1 -0.1)">
       <use xlink:href="#DejaVuSans-31"/>
       <use x="63.623047" xlink:href="#DejaVuSans-35"/>
       <use x="127.246094" xlink:href="#DejaVuSans-30"/>
      </g>
     </g>
    </g>
    <g id="xtick_5">
     <g id="line2d_5">
      <g>
       <use style="stroke:#000000;stroke-width:0.8;" x="243.638604" xlink:href="#mf87e1325c0" y="252"/>
      </g>
     </g>
     <g id="text_5">
      <!-- 200 -->
      <defs>
       <path d="M 19.1875 8.296875 
L 53.609375 8.296875 
L 53.609375 0 
L 7.328125 0 
L 7.328125 8.296875 
Q 12.9375 14.109375 22.625 23.890625 
Q 32.328125 33.6875 34.8125 36.53125 
Q 39.546875 41.84375 41.421875 45.53125 
Q 43.3125 49.21875 43.3125 52.78125 
Q 43.3125 58.59375 39.234375 62.25 
Q 35.15625 65.921875 28.609375 65.921875 
Q 23.96875 65.921875 18.8125 64.3125 
Q 13.671875 62.703125 7.8125 59.421875 
L 7.8125 69.390625 
Q 13.765625 71.78125 18.9375 73 
Q 24.125 74.21875 28.421875 74.21875 
Q 39.75 74.21875 46.484375 68.546875 
Q 53.21875 62.890625 53.21875 53.421875 
Q 53.21875 48.921875 51.53125 44.890625 
Q 49.859375 40.875 45.40625 35.40625 
Q 44.1875 33.984375 37.640625 27.21875 
Q 31.109375 20.453125 19.1875 8.296875 
z
" id="DejaVuSans-32"/>
      </defs>
      <g transform="translate(234.094854 266.598437)scale(0.1 -0.1)">
       <use xlink:href="#DejaVuSans-32"/>
       <use x="63.623047" xlink:href="#DejaVuSans-30"/>
       <use x="127.246094" xlink:href="#DejaVuSans-30"/>
      </g>
     </g>
    </g>
    <g id="xtick_6">
     <g id="line2d_6">
      <g>
       <use style="stroke:#000000;stroke-width:0.8;" x="287.243709" xlink:href="#mf87e1325c0" y="252"/>
      </g>
     </g>
     <g id="text_6">
      <!-- 250 -->
      <g transform="translate(277.699959 266.598437)scale(0.1 -0.1)">
       <use xlink:href="#DejaVuSans-32"/>
       <use x="63.623047" xlink:href="#DejaVuSans-35"/>
       <use x="127.246094" xlink:href="#DejaVuSans-30"/>
      </g>
     </g>
    </g>
    <g id="xtick_7">
     <g id="line2d_7">
      <g>
       <use style="stroke:#000000;stroke-width:0.8;" x="330.848815" xlink:href="#mf87e1325c0" y="252"/>
      </g>
     </g>
     <g id="text_7">
      <!-- 300 -->
      <defs>
       <path d="M 40.578125 39.3125 
Q 47.65625 37.796875 51.625 33 
Q 55.609375 28.21875 55.609375 21.1875 
Q 55.609375 10.40625 48.1875 4.484375 
Q 40.765625 -1.421875 27.09375 -1.421875 
Q 22.515625 -1.421875 17.65625 -0.515625 
Q 12.796875 0.390625 7.625 2.203125 
L 7.625 11.71875 
Q 11.71875 9.328125 16.59375 8.109375 
Q 21.484375 6.890625 26.8125 6.890625 
Q 36.078125 6.890625 40.9375 10.546875 
Q 45.796875 14.203125 45.796875 21.1875 
Q 45.796875 27.640625 41.28125 31.265625 
Q 36.765625 34.90625 28.71875 34.90625 
L 20.21875 34.90625 
L 20.21875 43.015625 
L 29.109375 43.015625 
Q 36.375 43.015625 40.234375 45.921875 
Q 44.09375 48.828125 44.09375 54.296875 
Q 44.09375 59.90625 40.109375 62.90625 
Q 36.140625 65.921875 28.71875 65.921875 
Q 24.65625 65.921875 20.015625 65.03125 
Q 15.375 64.15625 9.8125 62.3125 
L 9.8125 71.09375 
Q 15.4375 72.65625 20.34375 73.4375 
Q 25.25 74.21875 29.59375 74.21875 
Q 40.828125 74.21875 47.359375 69.109375 
Q 53.90625 64.015625 53.90625 55.328125 
Q 53.90625 49.265625 50.4375 45.09375 
Q 46.96875 40.921875 40.578125 39.3125 
z
" id="DejaVuSans-33"/>
      </defs>
      <g transform="translate(321.305065 266.598437)scale(0.1 -0.1)">
       <use xlink:href="#DejaVuSans-33"/>
       <use x="63.623047" xlink:href="#DejaVuSans-30"/>
       <use x="127.246094" xlink:href="#DejaVuSans-30"/>
      </g>
     </g>
    </g>
    <g id="xtick_8">
     <g id="line2d_8">
      <g>
       <use style="stroke:#000000;stroke-width:0.8;" x="374.45392" xlink:href="#mf87e1325c0" y="252"/>
      </g>
     </g>
     <g id="text_8">
      <!-- 350 -->
      <g transform="translate(364.91017 266.598437)scale(0.1 -0.1)">
       <use xlink:href="#DejaVuSans-33"/>
       <use x="63.623047" xlink:href="#DejaVuSans-35"/>
       <use x="127.246094" xlink:href="#DejaVuSans-30"/>
      </g>
     </g>
    </g>
    <g id="text_9">
     <!-- Epoches -->
     <defs>
      <path d="M 9.8125 72.90625 
L 55.90625 72.90625 
L 55.90625 64.59375 
L 19.671875 64.59375 
L 19.671875 43.015625 
L 54.390625 43.015625 
L 54.390625 34.71875 
L 19.671875 34.71875 
L 19.671875 8.296875 
L 56.78125 8.296875 
L 56.78125 0 
L 9.8125 0 
z
" id="DejaVuSans-45"/>
      <path d="M 18.109375 8.203125 
L 18.109375 -20.796875 
L 9.078125 -20.796875 
L 9.078125 54.6875 
L 18.109375 54.6875 
L 18.109375 46.390625 
Q 20.953125 51.265625 25.265625 53.625 
Q 29.59375 56 35.59375 56 
Q 45.5625 56 51.78125 48.09375 
Q 58.015625 40.1875 58.015625 27.296875 
Q 58.015625 14.40625 51.78125 6.484375 
Q 45.5625 -1.421875 35.59375 -1.421875 
Q 29.59375 -1.421875 25.265625 0.953125 
Q 20.953125 3.328125 18.109375 8.203125 
z
M 48.6875 27.296875 
Q 48.6875 37.203125 44.609375 42.84375 
Q 40.53125 48.484375 33.40625 48.484375 
Q 26.265625 48.484375 22.1875 42.84375 
Q 18.109375 37.203125 18.109375 27.296875 
Q 18.109375 17.390625 22.1875 11.75 
Q 26.265625 6.109375 33.40625 6.109375 
Q 40.53125 6.109375 44.609375 11.75 
Q 48.6875 17.390625 48.6875 27.296875 
z
" id="DejaVuSans-70"/>
      <path d="M 30.609375 48.390625 
Q 23.390625 48.390625 19.1875 42.75 
Q 14.984375 37.109375 14.984375 27.296875 
Q 14.984375 17.484375 19.15625 11.84375 
Q 23.34375 6.203125 30.609375 6.203125 
Q 37.796875 6.203125 41.984375 11.859375 
Q 46.1875 17.53125 46.1875 27.296875 
Q 46.1875 37.015625 41.984375 42.703125 
Q 37.796875 48.390625 30.609375 48.390625 
z
M 30.609375 56 
Q 42.328125 56 49.015625 48.375 
Q 55.71875 40.765625 55.71875 27.296875 
Q 55.71875 13.875 49.015625 6.21875 
Q 42.328125 -1.421875 30.609375 -1.421875 
Q 18.84375 -1.421875 12.171875 6.21875 
Q 5.515625 13.875 5.515625 27.296875 
Q 5.515625 40.765625 12.171875 48.375 
Q 18.84375 56 30.609375 56 
z
" id="DejaVuSans-6f"/>
      <path d="M 48.78125 52.59375 
L 48.78125 44.1875 
Q 44.96875 46.296875 41.140625 47.34375 
Q 37.3125 48.390625 33.40625 48.390625 
Q 24.65625 48.390625 19.8125 42.84375 
Q 14.984375 37.3125 14.984375 27.296875 
Q 14.984375 17.28125 19.8125 11.734375 
Q 24.65625 6.203125 33.40625 6.203125 
Q 37.3125 6.203125 41.140625 7.25 
Q 44.96875 8.296875 48.78125 10.40625 
L 48.78125 2.09375 
Q 45.015625 0.34375 40.984375 -0.53125 
Q 36.96875 -1.421875 32.421875 -1.421875 
Q 20.0625 -1.421875 12.78125 6.34375 
Q 5.515625 14.109375 5.515625 27.296875 
Q 5.515625 40.671875 12.859375 48.328125 
Q 20.21875 56 33.015625 56 
Q 37.15625 56 41.109375 55.140625 
Q 45.0625 54.296875 48.78125 52.59375 
z
" id="DejaVuSans-63"/>
      <path d="M 54.890625 33.015625 
L 54.890625 0 
L 45.90625 0 
L 45.90625 32.71875 
Q 45.90625 40.484375 42.875 44.328125 
Q 39.84375 48.1875 33.796875 48.1875 
Q 26.515625 48.1875 22.3125 43.546875 
Q 18.109375 38.921875 18.109375 30.90625 
L 18.109375 0 
L 9.078125 0 
L 9.078125 75.984375 
L 18.109375 75.984375 
L 18.109375 46.1875 
Q 21.34375 51.125 25.703125 53.5625 
Q 30.078125 56 35.796875 56 
Q 45.21875 56 50.046875 50.171875 
Q 54.890625 44.34375 54.890625 33.015625 
z
" id="DejaVuSans-68"/>
      <path d="M 56.203125 29.59375 
L 56.203125 25.203125 
L 14.890625 25.203125 
Q 15.484375 15.921875 20.484375 11.0625 
Q 25.484375 6.203125 34.421875 6.203125 
Q 39.59375 6.203125 44.453125 7.46875 
Q 49.3125 8.734375 54.109375 11.28125 
L 54.109375 2.78125 
Q 49.265625 0.734375 44.1875 -0.34375 
Q 39.109375 -1.421875 33.890625 -1.421875 
Q 20.796875 -1.421875 13.15625 6.1875 
Q 5.515625 13.8125 5.515625 26.8125 
Q 5.515625 40.234375 12.765625 48.109375 
Q 20.015625 56 32.328125 56 
Q 43.359375 56 49.78125 48.890625 
Q 56.203125 41.796875 56.203125 29.59375 
z
M 47.21875 32.234375 
Q 47.125 39.59375 43.09375 43.984375 
Q 39.0625 48.390625 32.421875 48.390625 
Q 24.90625 48.390625 20.390625 44.140625 
Q 15.875 39.890625 15.1875 32.171875 
z
" id="DejaVuSans-65"/>
      <path d="M 44.28125 53.078125 
L 44.28125 44.578125 
Q 40.484375 46.53125 36.375 47.5 
Q 32.28125 48.484375 27.875 48.484375 
Q 21.1875 48.484375 17.84375 46.4375 
Q 14.5 44.390625 14.5 40.28125 
Q 14.5 37.15625 16.890625 35.375 
Q 19.28125 33.59375 26.515625 31.984375 
L 29.59375 31.296875 
Q 39.15625 29.25 43.1875 25.515625 
Q 47.21875 21.78125 47.21875 15.09375 
Q 47.21875 7.46875 41.1875 3.015625 
Q 35.15625 -1.421875 24.609375 -1.421875 
Q 20.21875 -1.421875 15.453125 -0.5625 
Q 10.6875 0.296875 5.421875 2 
L 5.421875 11.28125 
Q 10.40625 8.6875 15.234375 7.390625 
Q 20.0625 6.109375 24.8125 6.109375 
Q 31.15625 6.109375 34.5625 8.28125 
Q 37.984375 10.453125 37.984375 14.40625 
Q 37.984375 18.0625 35.515625 20.015625 
Q 33.0625 21.96875 24.703125 23.78125 
L 21.578125 24.515625 
Q 13.234375 26.265625 9.515625 29.90625 
Q 5.8125 33.546875 5.8125 39.890625 
Q 5.8125 47.609375 11.28125 51.796875 
Q 16.75 56 26.8125 56 
Q 31.78125 56 36.171875 55.265625 
Q 40.578125 54.546875 44.28125 53.078125 
z
" id="DejaVuSans-73"/>
     </defs>
     <g transform="translate(200.407813 280.276563)scale(0.1 -0.1)">
      <use xlink:href="#DejaVuSans-45"/>
      <use x="63.183594" xlink:href="#DejaVuSans-70"/>
      <use x="126.660156" xlink:href="#DejaVuSans-6f"/>
      <use x="187.841797" xlink:href="#DejaVuSans-63"/>
      <use x="242.822266" xlink:href="#DejaVuSans-68"/>
      <use x="306.201172" xlink:href="#DejaVuSans-65"/>
      <use x="367.724609" xlink:href="#DejaVuSans-73"/>
     </g>
    </g>
   </g>
   <g id="matplotlib.axis_2">
    <g id="ytick_1">
     <g id="line2d_9">
      <defs>
       <path d="M 0 0 
L -3.5 0 
" id="m0b7e043127" style="stroke:#000000;stroke-width:0.8;"/>
      </defs>
      <g>
       <use style="stroke:#000000;stroke-width:0.8;" x="54" xlink:href="#m0b7e043127" y="248.161455"/>
      </g>
     </g>
     <g id="text_10">
      <!-- 0.0 -->
      <defs>
       <path d="M 10.6875 12.40625 
L 21 12.40625 
L 21 0 
L 10.6875 0 
z
" id="DejaVuSans-2e"/>
      </defs>
      <g transform="translate(31.096875 251.960674)scale(0.1 -0.1)">
       <use xlink:href="#DejaVuSans-30"/>
       <use x="63.623047" xlink:href="#DejaVuSans-2e"/>
       <use x="95.410156" xlink:href="#DejaVuSans-30"/>
      </g>
     </g>
    </g>
    <g id="ytick_2">
     <g id="line2d_10">
      <g>
       <use style="stroke:#000000;stroke-width:0.8;" x="54" xlink:href="#m0b7e043127" y="211.261407"/>
      </g>
     </g>
     <g id="text_11">
      <!-- 0.2 -->
      <g transform="translate(31.096875 215.060626)scale(0.1 -0.1)">
       <use xlink:href="#DejaVuSans-30"/>
       <use x="63.623047" xlink:href="#DejaVuSans-2e"/>
       <use x="95.410156" xlink:href="#DejaVuSans-32"/>
      </g>
     </g>
    </g>
    <g id="ytick_3">
     <g id="line2d_11">
      <g>
       <use style="stroke:#000000;stroke-width:0.8;" x="54" xlink:href="#m0b7e043127" y="174.361359"/>
      </g>
     </g>
     <g id="text_12">
      <!-- 0.4 -->
      <defs>
       <path d="M 37.796875 64.3125 
L 12.890625 25.390625 
L 37.796875 25.390625 
z
M 35.203125 72.90625 
L 47.609375 72.90625 
L 47.609375 25.390625 
L 58.015625 25.390625 
L 58.015625 17.1875 
L 47.609375 17.1875 
L 47.609375 0 
L 37.796875 0 
L 37.796875 17.1875 
L 4.890625 17.1875 
L 4.890625 26.703125 
z
" id="DejaVuSans-34"/>
      </defs>
      <g transform="translate(31.096875 178.160578)scale(0.1 -0.1)">
       <use xlink:href="#DejaVuSans-30"/>
       <use x="63.623047" xlink:href="#DejaVuSans-2e"/>
       <use x="95.410156" xlink:href="#DejaVuSans-34"/>
      </g>
     </g>
    </g>
    <g id="ytick_4">
     <g id="line2d_12">
      <g>
       <use style="stroke:#000000;stroke-width:0.8;" x="54" xlink:href="#m0b7e043127" y="137.461312"/>
      </g>
     </g>
     <g id="text_13">
      <!-- 0.6 -->
      <defs>
       <path d="M 33.015625 40.375 
Q 26.375 40.375 22.484375 35.828125 
Q 18.609375 31.296875 18.609375 23.390625 
Q 18.609375 15.53125 22.484375 10.953125 
Q 26.375 6.390625 33.015625 6.390625 
Q 39.65625 6.390625 43.53125 10.953125 
Q 47.40625 15.53125 47.40625 23.390625 
Q 47.40625 31.296875 43.53125 35.828125 
Q 39.65625 40.375 33.015625 40.375 
z
M 52.59375 71.296875 
L 52.59375 62.3125 
Q 48.875 64.0625 45.09375 64.984375 
Q 41.3125 65.921875 37.59375 65.921875 
Q 27.828125 65.921875 22.671875 59.328125 
Q 17.53125 52.734375 16.796875 39.40625 
Q 19.671875 43.65625 24.015625 45.921875 
Q 28.375 48.1875 33.59375 48.1875 
Q 44.578125 48.1875 50.953125 41.515625 
Q 57.328125 34.859375 57.328125 23.390625 
Q 57.328125 12.15625 50.6875 5.359375 
Q 44.046875 -1.421875 33.015625 -1.421875 
Q 20.359375 -1.421875 13.671875 8.265625 
Q 6.984375 17.96875 6.984375 36.375 
Q 6.984375 53.65625 15.1875 63.9375 
Q 23.390625 74.21875 37.203125 74.21875 
Q 40.921875 74.21875 44.703125 73.484375 
Q 48.484375 72.75 52.59375 71.296875 
z
" id="DejaVuSans-36"/>
      </defs>
      <g transform="translate(31.096875 141.26053)scale(0.1 -0.1)">
       <use xlink:href="#DejaVuSans-30"/>
       <use x="63.623047" xlink:href="#DejaVuSans-2e"/>
       <use x="95.410156" xlink:href="#DejaVuSans-36"/>
      </g>
     </g>
    </g>
    <g id="ytick_5">
     <g id="line2d_13">
      <g>
       <use style="stroke:#000000;stroke-width:0.8;" x="54" xlink:href="#m0b7e043127" y="100.561264"/>
      </g>
     </g>
     <g id="text_14">
      <!-- 0.8 -->
      <defs>
       <path d="M 31.78125 34.625 
Q 24.75 34.625 20.71875 30.859375 
Q 16.703125 27.09375 16.703125 20.515625 
Q 16.703125 13.921875 20.71875 10.15625 
Q 24.75 6.390625 31.78125 6.390625 
Q 38.8125 6.390625 42.859375 10.171875 
Q 46.921875 13.96875 46.921875 20.515625 
Q 46.921875 27.09375 42.890625 30.859375 
Q 38.875 34.625 31.78125 34.625 
z
M 21.921875 38.8125 
Q 15.578125 40.375 12.03125 44.71875 
Q 8.5 49.078125 8.5 55.328125 
Q 8.5 64.0625 14.71875 69.140625 
Q 20.953125 74.21875 31.78125 74.21875 
Q 42.671875 74.21875 48.875 69.140625 
Q 55.078125 64.0625 55.078125 55.328125 
Q 55.078125 49.078125 51.53125 44.71875 
Q 48 40.375 41.703125 38.8125 
Q 48.828125 37.15625 52.796875 32.3125 
Q 56.78125 27.484375 56.78125 20.515625 
Q 56.78125 9.90625 50.3125 4.234375 
Q 43.84375 -1.421875 31.78125 -1.421875 
Q 19.734375 -1.421875 13.25 4.234375 
Q 6.78125 9.90625 6.78125 20.515625 
Q 6.78125 27.484375 10.78125 32.3125 
Q 14.796875 37.15625 21.921875 38.8125 
z
M 18.3125 54.390625 
Q 18.3125 48.734375 21.84375 45.5625 
Q 25.390625 42.390625 31.78125 42.390625 
Q 38.140625 42.390625 41.71875 45.5625 
Q 45.3125 48.734375 45.3125 54.390625 
Q 45.3125 60.0625 41.71875 63.234375 
Q 38.140625 66.40625 31.78125 66.40625 
Q 25.390625 66.40625 21.84375 63.234375 
Q 18.3125 60.0625 18.3125 54.390625 
z
" id="DejaVuSans-38"/>
      </defs>
      <g transform="translate(31.096875 104.360483)scale(0.1 -0.1)">
       <use xlink:href="#DejaVuSans-30"/>
       <use x="63.623047" xlink:href="#DejaVuSans-2e"/>
       <use x="95.410156" xlink:href="#DejaVuSans-38"/>
      </g>
     </g>
    </g>
    <g id="ytick_6">
     <g id="line2d_14">
      <g>
       <use style="stroke:#000000;stroke-width:0.8;" x="54" xlink:href="#m0b7e043127" y="63.661216"/>
      </g>
     </g>
     <g id="text_15">
      <!-- 1.0 -->
      <g transform="translate(31.096875 67.460435)scale(0.1 -0.1)">
       <use xlink:href="#DejaVuSans-31"/>
       <use x="63.623047" xlink:href="#DejaVuSans-2e"/>
       <use x="95.410156" xlink:href="#DejaVuSans-30"/>
      </g>
     </g>
    </g>
    <g id="text_16">
     <!-- Loss -->
     <defs>
      <path d="M 9.8125 72.90625 
L 19.671875 72.90625 
L 19.671875 8.296875 
L 55.171875 8.296875 
L 55.171875 0 
L 9.8125 0 
z
" id="DejaVuSans-4c"/>
     </defs>
     <g transform="translate(25.017187 154.333906)rotate(-90)scale(0.1 -0.1)">
      <use xlink:href="#DejaVuSans-4c"/>
      <use x="55.697266" xlink:href="#DejaVuSans-6f"/>
      <use x="116.878906" xlink:href="#DejaVuSans-73"/>
      <use x="168.978516" xlink:href="#DejaVuSans-73"/>
     </g>
    </g>
   </g>
   <g id="line2d_15">
    <path clip-path="url(#pc9009cdcf5)" d="M 69.218182 47.775786 
L 70.090284 48.273821 
L 70.962386 48.644607 
L 71.834488 50.920163 
L 72.70659 63.381553 
L 74.450794 158.352264 
L 75.322897 151.195041 
L 76.194999 174.271286 
L 77.067101 183.936071 
L 77.939203 191.5135 
L 78.811305 193.938128 
L 79.683407 190.292287 
L 80.555509 198.874806 
L 81.427611 201.204171 
L 82.299713 203.96111 
L 83.171816 204.727384 
L 84.043918 196.131059 
L 84.91602 201.296108 
L 86.660224 205.950091 
L 87.532326 203.843665 
L 88.404428 203.482639 
L 89.27653 206.837844 
L 90.148632 203.487333 
L 91.020735 205.184672 
L 91.892837 203.636556 
L 92.764939 208.194138 
L 93.637041 198.074335 
L 94.509143 204.67539 
L 95.381245 206.713754 
L 96.253347 203.49812 
L 97.125449 201.393599 
L 97.997551 200.888579 
L 98.869654 207.573881 
L 99.741756 209.171667 
L 100.613858 210.061595 
L 101.48596 209.328022 
L 102.358062 200.861518 
L 103.230164 208.746016 
L 104.102266 205.887447 
L 104.974368 211.964201 
L 105.84647 210.779341 
L 106.718573 211.637457 
L 107.590675 205.203278 
L 108.462777 209.012491 
L 109.334879 213.444077 
L 110.206981 213.856242 
L 111.079083 216.439894 
L 111.951185 211.579357 
L 112.823287 216.665703 
L 113.695389 215.563621 
L 114.567492 218.160036 
L 115.439594 215.288433 
L 116.311696 213.862737 
L 117.183798 212.060213 
L 118.0559 212.519368 
L 118.928002 213.39526 
L 119.800104 215.36535 
L 120.672206 218.088693 
L 121.544308 219.07655 
L 122.416411 220.940782 
L 123.288513 222.375009 
L 124.160615 222.605009 
L 125.032717 221.994083 
L 125.904819 214.676061 
L 126.776921 218.45612 
L 127.649023 220.086832 
L 128.521125 220.008229 
L 129.393227 224.391604 
L 130.26533 221.251128 
L 131.137432 222.022918 
L 132.009534 222.422958 
L 132.881636 218.931481 
L 133.753738 220.346488 
L 134.62584 222.19291 
L 135.497942 215.202454 
L 136.370044 218.837039 
L 137.242146 224.089908 
L 138.114249 219.796106 
L 138.986351 217.007832 
L 140.730555 223.424399 
L 141.602657 224.368481 
L 142.474759 227.991083 
L 143.346861 225.7797 
L 144.218963 225.85206 
L 145.091065 215.64943 
L 145.963167 225.681251 
L 146.83527 221.069553 
L 147.707372 225.901845 
L 148.579474 226.790494 
L 149.451576 223.565284 
L 151.19578 226.663937 
L 152.067882 224.827888 
L 152.939984 228.363751 
L 153.812086 226.063194 
L 154.684189 221.651407 
L 155.556291 223.646285 
L 156.428393 223.936721 
L 157.300495 221.552214 
L 158.172597 221.795274 
L 159.044699 226.494896 
L 160.788903 228.506179 
L 161.661005 227.015316 
L 162.533108 223.756898 
L 163.40521 219.410907 
L 164.277312 226.262574 
L 165.149414 229.241912 
L 166.021516 226.010095 
L 166.893618 218.327466 
L 167.76572 226.365523 
L 168.637822 226.421198 
L 169.509924 228.965035 
L 170.382027 229.780925 
L 171.254129 229.937271 
L 172.126231 226.66809 
L 172.998333 212.799549 
L 173.870435 218.051882 
L 174.742537 224.271863 
L 175.614639 226.064105 
L 176.486741 229.703906 
L 177.358843 226.305963 
L 178.230946 227.21552 
L 179.103048 226.495349 
L 179.97515 228.954017 
L 180.847252 222.334978 
L 181.719354 227.967007 
L 182.591456 226.503856 
L 183.463558 227.991569 
L 184.33566 230.521736 
L 185.207762 230.918452 
L 186.079865 230.73889 
L 186.951967 227.433321 
L 187.824069 229.963637 
L 188.696171 230.489889 
L 189.568273 231.163362 
L 190.440375 228.886662 
L 191.312477 228.235078 
L 192.184579 228.125401 
L 193.056681 230.010434 
L 193.928784 230.235847 
L 194.800886 223.47801 
L 195.672988 226.235499 
L 196.54509 226.265155 
L 197.417192 222.160662 
L 198.289294 222.213711 
L 199.161396 228.845072 
L 200.033498 229.496188 
L 200.9056 232.04815 
L 201.777703 231.642855 
L 202.649805 232.002863 
L 203.521907 230.224455 
L 204.394009 225.700279 
L 205.266111 227.826054 
L 206.138213 227.452525 
L 207.010315 232.203251 
L 207.882417 232.855569 
L 209.626622 230.140089 
L 210.498724 231.968483 
L 211.370826 231.113121 
L 212.242928 231.027678 
L 213.11503 226.299026 
L 213.987132 229.389909 
L 214.859234 231.297894 
L 215.731336 231.521261 
L 216.603438 232.968505 
L 217.475541 233.353766 
L 218.347643 232.239781 
L 219.219745 231.950382 
L 220.091847 232.226147 
L 220.963949 227.180117 
L 221.836051 232.729867 
L 222.708153 233.425644 
L 223.580255 232.419972 
L 224.452357 233.610932 
L 226.196562 228.560673 
L 227.068664 233.251447 
L 227.940766 233.636302 
L 228.812868 233.240935 
L 229.68497 231.378876 
L 230.557072 234.064519 
L 231.429174 232.879561 
L 232.301276 232.707674 
L 233.173378 225.229024 
L 234.045481 224.964229 
L 234.917583 229.371052 
L 235.789685 233.060787 
L 236.661787 234.560073 
L 237.533889 233.934224 
L 238.405991 235.255444 
L 239.278093 235.504302 
L 240.150195 234.707405 
L 241.022297 233.21801 
L 241.8944 234.810111 
L 242.766502 231.670721 
L 243.638604 234.7174 
L 245.382808 232.794053 
L 246.25491 232.838235 
L 247.127012 227.213315 
L 247.999114 227.644109 
L 248.871216 228.946365 
L 249.743319 233.192079 
L 250.615421 233.242199 
L 251.487523 229.179797 
L 252.359625 233.898322 
L 253.231727 236.910891 
L 254.103829 235.455747 
L 254.975931 232.045839 
L 255.848033 234.794209 
L 256.720135 232.722063 
L 257.592238 232.629057 
L 258.46434 230.019224 
L 259.336442 234.550921 
L 260.208544 236.244157 
L 261.952748 237.165491 
L 262.82485 236.976761 
L 263.696952 235.953385 
L 264.569054 238.276494 
L 265.441157 237.818023 
L 266.313259 235.042835 
L 267.185361 233.670151 
L 268.057463 235.005442 
L 268.929565 230.36988 
L 269.801667 232.513267 
L 270.673769 231.860456 
L 271.545871 224.447774 
L 272.417973 228.654529 
L 273.290076 231.885833 
L 274.162178 232.199517 
L 275.03428 233.169103 
L 275.906382 238.070227 
L 276.778484 236.985375 
L 277.650586 234.580571 
L 278.522688 237.943347 
L 279.39479 238.534316 
L 280.266892 238.865749 
L 281.138995 234.33528 
L 282.011097 234.201736 
L 282.883199 231.443908 
L 283.755301 237.916383 
L 284.627403 238.31499 
L 285.499505 230.851941 
L 286.371607 226.470056 
L 288.115811 237.815506 
L 288.987914 237.559714 
L 289.860016 233.617567 
L 290.732118 234.431579 
L 291.60422 233.389598 
L 292.476322 237.533201 
L 293.348424 238.179151 
L 294.220526 238.172482 
L 295.092628 234.930151 
L 296.836833 234.277406 
L 297.708935 234.165998 
L 298.581037 232.582591 
L 299.453139 233.466212 
L 300.325241 238.541942 
L 301.197343 232.865049 
L 302.069445 235.560365 
L 302.941547 237.562165 
L 303.813649 239.078803 
L 304.685751 237.673362 
L 305.557854 238.542395 
L 306.429956 236.893347 
L 307.302058 232.983954 
L 308.17416 232.469483 
L 309.046262 236.941139 
L 309.918364 236.691172 
L 310.790466 239.865944 
L 311.662568 238.593699 
L 312.53467 239.680408 
L 313.406773 239.22362 
L 314.278875 237.259173 
L 315.150977 236.850745 
L 316.023079 235.911567 
L 316.895181 236.031263 
L 317.767283 238.325086 
L 318.639385 234.244105 
L 319.511487 238.257918 
L 320.383589 239.370216 
L 321.255692 236.078886 
L 322.127794 236.392646 
L 322.999896 233.369777 
L 323.871998 234.741634 
L 324.7441 236.769028 
L 325.616202 238.499115 
L 326.488304 238.537377 
L 327.360406 238.435869 
L 328.232508 240.007157 
L 329.104611 240.204882 
L 329.976713 239.749423 
L 330.848815 239.110168 
L 331.720917 239.57301 
L 332.593019 239.639615 
L 333.465121 238.399849 
L 335.209325 237.359409 
L 336.081427 232.474084 
L 336.95353 239.740051 
L 337.825632 239.126825 
L 338.697734 240.664821 
L 339.569836 240.077077 
L 340.441938 240.937444 
L 341.31404 239.12201 
L 342.186142 239.852702 
L 343.058244 240.144028 
L 343.930346 241.108715 
L 344.802449 241.532951 
L 345.674551 239.60085 
L 346.546653 240.363574 
L 347.418755 240.140365 
L 348.290857 240.33342 
L 349.162959 240.863168 
L 350.035061 241.721757 
L 350.907163 239.611519 
L 351.779265 240.083601 
L 352.651368 237.345482 
L 353.52347 240.762237 
L 354.395572 240.268434 
L 355.267674 242.116364 
L 356.139776 239.895637 
L 357.011878 239.949372 
L 357.88398 239.310813 
L 358.756082 241.7201 
L 359.628184 241.130853 
L 360.500287 236.717945 
L 361.372389 233.879135 
L 362.244491 232.128127 
L 363.116593 233.142827 
L 363.988695 237.06996 
L 365.732899 239.619541 
L 366.605001 237.064848 
L 367.477103 222.184387 
L 368.349206 233.839912 
L 369.221308 232.521637 
L 370.09341 230.597078 
L 370.965512 236.154936 
L 371.837614 237.69193 
L 372.709716 239.567668 
L 373.581818 239.244105 
L 373.581818 239.244105 
" style="fill:none;stroke:#ff0000;stroke-linecap:square;stroke-width:1.5;"/>
   </g>
   <g id="line2d_16">
    <path clip-path="url(#pc9009cdcf5)" d="M 69.218182 44.443636 
L 70.090284 47.909374 
L 70.962386 47.395261 
L 71.834488 53.466359 
L 72.70659 79.818267 
L 73.578692 138.616539 
L 74.450794 181.132612 
L 75.322897 187.993306 
L 76.194999 196.314377 
L 77.067101 196.15898 
L 77.939203 203.530034 
L 78.811305 196.117092 
L 79.683407 209.964596 
L 80.555509 204.322413 
L 81.427611 214.367602 
L 82.299713 213.427343 
L 83.171816 202.493571 
L 84.043918 205.43667 
L 84.91602 209.221778 
L 85.788122 214.892873 
L 86.660224 206.678358 
L 87.532326 210.573599 
L 88.404428 217.108518 
L 89.27653 215.536734 
L 90.148632 218.664332 
L 91.020735 206.826425 
L 91.892837 218.716992 
L 92.764939 216.197832 
L 93.637041 212.638967 
L 94.509143 216.673467 
L 95.381245 219.455669 
L 97.125449 193.754432 
L 97.997551 216.916091 
L 98.869654 215.93795 
L 99.741756 219.267088 
L 100.613858 220.80733 
L 101.48596 215.342754 
L 102.358062 219.640294 
L 103.230164 215.528269 
L 104.102266 222.20256 
L 104.974368 221.116764 
L 105.84647 220.944084 
L 106.718573 218.396963 
L 107.590675 220.592329 
L 108.462777 211.95297 
L 109.334879 222.041626 
L 110.206981 224.06467 
L 111.079083 209.252647 
L 111.951185 222.079641 
L 112.823287 219.820734 
L 113.695389 214.1409 
L 114.567492 224.084619 
L 115.439594 217.948244 
L 116.311696 217.489361 
L 117.183798 220.655518 
L 118.0559 222.994897 
L 118.928002 221.513115 
L 119.800104 222.795266 
L 120.672206 217.791021 
L 121.544308 220.496218 
L 122.416411 226.076222 
L 123.288513 223.619532 
L 124.160615 225.333629 
L 125.032717 225.996384 
L 125.904819 208.478816 
L 126.776921 220.596207 
L 127.649023 226.644705 
L 128.521125 226.720939 
L 129.393227 226.447101 
L 130.26533 222.888827 
L 131.137432 223.529531 
L 132.009534 219.264175 
L 132.881636 226.577955 
L 133.753738 226.061103 
L 134.62584 224.128961 
L 135.497942 226.268766 
L 136.370044 227.954609 
L 137.242146 217.498076 
L 138.114249 214.244704 
L 138.986351 223.340277 
L 139.858453 225.2113 
L 140.730555 224.577908 
L 141.602657 229.857624 
L 142.474759 228.051342 
L 143.346861 229.268634 
L 144.218963 225.665801 
L 145.091065 230.09169 
L 145.963167 224.136228 
L 146.83527 222.336442 
L 147.707372 226.31399 
L 149.451576 230.256357 
L 150.323678 227.374188 
L 151.19578 223.555707 
L 152.067882 231.888693 
L 152.939984 227.983831 
L 153.812086 222.461797 
L 154.684189 226.049121 
L 155.556291 227.185791 
L 156.428393 229.147336 
L 157.300495 229.328592 
L 158.172597 230.256165 
L 159.044699 228.720731 
L 159.916801 229.641748 
L 160.788903 231.04019 
L 161.661005 225.546497 
L 162.533108 229.311792 
L 163.40521 231.552404 
L 164.277312 225.634764 
L 165.149414 230.413194 
L 166.021516 226.186577 
L 166.893618 231.977482 
L 167.76572 226.217972 
L 168.637822 233.366969 
L 169.509924 231.334949 
L 170.382027 232.000125 
L 171.254129 231.183334 
L 172.126231 226.978436 
L 172.998333 231.112879 
L 173.870435 218.437072 
L 174.742537 226.439899 
L 175.614639 224.035993 
L 176.486741 230.134548 
L 177.358843 233.086848 
L 178.230946 231.766936 
L 179.103048 228.681932 
L 179.97515 224.805212 
L 180.847252 231.529732 
L 181.719354 232.39471 
L 182.591456 229.681281 
L 183.463558 233.378192 
L 184.33566 233.694059 
L 185.207762 230.631611 
L 186.079865 233.394801 
L 186.951967 232.671802 
L 187.824069 230.350041 
L 188.696171 232.853299 
L 189.568273 233.360735 
L 190.440375 228.20994 
L 191.312477 232.089354 
L 192.184579 232.634541 
L 193.056681 231.543131 
L 193.928784 231.971318 
L 194.800886 231.883071 
L 195.672988 232.407182 
L 196.54509 222.565803 
L 197.417192 222.662931 
L 198.289294 230.900032 
L 199.161396 229.23438 
L 200.033498 232.77833 
L 200.9056 232.720673 
L 201.777703 232.129353 
L 202.649805 233.019772 
L 203.521907 225.19383 
L 204.394009 226.184128 
L 205.266111 223.04597 
L 206.138213 230.757465 
L 207.010315 233.420818 
L 207.882417 234.021326 
L 208.754519 232.333533 
L 209.626622 233.64309 
L 210.498724 229.350536 
L 211.370826 233.903535 
L 212.242928 221.051994 
L 213.11503 233.393736 
L 213.987132 233.160593 
L 215.731336 234.719003 
L 216.603438 234.95133 
L 217.475541 233.075286 
L 218.347643 233.815068 
L 219.219745 225.561339 
L 220.091847 219.555176 
L 220.963949 224.047553 
L 221.836051 234.161006 
L 222.708153 232.033697 
L 223.580255 235.268841 
L 224.452357 234.097749 
L 225.324459 234.740535 
L 226.196562 232.002751 
L 227.068664 234.615126 
L 227.940766 231.958239 
L 228.812868 230.018547 
L 229.68497 233.283381 
L 231.429174 231.853824 
L 232.301276 233.969613 
L 233.173378 230.708674 
L 234.045481 232.758663 
L 234.917583 231.79008 
L 235.789685 233.010285 
L 236.661787 229.475489 
L 237.533889 234.055845 
L 238.405991 233.107043 
L 239.278093 231.084258 
L 240.150195 229.920675 
L 241.022297 233.431029 
L 241.8944 231.283552 
L 242.766502 231.011283 
L 243.638604 233.938255 
L 244.510706 229.547739 
L 245.382808 226.47213 
L 246.25491 224.716478 
L 247.127012 224.508056 
L 247.999114 228.686155 
L 248.871216 230.141178 
L 249.743319 230.412119 
L 250.615421 224.279917 
L 251.487523 224.695605 
L 252.359625 230.682404 
L 253.231727 228.85499 
L 254.103829 229.324166 
L 254.975931 230.725246 
L 255.848033 229.465607 
L 256.720135 227.69395 
L 257.592238 217.783017 
L 258.46434 227.413698 
L 259.336442 230.305782 
L 260.208544 228.973401 
L 261.080646 228.775355 
L 261.952748 229.409738 
L 262.82485 227.019917 
L 263.696952 223.849205 
L 264.569054 227.577173 
L 265.441157 230.563449 
L 266.313259 226.112563 
L 267.185361 227.37762 
L 268.057463 224.979369 
L 268.929565 225.61425 
L 269.801667 225.796024 
L 270.673769 223.33492 
L 271.545871 228.689466 
L 272.417973 220.439558 
L 273.290076 228.508907 
L 274.162178 228.106179 
L 275.03428 224.672429 
L 275.906382 229.674222 
L 276.778484 227.463269 
L 277.650586 224.618295 
L 278.522688 228.170414 
L 279.39479 228.424974 
L 280.266892 218.042908 
L 281.138995 205.812612 
L 282.011097 219.842405 
L 282.883199 225.449619 
L 283.755301 225.920222 
L 284.627403 226.871046 
L 285.499505 223.755897 
L 286.371607 215.230043 
L 287.243709 222.421524 
L 288.115811 224.788282 
L 288.987914 219.440667 
L 289.860016 220.73021 
L 290.732118 213.405496 
L 291.60422 214.922205 
L 292.476322 219.288397 
L 293.348424 224.449009 
L 294.220526 214.850045 
L 295.092628 221.0621 
L 295.96473 221.721946 
L 296.836833 217.274639 
L 297.708935 208.237773 
L 298.581037 223.617509 
L 300.325241 223.221941 
L 301.197343 209.813286 
L 302.069445 224.646278 
L 302.941547 221.877877 
L 303.813649 224.256467 
L 304.685751 220.831314 
L 305.557854 211.866804 
L 306.429956 208.179 
L 307.302058 212.947663 
L 308.17416 215.715498 
L 309.046262 213.495817 
L 309.918364 222.828089 
L 310.790466 217.252568 
L 311.662568 217.100266 
L 312.53467 218.447059 
L 313.406773 214.580884 
L 314.278875 213.751501 
L 315.150977 215.162646 
L 316.023079 215.965509 
L 316.895181 209.915672 
L 317.767283 215.438567 
L 318.639385 216.675886 
L 319.511487 219.210693 
L 320.383589 213.857493 
L 321.255692 206.494167 
L 322.127794 206.200645 
L 322.999896 199.732177 
L 323.871998 202.788859 
L 324.7441 214.729567 
L 325.616202 214.113149 
L 327.360406 216.663337 
L 328.232508 206.648534 
L 329.104611 209.672886 
L 329.976713 205.270327 
L 330.848815 207.582204 
L 331.720917 208.583096 
L 332.593019 208.024836 
L 333.465121 211.260718 
L 334.337223 204.952299 
L 335.209325 209.596508 
L 336.081427 206.941549 
L 336.95353 206.883996 
L 337.825632 203.961929 
L 338.697734 213.095801 
L 339.569836 205.627793 
L 340.441938 206.565061 
L 341.31404 205.978112 
L 342.186142 203.146731 
L 343.058244 206.118223 
L 343.930346 205.943957 
L 344.802449 199.1739 
L 345.674551 205.429905 
L 346.546653 202.542371 
L 347.418755 197.838457 
L 348.290857 201.554326 
L 349.162959 197.112797 
L 350.035061 197.991667 
L 350.907163 199.686417 
L 351.779265 204.018671 
L 352.651368 195.55643 
L 353.52347 202.573496 
L 354.395572 201.679238 
L 355.267674 200.22129 
L 356.139776 200.273588 
L 357.011878 197.248202 
L 357.88398 193.550245 
L 358.756082 199.704759 
L 359.628184 196.741195 
L 360.500287 190.19703 
L 361.372389 200.773195 
L 362.244491 197.701365 
L 363.116593 210.450113 
L 363.988695 190.136181 
L 364.860797 206.828457 
L 365.732899 205.469208 
L 366.605001 194.442139 
L 367.477103 193.629395 
L 368.349206 190.067499 
L 369.221308 189.345119 
L 370.09341 206.57278 
L 370.965512 201.743721 
L 371.837614 202.466396 
L 372.709716 205.399737 
L 373.581818 188.074973 
L 373.581818 188.074973 
" style="fill:none;stroke:#008000;stroke-linecap:square;stroke-width:1.5;"/>
   </g>
   <g id="patch_3">
    <path d="M 54 252 
L 54 34.56 
" style="fill:none;stroke:#000000;stroke-linecap:square;stroke-linejoin:miter;stroke-width:0.8;"/>
   </g>
   <g id="patch_4">
    <path d="M 388.8 252 
L 388.8 34.56 
" style="fill:none;stroke:#000000;stroke-linecap:square;stroke-linejoin:miter;stroke-width:0.8;"/>
   </g>
   <g id="patch_5">
    <path d="M 54 252 
L 388.8 252 
" style="fill:none;stroke:#000000;stroke-linecap:square;stroke-linejoin:miter;stroke-width:0.8;"/>
   </g>
   <g id="patch_6">
    <path d="M 54 34.56 
L 388.8 34.56 
" style="fill:none;stroke:#000000;stroke-linecap:square;stroke-linejoin:miter;stroke-width:0.8;"/>
   </g>
   <g id="text_17">
    <!-- Loss_Trend -->
    <defs>
     <path d="M 50.984375 -16.609375 
L 50.984375 -23.578125 
L -0.984375 -23.578125 
L -0.984375 -16.609375 
z
" id="DejaVuSans-5f"/>
     <path d="M -0.296875 72.90625 
L 61.375 72.90625 
L 61.375 64.59375 
L 35.5 64.59375 
L 35.5 0 
L 25.59375 0 
L 25.59375 64.59375 
L -0.296875 64.59375 
z
" id="DejaVuSans-54"/>
     <path d="M 41.109375 46.296875 
Q 39.59375 47.171875 37.8125 47.578125 
Q 36.03125 48 33.890625 48 
Q 26.265625 48 22.1875 43.046875 
Q 18.109375 38.09375 18.109375 28.8125 
L 18.109375 0 
L 9.078125 0 
L 9.078125 54.6875 
L 18.109375 54.6875 
L 18.109375 46.1875 
Q 20.953125 51.171875 25.484375 53.578125 
Q 30.03125 56 36.53125 56 
Q 37.453125 56 38.578125 55.875 
Q 39.703125 55.765625 41.0625 55.515625 
z
" id="DejaVuSans-72"/>
     <path d="M 54.890625 33.015625 
L 54.890625 0 
L 45.90625 0 
L 45.90625 32.71875 
Q 45.90625 40.484375 42.875 44.328125 
Q 39.84375 48.1875 33.796875 48.1875 
Q 26.515625 48.1875 22.3125 43.546875 
Q 18.109375 38.921875 18.109375 30.90625 
L 18.109375 0 
L 9.078125 0 
L 9.078125 54.6875 
L 18.109375 54.6875 
L 18.109375 46.1875 
Q 21.34375 51.125 25.703125 53.5625 
Q 30.078125 56 35.796875 56 
Q 45.21875 56 50.046875 50.171875 
Q 54.890625 44.34375 54.890625 33.015625 
z
" id="DejaVuSans-6e"/>
     <path d="M 45.40625 46.390625 
L 45.40625 75.984375 
L 54.390625 75.984375 
L 54.390625 0 
L 45.40625 0 
L 45.40625 8.203125 
Q 42.578125 3.328125 38.25 0.953125 
Q 33.9375 -1.421875 27.875 -1.421875 
Q 17.96875 -1.421875 11.734375 6.484375 
Q 5.515625 14.40625 5.515625 27.296875 
Q 5.515625 40.1875 11.734375 48.09375 
Q 17.96875 56 27.875 56 
Q 33.9375 56 38.25 53.625 
Q 42.578125 51.265625 45.40625 46.390625 
z
M 14.796875 27.296875 
Q 14.796875 17.390625 18.875 11.75 
Q 22.953125 6.109375 30.078125 6.109375 
Q 37.203125 6.109375 41.296875 11.75 
Q 45.40625 17.390625 45.40625 27.296875 
Q 45.40625 37.203125 41.296875 42.84375 
Q 37.203125 48.484375 30.078125 48.484375 
Q 22.953125 48.484375 18.875 42.84375 
Q 14.796875 37.203125 14.796875 27.296875 
z
" id="DejaVuSans-64"/>
    </defs>
    <g transform="translate(187.715625 28.56)scale(0.12 -0.12)">
     <use xlink:href="#DejaVuSans-4c"/>
     <use x="55.697266" xlink:href="#DejaVuSans-6f"/>
     <use x="116.878906" xlink:href="#DejaVuSans-73"/>
     <use x="168.978516" xlink:href="#DejaVuSans-73"/>
     <use x="221.078125" xlink:href="#DejaVuSans-5f"/>
     <use x="271.078125" xlink:href="#DejaVuSans-54"/>
     <use x="331.943359" xlink:href="#DejaVuSans-72"/>
     <use x="373.025391" xlink:href="#DejaVuSans-65"/>
     <use x="434.548828" xlink:href="#DejaVuSans-6e"/>
     <use x="497.927734" xlink:href="#DejaVuSans-64"/>
    </g>
   </g>
   <g id="legend_1">
    <g id="patch_7">
     <path d="M 301.532812 72.4725 
L 381.8 72.4725 
Q 383.8 72.4725 383.8 70.4725 
L 383.8 41.56 
Q 383.8 39.56 381.8 39.56 
L 301.532812 39.56 
Q 299.532812 39.56 299.532812 41.56 
L 299.532812 70.4725 
Q 299.532812 72.4725 301.532812 72.4725 
z
" style="fill:#ffffff;opacity:0.8;stroke:#cccccc;stroke-linejoin:miter;"/>
    </g>
    <g id="line2d_17">
     <path d="M 303.532812 47.658437 
L 323.532812 47.658437 
" style="fill:none;stroke:#ff0000;stroke-linecap:square;stroke-width:1.5;"/>
    </g>
    <g id="line2d_18"/>
    <g id="text_18">
     <!-- train_loss -->
     <defs>
      <path d="M 18.3125 70.21875 
L 18.3125 54.6875 
L 36.8125 54.6875 
L 36.8125 47.703125 
L 18.3125 47.703125 
L 18.3125 18.015625 
Q 18.3125 11.328125 20.140625 9.421875 
Q 21.96875 7.515625 27.59375 7.515625 
L 36.8125 7.515625 
L 36.8125 0 
L 27.59375 0 
Q 17.1875 0 13.234375 3.875 
Q 9.28125 7.765625 9.28125 18.015625 
L 9.28125 47.703125 
L 2.6875 47.703125 
L 2.6875 54.6875 
L 9.28125 54.6875 
L 9.28125 70.21875 
z
" id="DejaVuSans-74"/>
      <path d="M 34.28125 27.484375 
Q 23.390625 27.484375 19.1875 25 
Q 14.984375 22.515625 14.984375 16.5 
Q 14.984375 11.71875 18.140625 8.90625 
Q 21.296875 6.109375 26.703125 6.109375 
Q 34.1875 6.109375 38.703125 11.40625 
Q 43.21875 16.703125 43.21875 25.484375 
L 43.21875 27.484375 
z
M 52.203125 31.203125 
L 52.203125 0 
L 43.21875 0 
L 43.21875 8.296875 
Q 40.140625 3.328125 35.546875 0.953125 
Q 30.953125 -1.421875 24.3125 -1.421875 
Q 15.921875 -1.421875 10.953125 3.296875 
Q 6 8.015625 6 15.921875 
Q 6 25.140625 12.171875 29.828125 
Q 18.359375 34.515625 30.609375 34.515625 
L 43.21875 34.515625 
L 43.21875 35.40625 
Q 43.21875 41.609375 39.140625 45 
Q 35.0625 48.390625 27.6875 48.390625 
Q 23 48.390625 18.546875 47.265625 
Q 14.109375 46.140625 10.015625 43.890625 
L 10.015625 52.203125 
Q 14.9375 54.109375 19.578125 55.046875 
Q 24.21875 56 28.609375 56 
Q 40.484375 56 46.34375 49.84375 
Q 52.203125 43.703125 52.203125 31.203125 
z
" id="DejaVuSans-61"/>
      <path d="M 9.421875 54.6875 
L 18.40625 54.6875 
L 18.40625 0 
L 9.421875 0 
z
M 9.421875 75.984375 
L 18.40625 75.984375 
L 18.40625 64.59375 
L 9.421875 64.59375 
z
" id="DejaVuSans-69"/>
      <path d="M 9.421875 75.984375 
L 18.40625 75.984375 
L 18.40625 0 
L 9.421875 0 
z
" id="DejaVuSans-6c"/>
     </defs>
     <g transform="translate(331.532812 51.158437)scale(0.1 -0.1)">
      <use xlink:href="#DejaVuSans-74"/>
      <use x="39.208984" xlink:href="#DejaVuSans-72"/>
      <use x="80.322266" xlink:href="#DejaVuSans-61"/>
      <use x="141.601562" xlink:href="#DejaVuSans-69"/>
      <use x="169.384766" xlink:href="#DejaVuSans-6e"/>
      <use x="232.763672" xlink:href="#DejaVuSans-5f"/>
      <use x="282.763672" xlink:href="#DejaVuSans-6c"/>
      <use x="310.546875" xlink:href="#DejaVuSans-6f"/>
      <use x="371.728516" xlink:href="#DejaVuSans-73"/>
      <use x="423.828125" xlink:href="#DejaVuSans-73"/>
     </g>
    </g>
    <g id="line2d_19">
     <path d="M 303.532812 62.614688 
L 323.532812 62.614688 
" style="fill:none;stroke:#008000;stroke-linecap:square;stroke-width:1.5;"/>
    </g>
    <g id="line2d_20"/>
    <g id="text_19">
     <!-- valid_loss -->
     <defs>
      <path d="M 2.984375 54.6875 
L 12.5 54.6875 
L 29.59375 8.796875 
L 46.6875 54.6875 
L 56.203125 54.6875 
L 35.6875 0 
L 23.484375 0 
z
" id="DejaVuSans-76"/>
     </defs>
     <g transform="translate(331.532812 66.114688)scale(0.1 -0.1)">
      <use xlink:href="#DejaVuSans-76"/>
      <use x="59.179688" xlink:href="#DejaVuSans-61"/>
      <use x="120.458984" xlink:href="#DejaVuSans-6c"/>
      <use x="148.242188" xlink:href="#DejaVuSans-69"/>
      <use x="176.025391" xlink:href="#DejaVuSans-64"/>
      <use x="239.501953" xlink:href="#DejaVuSans-5f"/>
      <use x="289.501953" xlink:href="#DejaVuSans-6c"/>
      <use x="317.285156" xlink:href="#DejaVuSans-6f"/>
      <use x="378.466797" xlink:href="#DejaVuSans-73"/>
      <use x="430.566406" xlink:href="#DejaVuSans-73"/>
     </g>
    </g>
   </g>
  </g>
 </g>
 <defs>
  <clipPath id="pc9009cdcf5">
   <rect height="217.44" width="334.8" x="54" y="34.56"/>
  </clipPath>
 </defs>
</svg>
