<?xml version="1.0" encoding="utf-8" standalone="no"?>
<!DOCTYPE svg PUBLIC "-//W3C//DTD SVG 1.1//EN"
  "http://www.w3.org/Graphics/SVG/1.1/DTD/svg11.dtd">
<!-- Created with matplotlib (http://matplotlib.org/) -->
<svg height="288pt" version="1.1" viewBox="0 0 432 288" width="432pt" xmlns="http://www.w3.org/2000/svg" xmlns:xlink="http://www.w3.org/1999/xlink">
 <defs>
  <style type="text/css">
*{stroke-linecap:butt;stroke-linejoin:round;}
  </style>
 </defs>
 <g id="figure_1">
  <g id="patch_1">
   <path d="M 0 288 
L 432 288 
L 432 0 
L 0 0 
z
" style="fill:#ffffff;"/>
  </g>
  <g id="axes_1">
   <g id="patch_2">
    <path d="M 54 252 
L 388.8 252 
L 388.8 34.56 
L 54 34.56 
z
" style="fill:#ffffff;"/>
   </g>
   <g id="matplotlib.axis_1">
    <g id="xtick_1">
     <g id="line2d_1">
      <defs>
       <path d="M 0 0 
L 0 3.5 
" id="me64cf5559a" style="stroke:#000000;stroke-width:0.8;"/>
      </defs>
      <g>
       <use style="stroke:#000000;stroke-width:0.8;" x="69.218182" xlink:href="#me64cf5559a" y="252"/>
      </g>
     </g>
     <g id="text_1">
      <!-- 0 -->
      <defs>
       <path d="M 31.78125 66.40625 
Q 24.171875 66.40625 20.328125 58.90625 
Q 16.5 51.421875 16.5 36.375 
Q 16.5 21.390625 20.328125 13.890625 
Q 24.171875 6.390625 31.78125 6.390625 
Q 39.453125 6.390625 43.28125 13.890625 
Q 47.125 21.390625 47.125 36.375 
Q 47.125 51.421875 43.28125 58.90625 
Q 39.453125 66.40625 31.78125 66.40625 
z
M 31.78125 74.21875 
Q 44.046875 74.21875 50.515625 64.515625 
Q 56.984375 54.828125 56.984375 36.375 
Q 56.984375 17.96875 50.515625 8.265625 
Q 44.046875 -1.421875 31.78125 -1.421875 
Q 19.53125 -1.421875 13.0625 8.265625 
Q 6.59375 17.96875 6.59375 36.375 
Q 6.59375 54.828125 13.0625 64.515625 
Q 19.53125 74.21875 31.78125 74.21875 
z
" id="DejaVuSans-30"/>
      </defs>
      <g transform="translate(66.036932 266.598437)scale(0.1 -0.1)">
       <use xlink:href="#DejaVuSans-30"/>
      </g>
     </g>
    </g>
    <g id="xtick_2">
     <g id="line2d_2">
      <g>
       <use style="stroke:#000000;stroke-width:0.8;" x="112.823287" xlink:href="#me64cf5559a" y="252"/>
      </g>
     </g>
     <g id="text_2">
      <!-- 50 -->
      <defs>
       <path d="M 10.796875 72.90625 
L 49.515625 72.90625 
L 49.515625 64.59375 
L 19.828125 64.59375 
L 19.828125 46.734375 
Q 21.96875 47.46875 24.109375 47.828125 
Q 26.265625 48.1875 28.421875 48.1875 
Q 40.625 48.1875 47.75 41.5 
Q 54.890625 34.8125 54.890625 23.390625 
Q 54.890625 11.625 47.5625 5.09375 
Q 40.234375 -1.421875 26.90625 -1.421875 
Q 22.3125 -1.421875 17.546875 -0.640625 
Q 12.796875 0.140625 7.71875 1.703125 
L 7.71875 11.625 
Q 12.109375 9.234375 16.796875 8.0625 
Q 21.484375 6.890625 26.703125 6.890625 
Q 35.15625 6.890625 40.078125 11.328125 
Q 45.015625 15.765625 45.015625 23.390625 
Q 45.015625 31 40.078125 35.4375 
Q 35.15625 39.890625 26.703125 39.890625 
Q 22.75 39.890625 18.8125 39.015625 
Q 14.890625 38.140625 10.796875 36.28125 
z
" id="DejaVuSans-35"/>
      </defs>
      <g transform="translate(106.460787 266.598437)scale(0.1 -0.1)">
       <use xlink:href="#DejaVuSans-35"/>
       <use x="63.623047" xlink:href="#DejaVuSans-30"/>
      </g>
     </g>
    </g>
    <g id="xtick_3">
     <g id="line2d_3">
      <g>
       <use style="stroke:#000000;stroke-width:0.8;" x="156.428393" xlink:href="#me64cf5559a" y="252"/>
      </g>
     </g>
     <g id="text_3">
      <!-- 100 -->
      <defs>
       <path d="M 12.40625 8.296875 
L 28.515625 8.296875 
L 28.515625 63.921875 
L 10.984375 60.40625 
L 10.984375 69.390625 
L 28.421875 72.90625 
L 38.28125 72.90625 
L 38.28125 8.296875 
L 54.390625 8.296875 
L 54.390625 0 
L 12.40625 0 
z
" id="DejaVuSans-31"/>
      </defs>
      <g transform="translate(146.884643 266.598437)scale(0.1 -0.1)">
       <use xlink:href="#DejaVuSans-31"/>
       <use x="63.623047" xlink:href="#DejaVuSans-30"/>
       <use x="127.246094" xlink:href="#DejaVuSans-30"/>
      </g>
     </g>
    </g>
    <g id="xtick_4">
     <g id="line2d_4">
      <g>
       <use style="stroke:#000000;stroke-width:0.8;" x="200.033498" xlink:href="#me64cf5559a" y="252"/>
      </g>
     </g>
     <g id="text_4">
      <!-- 150 -->
      <g transform="translate(190.489748 266.598437)scale(0.1 -0.1)">
       <use xlink:href="#DejaVuSans-31"/>
       <use x="63.623047" xlink:href="#DejaVuSans-35"/>
       <use x="127.246094" xlink:href="#DejaVuSans-30"/>
      </g>
     </g>
    </g>
    <g id="xtick_5">
     <g id="line2d_5">
      <g>
       <use style="stroke:#000000;stroke-width:0.8;" x="243.638604" xlink:href="#me64cf5559a" y="252"/>
      </g>
     </g>
     <g id="text_5">
      <!-- 200 -->
      <defs>
       <path d="M 19.1875 8.296875 
L 53.609375 8.296875 
L 53.609375 0 
L 7.328125 0 
L 7.328125 8.296875 
Q 12.9375 14.109375 22.625 23.890625 
Q 32.328125 33.6875 34.8125 36.53125 
Q 39.546875 41.84375 41.421875 45.53125 
Q 43.3125 49.21875 43.3125 52.78125 
Q 43.3125 58.59375 39.234375 62.25 
Q 35.15625 65.921875 28.609375 65.921875 
Q 23.96875 65.921875 18.8125 64.3125 
Q 13.671875 62.703125 7.8125 59.421875 
L 7.8125 69.390625 
Q 13.765625 71.78125 18.9375 73 
Q 24.125 74.21875 28.421875 74.21875 
Q 39.75 74.21875 46.484375 68.546875 
Q 53.21875 62.890625 53.21875 53.421875 
Q 53.21875 48.921875 51.53125 44.890625 
Q 49.859375 40.875 45.40625 35.40625 
Q 44.1875 33.984375 37.640625 27.21875 
Q 31.109375 20.453125 19.1875 8.296875 
z
" id="DejaVuSans-32"/>
      </defs>
      <g transform="translate(234.094854 266.598437)scale(0.1 -0.1)">
       <use xlink:href="#DejaVuSans-32"/>
       <use x="63.623047" xlink:href="#DejaVuSans-30"/>
       <use x="127.246094" xlink:href="#DejaVuSans-30"/>
      </g>
     </g>
    </g>
    <g id="xtick_6">
     <g id="line2d_6">
      <g>
       <use style="stroke:#000000;stroke-width:0.8;" x="287.243709" xlink:href="#me64cf5559a" y="252"/>
      </g>
     </g>
     <g id="text_6">
      <!-- 250 -->
      <g transform="translate(277.699959 266.598437)scale(0.1 -0.1)">
       <use xlink:href="#DejaVuSans-32"/>
       <use x="63.623047" xlink:href="#DejaVuSans-35"/>
       <use x="127.246094" xlink:href="#DejaVuSans-30"/>
      </g>
     </g>
    </g>
    <g id="xtick_7">
     <g id="line2d_7">
      <g>
       <use style="stroke:#000000;stroke-width:0.8;" x="330.848815" xlink:href="#me64cf5559a" y="252"/>
      </g>
     </g>
     <g id="text_7">
      <!-- 300 -->
      <defs>
       <path d="M 40.578125 39.3125 
Q 47.65625 37.796875 51.625 33 
Q 55.609375 28.21875 55.609375 21.1875 
Q 55.609375 10.40625 48.1875 4.484375 
Q 40.765625 -1.421875 27.09375 -1.421875 
Q 22.515625 -1.421875 17.65625 -0.515625 
Q 12.796875 0.390625 7.625 2.203125 
L 7.625 11.71875 
Q 11.71875 9.328125 16.59375 8.109375 
Q 21.484375 6.890625 26.8125 6.890625 
Q 36.078125 6.890625 40.9375 10.546875 
Q 45.796875 14.203125 45.796875 21.1875 
Q 45.796875 27.640625 41.28125 31.265625 
Q 36.765625 34.90625 28.71875 34.90625 
L 20.21875 34.90625 
L 20.21875 43.015625 
L 29.109375 43.015625 
Q 36.375 43.015625 40.234375 45.921875 
Q 44.09375 48.828125 44.09375 54.296875 
Q 44.09375 59.90625 40.109375 62.90625 
Q 36.140625 65.921875 28.71875 65.921875 
Q 24.65625 65.921875 20.015625 65.03125 
Q 15.375 64.15625 9.8125 62.3125 
L 9.8125 71.09375 
Q 15.4375 72.65625 20.34375 73.4375 
Q 25.25 74.21875 29.59375 74.21875 
Q 40.828125 74.21875 47.359375 69.109375 
Q 53.90625 64.015625 53.90625 55.328125 
Q 53.90625 49.265625 50.4375 45.09375 
Q 46.96875 40.921875 40.578125 39.3125 
z
" id="DejaVuSans-33"/>
      </defs>
      <g transform="translate(321.305065 266.598437)scale(0.1 -0.1)">
       <use xlink:href="#DejaVuSans-33"/>
       <use x="63.623047" xlink:href="#DejaVuSans-30"/>
       <use x="127.246094" xlink:href="#DejaVuSans-30"/>
      </g>
     </g>
    </g>
    <g id="xtick_8">
     <g id="line2d_8">
      <g>
       <use style="stroke:#000000;stroke-width:0.8;" x="374.45392" xlink:href="#me64cf5559a" y="252"/>
      </g>
     </g>
     <g id="text_8">
      <!-- 350 -->
      <g transform="translate(364.91017 266.598437)scale(0.1 -0.1)">
       <use xlink:href="#DejaVuSans-33"/>
       <use x="63.623047" xlink:href="#DejaVuSans-35"/>
       <use x="127.246094" xlink:href="#DejaVuSans-30"/>
      </g>
     </g>
    </g>
    <g id="text_9">
     <!-- Epoches -->
     <defs>
      <path d="M 9.8125 72.90625 
L 55.90625 72.90625 
L 55.90625 64.59375 
L 19.671875 64.59375 
L 19.671875 43.015625 
L 54.390625 43.015625 
L 54.390625 34.71875 
L 19.671875 34.71875 
L 19.671875 8.296875 
L 56.78125 8.296875 
L 56.78125 0 
L 9.8125 0 
z
" id="DejaVuSans-45"/>
      <path d="M 18.109375 8.203125 
L 18.109375 -20.796875 
L 9.078125 -20.796875 
L 9.078125 54.6875 
L 18.109375 54.6875 
L 18.109375 46.390625 
Q 20.953125 51.265625 25.265625 53.625 
Q 29.59375 56 35.59375 56 
Q 45.5625 56 51.78125 48.09375 
Q 58.015625 40.1875 58.015625 27.296875 
Q 58.015625 14.40625 51.78125 6.484375 
Q 45.5625 -1.421875 35.59375 -1.421875 
Q 29.59375 -1.421875 25.265625 0.953125 
Q 20.953125 3.328125 18.109375 8.203125 
z
M 48.6875 27.296875 
Q 48.6875 37.203125 44.609375 42.84375 
Q 40.53125 48.484375 33.40625 48.484375 
Q 26.265625 48.484375 22.1875 42.84375 
Q 18.109375 37.203125 18.109375 27.296875 
Q 18.109375 17.390625 22.1875 11.75 
Q 26.265625 6.109375 33.40625 6.109375 
Q 40.53125 6.109375 44.609375 11.75 
Q 48.6875 17.390625 48.6875 27.296875 
z
" id="DejaVuSans-70"/>
      <path d="M 30.609375 48.390625 
Q 23.390625 48.390625 19.1875 42.75 
Q 14.984375 37.109375 14.984375 27.296875 
Q 14.984375 17.484375 19.15625 11.84375 
Q 23.34375 6.203125 30.609375 6.203125 
Q 37.796875 6.203125 41.984375 11.859375 
Q 46.1875 17.53125 46.1875 27.296875 
Q 46.1875 37.015625 41.984375 42.703125 
Q 37.796875 48.390625 30.609375 48.390625 
z
M 30.609375 56 
Q 42.328125 56 49.015625 48.375 
Q 55.71875 40.765625 55.71875 27.296875 
Q 55.71875 13.875 49.015625 6.21875 
Q 42.328125 -1.421875 30.609375 -1.421875 
Q 18.84375 -1.421875 12.171875 6.21875 
Q 5.515625 13.875 5.515625 27.296875 
Q 5.515625 40.765625 12.171875 48.375 
Q 18.84375 56 30.609375 56 
z
" id="DejaVuSans-6f"/>
      <path d="M 48.78125 52.59375 
L 48.78125 44.1875 
Q 44.96875 46.296875 41.140625 47.34375 
Q 37.3125 48.390625 33.40625 48.390625 
Q 24.65625 48.390625 19.8125 42.84375 
Q 14.984375 37.3125 14.984375 27.296875 
Q 14.984375 17.28125 19.8125 11.734375 
Q 24.65625 6.203125 33.40625 6.203125 
Q 37.3125 6.203125 41.140625 7.25 
Q 44.96875 8.296875 48.78125 10.40625 
L 48.78125 2.09375 
Q 45.015625 0.34375 40.984375 -0.53125 
Q 36.96875 -1.421875 32.421875 -1.421875 
Q 20.0625 -1.421875 12.78125 6.34375 
Q 5.515625 14.109375 5.515625 27.296875 
Q 5.515625 40.671875 12.859375 48.328125 
Q 20.21875 56 33.015625 56 
Q 37.15625 56 41.109375 55.140625 
Q 45.0625 54.296875 48.78125 52.59375 
z
" id="DejaVuSans-63"/>
      <path d="M 54.890625 33.015625 
L 54.890625 0 
L 45.90625 0 
L 45.90625 32.71875 
Q 45.90625 40.484375 42.875 44.328125 
Q 39.84375 48.1875 33.796875 48.1875 
Q 26.515625 48.1875 22.3125 43.546875 
Q 18.109375 38.921875 18.109375 30.90625 
L 18.109375 0 
L 9.078125 0 
L 9.078125 75.984375 
L 18.109375 75.984375 
L 18.109375 46.1875 
Q 21.34375 51.125 25.703125 53.5625 
Q 30.078125 56 35.796875 56 
Q 45.21875 56 50.046875 50.171875 
Q 54.890625 44.34375 54.890625 33.015625 
z
" id="DejaVuSans-68"/>
      <path d="M 56.203125 29.59375 
L 56.203125 25.203125 
L 14.890625 25.203125 
Q 15.484375 15.921875 20.484375 11.0625 
Q 25.484375 6.203125 34.421875 6.203125 
Q 39.59375 6.203125 44.453125 7.46875 
Q 49.3125 8.734375 54.109375 11.28125 
L 54.109375 2.78125 
Q 49.265625 0.734375 44.1875 -0.34375 
Q 39.109375 -1.421875 33.890625 -1.421875 
Q 20.796875 -1.421875 13.15625 6.1875 
Q 5.515625 13.8125 5.515625 26.8125 
Q 5.515625 40.234375 12.765625 48.109375 
Q 20.015625 56 32.328125 56 
Q 43.359375 56 49.78125 48.890625 
Q 56.203125 41.796875 56.203125 29.59375 
z
M 47.21875 32.234375 
Q 47.125 39.59375 43.09375 43.984375 
Q 39.0625 48.390625 32.421875 48.390625 
Q 24.90625 48.390625 20.390625 44.140625 
Q 15.875 39.890625 15.1875 32.171875 
z
" id="DejaVuSans-65"/>
      <path d="M 44.28125 53.078125 
L 44.28125 44.578125 
Q 40.484375 46.53125 36.375 47.5 
Q 32.28125 48.484375 27.875 48.484375 
Q 21.1875 48.484375 17.84375 46.4375 
Q 14.5 44.390625 14.5 40.28125 
Q 14.5 37.15625 16.890625 35.375 
Q 19.28125 33.59375 26.515625 31.984375 
L 29.59375 31.296875 
Q 39.15625 29.25 43.1875 25.515625 
Q 47.21875 21.78125 47.21875 15.09375 
Q 47.21875 7.46875 41.1875 3.015625 
Q 35.15625 -1.421875 24.609375 -1.421875 
Q 20.21875 -1.421875 15.453125 -0.5625 
Q 10.6875 0.296875 5.421875 2 
L 5.421875 11.28125 
Q 10.40625 8.6875 15.234375 7.390625 
Q 20.0625 6.109375 24.8125 6.109375 
Q 31.15625 6.109375 34.5625 8.28125 
Q 37.984375 10.453125 37.984375 14.40625 
Q 37.984375 18.0625 35.515625 20.015625 
Q 33.0625 21.96875 24.703125 23.78125 
L 21.578125 24.515625 
Q 13.234375 26.265625 9.515625 29.90625 
Q 5.8125 33.546875 5.8125 39.890625 
Q 5.8125 47.609375 11.28125 51.796875 
Q 16.75 56 26.8125 56 
Q 31.78125 56 36.171875 55.265625 
Q 40.578125 54.546875 44.28125 53.078125 
z
" id="DejaVuSans-73"/>
     </defs>
     <g transform="translate(200.407813 280.276563)scale(0.1 -0.1)">
      <use xlink:href="#DejaVuSans-45"/>
      <use x="63.183594" xlink:href="#DejaVuSans-70"/>
      <use x="126.660156" xlink:href="#DejaVuSans-6f"/>
      <use x="187.841797" xlink:href="#DejaVuSans-63"/>
      <use x="242.822266" xlink:href="#DejaVuSans-68"/>
      <use x="306.201172" xlink:href="#DejaVuSans-65"/>
      <use x="367.724609" xlink:href="#DejaVuSans-73"/>
     </g>
    </g>
   </g>
   <g id="matplotlib.axis_2">
    <g id="ytick_1">
     <g id="line2d_9">
      <defs>
       <path d="M 0 0 
L -3.5 0 
" id="m2993b70d85" style="stroke:#000000;stroke-width:0.8;"/>
      </defs>
      <g>
       <use style="stroke:#000000;stroke-width:0.8;" x="54" xlink:href="#m2993b70d85" y="243.247122"/>
      </g>
     </g>
     <g id="text_10">
      <!-- 0.0 -->
      <defs>
       <path d="M 10.6875 12.40625 
L 21 12.40625 
L 21 0 
L 10.6875 0 
z
" id="DejaVuSans-2e"/>
      </defs>
      <g transform="translate(31.096875 247.04634)scale(0.1 -0.1)">
       <use xlink:href="#DejaVuSans-30"/>
       <use x="63.623047" xlink:href="#DejaVuSans-2e"/>
       <use x="95.410156" xlink:href="#DejaVuSans-30"/>
      </g>
     </g>
    </g>
    <g id="ytick_2">
     <g id="line2d_10">
      <g>
       <use style="stroke:#000000;stroke-width:0.8;" x="54" xlink:href="#m2993b70d85" y="198.854816"/>
      </g>
     </g>
     <g id="text_11">
      <!-- 0.5 -->
      <g transform="translate(31.096875 202.654035)scale(0.1 -0.1)">
       <use xlink:href="#DejaVuSans-30"/>
       <use x="63.623047" xlink:href="#DejaVuSans-2e"/>
       <use x="95.410156" xlink:href="#DejaVuSans-35"/>
      </g>
     </g>
    </g>
    <g id="ytick_3">
     <g id="line2d_11">
      <g>
       <use style="stroke:#000000;stroke-width:0.8;" x="54" xlink:href="#m2993b70d85" y="154.46251"/>
      </g>
     </g>
     <g id="text_12">
      <!-- 1.0 -->
      <g transform="translate(31.096875 158.261729)scale(0.1 -0.1)">
       <use xlink:href="#DejaVuSans-31"/>
       <use x="63.623047" xlink:href="#DejaVuSans-2e"/>
       <use x="95.410156" xlink:href="#DejaVuSans-30"/>
      </g>
     </g>
    </g>
    <g id="ytick_4">
     <g id="line2d_12">
      <g>
       <use style="stroke:#000000;stroke-width:0.8;" x="54" xlink:href="#m2993b70d85" y="110.070204"/>
      </g>
     </g>
     <g id="text_13">
      <!-- 1.5 -->
      <g transform="translate(31.096875 113.869423)scale(0.1 -0.1)">
       <use xlink:href="#DejaVuSans-31"/>
       <use x="63.623047" xlink:href="#DejaVuSans-2e"/>
       <use x="95.410156" xlink:href="#DejaVuSans-35"/>
      </g>
     </g>
    </g>
    <g id="ytick_5">
     <g id="line2d_13">
      <g>
       <use style="stroke:#000000;stroke-width:0.8;" x="54" xlink:href="#m2993b70d85" y="65.677899"/>
      </g>
     </g>
     <g id="text_14">
      <!-- 2.0 -->
      <g transform="translate(31.096875 69.477117)scale(0.1 -0.1)">
       <use xlink:href="#DejaVuSans-32"/>
       <use x="63.623047" xlink:href="#DejaVuSans-2e"/>
       <use x="95.410156" xlink:href="#DejaVuSans-30"/>
      </g>
     </g>
    </g>
    <g id="text_15">
     <!-- Loss -->
     <defs>
      <path d="M 9.8125 72.90625 
L 19.671875 72.90625 
L 19.671875 8.296875 
L 55.171875 8.296875 
L 55.171875 0 
L 9.8125 0 
z
" id="DejaVuSans-4c"/>
     </defs>
     <g transform="translate(25.017187 154.333906)rotate(-90)scale(0.1 -0.1)">
      <use xlink:href="#DejaVuSans-4c"/>
      <use x="55.697266" xlink:href="#DejaVuSans-6f"/>
      <use x="116.878906" xlink:href="#DejaVuSans-73"/>
      <use x="168.978516" xlink:href="#DejaVuSans-73"/>
     </g>
    </g>
   </g>
   <g id="line2d_14">
    <path clip-path="url(#pa6980eca55)" d="M 69.218182 44.443636 
L 70.090284 143.269472 
L 70.962386 146.349377 
L 71.834488 146.258769 
L 72.70659 144.681451 
L 73.578692 146.402653 
L 75.322897 144.637994 
L 76.194999 145.981497 
L 77.067101 144.501895 
L 77.939203 144.441083 
L 78.811305 144.604821 
L 79.683407 144.311912 
L 80.555509 146.974337 
L 81.427611 146.000747 
L 82.299713 145.387149 
L 83.171816 142.378092 
L 84.043918 143.982438 
L 84.91602 146.96832 
L 85.788122 146.915278 
L 86.660224 146.316646 
L 87.532326 145.553926 
L 88.404428 146.570953 
L 90.148632 144.659819 
L 91.020735 146.855881 
L 91.892837 145.530782 
L 92.764939 145.156239 
L 93.637041 144.655923 
L 96.253347 146.914756 
L 97.125449 146.341269 
L 97.997551 146.727539 
L 98.869654 143.675086 
L 99.741756 144.829534 
L 100.613858 145.466482 
L 101.48596 145.836931 
L 102.358062 147.207162 
L 103.230164 145.33096 
L 104.102266 146.863619 
L 104.974368 147.080959 
L 105.84647 145.869595 
L 106.718573 147.814339 
L 107.590675 152.139199 
L 108.462777 153.496 
L 109.334879 153.352429 
L 110.206981 155.467586 
L 111.079083 156.204344 
L 111.951185 156.441978 
L 112.823287 157.453378 
L 113.695389 158.041857 
L 114.567492 159.401838 
L 115.439594 163.013744 
L 116.311696 163.765179 
L 117.183798 164.93449 
L 118.928002 170.629561 
L 119.800104 172.657688 
L 120.672206 177.357695 
L 121.544308 181.109818 
L 124.160615 197.93788 
L 125.032717 208.059328 
L 125.904819 215.13368 
L 126.776921 216.326563 
L 128.521125 221.984678 
L 129.393227 223.093806 
L 130.26533 224.515614 
L 131.137432 225.438056 
L 132.009534 226.761244 
L 132.881636 227.876664 
L 133.753738 227.618848 
L 134.62584 227.678193 
L 135.497942 228.795974 
L 136.370044 230.240164 
L 137.242146 231.384008 
L 138.114249 229.588217 
L 138.986351 228.395898 
L 140.730555 232.561796 
L 141.602657 232.784871 
L 142.474759 231.108207 
L 143.346861 229.710943 
L 144.218963 232.827248 
L 145.091065 233.912716 
L 145.963167 234.732767 
L 146.83527 234.718195 
L 147.707372 235.529601 
L 149.451576 232.616114 
L 150.323678 235.334753 
L 151.19578 235.349205 
L 152.067882 236.007755 
L 152.939984 235.54156 
L 153.812086 236.326325 
L 154.684189 237.430478 
L 155.556291 233.358704 
L 156.428393 230.713359 
L 157.300495 230.585725 
L 158.172597 234.003281 
L 159.044699 232.848911 
L 160.788903 236.041616 
L 161.661005 237.073283 
L 162.533108 237.386729 
L 163.40521 236.266585 
L 164.277312 233.484579 
L 165.149414 232.827712 
L 166.021516 234.479606 
L 166.893618 234.442793 
L 167.76572 235.359535 
L 168.637822 235.338333 
L 169.509924 236.624743 
L 170.382027 237.155027 
L 171.254129 236.167222 
L 172.126231 237.659544 
L 172.998333 237.108709 
L 173.870435 237.751405 
L 174.742537 236.984869 
L 175.614639 237.146731 
L 176.486741 237.761923 
L 177.358843 237.733893 
L 178.230946 238.780395 
L 179.103048 238.004163 
L 179.97515 237.029239 
L 180.847252 237.120969 
L 181.719354 238.247374 
L 182.591456 237.854851 
L 183.463558 239.026999 
L 184.33566 238.801673 
L 185.207762 237.940108 
L 186.079865 234.693096 
L 186.951967 237.52714 
L 187.824069 235.89938 
L 188.696171 237.255468 
L 190.440375 239.222016 
L 191.312477 239.009522 
L 192.184579 238.602208 
L 193.056681 230.387659 
L 193.928784 237.507827 
L 194.800886 236.95282 
L 196.54509 237.267241 
L 197.417192 238.246202 
L 198.289294 238.977911 
L 200.033498 238.78737 
L 200.9056 239.043596 
L 201.777703 237.825752 
L 202.649805 231.135913 
L 203.521907 231.093516 
L 204.394009 235.92232 
L 205.266111 237.534585 
L 206.138213 238.39843 
L 210.498724 240.134969 
L 212.242928 240.614009 
L 213.11503 240.346633 
L 213.987132 239.372273 
L 214.859234 238.963799 
L 215.731336 239.482744 
L 216.603438 240.372427 
L 217.475541 239.901795 
L 218.347643 240.099057 
L 219.219745 240.554984 
L 220.091847 240.471812 
L 220.963949 240.603009 
L 222.708153 240.325306 
L 223.580255 240.713087 
L 224.452357 240.738232 
L 225.324459 241.148325 
L 226.196562 240.952284 
L 227.068664 239.928941 
L 227.940766 240.168884 
L 228.812868 237.401087 
L 229.68497 239.506419 
L 230.557072 238.911791 
L 231.429174 238.069071 
L 232.301276 238.354332 
L 233.173378 238.446124 
L 234.045481 239.122678 
L 234.917583 239.450098 
L 235.789685 240.550824 
L 236.661787 239.858714 
L 237.533889 240.06766 
L 238.405991 239.240581 
L 239.278093 238.997564 
L 241.022297 240.717983 
L 241.8944 240.857426 
L 242.766502 240.677544 
L 243.638604 240.157467 
L 244.510706 239.840337 
L 245.382808 240.827405 
L 246.25491 240.005835 
L 247.127012 240.714991 
L 248.871216 240.378774 
L 249.743319 240.821734 
L 250.615421 240.572059 
L 251.487523 241.200058 
L 252.359625 241.230479 
L 253.231727 241.072972 
L 254.103829 240.067147 
L 254.975931 240.776417 
L 257.592238 240.333885 
L 258.46434 240.812836 
L 259.336442 240.941411 
L 261.080646 239.778536 
L 261.952748 237.671174 
L 262.82485 239.408565 
L 263.696952 239.57587 
L 264.569054 239.421597 
L 265.441157 239.111568 
L 266.313259 239.039186 
L 267.185361 239.350682 
L 268.057463 240.214825 
L 268.929565 239.833851 
L 269.801667 239.926216 
L 270.673769 239.580062 
L 271.545871 241.170992 
L 272.417973 241.498355 
L 274.162178 241.38125 
L 275.03428 240.605586 
L 275.906382 240.841865 
L 276.778484 240.720137 
L 277.650586 240.991426 
L 278.522688 240.42076 
L 279.39479 240.223746 
L 280.266892 238.064904 
L 281.138995 237.17059 
L 282.011097 238.737566 
L 283.755301 240.222888 
L 284.627403 238.066357 
L 285.499505 238.644683 
L 286.371607 239.723951 
L 288.115811 233.690549 
L 288.987914 234.447754 
L 289.860016 238.945333 
L 291.60422 239.661237 
L 292.476322 240.625695 
L 293.348424 238.663987 
L 294.220526 238.152177 
L 295.092628 239.52437 
L 295.96473 239.347803 
L 296.836833 238.41643 
L 297.708935 237.141559 
L 298.581037 231.852216 
L 299.453139 236.934132 
L 300.325241 239.50593 
L 301.197343 240.0132 
L 302.069445 240.840953 
L 302.941547 239.50315 
L 303.813649 240.33647 
L 305.557854 240.53718 
L 307.302058 240.199303 
L 308.17416 240.472568 
L 309.046262 241.034808 
L 309.918364 241.045563 
L 311.662568 241.608815 
L 313.406773 240.910207 
L 314.278875 241.054394 
L 315.150977 240.991496 
L 316.895181 241.621217 
L 317.767283 241.043287 
L 318.639385 240.139033 
L 319.511487 240.169801 
L 320.383589 239.72727 
L 321.255692 239.416146 
L 322.127794 240.18223 
L 322.999896 239.256352 
L 323.871998 239.675964 
L 324.7441 239.966243 
L 325.616202 239.881838 
L 326.488304 240.603503 
L 327.360406 239.997202 
L 328.232508 239.148631 
L 329.104611 240.114368 
L 329.976713 239.651165 
L 330.848815 241.242323 
L 332.593019 241.530423 
L 333.465121 241.398865 
L 334.337223 241.7666 
L 336.081427 242.116364 
L 336.95353 241.988855 
L 337.825632 241.980294 
L 338.697734 241.630318 
L 339.569836 241.620585 
L 340.441938 241.915787 
L 342.186142 241.502699 
L 343.058244 240.592599 
L 343.930346 238.306472 
L 344.802449 240.203428 
L 345.674551 241.026529 
L 346.546653 241.436804 
L 347.418755 241.27578 
L 348.290857 241.278619 
L 349.162959 241.577124 
L 350.035061 240.895161 
L 350.907163 241.454373 
L 351.779265 241.656046 
L 353.52347 241.287883 
L 354.395572 241.616253 
L 355.267674 241.035407 
L 356.139776 240.774393 
L 357.011878 240.640601 
L 357.88398 241.423585 
L 358.756082 241.650147 
L 359.628184 240.617605 
L 360.500287 239.84362 
L 361.372389 235.473101 
L 362.244491 235.224744 
L 363.116593 234.537653 
L 364.860797 236.832002 
L 365.732899 237.707034 
L 366.605001 239.854988 
L 367.477103 240.173347 
L 368.349206 239.454466 
L 369.221308 239.609109 
L 370.09341 240.889727 
L 370.965512 240.603256 
L 371.837614 241.333664 
L 372.709716 241.440963 
L 373.581818 241.733753 
L 373.581818 241.733753 
" style="fill:none;stroke:#ff0000;stroke-linecap:square;stroke-width:1.5;"/>
   </g>
   <g id="line2d_15">
    <path clip-path="url(#pa6980eca55)" d="M 69.218182 140.943852 
L 70.090284 143.755749 
L 70.962386 145.024241 
L 71.834488 139.230422 
L 72.70659 145.659341 
L 73.578692 141.941549 
L 74.450794 138.874595 
L 75.322897 140.688409 
L 76.194999 143.799884 
L 77.067101 140.458017 
L 77.939203 140.4452 
L 78.811305 147.219992 
L 79.683407 146.307767 
L 80.555509 147.299107 
L 81.427611 144.486592 
L 82.299713 143.736306 
L 83.171816 146.692234 
L 84.043918 146.833689 
L 84.91602 146.072205 
L 85.788122 144.486142 
L 86.660224 141.038118 
L 87.532326 146.217189 
L 88.404428 146.048693 
L 89.27653 144.081883 
L 90.148632 146.541058 
L 91.020735 146.608055 
L 91.892837 143.605854 
L 92.764939 144.072738 
L 93.637041 147.224575 
L 94.509143 146.307259 
L 95.381245 145.958364 
L 96.253347 146.978085 
L 97.125449 146.401011 
L 97.997551 142.723115 
L 98.869654 136.012906 
L 99.741756 144.936177 
L 100.613858 143.1515 
L 101.48596 146.995464 
L 102.358062 142.843153 
L 103.230164 145.07408 
L 104.102266 145.284685 
L 104.974368 143.246719 
L 105.84647 148.120776 
L 106.718573 151.042005 
L 107.590675 153.124138 
L 108.462777 153.539415 
L 109.334879 152.759658 
L 110.206981 155.636474 
L 111.079083 150.82904 
L 111.951185 155.678312 
L 112.823287 158.540937 
L 113.695389 155.452546 
L 114.567492 158.690827 
L 115.439594 160.777252 
L 116.311696 161.823555 
L 117.183798 165.546706 
L 118.0559 168.747649 
L 118.928002 163.81601 
L 119.800104 172.080324 
L 120.672206 175.396283 
L 121.544308 180.634894 
L 122.416411 187.715031 
L 123.288513 189.959585 
L 124.160615 202.119554 
L 125.032717 211.024857 
L 125.904819 207.081895 
L 126.776921 215.994637 
L 127.649023 218.289211 
L 128.521125 219.039876 
L 129.393227 217.054907 
L 130.26533 219.488225 
L 131.137432 220.466751 
L 132.009534 222.016609 
L 132.881636 223.842147 
L 133.753738 222.204433 
L 134.62584 223.944466 
L 135.497942 223.297643 
L 136.370044 226.094254 
L 137.242146 222.653986 
L 138.114249 224.046249 
L 138.986351 216.458213 
L 139.858453 223.943866 
L 140.730555 222.310313 
L 141.602657 225.775295 
L 142.474759 213.670623 
L 143.346861 223.028778 
L 144.218963 226.814403 
L 145.091065 225.310372 
L 145.963167 224.640778 
L 146.83527 226.17117 
L 147.707372 227.378788 
L 148.579474 225.992853 
L 149.451576 225.005415 
L 150.323678 226.057783 
L 151.19578 226.462059 
L 152.067882 225.923282 
L 152.939984 224.616157 
L 153.812086 223.968285 
L 154.684189 220.492286 
L 155.556291 218.758515 
L 156.428393 223.276347 
L 157.300495 221.667936 
L 158.172597 226.999206 
L 159.044699 225.314765 
L 159.916801 226.542113 
L 160.788903 228.421687 
L 161.661005 227.589988 
L 162.533108 227.652948 
L 163.40521 227.430056 
L 164.277312 226.567635 
L 165.149414 224.06962 
L 166.021516 222.21479 
L 166.893618 222.074169 
L 167.76572 224.116069 
L 168.637822 224.214324 
L 169.509924 226.56983 
L 170.382027 223.201067 
L 171.254129 225.491009 
L 172.126231 224.470324 
L 172.998333 225.356347 
L 173.870435 224.7379 
L 174.742537 226.76891 
L 175.614639 222.066197 
L 176.486741 224.977641 
L 177.358843 225.817311 
L 178.230946 225.636844 
L 179.103048 223.782596 
L 179.97515 220.909834 
L 180.847252 224.555976 
L 181.719354 225.186787 
L 182.591456 223.780872 
L 183.463558 223.893355 
L 184.33566 224.875927 
L 185.207762 221.251872 
L 186.079865 228.411421 
L 186.951967 224.160385 
L 187.824069 226.646434 
L 188.696171 223.368374 
L 189.568273 226.786257 
L 190.440375 226.576281 
L 191.312477 226.760206 
L 192.184579 225.370861 
L 193.056681 225.953558 
L 193.928784 225.919034 
L 194.800886 227.000993 
L 195.672988 223.230972 
L 196.54509 225.569159 
L 197.417192 226.696013 
L 198.289294 225.211614 
L 200.033498 225.198298 
L 200.9056 223.044077 
L 201.777703 212.829941 
L 202.649805 211.453591 
L 203.521907 217.727189 
L 204.394009 223.08185 
L 205.266111 223.491756 
L 206.138213 225.686349 
L 207.010315 225.008467 
L 207.882417 226.872011 
L 208.754519 224.306352 
L 209.626622 226.470357 
L 211.370826 225.432241 
L 212.242928 225.095903 
L 213.11503 224.503072 
L 213.987132 224.809838 
L 214.859234 226.055508 
L 215.731336 226.030626 
L 216.603438 226.270704 
L 217.475541 225.197595 
L 218.347643 226.766277 
L 219.219745 225.522883 
L 220.091847 224.857925 
L 220.963949 224.841892 
L 221.836051 223.042638 
L 222.708153 225.204293 
L 223.580255 224.586002 
L 224.452357 224.989134 
L 225.324459 224.393441 
L 226.196562 224.123004 
L 227.068664 224.671544 
L 227.940766 223.311255 
L 228.812868 220.969575 
L 229.68497 221.445344 
L 230.557072 219.822748 
L 231.429174 224.016111 
L 232.301276 221.791613 
L 233.173378 223.565181 
L 234.045481 226.359641 
L 234.917583 226.10095 
L 235.789685 223.099242 
L 236.661787 225.560937 
L 237.533889 226.285305 
L 238.405991 224.565896 
L 239.278093 221.468217 
L 240.150195 224.344013 
L 241.022297 224.490732 
L 242.766502 223.659947 
L 243.638604 223.89656 
L 244.510706 224.470355 
L 245.382808 222.106139 
L 246.25491 224.566277 
L 247.127012 224.348449 
L 247.999114 222.320538 
L 248.871216 223.352592 
L 249.743319 223.07768 
L 250.615421 222.437163 
L 251.487523 223.995162 
L 253.231727 221.067472 
L 254.103829 222.001576 
L 254.975931 223.110216 
L 255.848033 223.030797 
L 256.720135 222.301934 
L 257.592238 219.828585 
L 258.46434 218.002421 
L 259.336442 219.655326 
L 260.208544 217.700325 
L 261.080646 218.251286 
L 261.952748 220.288339 
L 262.82485 218.651763 
L 263.696952 220.61395 
L 264.569054 220.457429 
L 265.441157 218.520031 
L 266.313259 226.848613 
L 267.185361 223.007768 
L 268.929565 220.727797 
L 269.801667 222.245926 
L 270.673769 224.563935 
L 271.545871 225.203799 
L 272.417973 223.252438 
L 273.290076 223.248981 
L 274.162178 220.635348 
L 275.03428 222.727408 
L 275.906382 218.818267 
L 276.778484 219.810911 
L 277.650586 222.10437 
L 278.522688 223.200906 
L 279.39479 211.145252 
L 280.266892 219.208646 
L 281.138995 212.004987 
L 282.011097 222.37991 
L 282.883199 220.553001 
L 283.755301 219.974913 
L 284.627403 222.789766 
L 285.499505 223.739166 
L 286.371607 224.339212 
L 287.243709 223.732231 
L 288.115811 219.142629 
L 288.987914 226.781841 
L 290.732118 222.886867 
L 291.60422 224.602002 
L 292.476322 223.25448 
L 293.348424 224.48851 
L 294.220526 224.458478 
L 295.96473 222.881416 
L 296.836833 220.932157 
L 297.708935 221.824268 
L 298.581037 224.027272 
L 299.453139 221.000788 
L 300.325241 222.446277 
L 301.197343 219.140146 
L 302.069445 220.145395 
L 302.941547 219.586801 
L 303.813649 222.09523 
L 305.557854 218.241425 
L 306.429956 217.571548 
L 307.302058 219.678888 
L 308.17416 220.348955 
L 309.046262 219.107327 
L 309.918364 218.381581 
L 310.790466 219.489307 
L 311.662568 219.165954 
L 312.53467 219.471565 
L 313.406773 220.398875 
L 315.150977 217.595309 
L 316.023079 218.580814 
L 316.895181 219.997118 
L 317.767283 218.465166 
L 319.511487 220.233595 
L 320.383589 217.24151 
L 321.255692 221.935015 
L 322.127794 221.148412 
L 322.999896 221.891098 
L 323.871998 219.941755 
L 324.7441 218.383601 
L 325.616202 221.809192 
L 326.488304 221.519637 
L 327.360406 220.260959 
L 328.232508 221.210272 
L 329.104611 220.494969 
L 329.976713 222.306454 
L 330.848815 227.310898 
L 331.720917 226.658986 
L 332.593019 225.452997 
L 333.465121 226.145402 
L 334.337223 224.671811 
L 335.209325 225.705622 
L 336.081427 225.689311 
L 336.95353 223.930281 
L 337.825632 225.026333 
L 338.697734 224.327908 
L 339.569836 222.89611 
L 340.441938 223.369425 
L 341.31404 224.448904 
L 342.186142 224.269378 
L 343.058244 218.88402 
L 343.930346 222.550542 
L 344.802449 225.003091 
L 345.674551 224.950828 
L 346.546653 224.562307 
L 347.418755 222.416881 
L 348.290857 222.413335 
L 349.162959 223.204598 
L 350.035061 222.506216 
L 350.907163 222.597373 
L 351.779265 222.814227 
L 352.651368 221.880605 
L 353.52347 222.992128 
L 354.395572 220.30368 
L 355.267674 222.804966 
L 356.139776 220.249566 
L 357.011878 220.467822 
L 357.88398 221.220915 
L 358.756082 221.287574 
L 359.628184 219.135112 
L 360.500287 214.85539 
L 361.372389 222.41176 
L 362.244491 213.541192 
L 363.116593 216.588036 
L 363.988695 223.064967 
L 364.860797 220.67373 
L 365.732899 222.218191 
L 366.605001 222.484811 
L 367.477103 219.856782 
L 368.349206 223.143515 
L 369.221308 222.774595 
L 370.09341 221.302966 
L 370.965512 221.737117 
L 371.837614 221.01211 
L 372.709716 220.943764 
L 373.581818 220.09048 
L 373.581818 220.09048 
" style="fill:none;stroke:#008000;stroke-linecap:square;stroke-width:1.5;"/>
   </g>
   <g id="patch_3">
    <path d="M 54 252 
L 54 34.56 
" style="fill:none;stroke:#000000;stroke-linecap:square;stroke-linejoin:miter;stroke-width:0.8;"/>
   </g>
   <g id="patch_4">
    <path d="M 388.8 252 
L 388.8 34.56 
" style="fill:none;stroke:#000000;stroke-linecap:square;stroke-linejoin:miter;stroke-width:0.8;"/>
   </g>
   <g id="patch_5">
    <path d="M 54 252 
L 388.8 252 
" style="fill:none;stroke:#000000;stroke-linecap:square;stroke-linejoin:miter;stroke-width:0.8;"/>
   </g>
   <g id="patch_6">
    <path d="M 54 34.56 
L 388.8 34.56 
" style="fill:none;stroke:#000000;stroke-linecap:square;stroke-linejoin:miter;stroke-width:0.8;"/>
   </g>
   <g id="text_16">
    <!-- Loss_Trend -->
    <defs>
     <path d="M 50.984375 -16.609375 
L 50.984375 -23.578125 
L -0.984375 -23.578125 
L -0.984375 -16.609375 
z
" id="DejaVuSans-5f"/>
     <path d="M -0.296875 72.90625 
L 61.375 72.90625 
L 61.375 64.59375 
L 35.5 64.59375 
L 35.5 0 
L 25.59375 0 
L 25.59375 64.59375 
L -0.296875 64.59375 
z
" id="DejaVuSans-54"/>
     <path d="M 41.109375 46.296875 
Q 39.59375 47.171875 37.8125 47.578125 
Q 36.03125 48 33.890625 48 
Q 26.265625 48 22.1875 43.046875 
Q 18.109375 38.09375 18.109375 28.8125 
L 18.109375 0 
L 9.078125 0 
L 9.078125 54.6875 
L 18.109375 54.6875 
L 18.109375 46.1875 
Q 20.953125 51.171875 25.484375 53.578125 
Q 30.03125 56 36.53125 56 
Q 37.453125 56 38.578125 55.875 
Q 39.703125 55.765625 41.0625 55.515625 
z
" id="DejaVuSans-72"/>
     <path d="M 54.890625 33.015625 
L 54.890625 0 
L 45.90625 0 
L 45.90625 32.71875 
Q 45.90625 40.484375 42.875 44.328125 
Q 39.84375 48.1875 33.796875 48.1875 
Q 26.515625 48.1875 22.3125 43.546875 
Q 18.109375 38.921875 18.109375 30.90625 
L 18.109375 0 
L 9.078125 0 
L 9.078125 54.6875 
L 18.109375 54.6875 
L 18.109375 46.1875 
Q 21.34375 51.125 25.703125 53.5625 
Q 30.078125 56 35.796875 56 
Q 45.21875 56 50.046875 50.171875 
Q 54.890625 44.34375 54.890625 33.015625 
z
" id="DejaVuSans-6e"/>
     <path d="M 45.40625 46.390625 
L 45.40625 75.984375 
L 54.390625 75.984375 
L 54.390625 0 
L 45.40625 0 
L 45.40625 8.203125 
Q 42.578125 3.328125 38.25 0.953125 
Q 33.9375 -1.421875 27.875 -1.421875 
Q 17.96875 -1.421875 11.734375 6.484375 
Q 5.515625 14.40625 5.515625 27.296875 
Q 5.515625 40.1875 11.734375 48.09375 
Q 17.96875 56 27.875 56 
Q 33.9375 56 38.25 53.625 
Q 42.578125 51.265625 45.40625 46.390625 
z
M 14.796875 27.296875 
Q 14.796875 17.390625 18.875 11.75 
Q 22.953125 6.109375 30.078125 6.109375 
Q 37.203125 6.109375 41.296875 11.75 
Q 45.40625 17.390625 45.40625 27.296875 
Q 45.40625 37.203125 41.296875 42.84375 
Q 37.203125 48.484375 30.078125 48.484375 
Q 22.953125 48.484375 18.875 42.84375 
Q 14.796875 37.203125 14.796875 27.296875 
z
" id="DejaVuSans-64"/>
    </defs>
    <g transform="translate(187.715625 28.56)scale(0.12 -0.12)">
     <use xlink:href="#DejaVuSans-4c"/>
     <use x="55.697266" xlink:href="#DejaVuSans-6f"/>
     <use x="116.878906" xlink:href="#DejaVuSans-73"/>
     <use x="168.978516" xlink:href="#DejaVuSans-73"/>
     <use x="221.078125" xlink:href="#DejaVuSans-5f"/>
     <use x="271.078125" xlink:href="#DejaVuSans-54"/>
     <use x="331.943359" xlink:href="#DejaVuSans-72"/>
     <use x="373.025391" xlink:href="#DejaVuSans-65"/>
     <use x="434.548828" xlink:href="#DejaVuSans-6e"/>
     <use x="497.927734" xlink:href="#DejaVuSans-64"/>
    </g>
   </g>
   <g id="legend_1">
    <g id="patch_7">
     <path d="M 301.532812 72.4725 
L 381.8 72.4725 
Q 383.8 72.4725 383.8 70.4725 
L 383.8 41.56 
Q 383.8 39.56 381.8 39.56 
L 301.532812 39.56 
Q 299.532812 39.56 299.532812 41.56 
L 299.532812 70.4725 
Q 299.532812 72.4725 301.532812 72.4725 
z
" style="fill:#ffffff;opacity:0.8;stroke:#cccccc;stroke-linejoin:miter;"/>
    </g>
    <g id="line2d_16">
     <path d="M 303.532812 47.658437 
L 323.532812 47.658437 
" style="fill:none;stroke:#ff0000;stroke-linecap:square;stroke-width:1.5;"/>
    </g>
    <g id="line2d_17"/>
    <g id="text_17">
     <!-- train_loss -->
     <defs>
      <path d="M 18.3125 70.21875 
L 18.3125 54.6875 
L 36.8125 54.6875 
L 36.8125 47.703125 
L 18.3125 47.703125 
L 18.3125 18.015625 
Q 18.3125 11.328125 20.140625 9.421875 
Q 21.96875 7.515625 27.59375 7.515625 
L 36.8125 7.515625 
L 36.8125 0 
L 27.59375 0 
Q 17.1875 0 13.234375 3.875 
Q 9.28125 7.765625 9.28125 18.015625 
L 9.28125 47.703125 
L 2.6875 47.703125 
L 2.6875 54.6875 
L 9.28125 54.6875 
L 9.28125 70.21875 
z
" id="DejaVuSans-74"/>
      <path d="M 34.28125 27.484375 
Q 23.390625 27.484375 19.1875 25 
Q 14.984375 22.515625 14.984375 16.5 
Q 14.984375 11.71875 18.140625 8.90625 
Q 21.296875 6.109375 26.703125 6.109375 
Q 34.1875 6.109375 38.703125 11.40625 
Q 43.21875 16.703125 43.21875 25.484375 
L 43.21875 27.484375 
z
M 52.203125 31.203125 
L 52.203125 0 
L 43.21875 0 
L 43.21875 8.296875 
Q 40.140625 3.328125 35.546875 0.953125 
Q 30.953125 -1.421875 24.3125 -1.421875 
Q 15.921875 -1.421875 10.953125 3.296875 
Q 6 8.015625 6 15.921875 
Q 6 25.140625 12.171875 29.828125 
Q 18.359375 34.515625 30.609375 34.515625 
L 43.21875 34.515625 
L 43.21875 35.40625 
Q 43.21875 41.609375 39.140625 45 
Q 35.0625 48.390625 27.6875 48.390625 
Q 23 48.390625 18.546875 47.265625 
Q 14.109375 46.140625 10.015625 43.890625 
L 10.015625 52.203125 
Q 14.9375 54.109375 19.578125 55.046875 
Q 24.21875 56 28.609375 56 
Q 40.484375 56 46.34375 49.84375 
Q 52.203125 43.703125 52.203125 31.203125 
z
" id="DejaVuSans-61"/>
      <path d="M 9.421875 54.6875 
L 18.40625 54.6875 
L 18.40625 0 
L 9.421875 0 
z
M 9.421875 75.984375 
L 18.40625 75.984375 
L 18.40625 64.59375 
L 9.421875 64.59375 
z
" id="DejaVuSans-69"/>
      <path d="M 9.421875 75.984375 
L 18.40625 75.984375 
L 18.40625 0 
L 9.421875 0 
z
" id="DejaVuSans-6c"/>
     </defs>
     <g transform="translate(331.532812 51.158437)scale(0.1 -0.1)">
      <use xlink:href="#DejaVuSans-74"/>
      <use x="39.208984" xlink:href="#DejaVuSans-72"/>
      <use x="80.322266" xlink:href="#DejaVuSans-61"/>
      <use x="141.601562" xlink:href="#DejaVuSans-69"/>
      <use x="169.384766" xlink:href="#DejaVuSans-6e"/>
      <use x="232.763672" xlink:href="#DejaVuSans-5f"/>
      <use x="282.763672" xlink:href="#DejaVuSans-6c"/>
      <use x="310.546875" xlink:href="#DejaVuSans-6f"/>
      <use x="371.728516" xlink:href="#DejaVuSans-73"/>
      <use x="423.828125" xlink:href="#DejaVuSans-73"/>
     </g>
    </g>
    <g id="line2d_18">
     <path d="M 303.532812 62.614688 
L 323.532812 62.614688 
" style="fill:none;stroke:#008000;stroke-linecap:square;stroke-width:1.5;"/>
    </g>
    <g id="line2d_19"/>
    <g id="text_18">
     <!-- valid_loss -->
     <defs>
      <path d="M 2.984375 54.6875 
L 12.5 54.6875 
L 29.59375 8.796875 
L 46.6875 54.6875 
L 56.203125 54.6875 
L 35.6875 0 
L 23.484375 0 
z
" id="DejaVuSans-76"/>
     </defs>
     <g transform="translate(331.532812 66.114688)scale(0.1 -0.1)">
      <use xlink:href="#DejaVuSans-76"/>
      <use x="59.179688" xlink:href="#DejaVuSans-61"/>
      <use x="120.458984" xlink:href="#DejaVuSans-6c"/>
      <use x="148.242188" xlink:href="#DejaVuSans-69"/>
      <use x="176.025391" xlink:href="#DejaVuSans-64"/>
      <use x="239.501953" xlink:href="#DejaVuSans-5f"/>
      <use x="289.501953" xlink:href="#DejaVuSans-6c"/>
      <use x="317.285156" xlink:href="#DejaVuSans-6f"/>
      <use x="378.466797" xlink:href="#DejaVuSans-73"/>
      <use x="430.566406" xlink:href="#DejaVuSans-73"/>
     </g>
    </g>
   </g>
  </g>
 </g>
 <defs>
  <clipPath id="pa6980eca55">
   <rect height="217.44" width="334.8" x="54" y="34.56"/>
  </clipPath>
 </defs>
</svg>
