<?xml version="1.0" encoding="utf-8" standalone="no"?>
<!DOCTYPE svg PUBLIC "-//W3C//DTD SVG 1.1//EN"
  "http://www.w3.org/Graphics/SVG/1.1/DTD/svg11.dtd">
<!-- Created with matplotlib (http://matplotlib.org/) -->
<svg height="288pt" version="1.1" viewBox="0 0 432 288" width="432pt" xmlns="http://www.w3.org/2000/svg" xmlns:xlink="http://www.w3.org/1999/xlink">
 <defs>
  <style type="text/css">
*{stroke-linecap:butt;stroke-linejoin:round;}
  </style>
 </defs>
 <g id="figure_1">
  <g id="patch_1">
   <path d="M 0 288 
L 432 288 
L 432 0 
L 0 0 
z
" style="fill:#ffffff;"/>
  </g>
  <g id="axes_1">
   <g id="patch_2">
    <path d="M 54 252 
L 388.8 252 
L 388.8 34.56 
L 54 34.56 
z
" style="fill:#ffffff;"/>
   </g>
   <g id="matplotlib.axis_1">
    <g id="xtick_1">
     <g id="line2d_1">
      <defs>
       <path d="M 0 0 
L 0 3.5 
" id="mb7c06aefd9" style="stroke:#000000;stroke-width:0.8;"/>
      </defs>
      <g>
       <use style="stroke:#000000;stroke-width:0.8;" x="69.218182" xlink:href="#mb7c06aefd9" y="252"/>
      </g>
     </g>
     <g id="text_1">
      <!-- 0 -->
      <defs>
       <path d="M 31.78125 66.40625 
Q 24.171875 66.40625 20.328125 58.90625 
Q 16.5 51.421875 16.5 36.375 
Q 16.5 21.390625 20.328125 13.890625 
Q 24.171875 6.390625 31.78125 6.390625 
Q 39.453125 6.390625 43.28125 13.890625 
Q 47.125 21.390625 47.125 36.375 
Q 47.125 51.421875 43.28125 58.90625 
Q 39.453125 66.40625 31.78125 66.40625 
z
M 31.78125 74.21875 
Q 44.046875 74.21875 50.515625 64.515625 
Q 56.984375 54.828125 56.984375 36.375 
Q 56.984375 17.96875 50.515625 8.265625 
Q 44.046875 -1.421875 31.78125 -1.421875 
Q 19.53125 -1.421875 13.0625 8.265625 
Q 6.59375 17.96875 6.59375 36.375 
Q 6.59375 54.828125 13.0625 64.515625 
Q 19.53125 74.21875 31.78125 74.21875 
z
" id="DejaVuSans-30"/>
      </defs>
      <g transform="translate(66.036932 266.598437)scale(0.1 -0.1)">
       <use xlink:href="#DejaVuSans-30"/>
      </g>
     </g>
    </g>
    <g id="xtick_2">
     <g id="line2d_2">
      <g>
       <use style="stroke:#000000;stroke-width:0.8;" x="112.823287" xlink:href="#mb7c06aefd9" y="252"/>
      </g>
     </g>
     <g id="text_2">
      <!-- 50 -->
      <defs>
       <path d="M 10.796875 72.90625 
L 49.515625 72.90625 
L 49.515625 64.59375 
L 19.828125 64.59375 
L 19.828125 46.734375 
Q 21.96875 47.46875 24.109375 47.828125 
Q 26.265625 48.1875 28.421875 48.1875 
Q 40.625 48.1875 47.75 41.5 
Q 54.890625 34.8125 54.890625 23.390625 
Q 54.890625 11.625 47.5625 5.09375 
Q 40.234375 -1.421875 26.90625 -1.421875 
Q 22.3125 -1.421875 17.546875 -0.640625 
Q 12.796875 0.140625 7.71875 1.703125 
L 7.71875 11.625 
Q 12.109375 9.234375 16.796875 8.0625 
Q 21.484375 6.890625 26.703125 6.890625 
Q 35.15625 6.890625 40.078125 11.328125 
Q 45.015625 15.765625 45.015625 23.390625 
Q 45.015625 31 40.078125 35.4375 
Q 35.15625 39.890625 26.703125 39.890625 
Q 22.75 39.890625 18.8125 39.015625 
Q 14.890625 38.140625 10.796875 36.28125 
z
" id="DejaVuSans-35"/>
      </defs>
      <g transform="translate(106.460787 266.598437)scale(0.1 -0.1)">
       <use xlink:href="#DejaVuSans-35"/>
       <use x="63.623047" xlink:href="#DejaVuSans-30"/>
      </g>
     </g>
    </g>
    <g id="xtick_3">
     <g id="line2d_3">
      <g>
       <use style="stroke:#000000;stroke-width:0.8;" x="156.428393" xlink:href="#mb7c06aefd9" y="252"/>
      </g>
     </g>
     <g id="text_3">
      <!-- 100 -->
      <defs>
       <path d="M 12.40625 8.296875 
L 28.515625 8.296875 
L 28.515625 63.921875 
L 10.984375 60.40625 
L 10.984375 69.390625 
L 28.421875 72.90625 
L 38.28125 72.90625 
L 38.28125 8.296875 
L 54.390625 8.296875 
L 54.390625 0 
L 12.40625 0 
z
" id="DejaVuSans-31"/>
      </defs>
      <g transform="translate(146.884643 266.598437)scale(0.1 -0.1)">
       <use xlink:href="#DejaVuSans-31"/>
       <use x="63.623047" xlink:href="#DejaVuSans-30"/>
       <use x="127.246094" xlink:href="#DejaVuSans-30"/>
      </g>
     </g>
    </g>
    <g id="xtick_4">
     <g id="line2d_4">
      <g>
       <use style="stroke:#000000;stroke-width:0.8;" x="200.033498" xlink:href="#mb7c06aefd9" y="252"/>
      </g>
     </g>
     <g id="text_4">
      <!-- 150 -->
      <g transform="translate(190.489748 266.598437)scale(0.1 -0.1)">
       <use xlink:href="#DejaVuSans-31"/>
       <use x="63.623047" xlink:href="#DejaVuSans-35"/>
       <use x="127.246094" xlink:href="#DejaVuSans-30"/>
      </g>
     </g>
    </g>
    <g id="xtick_5">
     <g id="line2d_5">
      <g>
       <use style="stroke:#000000;stroke-width:0.8;" x="243.638604" xlink:href="#mb7c06aefd9" y="252"/>
      </g>
     </g>
     <g id="text_5">
      <!-- 200 -->
      <defs>
       <path d="M 19.1875 8.296875 
L 53.609375 8.296875 
L 53.609375 0 
L 7.328125 0 
L 7.328125 8.296875 
Q 12.9375 14.109375 22.625 23.890625 
Q 32.328125 33.6875 34.8125 36.53125 
Q 39.546875 41.84375 41.421875 45.53125 
Q 43.3125 49.21875 43.3125 52.78125 
Q 43.3125 58.59375 39.234375 62.25 
Q 35.15625 65.921875 28.609375 65.921875 
Q 23.96875 65.921875 18.8125 64.3125 
Q 13.671875 62.703125 7.8125 59.421875 
L 7.8125 69.390625 
Q 13.765625 71.78125 18.9375 73 
Q 24.125 74.21875 28.421875 74.21875 
Q 39.75 74.21875 46.484375 68.546875 
Q 53.21875 62.890625 53.21875 53.421875 
Q 53.21875 48.921875 51.53125 44.890625 
Q 49.859375 40.875 45.40625 35.40625 
Q 44.1875 33.984375 37.640625 27.21875 
Q 31.109375 20.453125 19.1875 8.296875 
z
" id="DejaVuSans-32"/>
      </defs>
      <g transform="translate(234.094854 266.598437)scale(0.1 -0.1)">
       <use xlink:href="#DejaVuSans-32"/>
       <use x="63.623047" xlink:href="#DejaVuSans-30"/>
       <use x="127.246094" xlink:href="#DejaVuSans-30"/>
      </g>
     </g>
    </g>
    <g id="xtick_6">
     <g id="line2d_6">
      <g>
       <use style="stroke:#000000;stroke-width:0.8;" x="287.243709" xlink:href="#mb7c06aefd9" y="252"/>
      </g>
     </g>
     <g id="text_6">
      <!-- 250 -->
      <g transform="translate(277.699959 266.598437)scale(0.1 -0.1)">
       <use xlink:href="#DejaVuSans-32"/>
       <use x="63.623047" xlink:href="#DejaVuSans-35"/>
       <use x="127.246094" xlink:href="#DejaVuSans-30"/>
      </g>
     </g>
    </g>
    <g id="xtick_7">
     <g id="line2d_7">
      <g>
       <use style="stroke:#000000;stroke-width:0.8;" x="330.848815" xlink:href="#mb7c06aefd9" y="252"/>
      </g>
     </g>
     <g id="text_7">
      <!-- 300 -->
      <defs>
       <path d="M 40.578125 39.3125 
Q 47.65625 37.796875 51.625 33 
Q 55.609375 28.21875 55.609375 21.1875 
Q 55.609375 10.40625 48.1875 4.484375 
Q 40.765625 -1.421875 27.09375 -1.421875 
Q 22.515625 -1.421875 17.65625 -0.515625 
Q 12.796875 0.390625 7.625 2.203125 
L 7.625 11.71875 
Q 11.71875 9.328125 16.59375 8.109375 
Q 21.484375 6.890625 26.8125 6.890625 
Q 36.078125 6.890625 40.9375 10.546875 
Q 45.796875 14.203125 45.796875 21.1875 
Q 45.796875 27.640625 41.28125 31.265625 
Q 36.765625 34.90625 28.71875 34.90625 
L 20.21875 34.90625 
L 20.21875 43.015625 
L 29.109375 43.015625 
Q 36.375 43.015625 40.234375 45.921875 
Q 44.09375 48.828125 44.09375 54.296875 
Q 44.09375 59.90625 40.109375 62.90625 
Q 36.140625 65.921875 28.71875 65.921875 
Q 24.65625 65.921875 20.015625 65.03125 
Q 15.375 64.15625 9.8125 62.3125 
L 9.8125 71.09375 
Q 15.4375 72.65625 20.34375 73.4375 
Q 25.25 74.21875 29.59375 74.21875 
Q 40.828125 74.21875 47.359375 69.109375 
Q 53.90625 64.015625 53.90625 55.328125 
Q 53.90625 49.265625 50.4375 45.09375 
Q 46.96875 40.921875 40.578125 39.3125 
z
" id="DejaVuSans-33"/>
      </defs>
      <g transform="translate(321.305065 266.598437)scale(0.1 -0.1)">
       <use xlink:href="#DejaVuSans-33"/>
       <use x="63.623047" xlink:href="#DejaVuSans-30"/>
       <use x="127.246094" xlink:href="#DejaVuSans-30"/>
      </g>
     </g>
    </g>
    <g id="xtick_8">
     <g id="line2d_8">
      <g>
       <use style="stroke:#000000;stroke-width:0.8;" x="374.45392" xlink:href="#mb7c06aefd9" y="252"/>
      </g>
     </g>
     <g id="text_8">
      <!-- 350 -->
      <g transform="translate(364.91017 266.598437)scale(0.1 -0.1)">
       <use xlink:href="#DejaVuSans-33"/>
       <use x="63.623047" xlink:href="#DejaVuSans-35"/>
       <use x="127.246094" xlink:href="#DejaVuSans-30"/>
      </g>
     </g>
    </g>
    <g id="text_9">
     <!-- Epoches -->
     <defs>
      <path d="M 9.8125 72.90625 
L 55.90625 72.90625 
L 55.90625 64.59375 
L 19.671875 64.59375 
L 19.671875 43.015625 
L 54.390625 43.015625 
L 54.390625 34.71875 
L 19.671875 34.71875 
L 19.671875 8.296875 
L 56.78125 8.296875 
L 56.78125 0 
L 9.8125 0 
z
" id="DejaVuSans-45"/>
      <path d="M 18.109375 8.203125 
L 18.109375 -20.796875 
L 9.078125 -20.796875 
L 9.078125 54.6875 
L 18.109375 54.6875 
L 18.109375 46.390625 
Q 20.953125 51.265625 25.265625 53.625 
Q 29.59375 56 35.59375 56 
Q 45.5625 56 51.78125 48.09375 
Q 58.015625 40.1875 58.015625 27.296875 
Q 58.015625 14.40625 51.78125 6.484375 
Q 45.5625 -1.421875 35.59375 -1.421875 
Q 29.59375 -1.421875 25.265625 0.953125 
Q 20.953125 3.328125 18.109375 8.203125 
z
M 48.6875 27.296875 
Q 48.6875 37.203125 44.609375 42.84375 
Q 40.53125 48.484375 33.40625 48.484375 
Q 26.265625 48.484375 22.1875 42.84375 
Q 18.109375 37.203125 18.109375 27.296875 
Q 18.109375 17.390625 22.1875 11.75 
Q 26.265625 6.109375 33.40625 6.109375 
Q 40.53125 6.109375 44.609375 11.75 
Q 48.6875 17.390625 48.6875 27.296875 
z
" id="DejaVuSans-70"/>
      <path d="M 30.609375 48.390625 
Q 23.390625 48.390625 19.1875 42.75 
Q 14.984375 37.109375 14.984375 27.296875 
Q 14.984375 17.484375 19.15625 11.84375 
Q 23.34375 6.203125 30.609375 6.203125 
Q 37.796875 6.203125 41.984375 11.859375 
Q 46.1875 17.53125 46.1875 27.296875 
Q 46.1875 37.015625 41.984375 42.703125 
Q 37.796875 48.390625 30.609375 48.390625 
z
M 30.609375 56 
Q 42.328125 56 49.015625 48.375 
Q 55.71875 40.765625 55.71875 27.296875 
Q 55.71875 13.875 49.015625 6.21875 
Q 42.328125 -1.421875 30.609375 -1.421875 
Q 18.84375 -1.421875 12.171875 6.21875 
Q 5.515625 13.875 5.515625 27.296875 
Q 5.515625 40.765625 12.171875 48.375 
Q 18.84375 56 30.609375 56 
z
" id="DejaVuSans-6f"/>
      <path d="M 48.78125 52.59375 
L 48.78125 44.1875 
Q 44.96875 46.296875 41.140625 47.34375 
Q 37.3125 48.390625 33.40625 48.390625 
Q 24.65625 48.390625 19.8125 42.84375 
Q 14.984375 37.3125 14.984375 27.296875 
Q 14.984375 17.28125 19.8125 11.734375 
Q 24.65625 6.203125 33.40625 6.203125 
Q 37.3125 6.203125 41.140625 7.25 
Q 44.96875 8.296875 48.78125 10.40625 
L 48.78125 2.09375 
Q 45.015625 0.34375 40.984375 -0.53125 
Q 36.96875 -1.421875 32.421875 -1.421875 
Q 20.0625 -1.421875 12.78125 6.34375 
Q 5.515625 14.109375 5.515625 27.296875 
Q 5.515625 40.671875 12.859375 48.328125 
Q 20.21875 56 33.015625 56 
Q 37.15625 56 41.109375 55.140625 
Q 45.0625 54.296875 48.78125 52.59375 
z
" id="DejaVuSans-63"/>
      <path d="M 54.890625 33.015625 
L 54.890625 0 
L 45.90625 0 
L 45.90625 32.71875 
Q 45.90625 40.484375 42.875 44.328125 
Q 39.84375 48.1875 33.796875 48.1875 
Q 26.515625 48.1875 22.3125 43.546875 
Q 18.109375 38.921875 18.109375 30.90625 
L 18.109375 0 
L 9.078125 0 
L 9.078125 75.984375 
L 18.109375 75.984375 
L 18.109375 46.1875 
Q 21.34375 51.125 25.703125 53.5625 
Q 30.078125 56 35.796875 56 
Q 45.21875 56 50.046875 50.171875 
Q 54.890625 44.34375 54.890625 33.015625 
z
" id="DejaVuSans-68"/>
      <path d="M 56.203125 29.59375 
L 56.203125 25.203125 
L 14.890625 25.203125 
Q 15.484375 15.921875 20.484375 11.0625 
Q 25.484375 6.203125 34.421875 6.203125 
Q 39.59375 6.203125 44.453125 7.46875 
Q 49.3125 8.734375 54.109375 11.28125 
L 54.109375 2.78125 
Q 49.265625 0.734375 44.1875 -0.34375 
Q 39.109375 -1.421875 33.890625 -1.421875 
Q 20.796875 -1.421875 13.15625 6.1875 
Q 5.515625 13.8125 5.515625 26.8125 
Q 5.515625 40.234375 12.765625 48.109375 
Q 20.015625 56 32.328125 56 
Q 43.359375 56 49.78125 48.890625 
Q 56.203125 41.796875 56.203125 29.59375 
z
M 47.21875 32.234375 
Q 47.125 39.59375 43.09375 43.984375 
Q 39.0625 48.390625 32.421875 48.390625 
Q 24.90625 48.390625 20.390625 44.140625 
Q 15.875 39.890625 15.1875 32.171875 
z
" id="DejaVuSans-65"/>
      <path d="M 44.28125 53.078125 
L 44.28125 44.578125 
Q 40.484375 46.53125 36.375 47.5 
Q 32.28125 48.484375 27.875 48.484375 
Q 21.1875 48.484375 17.84375 46.4375 
Q 14.5 44.390625 14.5 40.28125 
Q 14.5 37.15625 16.890625 35.375 
Q 19.28125 33.59375 26.515625 31.984375 
L 29.59375 31.296875 
Q 39.15625 29.25 43.1875 25.515625 
Q 47.21875 21.78125 47.21875 15.09375 
Q 47.21875 7.46875 41.1875 3.015625 
Q 35.15625 -1.421875 24.609375 -1.421875 
Q 20.21875 -1.421875 15.453125 -0.5625 
Q 10.6875 0.296875 5.421875 2 
L 5.421875 11.28125 
Q 10.40625 8.6875 15.234375 7.390625 
Q 20.0625 6.109375 24.8125 6.109375 
Q 31.15625 6.109375 34.5625 8.28125 
Q 37.984375 10.453125 37.984375 14.40625 
Q 37.984375 18.0625 35.515625 20.015625 
Q 33.0625 21.96875 24.703125 23.78125 
L 21.578125 24.515625 
Q 13.234375 26.265625 9.515625 29.90625 
Q 5.8125 33.546875 5.8125 39.890625 
Q 5.8125 47.609375 11.28125 51.796875 
Q 16.75 56 26.8125 56 
Q 31.78125 56 36.171875 55.265625 
Q 40.578125 54.546875 44.28125 53.078125 
z
" id="DejaVuSans-73"/>
     </defs>
     <g transform="translate(200.407813 280.276563)scale(0.1 -0.1)">
      <use xlink:href="#DejaVuSans-45"/>
      <use x="63.183594" xlink:href="#DejaVuSans-70"/>
      <use x="126.660156" xlink:href="#DejaVuSans-6f"/>
      <use x="187.841797" xlink:href="#DejaVuSans-63"/>
      <use x="242.822266" xlink:href="#DejaVuSans-68"/>
      <use x="306.201172" xlink:href="#DejaVuSans-65"/>
      <use x="367.724609" xlink:href="#DejaVuSans-73"/>
     </g>
    </g>
   </g>
   <g id="matplotlib.axis_2">
    <g id="ytick_1">
     <g id="line2d_9">
      <defs>
       <path d="M 0 0 
L -3.5 0 
" id="ma2783b7d35" style="stroke:#000000;stroke-width:0.8;"/>
      </defs>
      <g>
       <use style="stroke:#000000;stroke-width:0.8;" x="54" xlink:href="#ma2783b7d35" y="244.685428"/>
      </g>
     </g>
     <g id="text_10">
      <!-- 0.0 -->
      <defs>
       <path d="M 10.6875 12.40625 
L 21 12.40625 
L 21 0 
L 10.6875 0 
z
" id="DejaVuSans-2e"/>
      </defs>
      <g transform="translate(31.096875 248.484647)scale(0.1 -0.1)">
       <use xlink:href="#DejaVuSans-30"/>
       <use x="63.623047" xlink:href="#DejaVuSans-2e"/>
       <use x="95.410156" xlink:href="#DejaVuSans-30"/>
      </g>
     </g>
    </g>
    <g id="ytick_2">
     <g id="line2d_10">
      <g>
       <use style="stroke:#000000;stroke-width:0.8;" x="54" xlink:href="#ma2783b7d35" y="218.341324"/>
      </g>
     </g>
     <g id="text_11">
      <!-- 0.5 -->
      <g transform="translate(31.096875 222.140543)scale(0.1 -0.1)">
       <use xlink:href="#DejaVuSans-30"/>
       <use x="63.623047" xlink:href="#DejaVuSans-2e"/>
       <use x="95.410156" xlink:href="#DejaVuSans-35"/>
      </g>
     </g>
    </g>
    <g id="ytick_3">
     <g id="line2d_11">
      <g>
       <use style="stroke:#000000;stroke-width:0.8;" x="54" xlink:href="#ma2783b7d35" y="191.997219"/>
      </g>
     </g>
     <g id="text_12">
      <!-- 1.0 -->
      <g transform="translate(31.096875 195.796438)scale(0.1 -0.1)">
       <use xlink:href="#DejaVuSans-31"/>
       <use x="63.623047" xlink:href="#DejaVuSans-2e"/>
       <use x="95.410156" xlink:href="#DejaVuSans-30"/>
      </g>
     </g>
    </g>
    <g id="ytick_4">
     <g id="line2d_12">
      <g>
       <use style="stroke:#000000;stroke-width:0.8;" x="54" xlink:href="#ma2783b7d35" y="165.653115"/>
      </g>
     </g>
     <g id="text_13">
      <!-- 1.5 -->
      <g transform="translate(31.096875 169.452334)scale(0.1 -0.1)">
       <use xlink:href="#DejaVuSans-31"/>
       <use x="63.623047" xlink:href="#DejaVuSans-2e"/>
       <use x="95.410156" xlink:href="#DejaVuSans-35"/>
      </g>
     </g>
    </g>
    <g id="ytick_5">
     <g id="line2d_13">
      <g>
       <use style="stroke:#000000;stroke-width:0.8;" x="54" xlink:href="#ma2783b7d35" y="139.309011"/>
      </g>
     </g>
     <g id="text_14">
      <!-- 2.0 -->
      <g transform="translate(31.096875 143.108229)scale(0.1 -0.1)">
       <use xlink:href="#DejaVuSans-32"/>
       <use x="63.623047" xlink:href="#DejaVuSans-2e"/>
       <use x="95.410156" xlink:href="#DejaVuSans-30"/>
      </g>
     </g>
    </g>
    <g id="ytick_6">
     <g id="line2d_14">
      <g>
       <use style="stroke:#000000;stroke-width:0.8;" x="54" xlink:href="#ma2783b7d35" y="112.964906"/>
      </g>
     </g>
     <g id="text_15">
      <!-- 2.5 -->
      <g transform="translate(31.096875 116.764125)scale(0.1 -0.1)">
       <use xlink:href="#DejaVuSans-32"/>
       <use x="63.623047" xlink:href="#DejaVuSans-2e"/>
       <use x="95.410156" xlink:href="#DejaVuSans-35"/>
      </g>
     </g>
    </g>
    <g id="ytick_7">
     <g id="line2d_15">
      <g>
       <use style="stroke:#000000;stroke-width:0.8;" x="54" xlink:href="#ma2783b7d35" y="86.620802"/>
      </g>
     </g>
     <g id="text_16">
      <!-- 3.0 -->
      <g transform="translate(31.096875 90.42002)scale(0.1 -0.1)">
       <use xlink:href="#DejaVuSans-33"/>
       <use x="63.623047" xlink:href="#DejaVuSans-2e"/>
       <use x="95.410156" xlink:href="#DejaVuSans-30"/>
      </g>
     </g>
    </g>
    <g id="ytick_8">
     <g id="line2d_16">
      <g>
       <use style="stroke:#000000;stroke-width:0.8;" x="54" xlink:href="#ma2783b7d35" y="60.276697"/>
      </g>
     </g>
     <g id="text_17">
      <!-- 3.5 -->
      <g transform="translate(31.096875 64.075916)scale(0.1 -0.1)">
       <use xlink:href="#DejaVuSans-33"/>
       <use x="63.623047" xlink:href="#DejaVuSans-2e"/>
       <use x="95.410156" xlink:href="#DejaVuSans-35"/>
      </g>
     </g>
    </g>
    <g id="text_18">
     <!-- Loss -->
     <defs>
      <path d="M 9.8125 72.90625 
L 19.671875 72.90625 
L 19.671875 8.296875 
L 55.171875 8.296875 
L 55.171875 0 
L 9.8125 0 
z
" id="DejaVuSans-4c"/>
     </defs>
     <g transform="translate(25.017187 154.333906)rotate(-90)scale(0.1 -0.1)">
      <use xlink:href="#DejaVuSans-4c"/>
      <use x="55.697266" xlink:href="#DejaVuSans-6f"/>
      <use x="116.878906" xlink:href="#DejaVuSans-73"/>
      <use x="168.978516" xlink:href="#DejaVuSans-73"/>
     </g>
    </g>
   </g>
   <g id="line2d_17">
    <path clip-path="url(#pc44ff44116)" d="M 69.218182 44.443636 
L 70.090284 190.064911 
L 70.962386 196.471712 
L 71.834488 204.617547 
L 73.578692 215.723503 
L 74.450794 222.208876 
L 75.322897 223.185194 
L 76.194999 228.729551 
L 77.067101 226.854143 
L 77.939203 225.40225 
L 78.811305 229.448539 
L 80.555509 229.397432 
L 81.427611 231.504681 
L 82.299713 222.994159 
L 83.171816 228.559258 
L 84.043918 232.532459 
L 84.91602 232.41987 
L 85.788122 231.562074 
L 86.660224 232.784068 
L 87.532326 233.199598 
L 88.404428 233.001567 
L 89.27653 232.923016 
L 90.148632 234.871814 
L 91.020735 234.985983 
L 91.892837 234.838423 
L 92.764939 235.771665 
L 93.637041 236.540308 
L 94.509143 236.505849 
L 95.381245 235.119857 
L 96.253347 235.09976 
L 97.125449 235.356012 
L 97.997551 232.229884 
L 98.869654 234.894141 
L 99.741756 236.563942 
L 100.613858 235.891387 
L 101.48596 234.108577 
L 102.358062 233.524932 
L 103.230164 235.168659 
L 104.102266 236.527318 
L 104.974368 236.484542 
L 105.84647 236.621528 
L 106.718573 237.099622 
L 107.590675 234.72395 
L 108.462777 235.543264 
L 110.206981 229.955295 
L 111.079083 234.826896 
L 111.951185 234.161152 
L 112.823287 236.419734 
L 113.695389 236.705214 
L 115.439594 237.735934 
L 116.311696 237.556524 
L 117.183798 237.231821 
L 118.0559 232.8773 
L 118.928002 233.803673 
L 119.800104 236.548112 
L 120.672206 237.31859 
L 121.544308 236.936381 
L 122.416411 234.62764 
L 123.288513 237.465336 
L 125.032717 237.113232 
L 125.904819 236.285395 
L 126.776921 237.928674 
L 127.649023 237.446752 
L 128.521125 234.718092 
L 129.393227 233.319611 
L 130.26533 238.46615 
L 131.137432 237.577471 
L 132.009534 237.648551 
L 132.881636 237.999898 
L 133.753738 238.691575 
L 134.62584 239.077356 
L 135.497942 238.640198 
L 136.370044 237.190452 
L 137.242146 238.278161 
L 138.114249 238.054781 
L 138.986351 236.114085 
L 139.858453 235.487091 
L 140.730555 237.950051 
L 141.602657 238.372394 
L 142.474759 238.137696 
L 143.346861 238.968603 
L 144.218963 239.202778 
L 145.091065 238.377942 
L 145.963167 238.441301 
L 146.83527 239.211377 
L 147.707372 238.86231 
L 148.579474 235.42975 
L 149.451576 236.39936 
L 150.323678 237.650648 
L 151.19578 237.67066 
L 152.067882 236.856125 
L 152.939984 237.919513 
L 153.812086 238.384981 
L 154.684189 239.164992 
L 155.556291 237.909104 
L 156.428393 238.429166 
L 157.300495 239.157115 
L 158.172597 238.792856 
L 159.044699 236.859144 
L 159.916801 237.760174 
L 160.788903 238.092248 
L 161.661005 235.760627 
L 162.533108 237.363579 
L 163.40521 237.472968 
L 164.277312 238.969792 
L 165.149414 236.733518 
L 166.021516 237.554686 
L 166.893618 238.778492 
L 167.76572 238.345964 
L 168.637822 239.352975 
L 170.382027 239.492025 
L 171.254129 238.158844 
L 172.126231 237.804836 
L 172.998333 239.404034 
L 173.870435 240.401976 
L 174.742537 239.924405 
L 175.614639 238.108078 
L 176.486741 237.483519 
L 177.358843 238.271855 
L 178.230946 239.455724 
L 179.103048 239.422938 
L 179.97515 239.641666 
L 180.847252 239.673009 
L 181.719354 239.181322 
L 182.591456 239.928638 
L 183.463558 239.370585 
L 184.33566 239.460109 
L 186.079865 240.300916 
L 186.951967 240.337955 
L 187.824069 240.013687 
L 188.696171 238.043009 
L 189.568273 239.407956 
L 190.440375 236.719764 
L 191.312477 236.871694 
L 192.184579 237.831774 
L 193.056681 237.707837 
L 193.928784 238.660182 
L 194.800886 239.206319 
L 195.672988 239.920452 
L 197.417192 234.179547 
L 198.289294 236.712821 
L 200.033498 239.868268 
L 200.9056 239.24446 
L 201.777703 239.0501 
L 203.521907 239.694979 
L 204.394009 239.606059 
L 206.138213 238.743779 
L 207.010315 239.829446 
L 207.882417 238.059564 
L 208.754519 239.10973 
L 209.626622 238.99925 
L 211.370826 239.522752 
L 212.242928 239.436279 
L 213.11503 240.466021 
L 213.987132 239.911083 
L 214.859234 240.527072 
L 215.731336 241.345933 
L 216.603438 240.833429 
L 217.475541 237.60721 
L 219.219745 240.422541 
L 220.091847 240.270039 
L 221.836051 238.117044 
L 222.708153 238.820931 
L 223.580255 238.294491 
L 224.452357 240.407064 
L 225.324459 240.1988 
L 226.196562 240.345404 
L 227.068664 240.268405 
L 227.940766 240.036725 
L 229.68497 238.851468 
L 230.557072 239.982559 
L 231.429174 238.85863 
L 233.173378 239.098885 
L 234.045481 240.074848 
L 234.917583 240.399827 
L 235.789685 239.536432 
L 236.661787 239.962967 
L 237.533889 240.187026 
L 238.405991 239.969361 
L 239.278093 240.023384 
L 240.150195 240.395396 
L 241.022297 239.94902 
L 241.8944 240.904098 
L 243.638604 240.669293 
L 244.510706 240.298211 
L 245.382808 240.298504 
L 246.25491 240.595924 
L 247.127012 240.68947 
L 247.999114 240.333294 
L 248.871216 240.764228 
L 251.487523 239.639175 
L 252.359625 240.14192 
L 253.231727 239.93815 
L 254.103829 237.554639 
L 254.975931 239.593466 
L 255.848033 240.567677 
L 257.592238 239.945084 
L 258.46434 237.696027 
L 259.336442 237.244987 
L 260.208544 238.149572 
L 261.080646 239.872016 
L 261.952748 240.203565 
L 262.82485 241.019377 
L 264.569054 240.439843 
L 265.441157 239.897618 
L 266.313259 237.922324 
L 267.185361 236.77713 
L 268.057463 236.616822 
L 268.929565 235.935728 
L 269.801667 238.379348 
L 270.673769 239.742585 
L 271.545871 240.535533 
L 272.417973 240.833956 
L 273.290076 240.972368 
L 275.906382 240.752908 
L 276.778484 240.961804 
L 277.650586 240.828048 
L 278.522688 240.542809 
L 279.39479 241.138957 
L 280.266892 241.145356 
L 281.138995 240.713492 
L 282.011097 239.832412 
L 282.883199 239.4979 
L 283.755301 240.227239 
L 284.627403 240.569862 
L 285.499505 238.112888 
L 286.371607 236.082165 
L 287.243709 237.736427 
L 288.115811 240.278021 
L 288.987914 239.497765 
L 289.860016 240.734365 
L 290.732118 240.970565 
L 291.60422 241.068513 
L 292.476322 241.321537 
L 293.348424 240.879911 
L 294.220526 240.987847 
L 295.092628 241.345438 
L 295.96473 241.510367 
L 296.836833 241.542284 
L 297.708935 240.769224 
L 298.581037 241.112052 
L 299.453139 241.286397 
L 300.325241 240.911104 
L 301.197343 241.358052 
L 302.069445 240.459508 
L 302.941547 240.643622 
L 303.813649 241.374927 
L 305.557854 241.87178 
L 306.429956 241.089206 
L 307.302058 241.627947 
L 309.046262 240.897724 
L 309.918364 239.415394 
L 310.790466 240.920037 
L 311.662568 240.297831 
L 312.53467 240.202435 
L 313.406773 240.552772 
L 314.278875 240.7152 
L 315.150977 241.115028 
L 316.023079 241.367551 
L 316.895181 240.411267 
L 317.767283 240.684949 
L 318.639385 240.755611 
L 319.511487 240.361326 
L 320.383589 241.08361 
L 321.255692 240.545012 
L 322.127794 236.34708 
L 322.999896 237.770396 
L 323.871998 240.813671 
L 324.7441 240.260708 
L 325.616202 241.207303 
L 326.488304 240.899298 
L 327.360406 238.155138 
L 328.232508 239.414482 
L 329.976713 241.239176 
L 330.848815 241.433816 
L 331.720917 240.484689 
L 332.593019 240.973239 
L 333.465121 240.565591 
L 334.337223 240.679549 
L 335.209325 240.12476 
L 336.081427 241.455876 
L 336.95353 241.360962 
L 337.825632 240.514753 
L 338.697734 241.015623 
L 339.569836 241.034205 
L 340.441938 241.596736 
L 341.31404 239.966199 
L 342.186142 237.822454 
L 343.058244 240.312281 
L 343.930346 241.372002 
L 344.802449 241.738128 
L 346.546653 241.921575 
L 347.418755 241.112512 
L 348.290857 241.621789 
L 350.035061 241.787413 
L 350.907163 241.392051 
L 351.779265 241.232213 
L 352.651368 239.760505 
L 353.52347 240.873286 
L 354.395572 241.499638 
L 356.139776 241.20896 
L 357.011878 241.900977 
L 359.628184 242.052276 
L 360.500287 242.116364 
L 361.372389 241.76846 
L 362.244491 241.276757 
L 363.116593 241.294078 
L 363.988695 241.732049 
L 364.860797 241.863202 
L 365.732899 241.054825 
L 366.605001 241.247789 
L 368.349206 240.69312 
L 369.221308 241.332693 
L 370.09341 241.212582 
L 371.837614 241.725744 
L 372.709716 241.363815 
L 373.581818 240.719443 
L 373.581818 240.719443 
" style="fill:none;stroke:#ff0000;stroke-linecap:square;stroke-width:1.5;"/>
   </g>
   <g id="line2d_18">
    <path clip-path="url(#pc44ff44116)" d="M 69.218182 187.415524 
L 70.090284 192.908296 
L 70.962386 202.226921 
L 71.834488 214.111783 
L 72.70659 211.429593 
L 73.578692 222.527451 
L 74.450794 227.253054 
L 75.322897 229.242688 
L 76.194999 230.90605 
L 77.067101 217.248674 
L 77.939203 229.834354 
L 78.811305 232.128876 
L 79.683407 228.543851 
L 80.555509 233.362266 
L 81.427611 205.259359 
L 82.299713 226.536604 
L 83.171816 233.09891 
L 84.043918 229.996289 
L 84.91602 233.78984 
L 85.788122 234.039074 
L 88.404428 235.516805 
L 89.27653 235.485284 
L 90.148632 235.767365 
L 91.020735 236.21085 
L 91.892837 227.597989 
L 92.764939 236.770751 
L 93.637041 237.381579 
L 94.509143 235.409817 
L 95.381245 236.198248 
L 96.253347 234.720073 
L 97.125449 234.351434 
L 97.997551 230.881051 
L 98.869654 236.703214 
L 99.741756 237.557097 
L 100.613858 235.591507 
L 101.48596 230.403799 
L 102.358062 237.116249 
L 103.230164 237.627674 
L 104.102266 238.611939 
L 104.974368 233.51254 
L 105.84647 237.239204 
L 106.718573 236.931975 
L 107.590675 232.510649 
L 108.462777 237.122741 
L 109.334879 221.121277 
L 110.206981 235.686481 
L 111.079083 232.726713 
L 111.951185 233.877302 
L 112.823287 238.188344 
L 114.567492 238.051155 
L 115.439594 239.072318 
L 116.311696 239.37902 
L 117.183798 234.140836 
L 118.0559 237.066072 
L 118.928002 235.698721 
L 119.800104 239.193645 
L 120.672206 239.224858 
L 121.544308 238.199963 
L 122.416411 234.953538 
L 123.288513 235.97895 
L 124.160615 236.829848 
L 125.032717 238.206748 
L 125.904819 238.621333 
L 126.776921 238.296909 
L 127.649023 237.694297 
L 128.521125 234.033458 
L 129.393227 238.433602 
L 130.26533 234.441422 
L 131.137432 238.268323 
L 132.009534 239.048669 
L 132.881636 237.85763 
L 133.753738 239.621943 
L 134.62584 238.820689 
L 135.497942 239.615573 
L 137.242146 236.944441 
L 138.114249 237.826918 
L 138.986351 237.409551 
L 139.858453 238.013293 
L 140.730555 238.979966 
L 142.474759 239.19258 
L 143.346861 238.449179 
L 144.218963 239.916887 
L 145.091065 238.097924 
L 145.963167 237.653194 
L 146.83527 238.659587 
L 147.707372 226.928688 
L 148.579474 237.405405 
L 149.451576 236.389974 
L 150.323678 238.810815 
L 151.19578 238.105123 
L 152.067882 233.472449 
L 152.939984 238.531865 
L 153.812086 239.090874 
L 154.684189 238.885744 
L 155.556291 236.088343 
L 156.428393 238.624172 
L 157.300495 238.503181 
L 158.172597 239.404214 
L 159.044699 236.281549 
L 159.916801 239.601192 
L 160.788903 236.33639 
L 161.661005 234.152723 
L 162.533108 228.620082 
L 163.40521 238.063396 
L 164.277312 239.066025 
L 165.149414 237.694421 
L 166.021516 238.222314 
L 166.893618 236.971008 
L 167.76572 239.353097 
L 168.637822 238.371391 
L 169.509924 239.583461 
L 170.382027 236.45752 
L 171.254129 229.101484 
L 172.126231 237.443502 
L 172.998333 239.258639 
L 173.870435 238.680387 
L 174.742537 238.500001 
L 175.614639 239.05882 
L 176.486741 239.403043 
L 177.358843 239.193907 
L 178.230946 239.383711 
L 179.103048 238.319087 
L 180.847252 238.245691 
L 181.719354 237.530952 
L 182.591456 236.50161 
L 183.463558 238.818047 
L 184.33566 239.160712 
L 185.207762 237.665783 
L 186.079865 238.633789 
L 186.951967 235.94327 
L 187.824069 234.590459 
L 188.696171 238.797374 
L 189.568273 238.558302 
L 190.440375 234.449385 
L 191.312477 235.958819 
L 192.184579 238.617254 
L 193.056681 238.999697 
L 193.928784 236.975852 
L 194.800886 239.448817 
L 195.672988 238.735663 
L 196.54509 230.354857 
L 197.417192 234.626829 
L 198.289294 237.890777 
L 199.161396 239.431185 
L 200.033498 238.450189 
L 200.9056 239.154104 
L 201.777703 239.531623 
L 202.649805 239.202789 
L 203.521907 239.425261 
L 204.394009 239.038532 
L 205.266111 236.526925 
L 206.138213 237.353377 
L 207.010315 237.593321 
L 207.882417 237.072717 
L 208.754519 236.353206 
L 209.626622 237.482884 
L 210.498724 237.318902 
L 211.370826 238.336352 
L 213.11503 238.554837 
L 213.987132 237.124696 
L 214.859234 238.398443 
L 215.731336 238.187842 
L 216.603438 238.619424 
L 217.475541 238.13256 
L 218.347643 235.699379 
L 219.219745 237.263016 
L 220.091847 236.001231 
L 220.963949 234.077796 
L 221.836051 239.356026 
L 222.708153 239.978761 
L 223.580255 237.425627 
L 225.324459 237.146199 
L 226.196562 237.673983 
L 227.068664 237.220158 
L 227.940766 236.050295 
L 229.68497 236.433341 
L 231.429174 232.227426 
L 232.301276 236.297058 
L 233.173378 238.107423 
L 234.045481 237.147821 
L 234.917583 234.34672 
L 235.789685 237.578449 
L 236.661787 237.326931 
L 237.533889 236.332315 
L 238.405991 236.018257 
L 239.278093 237.825923 
L 241.022297 236.388683 
L 241.8944 236.804969 
L 242.766502 235.426172 
L 243.638604 235.333113 
L 244.510706 237.590343 
L 245.382808 234.575913 
L 246.25491 236.986737 
L 247.127012 233.056972 
L 247.999114 236.255271 
L 248.871216 234.918129 
L 250.615421 238.38615 
L 251.487523 237.69698 
L 252.359625 238.602138 
L 253.231727 235.64205 
L 254.103829 236.237755 
L 254.975931 235.42832 
L 255.848033 237.52038 
L 256.720135 234.879247 
L 257.592238 234.344276 
L 258.46434 235.309962 
L 259.336442 238.621446 
L 260.208544 238.907766 
L 261.080646 238.362192 
L 261.952748 237.49574 
L 262.82485 234.813078 
L 263.696952 236.751633 
L 264.569054 237.276227 
L 265.441157 237.48157 
L 266.313259 239.881986 
L 267.185361 239.601017 
L 268.057463 237.22414 
L 268.929565 228.940973 
L 269.801667 234.854048 
L 270.673769 236.836822 
L 271.545871 236.489062 
L 272.417973 236.808999 
L 273.290076 236.539795 
L 275.03428 234.937736 
L 275.906382 236.225782 
L 276.778484 238.081409 
L 277.650586 236.139313 
L 278.522688 238.406074 
L 279.39479 234.977094 
L 280.266892 235.487594 
L 281.138995 229.550798 
L 282.011097 236.062855 
L 282.883199 233.312157 
L 283.755301 237.430066 
L 284.627403 238.672861 
L 285.499505 237.355926 
L 286.371607 234.627666 
L 287.243709 238.713327 
L 288.115811 237.948079 
L 288.987914 235.006421 
L 289.860016 235.402921 
L 290.732118 236.28658 
L 291.60422 235.087526 
L 292.476322 237.93221 
L 293.348424 237.735398 
L 294.220526 235.47164 
L 295.092628 237.079263 
L 295.96473 236.230994 
L 296.836833 237.602598 
L 297.708935 234.583518 
L 298.581037 234.32664 
L 299.453139 236.434544 
L 300.325241 236.86786 
L 301.197343 234.216648 
L 302.069445 237.302451 
L 302.941547 238.768745 
L 303.813649 237.102023 
L 304.685751 235.081221 
L 305.557854 237.08499 
L 306.429956 236.184699 
L 307.302058 236.630996 
L 308.17416 233.516188 
L 309.046262 237.762173 
L 309.918364 232.964077 
L 310.790466 234.2408 
L 311.662568 237.379346 
L 312.53467 237.850436 
L 313.406773 234.745155 
L 314.278875 237.039761 
L 315.150977 234.665171 
L 316.023079 235.758804 
L 316.895181 231.615479 
L 317.767283 230.966204 
L 318.639385 237.300582 
L 319.511487 234.858657 
L 320.383589 237.130521 
L 321.255692 235.411681 
L 322.127794 235.435624 
L 322.999896 235.959853 
L 323.871998 234.944192 
L 324.7441 234.499496 
L 325.616202 236.932507 
L 326.488304 235.583785 
L 327.360406 235.973021 
L 328.232508 237.270808 
L 329.104611 236.743029 
L 329.976713 237.692668 
L 330.848815 233.01856 
L 331.720917 237.921895 
L 332.593019 237.462437 
L 333.465121 234.558125 
L 334.337223 232.683538 
L 335.209325 236.997367 
L 336.081427 236.627071 
L 336.95353 237.506075 
L 337.825632 233.1631 
L 338.697734 233.412861 
L 339.569836 236.31326 
L 341.31404 236.584588 
L 342.186142 236.324527 
L 343.058244 231.529545 
L 343.930346 236.352256 
L 344.802449 235.494014 
L 345.674551 236.672802 
L 346.546653 236.317493 
L 347.418755 236.44007 
L 348.290857 232.863072 
L 349.162959 234.317742 
L 350.035061 234.105579 
L 350.907163 235.195991 
L 351.779265 233.9391 
L 352.651368 228.67078 
L 353.52347 236.062648 
L 354.395572 235.058675 
L 355.267674 236.342399 
L 356.139776 238.065629 
L 357.011878 236.466173 
L 357.88398 235.687677 
L 358.756082 236.264208 
L 359.628184 236.017897 
L 360.500287 235.37181 
L 361.372389 231.939454 
L 362.244491 234.523462 
L 363.116593 236.374627 
L 363.988695 232.449742 
L 364.860797 230.843222 
L 365.732899 233.491975 
L 366.605001 232.968155 
L 367.477103 237.130387 
L 368.349206 237.256773 
L 369.221308 236.65809 
L 370.09341 234.39063 
L 370.965512 234.877063 
L 371.837614 232.320813 
L 372.709716 235.289358 
L 373.581818 233.485985 
L 373.581818 233.485985 
" style="fill:none;stroke:#008000;stroke-linecap:square;stroke-width:1.5;"/>
   </g>
   <g id="patch_3">
    <path d="M 54 252 
L 54 34.56 
" style="fill:none;stroke:#000000;stroke-linecap:square;stroke-linejoin:miter;stroke-width:0.8;"/>
   </g>
   <g id="patch_4">
    <path d="M 388.8 252 
L 388.8 34.56 
" style="fill:none;stroke:#000000;stroke-linecap:square;stroke-linejoin:miter;stroke-width:0.8;"/>
   </g>
   <g id="patch_5">
    <path d="M 54 252 
L 388.8 252 
" style="fill:none;stroke:#000000;stroke-linecap:square;stroke-linejoin:miter;stroke-width:0.8;"/>
   </g>
   <g id="patch_6">
    <path d="M 54 34.56 
L 388.8 34.56 
" style="fill:none;stroke:#000000;stroke-linecap:square;stroke-linejoin:miter;stroke-width:0.8;"/>
   </g>
   <g id="text_19">
    <!-- Loss_Trend -->
    <defs>
     <path d="M 50.984375 -16.609375 
L 50.984375 -23.578125 
L -0.984375 -23.578125 
L -0.984375 -16.609375 
z
" id="DejaVuSans-5f"/>
     <path d="M -0.296875 72.90625 
L 61.375 72.90625 
L 61.375 64.59375 
L 35.5 64.59375 
L 35.5 0 
L 25.59375 0 
L 25.59375 64.59375 
L -0.296875 64.59375 
z
" id="DejaVuSans-54"/>
     <path d="M 41.109375 46.296875 
Q 39.59375 47.171875 37.8125 47.578125 
Q 36.03125 48 33.890625 48 
Q 26.265625 48 22.1875 43.046875 
Q 18.109375 38.09375 18.109375 28.8125 
L 18.109375 0 
L 9.078125 0 
L 9.078125 54.6875 
L 18.109375 54.6875 
L 18.109375 46.1875 
Q 20.953125 51.171875 25.484375 53.578125 
Q 30.03125 56 36.53125 56 
Q 37.453125 56 38.578125 55.875 
Q 39.703125 55.765625 41.0625 55.515625 
z
" id="DejaVuSans-72"/>
     <path d="M 54.890625 33.015625 
L 54.890625 0 
L 45.90625 0 
L 45.90625 32.71875 
Q 45.90625 40.484375 42.875 44.328125 
Q 39.84375 48.1875 33.796875 48.1875 
Q 26.515625 48.1875 22.3125 43.546875 
Q 18.109375 38.921875 18.109375 30.90625 
L 18.109375 0 
L 9.078125 0 
L 9.078125 54.6875 
L 18.109375 54.6875 
L 18.109375 46.1875 
Q 21.34375 51.125 25.703125 53.5625 
Q 30.078125 56 35.796875 56 
Q 45.21875 56 50.046875 50.171875 
Q 54.890625 44.34375 54.890625 33.015625 
z
" id="DejaVuSans-6e"/>
     <path d="M 45.40625 46.390625 
L 45.40625 75.984375 
L 54.390625 75.984375 
L 54.390625 0 
L 45.40625 0 
L 45.40625 8.203125 
Q 42.578125 3.328125 38.25 0.953125 
Q 33.9375 -1.421875 27.875 -1.421875 
Q 17.96875 -1.421875 11.734375 6.484375 
Q 5.515625 14.40625 5.515625 27.296875 
Q 5.515625 40.1875 11.734375 48.09375 
Q 17.96875 56 27.875 56 
Q 33.9375 56 38.25 53.625 
Q 42.578125 51.265625 45.40625 46.390625 
z
M 14.796875 27.296875 
Q 14.796875 17.390625 18.875 11.75 
Q 22.953125 6.109375 30.078125 6.109375 
Q 37.203125 6.109375 41.296875 11.75 
Q 45.40625 17.390625 45.40625 27.296875 
Q 45.40625 37.203125 41.296875 42.84375 
Q 37.203125 48.484375 30.078125 48.484375 
Q 22.953125 48.484375 18.875 42.84375 
Q 14.796875 37.203125 14.796875 27.296875 
z
" id="DejaVuSans-64"/>
    </defs>
    <g transform="translate(187.715625 28.56)scale(0.12 -0.12)">
     <use xlink:href="#DejaVuSans-4c"/>
     <use x="55.697266" xlink:href="#DejaVuSans-6f"/>
     <use x="116.878906" xlink:href="#DejaVuSans-73"/>
     <use x="168.978516" xlink:href="#DejaVuSans-73"/>
     <use x="221.078125" xlink:href="#DejaVuSans-5f"/>
     <use x="271.078125" xlink:href="#DejaVuSans-54"/>
     <use x="331.943359" xlink:href="#DejaVuSans-72"/>
     <use x="373.025391" xlink:href="#DejaVuSans-65"/>
     <use x="434.548828" xlink:href="#DejaVuSans-6e"/>
     <use x="497.927734" xlink:href="#DejaVuSans-64"/>
    </g>
   </g>
   <g id="legend_1">
    <g id="patch_7">
     <path d="M 301.532812 72.4725 
L 381.8 72.4725 
Q 383.8 72.4725 383.8 70.4725 
L 383.8 41.56 
Q 383.8 39.56 381.8 39.56 
L 301.532812 39.56 
Q 299.532812 39.56 299.532812 41.56 
L 299.532812 70.4725 
Q 299.532812 72.4725 301.532812 72.4725 
z
" style="fill:#ffffff;opacity:0.8;stroke:#cccccc;stroke-linejoin:miter;"/>
    </g>
    <g id="line2d_19">
     <path d="M 303.532812 47.658437 
L 323.532812 47.658437 
" style="fill:none;stroke:#ff0000;stroke-linecap:square;stroke-width:1.5;"/>
    </g>
    <g id="line2d_20"/>
    <g id="text_20">
     <!-- train_loss -->
     <defs>
      <path d="M 18.3125 70.21875 
L 18.3125 54.6875 
L 36.8125 54.6875 
L 36.8125 47.703125 
L 18.3125 47.703125 
L 18.3125 18.015625 
Q 18.3125 11.328125 20.140625 9.421875 
Q 21.96875 7.515625 27.59375 7.515625 
L 36.8125 7.515625 
L 36.8125 0 
L 27.59375 0 
Q 17.1875 0 13.234375 3.875 
Q 9.28125 7.765625 9.28125 18.015625 
L 9.28125 47.703125 
L 2.6875 47.703125 
L 2.6875 54.6875 
L 9.28125 54.6875 
L 9.28125 70.21875 
z
" id="DejaVuSans-74"/>
      <path d="M 34.28125 27.484375 
Q 23.390625 27.484375 19.1875 25 
Q 14.984375 22.515625 14.984375 16.5 
Q 14.984375 11.71875 18.140625 8.90625 
Q 21.296875 6.109375 26.703125 6.109375 
Q 34.1875 6.109375 38.703125 11.40625 
Q 43.21875 16.703125 43.21875 25.484375 
L 43.21875 27.484375 
z
M 52.203125 31.203125 
L 52.203125 0 
L 43.21875 0 
L 43.21875 8.296875 
Q 40.140625 3.328125 35.546875 0.953125 
Q 30.953125 -1.421875 24.3125 -1.421875 
Q 15.921875 -1.421875 10.953125 3.296875 
Q 6 8.015625 6 15.921875 
Q 6 25.140625 12.171875 29.828125 
Q 18.359375 34.515625 30.609375 34.515625 
L 43.21875 34.515625 
L 43.21875 35.40625 
Q 43.21875 41.609375 39.140625 45 
Q 35.0625 48.390625 27.6875 48.390625 
Q 23 48.390625 18.546875 47.265625 
Q 14.109375 46.140625 10.015625 43.890625 
L 10.015625 52.203125 
Q 14.9375 54.109375 19.578125 55.046875 
Q 24.21875 56 28.609375 56 
Q 40.484375 56 46.34375 49.84375 
Q 52.203125 43.703125 52.203125 31.203125 
z
" id="DejaVuSans-61"/>
      <path d="M 9.421875 54.6875 
L 18.40625 54.6875 
L 18.40625 0 
L 9.421875 0 
z
M 9.421875 75.984375 
L 18.40625 75.984375 
L 18.40625 64.59375 
L 9.421875 64.59375 
z
" id="DejaVuSans-69"/>
      <path d="M 9.421875 75.984375 
L 18.40625 75.984375 
L 18.40625 0 
L 9.421875 0 
z
" id="DejaVuSans-6c"/>
     </defs>
     <g transform="translate(331.532812 51.158437)scale(0.1 -0.1)">
      <use xlink:href="#DejaVuSans-74"/>
      <use x="39.208984" xlink:href="#DejaVuSans-72"/>
      <use x="80.322266" xlink:href="#DejaVuSans-61"/>
      <use x="141.601562" xlink:href="#DejaVuSans-69"/>
      <use x="169.384766" xlink:href="#DejaVuSans-6e"/>
      <use x="232.763672" xlink:href="#DejaVuSans-5f"/>
      <use x="282.763672" xlink:href="#DejaVuSans-6c"/>
      <use x="310.546875" xlink:href="#DejaVuSans-6f"/>
      <use x="371.728516" xlink:href="#DejaVuSans-73"/>
      <use x="423.828125" xlink:href="#DejaVuSans-73"/>
     </g>
    </g>
    <g id="line2d_21">
     <path d="M 303.532812 62.614688 
L 323.532812 62.614688 
" style="fill:none;stroke:#008000;stroke-linecap:square;stroke-width:1.5;"/>
    </g>
    <g id="line2d_22"/>
    <g id="text_21">
     <!-- valid_loss -->
     <defs>
      <path d="M 2.984375 54.6875 
L 12.5 54.6875 
L 29.59375 8.796875 
L 46.6875 54.6875 
L 56.203125 54.6875 
L 35.6875 0 
L 23.484375 0 
z
" id="DejaVuSans-76"/>
     </defs>
     <g transform="translate(331.532812 66.114688)scale(0.1 -0.1)">
      <use xlink:href="#DejaVuSans-76"/>
      <use x="59.179688" xlink:href="#DejaVuSans-61"/>
      <use x="120.458984" xlink:href="#DejaVuSans-6c"/>
      <use x="148.242188" xlink:href="#DejaVuSans-69"/>
      <use x="176.025391" xlink:href="#DejaVuSans-64"/>
      <use x="239.501953" xlink:href="#DejaVuSans-5f"/>
      <use x="289.501953" xlink:href="#DejaVuSans-6c"/>
      <use x="317.285156" xlink:href="#DejaVuSans-6f"/>
      <use x="378.466797" xlink:href="#DejaVuSans-73"/>
      <use x="430.566406" xlink:href="#DejaVuSans-73"/>
     </g>
    </g>
   </g>
  </g>
 </g>
 <defs>
  <clipPath id="pc44ff44116">
   <rect height="217.44" width="334.8" x="54" y="34.56"/>
  </clipPath>
 </defs>
</svg>
