<?xml version="1.0" encoding="utf-8" standalone="no"?>
<!DOCTYPE svg PUBLIC "-//W3C//DTD SVG 1.1//EN"
  "http://www.w3.org/Graphics/SVG/1.1/DTD/svg11.dtd">
<!-- Created with matplotlib (https://matplotlib.org/) -->
<svg height="288pt" version="1.1" viewBox="0 0 432 288" width="432pt" xmlns="http://www.w3.org/2000/svg" xmlns:xlink="http://www.w3.org/1999/xlink">
 <defs>
  <style type="text/css">
*{stroke-linecap:butt;stroke-linejoin:round;}
  </style>
 </defs>
 <g id="figure_1">
  <g id="patch_1">
   <path d="M 0 288 
L 432 288 
L 432 0 
L 0 0 
z
" style="fill:#ffffff;"/>
  </g>
  <g id="axes_1">
   <g id="patch_2">
    <path d="M 54 252 
L 388.8 252 
L 388.8 34.56 
L 54 34.56 
z
" style="fill:#ffffff;"/>
   </g>
   <g id="matplotlib.axis_1">
    <g id="xtick_1">
     <g id="line2d_1">
      <defs>
       <path d="M 0 0 
L 0 3.5 
" id="m4691c64b0b" style="stroke:#000000;stroke-width:0.8;"/>
      </defs>
      <g>
       <use style="stroke:#000000;stroke-width:0.8;" x="69.218182" xlink:href="#m4691c64b0b" y="252"/>
      </g>
     </g>
     <g id="text_1">
      <!-- 0 -->
      <defs>
       <path d="M 46.484375 35.15625 
Q 46.484375 21.09375 41.40625 10.9375 
Q 36.328125 0.78125 25 0.78125 
Q 13.671875 0.78125 8.390625 10.9375 
Q 3.125 21.09375 3.125 35.15625 
Q 3.125 49.21875 8.390625 59.171875 
Q 13.671875 69.140625 25 69.140625 
Q 36.328125 69.140625 41.40625 59.171875 
Q 46.484375 49.21875 46.484375 35.15625 
z
M 37.109375 35.15625 
Q 37.109375 47.65625 34.171875 54.6875 
Q 31.25 61.71875 25 61.71875 
Q 18.75 61.71875 15.625 54.6875 
Q 12.5 47.65625 12.5 35.15625 
Q 12.5 22.65625 15.625 15.421875 
Q 18.75 8.203125 25 8.203125 
Q 31.25 8.203125 34.171875 15.421875 
Q 37.109375 22.65625 37.109375 35.15625 
z
" id="SimHei-48"/>
      </defs>
      <g transform="translate(66.718182 265.835938)scale(0.1 -0.1)">
       <use xlink:href="#SimHei-48"/>
      </g>
     </g>
    </g>
    <g id="xtick_2">
     <g id="line2d_2">
      <g>
       <use style="stroke:#000000;stroke-width:0.8;" x="112.823287" xlink:href="#m4691c64b0b" y="252"/>
      </g>
     </g>
     <g id="text_2">
      <!-- 50 -->
      <defs>
       <path d="M 44.140625 25.78125 
Q 44.140625 14.0625 38.46875 7.421875 
Q 32.8125 0.78125 23.4375 0.78125 
Q 15.234375 0.78125 9.953125 6.25 
Q 4.6875 11.71875 4.296875 21.09375 
L 13.28125 21.09375 
Q 13.28125 15.234375 16.015625 11.71875 
Q 18.75 8.203125 23.828125 8.203125 
Q 28.90625 8.203125 31.828125 12.5 
Q 34.765625 16.796875 34.765625 25.78125 
Q 34.765625 33.59375 32.21875 37.296875 
Q 29.6875 41.015625 25.390625 41.015625 
Q 21.875 41.015625 19.328125 39.453125 
Q 16.796875 37.890625 14.453125 33.984375 
L 6.640625 33.984375 
L 8.984375 68.359375 
L 42.578125 68.359375 
L 42.578125 60.9375 
L 16.40625 60.9375 
L 14.84375 42.96875 
Q 17.1875 45.3125 19.921875 46.484375 
Q 22.65625 47.65625 27.34375 47.65625 
Q 34.765625 47.65625 39.453125 41.984375 
Q 44.140625 36.328125 44.140625 25.78125 
z
" id="SimHei-53"/>
      </defs>
      <g transform="translate(107.823287 265.835938)scale(0.1 -0.1)">
       <use xlink:href="#SimHei-53"/>
       <use x="50" xlink:href="#SimHei-48"/>
      </g>
     </g>
    </g>
    <g id="xtick_3">
     <g id="line2d_3">
      <g>
       <use style="stroke:#000000;stroke-width:0.8;" x="156.428393" xlink:href="#m4691c64b0b" y="252"/>
      </g>
     </g>
     <g id="text_3">
      <!-- 100 -->
      <defs>
       <path d="M 30.46875 1.5625 
L 21.484375 1.5625 
L 21.484375 53.515625 
L 9.765625 53.515625 
L 9.765625 58.203125 
Q 16.796875 58.203125 20.703125 60.9375 
Q 24.609375 63.671875 25.78125 69.140625 
L 30.46875 69.140625 
z
" id="SimHei-49"/>
      </defs>
      <g transform="translate(148.928393 265.835938)scale(0.1 -0.1)">
       <use xlink:href="#SimHei-49"/>
       <use x="50" xlink:href="#SimHei-48"/>
       <use x="100" xlink:href="#SimHei-48"/>
      </g>
     </g>
    </g>
    <g id="xtick_4">
     <g id="line2d_4">
      <g>
       <use style="stroke:#000000;stroke-width:0.8;" x="200.033498" xlink:href="#m4691c64b0b" y="252"/>
      </g>
     </g>
     <g id="text_4">
      <!-- 150 -->
      <g transform="translate(192.533498 265.835938)scale(0.1 -0.1)">
       <use xlink:href="#SimHei-49"/>
       <use x="50" xlink:href="#SimHei-53"/>
       <use x="100" xlink:href="#SimHei-48"/>
      </g>
     </g>
    </g>
    <g id="xtick_5">
     <g id="line2d_5">
      <g>
       <use style="stroke:#000000;stroke-width:0.8;" x="243.638604" xlink:href="#m4691c64b0b" y="252"/>
      </g>
     </g>
     <g id="text_5">
      <!-- 200 -->
      <defs>
       <path d="M 44.53125 1.5625 
L 4.6875 1.5625 
L 4.6875 7.8125 
Q 7.03125 14.0625 11.125 19.328125 
Q 15.234375 24.609375 23.046875 31.25 
Q 28.90625 36.328125 31.4375 40.625 
Q 33.984375 44.921875 33.984375 50 
Q 33.984375 55.078125 31.828125 58.390625 
Q 29.6875 61.71875 25 61.71875 
Q 21.09375 61.71875 18.15625 58.203125 
Q 15.234375 54.6875 15.234375 45.703125 
L 6.25 45.703125 
Q 6.640625 57.03125 11.515625 63.078125 
Q 16.40625 69.140625 25.390625 69.140625 
Q 33.984375 69.140625 38.671875 63.859375 
Q 43.359375 58.59375 43.359375 49.609375 
Q 43.359375 42.1875 39.0625 36.71875 
Q 34.765625 31.25 28.515625 25.78125 
Q 21.484375 19.53125 18.75 16.40625 
Q 16.015625 13.28125 13.671875 8.984375 
L 44.53125 8.984375 
z
" id="SimHei-50"/>
      </defs>
      <g transform="translate(236.138604 265.835938)scale(0.1 -0.1)">
       <use xlink:href="#SimHei-50"/>
       <use x="50" xlink:href="#SimHei-48"/>
       <use x="100" xlink:href="#SimHei-48"/>
      </g>
     </g>
    </g>
    <g id="xtick_6">
     <g id="line2d_6">
      <g>
       <use style="stroke:#000000;stroke-width:0.8;" x="287.243709" xlink:href="#m4691c64b0b" y="252"/>
      </g>
     </g>
     <g id="text_6">
      <!-- 250 -->
      <g transform="translate(279.743709 265.835938)scale(0.1 -0.1)">
       <use xlink:href="#SimHei-50"/>
       <use x="50" xlink:href="#SimHei-53"/>
       <use x="100" xlink:href="#SimHei-48"/>
      </g>
     </g>
    </g>
    <g id="xtick_7">
     <g id="line2d_7">
      <g>
       <use style="stroke:#000000;stroke-width:0.8;" x="330.848815" xlink:href="#m4691c64b0b" y="252"/>
      </g>
     </g>
     <g id="text_7">
      <!-- 300 -->
      <defs>
       <path d="M 44.140625 20.3125 
Q 44.140625 11.328125 38.46875 6.046875 
Q 32.8125 0.78125 24.21875 0.78125 
Q 15.625 0.78125 9.953125 6.046875 
Q 4.296875 11.328125 4.296875 22.265625 
L 13.28125 22.265625 
Q 13.28125 14.84375 16.203125 11.515625 
Q 19.140625 8.203125 24.21875 8.203125 
Q 29.296875 8.203125 32.03125 11.328125 
Q 34.765625 14.453125 34.765625 21.09375 
Q 34.765625 26.5625 31.828125 29.6875 
Q 28.90625 32.8125 21.484375 32.8125 
L 21.484375 39.453125 
Q 27.734375 39.453125 30.65625 42.578125 
Q 33.59375 45.703125 33.59375 51.953125 
Q 33.59375 56.640625 31.4375 59.375 
Q 29.296875 62.109375 24.609375 62.109375 
Q 19.921875 62.109375 17.375 58.78125 
Q 14.84375 55.46875 14.453125 49.21875 
L 5.859375 49.21875 
Q 6.640625 58.203125 11.515625 63.671875 
Q 16.40625 69.140625 24.609375 69.140625 
Q 33.203125 69.140625 37.890625 64.25 
Q 42.578125 59.375 42.578125 52.34375 
Q 42.578125 45.703125 40.234375 41.984375 
Q 37.890625 38.28125 32.421875 36.328125 
Q 37.890625 35.15625 41.015625 30.859375 
Q 44.140625 26.5625 44.140625 20.3125 
z
" id="SimHei-51"/>
      </defs>
      <g transform="translate(323.348815 265.835938)scale(0.1 -0.1)">
       <use xlink:href="#SimHei-51"/>
       <use x="50" xlink:href="#SimHei-48"/>
       <use x="100" xlink:href="#SimHei-48"/>
      </g>
     </g>
    </g>
    <g id="xtick_8">
     <g id="line2d_8">
      <g>
       <use style="stroke:#000000;stroke-width:0.8;" x="374.45392" xlink:href="#m4691c64b0b" y="252"/>
      </g>
     </g>
     <g id="text_8">
      <!-- 350 -->
      <g transform="translate(366.95392 265.835938)scale(0.1 -0.1)">
       <use xlink:href="#SimHei-51"/>
       <use x="50" xlink:href="#SimHei-53"/>
       <use x="100" xlink:href="#SimHei-48"/>
      </g>
     </g>
    </g>
    <g id="text_9">
     <!-- 迭代次数 -->
     <defs>
      <path d="M 81.640625 4.296875 
Q 74.21875 14.84375 61.328125 28.125 
Q 56.640625 19.921875 51.75 15.03125 
Q 46.875 10.15625 39.84375 4.296875 
Q 37.890625 6.25 32.03125 10.546875 
Q 40.625 14.84375 47.0625 21.671875 
Q 53.515625 28.515625 56.25 37.5 
Q 36.71875 37.5 30.46875 37.109375 
L 30.46875 44.140625 
Q 37.109375 43.75 57.421875 43.75 
Q 58.203125 49.609375 58.59375 57.8125 
L 42.578125 57.8125 
Q 40.625 53.125 39.0625 48.828125 
Q 34.765625 50.390625 30.46875 51.171875 
Q 33.203125 55.859375 35.546875 62.5 
Q 37.890625 69.140625 39.84375 78.90625 
Q 43.75 77.34375 49.609375 76.171875 
Q 46.875 72.265625 44.921875 64.0625 
L 58.59375 64.0625 
Q 58.59375 74.21875 57.8125 80.078125 
Q 62.5 79.296875 66.796875 79.6875 
Q 66.015625 75 65.625 64.0625 
L 76.953125 64.0625 
Q 80.46875 64.0625 86.71875 64.453125 
L 86.71875 57.03125 
Q 80.46875 57.8125 75.78125 57.8125 
L 66.015625 57.8125 
Q 65.625 49.609375 64.84375 43.75 
L 80.078125 43.75 
Q 85.15625 43.75 92.1875 44.140625 
L 92.1875 37.109375 
Q 85.15625 37.5 78.90625 37.5 
L 64.453125 37.5 
L 64.0625 35.15625 
Q 72.265625 26.953125 89.0625 10.9375 
Q 87.109375 9.765625 81.640625 4.296875 
z
M 11.328125 74.21875 
Q 15.234375 75.78125 19.921875 76.5625 
Q 23.828125 64.84375 26.171875 58.984375 
Q 21.875 58.59375 17.1875 57.03125 
Q 16.015625 60.546875 11.328125 74.21875 
z
M 6.25 45.3125 
Q 12.890625 44.921875 17.578125 44.921875 
L 25 44.921875 
Q 24.609375 37.890625 24.609375 30.859375 
L 24.609375 8.59375 
Q 34.375 0 57.8125 0 
Q 81.25 0 94.53125 1.953125 
Q 92.1875 -3.515625 91.40625 -7.421875 
Q 65.234375 -7.421875 55.65625 -7.21875 
Q 46.09375 -7.03125 38.859375 -5.65625 
Q 31.640625 -4.296875 26.75 -0.78125 
Q 21.875 2.734375 18.75 -0.390625 
Q 15.625 -3.515625 11.71875 -8.984375 
Q 8.203125 -5.078125 4.296875 -2.734375 
Q 12.890625 4.6875 17.578125 7.421875 
L 17.578125 38.671875 
Q 12.5 38.671875 6.25 38.28125 
z
" id="SimHei-36845"/>
      <path d="M 31.640625 42.1875 
Q 37.890625 42.96875 51.5625 45.703125 
Q 49.609375 70.703125 49.21875 78.90625 
Q 51.5625 78.515625 59.375 77.734375 
Q 57.8125 72.65625 59.375 47.265625 
Q 78.125 50.78125 88.28125 53.90625 
L 90.234375 46.484375 
Q 85.9375 46.09375 60.15625 40.625 
Q 64.84375 16.015625 73.625 7.21875 
Q 82.421875 -1.5625 83.78125 3.3125 
Q 85.15625 8.203125 85.9375 11.71875 
Q 91.796875 7.421875 94.921875 6.640625 
Q 92.1875 -1.953125 89.640625 -6.25 
Q 87.109375 -10.546875 80.65625 -8.984375 
Q 74.21875 -7.421875 65.03125 4.6875 
Q 55.859375 16.796875 52.34375 39.0625 
Q 37.5 35.9375 33.984375 34.375 
z
M 66.796875 70.703125 
Q 69.921875 72.65625 73.828125 75.390625 
Q 75.390625 73.4375 78.3125 69.328125 
Q 81.25 65.234375 83.203125 62.5 
Q 79.296875 60.15625 75.78125 57.8125 
Q 71.875 63.28125 66.796875 70.703125 
z
M 25.78125 80.46875 
Q 32.03125 77.734375 35.9375 76.5625 
Q 32.8125 73.046875 26.5625 56.25 
L 26.5625 7.421875 
Q 26.5625 -0.78125 26.953125 -9.375 
L 18.75 -9.375 
Q 19.140625 -0.78125 19.140625 7.421875 
L 19.140625 42.578125 
Q 13.28125 33.203125 9.765625 28.125 
Q 6.640625 31.25 3.125 34.375 
Q 8.203125 38.671875 15.421875 52.140625 
Q 22.65625 65.625 25.78125 80.46875 
z
" id="SimHei-20195"/>
      <path d="M 8.203125 67.1875 
Q 11.328125 69.140625 15.625 71.09375 
Q 17.96875 67.1875 21.09375 61.71875 
Q 24.21875 56.25 27.34375 50.78125 
Q 23.046875 48.828125 19.53125 46.484375 
Q 17.1875 51.171875 14.640625 56.640625 
Q 12.109375 62.109375 8.203125 67.1875 
z
M 23.046875 34.765625 
Q 25.78125 32.421875 30.46875 30.078125 
Q 28.125 26.5625 23.625 17.96875 
Q 19.140625 9.375 14.0625 -0.78125 
Q 10.546875 1.953125 6.25 4.6875 
Q 12.109375 10.9375 16.203125 19.328125 
Q 20.3125 27.734375 23.046875 34.765625 
z
M 46.875 79.296875 
Q 51.171875 77.734375 57.03125 75.390625 
Q 54.6875 73.828125 52.921875 69.53125 
Q 51.171875 65.234375 49.21875 60.9375 
L 90.625 60.9375 
Q 89.453125 57.8125 87.5 52.140625 
Q 85.546875 46.484375 83.203125 38.28125 
Q 78.90625 39.453125 74.609375 40.234375 
Q 76.171875 43.75 77.34375 47.265625 
Q 78.515625 50.78125 79.6875 54.6875 
L 46.484375 54.6875 
Q 44.53125 51.5625 42.375 46.875 
Q 40.234375 42.1875 37.5 37.5 
Q 34.765625 39.84375 30.46875 41.40625 
Q 33.203125 44.921875 35.734375 49.609375 
Q 38.28125 54.296875 40.421875 59.375 
Q 42.578125 64.453125 44.140625 69.53125 
Q 45.703125 74.609375 46.875 79.296875 
z
M 54.6875 47.65625 
Q 59.375 47.265625 64.0625 46.484375 
Q 62.890625 42.578125 62.6875 35.15625 
Q 62.5 27.734375 65.8125 21.484375 
Q 69.140625 15.234375 73.828125 10.9375 
Q 78.515625 6.640625 83.984375 4.09375 
Q 89.453125 1.5625 93.75 0.390625 
Q 91.40625 -1.171875 90.234375 -3.3125 
Q 89.0625 -5.46875 87.890625 -8.59375 
Q 79.296875 -3.90625 74.21875 0.1875 
Q 69.140625 4.296875 66.203125 8.203125 
Q 63.28125 12.109375 61.71875 15.8125 
Q 60.15625 19.53125 58.984375 23.046875 
Q 57.03125 17.1875 54.875 12.6875 
Q 52.734375 8.203125 49.40625 4.6875 
Q 46.09375 1.171875 41.796875 -2.140625 
Q 37.5 -5.46875 31.640625 -9.375 
Q 28.90625 -5.078125 25 -2.34375 
Q 34.765625 1.171875 40.625 6.4375 
Q 46.484375 11.71875 49.609375 17.1875 
Q 52.734375 22.65625 53.703125 27.921875 
Q 54.6875 33.203125 54.875 36.90625 
Q 55.078125 40.625 54.6875 47.65625 
z
" id="SimHei-27425"/>
      <path d="M 10.9375 75.78125 
Q 14.84375 76.953125 17.1875 78.515625 
Q 20.3125 73.4375 23.046875 68.359375 
Q 19.53125 66.796875 16.796875 65.234375 
Q 14.453125 71.09375 10.9375 75.78125 
z
M 44.921875 78.515625 
Q 49.21875 76.5625 53.125 75 
Q 50.78125 73.4375 49.21875 70.703125 
Q 47.65625 67.96875 45.703125 64.453125 
Q 42.578125 66.015625 39.453125 66.796875 
Q 42.578125 71.875 44.921875 78.515625 
z
M 38.28125 49.609375 
Q 41.796875 51.171875 44.140625 53.515625 
Q 48.828125 46.875 51.953125 41.40625 
Q 48.4375 39.84375 45.3125 37.5 
Q 42.1875 44.921875 38.28125 49.609375 
z
M 8.203125 61.71875 
Q 14.453125 61.328125 28.125 61.328125 
Q 28.125 72.65625 27.734375 80.859375 
L 35.546875 80.859375 
Q 35.15625 72.65625 35.15625 61.328125 
Q 48.046875 61.328125 53.90625 61.71875 
L 53.90625 54.6875 
Q 48.046875 55.078125 35.15625 55.078125 
Q 35.15625 46.09375 35.546875 39.453125 
L 27.734375 39.453125 
Q 28.125 45.3125 28.125 51.953125 
Q 26.171875 48.046875 21.671875 43.546875 
Q 17.1875 39.0625 11.71875 35.9375 
Q 10.15625 39.453125 6.640625 41.796875 
Q 10.15625 42.96875 15.421875 46.875 
Q 20.703125 50.78125 23.046875 55.078125 
Q 14.84375 55.078125 8.203125 54.6875 
z
M 26.953125 24.21875 
Q 25 20.3125 22.65625 16.40625 
Q 27.34375 15.234375 35.15625 13.28125 
Q 37.890625 16.796875 40.234375 24.21875 
z
M 24.21875 38.28125 
Q 28.515625 36.71875 32.8125 35.546875 
Q 31.25 33.984375 29.296875 30.46875 
L 44.53125 30.46875 
L 48.828125 30.46875 
Q 46.484375 20.3125 42.1875 11.328125 
Q 48.828125 9.375 52.734375 8.203125 
Q 49.609375 3.90625 48.046875 0.390625 
Q 44.53125 2.734375 37.5 5.46875 
Q 28.125 -3.90625 9.375 -10.15625 
Q 7.8125 -6.25 4.6875 -3.90625 
Q 21.484375 0 31.25 8.203125 
Q 20.3125 10.9375 13.28125 12.890625 
Q 15.625 16.015625 19.53125 24.21875 
Q 13.28125 24.21875 4.6875 23.828125 
L 4.6875 30.859375 
Q 12.109375 30.46875 21.875 30.46875 
Q 23.046875 33.59375 24.21875 38.28125 
z
M 63.671875 80.46875 
Q 68.359375 78.515625 73.4375 77.734375 
Q 71.484375 75.390625 70.5 72.265625 
Q 69.53125 69.140625 67.96875 63.28125 
L 85.546875 63.28125 
Q 89.0625 63.28125 94.53125 63.671875 
L 94.53125 56.640625 
Q 90.234375 57.03125 87.5 57.03125 
Q 87.109375 48.828125 85.546875 35.34375 
Q 83.984375 21.875 78.125 11.71875 
Q 82.03125 6.25 87.109375 2.734375 
Q 92.1875 -0.78125 96.09375 -2.34375 
Q 90.625 -5.859375 89.0625 -9.375 
Q 82.421875 -4.6875 79.296875 -1.359375 
Q 76.171875 1.953125 73.4375 5.859375 
Q 68.75 1.171875 64.640625 -1.953125 
Q 60.546875 -5.078125 51.5625 -10.15625 
Q 49.609375 -6.640625 45.3125 -3.90625 
Q 52.734375 -1.171875 58.984375 3.125 
Q 65.234375 7.421875 69.53125 12.109375 
Q 65.234375 20.703125 62.890625 29.09375 
Q 60.546875 37.5 60.15625 41.015625 
Q 59.375 38.28125 58.203125 34.765625 
Q 54.6875 36.328125 50.390625 37.890625 
Q 55.078125 46.484375 58.984375 58.59375 
Q 62.890625 70.703125 63.671875 80.46875 
z
M 66.40625 57.03125 
Q 64.84375 53.125 64.0625 50.578125 
Q 63.28125 48.046875 66.984375 36.71875 
Q 70.703125 25.390625 74.21875 19.140625 
Q 77.734375 28.515625 79.09375 38.671875 
Q 80.46875 48.828125 80.46875 57.03125 
z
" id="SimHei-25968"/>
     </defs>
     <g transform="translate(201.4 278.976562)scale(0.1 -0.1)">
      <use xlink:href="#SimHei-36845"/>
      <use x="100" xlink:href="#SimHei-20195"/>
      <use x="200" xlink:href="#SimHei-27425"/>
      <use x="300" xlink:href="#SimHei-25968"/>
     </g>
    </g>
   </g>
   <g id="matplotlib.axis_2">
    <g id="ytick_1">
     <g id="line2d_9">
      <defs>
       <path d="M 0 0 
L -3.5 0 
" id="m43e0aa945b" style="stroke:#000000;stroke-width:0.8;"/>
      </defs>
      <g>
       <use style="stroke:#000000;stroke-width:0.8;" x="54" xlink:href="#m43e0aa945b" y="207.865683"/>
      </g>
     </g>
     <g id="text_10">
      <!-- 0.4 -->
      <defs>
       <path d="M 17.1875 1.5625 
L 8.203125 1.5625 
L 8.203125 10.15625 
L 17.1875 10.15625 
z
" id="SimHei-46"/>
       <path d="M 46.484375 18.75 
L 38.28125 18.75 
L 38.28125 1.5625 
L 29.296875 1.5625 
L 29.296875 18.75 
L 3.125 18.75 
L 3.125 26.171875 
L 29.296875 69.140625 
L 38.28125 69.140625 
L 38.28125 26.171875 
L 46.484375 26.171875 
z
M 29.296875 26.171875 
L 29.296875 55.078125 
L 11.71875 26.171875 
z
" id="SimHei-52"/>
      </defs>
      <g transform="translate(32 211.283651)scale(0.1 -0.1)">
       <use xlink:href="#SimHei-48"/>
       <use x="50" xlink:href="#SimHei-46"/>
       <use x="100" xlink:href="#SimHei-52"/>
      </g>
     </g>
    </g>
    <g id="ytick_2">
     <g id="line2d_10">
      <g>
       <use style="stroke:#000000;stroke-width:0.8;" x="54" xlink:href="#m43e0aa945b" y="162.816849"/>
      </g>
     </g>
     <g id="text_11">
      <!-- 0.6 -->
      <defs>
       <path d="M 44.53125 24.21875 
Q 44.53125 13.28125 39.84375 7.03125 
Q 35.15625 0.78125 25.78125 0.78125 
Q 16.40625 0.78125 10.9375 8.59375 
Q 5.46875 16.40625 5.46875 33.984375 
Q 5.46875 50 11.125 59.5625 
Q 16.796875 69.140625 27.34375 69.140625 
Q 34.765625 69.140625 39.25 63.671875 
Q 43.75 58.203125 43.75 51.5625 
L 34.765625 51.5625 
Q 34.765625 55.46875 32.609375 58.59375 
Q 30.46875 61.71875 26.953125 61.71875 
Q 21.09375 61.71875 17.96875 55.65625 
Q 14.84375 49.609375 14.453125 37.109375 
Q 17.1875 42.1875 20.3125 44.140625 
Q 23.4375 46.09375 27.734375 46.09375 
Q 35.15625 46.09375 39.84375 40.234375 
Q 44.53125 34.375 44.53125 24.21875 
z
M 35.15625 24.21875 
Q 35.15625 31.25 32.8125 35.15625 
Q 30.46875 39.0625 26.171875 39.0625 
Q 21.09375 39.0625 18.15625 35.15625 
Q 15.234375 31.25 15.234375 25.78125 
Q 15.234375 17.1875 18.15625 12.5 
Q 21.09375 7.8125 26.171875 7.8125 
Q 29.6875 7.8125 32.421875 11.328125 
Q 35.15625 14.84375 35.15625 24.21875 
z
" id="SimHei-54"/>
      </defs>
      <g transform="translate(32 166.234818)scale(0.1 -0.1)">
       <use xlink:href="#SimHei-48"/>
       <use x="50" xlink:href="#SimHei-46"/>
       <use x="100" xlink:href="#SimHei-54"/>
      </g>
     </g>
    </g>
    <g id="ytick_3">
     <g id="line2d_11">
      <g>
       <use style="stroke:#000000;stroke-width:0.8;" x="54" xlink:href="#m43e0aa945b" y="117.768016"/>
      </g>
     </g>
     <g id="text_12">
      <!-- 0.8 -->
      <defs>
       <path d="M 44.921875 20.703125 
Q 44.921875 10.9375 39.453125 5.859375 
Q 33.984375 0.78125 24.609375 0.78125 
Q 15.234375 0.78125 9.765625 5.859375 
Q 4.296875 10.9375 4.296875 20.703125 
Q 4.296875 25.78125 7.421875 29.875 
Q 10.546875 33.984375 16.015625 35.9375 
Q 11.328125 37.890625 8.78125 41.40625 
Q 6.25 44.921875 6.25 50.390625 
Q 6.25 58.984375 11.71875 64.0625 
Q 17.1875 69.140625 24.609375 69.140625 
Q 32.03125 69.140625 37.5 64.0625 
Q 42.96875 58.984375 42.96875 50.390625 
Q 42.96875 44.921875 40.421875 41.40625 
Q 37.890625 37.890625 33.203125 35.9375 
Q 38.671875 33.984375 41.796875 29.875 
Q 44.921875 25.78125 44.921875 20.703125 
z
M 34.375 50.390625 
Q 34.375 56.640625 31.640625 59.375 
Q 28.90625 62.109375 24.609375 62.109375 
Q 20.3125 62.109375 17.578125 59.375 
Q 14.84375 56.640625 14.84375 50.390625 
Q 14.84375 44.140625 17.765625 41.59375 
Q 20.703125 39.0625 24.609375 39.0625 
Q 28.515625 39.0625 31.4375 41.59375 
Q 34.375 44.140625 34.375 50.390625 
z
M 35.9375 20.703125 
Q 35.9375 26.171875 33 29.296875 
Q 30.078125 32.421875 24.609375 32.421875 
Q 19.140625 32.421875 16.203125 29.296875 
Q 13.28125 26.171875 13.28125 20.703125 
Q 13.28125 14.453125 16.40625 11.125 
Q 19.53125 7.8125 24.609375 7.8125 
Q 29.6875 7.8125 32.8125 11.125 
Q 35.9375 14.453125 35.9375 20.703125 
z
" id="SimHei-56"/>
      </defs>
      <g transform="translate(32 121.185984)scale(0.1 -0.1)">
       <use xlink:href="#SimHei-48"/>
       <use x="50" xlink:href="#SimHei-46"/>
       <use x="100" xlink:href="#SimHei-56"/>
      </g>
     </g>
    </g>
    <g id="ytick_4">
     <g id="line2d_12">
      <g>
       <use style="stroke:#000000;stroke-width:0.8;" x="54" xlink:href="#m43e0aa945b" y="72.719182"/>
      </g>
     </g>
     <g id="text_13">
      <!-- 1.0 -->
      <g transform="translate(32 76.137151)scale(0.1 -0.1)">
       <use xlink:href="#SimHei-49"/>
       <use x="50" xlink:href="#SimHei-46"/>
       <use x="100" xlink:href="#SimHei-48"/>
      </g>
     </g>
    </g>
    <g id="text_14">
     <!-- 损失大小 -->
     <defs>
      <path d="M 6.640625 61.71875 
Q 11.328125 61.328125 19.53125 61.328125 
L 19.53125 69.140625 
Q 19.53125 74.609375 19.140625 79.296875 
L 26.953125 79.296875 
Q 26.5625 75 26.5625 69.140625 
L 26.5625 61.328125 
Q 30.859375 61.328125 36.71875 61.71875 
L 36.71875 54.6875 
Q 30.859375 55.078125 26.5625 55.078125 
L 26.5625 37.5 
Q 29.6875 38.28125 35.9375 41.40625 
Q 35.9375 38.28125 36.328125 34.375 
Q 32.03125 32.8125 26.5625 30.46875 
L 26.5625 2.34375 
Q 26.5625 -3.90625 23.234375 -5.265625 
Q 19.921875 -6.640625 11.328125 -7.8125 
Q 10.9375 -4.296875 8.59375 0.390625 
Q 13.671875 0 16.59375 0.1875 
Q 19.53125 0.390625 19.53125 5.078125 
L 19.53125 27.734375 
Q 12.109375 25 7.8125 22.265625 
Q 7.421875 26.953125 5.46875 31.25 
Q 10.9375 32.03125 19.53125 35.15625 
L 19.53125 55.078125 
Q 11.71875 55.078125 6.640625 54.6875 
z
M 45.3125 75.78125 
L 84.765625 75.78125 
Q 84.375 69.921875 84.375 64.453125 
Q 84.375 58.984375 84.765625 53.125 
L 45.3125 53.125 
Q 45.703125 58.984375 45.703125 64.453125 
Q 45.703125 69.921875 45.3125 75.78125 
z
M 52.34375 69.921875 
L 52.34375 58.984375 
L 78.125 58.984375 
L 78.125 69.921875 
z
M 41.40625 46.09375 
L 87.890625 46.09375 
Q 87.5 41.015625 87.5 35.15625 
L 87.5 25.78125 
Q 87.5 19.921875 87.890625 12.890625 
L 80.46875 12.890625 
L 80.46875 39.84375 
L 48.828125 39.84375 
L 48.828125 12.5 
L 41.40625 12.5 
Q 41.796875 18.75 41.796875 25.390625 
L 41.796875 34.765625 
Q 41.796875 39.0625 41.40625 46.09375 
z
M 60.546875 33.984375 
Q 64.84375 33.203125 69.53125 32.8125 
Q 67.96875 27.34375 66.984375 19.921875 
Q 66.015625 12.5 63.46875 7.8125 
Q 60.9375 3.125 55.65625 -1.359375 
Q 50.390625 -5.859375 37.890625 -10.15625 
Q 36.71875 -7.03125 32.421875 -3.125 
Q 42.96875 -1.171875 48.625 2.53125 
Q 54.296875 6.25 57.03125 11.125 
Q 59.765625 16.015625 60.15625 21.875 
Q 60.546875 27.734375 60.546875 33.984375 
z
M 67.1875 5.078125 
Q 69.921875 7.8125 71.484375 10.9375 
Q 76.171875 8.203125 82.609375 4.6875 
Q 89.0625 1.171875 94.140625 -2.34375 
Q 91.015625 -5.46875 89.0625 -8.59375 
Q 84.375 -5.078125 79.484375 -1.75 
Q 74.609375 1.5625 67.1875 5.078125 
z
" id="SimHei-25439"/>
      <path d="M 23.828125 76.171875 
Q 28.90625 73.4375 33.203125 72.65625 
Q 30.859375 70.3125 27.34375 62.109375 
L 46.875 62.109375 
Q 46.875 75 46.484375 80.859375 
Q 50.390625 80.46875 56.25 79.6875 
Q 54.6875 75.78125 54.6875 72.0625 
Q 54.6875 68.359375 54.6875 62.109375 
L 73.046875 62.109375 
Q 78.125 62.109375 84.765625 62.5 
L 84.765625 54.6875 
Q 78.515625 55.078125 73.046875 55.078125 
L 54.6875 55.078125 
Q 54.6875 46.09375 53.90625 37.890625 
L 78.90625 37.890625 
Q 84.765625 37.890625 91.796875 38.28125 
L 91.796875 30.46875 
Q 84.765625 30.859375 78.90625 30.859375 
L 55.078125 30.859375 
Q 60.15625 19.53125 69.921875 12.109375 
Q 79.6875 4.6875 92.96875 1.953125 
Q 88.28125 -2.34375 87.890625 -6.640625 
Q 76.5625 -3.515625 66.40625 4.875 
Q 56.25 13.28125 50.78125 26.171875 
Q 45.703125 12.890625 36.90625 4.484375 
Q 28.125 -3.90625 15.625 -9.765625 
Q 13.671875 -5.46875 8.59375 -2.734375 
Q 20.703125 0.78125 30.65625 9.5625 
Q 40.625 18.359375 44.53125 30.859375 
L 22.265625 30.859375 
Q 16.015625 30.859375 8.59375 30.46875 
L 8.59375 38.28125 
Q 16.015625 37.890625 22.265625 37.890625 
L 45.703125 37.890625 
Q 46.484375 46.484375 46.875 55.078125 
L 24.609375 55.078125 
Q 21.875 49.609375 18.359375 43.75 
Q 14.453125 45.703125 10.15625 46.484375 
Q 15.625 53.515625 19.140625 61.515625 
Q 22.65625 69.53125 23.828125 76.171875 
z
" id="SimHei-22833"/>
      <path d="M 10.546875 54.296875 
Q 16.40625 53.90625 25 53.515625 
L 45.703125 53.515625 
Q 45.703125 66.015625 45.5 70.703125 
Q 45.3125 75.390625 44.921875 79.6875 
Q 49.609375 78.90625 55.078125 78.515625 
Q 53.90625 74.609375 53.515625 67.375 
Q 53.125 60.15625 53.125 53.515625 
L 75 53.515625 
Q 82.03125 53.90625 90.234375 54.296875 
L 90.234375 46.09375 
Q 82.03125 46.484375 75 46.484375 
L 53.515625 46.484375 
Q 54.296875 37.890625 57.03125 31.640625 
Q 59.765625 25.390625 65.03125 19.71875 
Q 70.3125 14.0625 77.140625 9.171875 
Q 83.984375 4.296875 92.1875 1.171875 
Q 87.890625 -2.34375 85.15625 -7.8125 
Q 79.296875 -4.296875 74.015625 -0.1875 
Q 68.75 3.90625 64.453125 8.59375 
Q 60.15625 13.28125 56.4375 19.140625 
Q 52.734375 25 50 31.640625 
Q 46.875 24.21875 43.75 18.9375 
Q 40.625 13.671875 36.328125 9.171875 
Q 32.03125 4.6875 26.359375 0.390625 
Q 20.703125 -3.90625 12.5 -8.59375 
Q 9.765625 -4.296875 5.859375 -0.390625 
Q 14.84375 2.734375 21.875 7.421875 
Q 28.90625 12.109375 33.984375 18.359375 
Q 39.0625 24.609375 41.984375 31.828125 
Q 44.921875 39.0625 45.3125 46.484375 
L 25 46.484375 
Q 16.40625 46.484375 10.546875 46.09375 
z
" id="SimHei-22823"/>
      <path d="M 21.484375 54.6875 
Q 26.171875 52.734375 31.25 51.953125 
Q 26.953125 42.96875 22.453125 31.640625 
Q 17.96875 20.3125 14.453125 12.890625 
Q 10.546875 15.625 6.25 16.796875 
Q 13.28125 28.125 16.984375 38.671875 
Q 20.703125 49.21875 21.484375 54.6875 
z
M 66.796875 50.78125 
Q 70.703125 52.34375 74.21875 55.078125 
Q 79.296875 46.875 84.765625 36.90625 
Q 90.234375 26.953125 94.140625 17.96875 
Q 89.453125 16.796875 85.15625 14.0625 
Q 81.25 24.609375 76.5625 33.78125 
Q 71.875 42.96875 66.796875 50.78125 
z
M 45.3125 77.734375 
L 54.6875 77.734375 
Q 53.90625 72.65625 53.90625 63.671875 
L 53.90625 2.734375 
Q 53.90625 -4.296875 50 -6.25 
Q 46.09375 -8.203125 37.5 -8.984375 
Q 36.328125 -3.515625 33.984375 0.390625 
Q 41.796875 0 43.75 0.390625 
Q 45.703125 0.78125 45.703125 5.078125 
L 45.703125 63.671875 
Q 45.703125 70.3125 45.3125 77.734375 
z
" id="SimHei-23567"/>
     </defs>
     <g transform="translate(26.710938 163.28)rotate(-90)scale(0.1 -0.1)">
      <use xlink:href="#SimHei-25439"/>
      <use x="100" xlink:href="#SimHei-22833"/>
      <use x="200" xlink:href="#SimHei-22823"/>
      <use x="300" xlink:href="#SimHei-23567"/>
     </g>
    </g>
   </g>
   <g id="line2d_13">
    <path clip-path="url(#pc4ea514461)" d="M 69.218182 46.746751 
L 70.090284 55.175706 
L 70.962386 58.102678 
L 71.834488 59.517694 
L 72.70659 60.5159 
L 74.450794 64.763769 
L 75.322897 68.257762 
L 76.194999 70.150227 
L 77.067101 71.594614 
L 77.939203 70.686783 
L 78.811305 69.147416 
L 80.555509 76.337545 
L 81.427611 78.515688 
L 82.299713 80.267535 
L 83.171816 83.382218 
L 84.043918 85.398771 
L 84.91602 86.807973 
L 85.788122 92.253447 
L 86.660224 101.71006 
L 87.532326 105.036533 
L 88.404428 105.084739 
L 89.27653 107.12363 
L 90.148632 108.313081 
L 91.020735 114.51271 
L 91.892837 118.951818 
L 92.764939 114.357484 
L 93.637041 107.914004 
L 94.509143 106.87436 
L 95.381245 111.161124 
L 96.253347 117.299175 
L 97.125449 124.500754 
L 97.997551 129.550328 
L 99.741756 138.501228 
L 100.613858 136.204404 
L 101.48596 132.115232 
L 102.358062 130.520265 
L 103.230164 128.015002 
L 104.102266 129.379836 
L 105.84647 138.183981 
L 106.718573 139.601618 
L 108.462777 138.245191 
L 109.334879 139.039722 
L 110.206981 141.369692 
L 111.079083 145.213622 
L 112.823287 150.885027 
L 113.695389 152.838176 
L 115.439594 158.622563 
L 116.311696 159.934417 
L 117.183798 162.253565 
L 118.0559 161.859111 
L 118.928002 162.090764 
L 119.800104 161.345653 
L 120.672206 161.243393 
L 121.544308 159.147138 
L 122.416411 158.968595 
L 123.288513 160.221568 
L 124.160615 162.061382 
L 125.032717 165.208458 
L 125.904819 166.100565 
L 126.776921 170.511666 
L 127.649023 172.432067 
L 128.521125 174.775763 
L 129.393227 176.554659 
L 130.26533 179.439682 
L 131.137432 177.956058 
L 132.009534 180.063924 
L 132.881636 181.221436 
L 134.62584 179.601759 
L 135.497942 179.835839 
L 136.370044 182.412774 
L 137.242146 181.344754 
L 138.114249 185.969837 
L 138.986351 186.310669 
L 139.858453 187.935826 
L 141.602657 193.051826 
L 142.474759 192.403295 
L 144.218963 197.303116 
L 145.091065 195.654668 
L 145.963167 194.486138 
L 146.83527 194.473563 
L 147.707372 195.971789 
L 148.579474 192.840918 
L 149.451576 193.813431 
L 150.323678 196.847814 
L 151.19578 195.778584 
L 152.067882 196.752191 
L 152.939984 199.998419 
L 153.812086 196.044712 
L 154.684189 199.33719 
L 156.428393 201.01154 
L 157.300495 201.110472 
L 158.172597 196.316498 
L 159.044699 201.732931 
L 159.916801 202.800864 
L 160.788903 203.06811 
L 161.661005 205.694639 
L 162.533108 205.146115 
L 163.40521 203.923113 
L 164.277312 204.046469 
L 165.149414 205.122247 
L 166.021516 205.208653 
L 166.893618 203.188766 
L 167.76572 202.347487 
L 168.637822 203.814209 
L 169.509924 203.193048 
L 170.382027 202.091475 
L 171.254129 201.779262 
L 172.126231 206.511716 
L 172.998333 205.550052 
L 173.870435 206.128332 
L 174.742537 209.854434 
L 175.614639 205.920195 
L 176.486741 209.206529 
L 177.358843 207.971284 
L 178.230946 203.673525 
L 179.103048 204.586441 
L 179.97515 196.587593 
L 180.847252 202.106958 
L 181.719354 204.10549 
L 182.591456 206.502913 
L 183.463558 198.565806 
L 184.33566 209.792853 
L 185.207762 211.227097 
L 186.079865 211.112372 
L 186.951967 210.854241 
L 187.824069 209.949032 
L 188.696171 207.368826 
L 189.568273 204.103247 
L 190.440375 202.016818 
L 191.312477 199.606188 
L 192.184579 202.788898 
L 193.056681 200.482359 
L 193.928784 199.429606 
L 194.800886 202.608262 
L 195.672988 205.101304 
L 196.54509 205.695743 
L 197.417192 201.493573 
L 198.289294 207.047905 
L 199.161396 203.73522 
L 200.033498 203.593275 
L 200.9056 209.741387 
L 201.777703 206.351137 
L 202.649805 209.143681 
L 203.521907 207.430652 
L 204.394009 208.663622 
L 205.266111 206.873992 
L 206.138213 208.147359 
L 207.010315 205.610538 
L 207.882417 203.722198 
L 208.754519 202.189944 
L 209.626622 208.569188 
L 210.498724 205.28802 
L 211.370826 208.37014 
L 212.242928 210.108272 
L 213.11503 214.65588 
L 213.987132 202.716959 
L 214.859234 217.8943 
L 215.731336 193.528501 
L 216.603438 214.439506 
L 217.475541 212.705771 
L 218.347643 209.772968 
L 219.219745 205.511994 
L 220.091847 203.133088 
L 220.963949 207.981884 
L 221.836051 208.127472 
L 222.708153 203.620868 
L 223.580255 202.590306 
L 224.452357 197.805699 
L 225.324459 196.985669 
L 226.196562 201.791181 
L 227.068664 201.25454 
L 227.940766 197.226241 
L 228.812868 203.152721 
L 229.68497 198.429713 
L 230.557072 205.642472 
L 231.429174 205.696255 
L 232.301276 208.293162 
L 233.173378 203.756191 
L 234.045481 215.043564 
L 234.917583 212.867974 
L 235.789685 214.798148 
L 236.661787 216.0711 
L 237.533889 215.960955 
L 238.405991 213.071911 
L 239.278093 214.248996 
L 240.150195 216.359288 
L 241.022297 214.321488 
L 241.8944 211.895707 
L 242.766502 210.263607 
L 243.638604 204.021201 
L 244.510706 209.403315 
L 245.382808 202.583929 
L 246.25491 208.51514 
L 247.127012 202.292898 
L 247.999114 192.553191 
L 248.871216 203.757777 
L 249.743319 198.604236 
L 250.615421 207.126522 
L 251.487523 200.141599 
L 252.359625 199.686102 
L 253.231727 206.749289 
L 254.975931 199.16521 
L 255.848033 206.265552 
L 256.720135 212.26561 
L 257.592238 219.308482 
L 258.46434 205.989077 
L 259.336442 220.812479 
L 260.208544 211.010338 
L 261.080646 209.125658 
L 261.952748 215.954266 
L 262.82485 212.641998 
L 263.696952 207.325978 
L 264.569054 216.800255 
L 265.441157 209.339503 
L 266.313259 211.647985 
L 267.185361 207.516394 
L 268.057463 205.639515 
L 268.929565 202.780428 
L 269.801667 207.912212 
L 270.673769 205.014706 
L 271.545871 202.737103 
L 272.417973 200.922651 
L 273.290076 208.001519 
L 274.162178 206.68258 
L 275.03428 203.788634 
L 275.906382 209.169759 
L 276.778484 208.946822 
L 277.650586 207.758052 
L 279.39479 207.549858 
L 280.266892 211.780605 
L 281.138995 210.778536 
L 282.011097 207.812304 
L 282.883199 213.879562 
L 283.755301 210.887228 
L 284.627403 215.704812 
L 285.499505 215.962715 
L 286.371607 208.168826 
L 287.243709 216.510361 
L 288.115811 212.004761 
L 288.987914 215.942525 
L 289.860016 213.897094 
L 290.732118 204.782352 
L 291.60422 213.000113 
L 292.476322 213.160257 
L 293.348424 208.294856 
L 294.220526 210.006908 
L 295.092628 207.245641 
L 295.96473 206.064718 
L 296.836833 206.847653 
L 297.708935 204.140658 
L 298.581037 209.062226 
L 299.453139 206.201481 
L 300.325241 198.589759 
L 301.197343 207.234109 
L 302.069445 199.422134 
L 302.941547 202.759083 
L 303.813649 202.209804 
L 304.685751 202.458279 
L 305.557854 207.17556 
L 306.429956 192.928185 
L 307.302058 198.444346 
L 308.17416 190.988088 
L 309.046262 210.186844 
L 309.918364 207.3634 
L 310.790466 212.281538 
L 311.662568 209.143716 
L 313.406773 213.207122 
L 314.278875 212.37256 
L 315.150977 216.538973 
L 316.023079 216.590563 
L 316.895181 206.237974 
L 318.639385 216.134129 
L 319.511487 208.255005 
L 320.383589 211.574303 
L 321.255692 215.940745 
L 322.127794 214.576595 
L 322.999896 214.535249 
L 323.871998 213.906101 
L 325.616202 203.914025 
L 326.488304 205.197911 
L 327.360406 207.718161 
L 328.232508 199.33174 
L 329.104611 205.816109 
L 329.976713 204.042825 
L 330.848815 204.909658 
L 331.720917 202.717878 
L 332.593019 199.515097 
L 334.337223 207.553096 
L 335.209325 207.128813 
L 336.081427 211.380174 
L 336.95353 209.828177 
L 337.825632 208.52317 
L 338.697734 210.798739 
L 339.569836 208.454583 
L 340.441938 209.117487 
L 341.31404 206.927123 
L 342.186142 201.689898 
L 343.058244 208.30434 
L 343.930346 206.916887 
L 344.802449 207.896708 
L 345.674551 198.702121 
L 346.546653 207.012524 
L 347.418755 211.738941 
L 348.290857 206.00801 
L 349.162959 212.650527 
L 350.035061 209.239309 
L 350.907163 210.222131 
L 351.779265 207.080623 
L 352.651368 215.810812 
L 353.52347 214.814399 
L 354.395572 215.875771 
L 355.267674 202.403307 
L 356.139776 208.594517 
L 357.011878 209.531119 
L 357.88398 201.115739 
L 358.756082 203.565953 
L 359.628184 201.420162 
L 360.500287 191.046946 
L 361.372389 204.09068 
L 362.244491 209.643435 
L 363.116593 210.788571 
L 363.988695 206.962664 
L 365.732899 210.809114 
L 366.605001 204.57658 
L 367.477103 213.426246 
L 368.349206 210.878287 
L 369.221308 206.006018 
L 370.09341 202.537206 
L 370.965512 200.494218 
L 371.837614 194.320302 
L 372.709716 203.215508 
L 373.581818 199.879657 
L 373.581818 199.879657 
" style="fill:none;stroke:#ff0000;stroke-linecap:square;stroke-width:1.5;"/>
   </g>
   <g id="line2d_14">
    <path clip-path="url(#pc4ea514461)" d="M 69.218182 44.443636 
L 70.090284 53.908764 
L 70.962386 60.611749 
L 71.834488 64.549813 
L 72.70659 66.403982 
L 73.578692 66.504815 
L 74.450794 67.540419 
L 75.322897 69.341745 
L 76.194999 69.828161 
L 77.067101 69.108824 
L 77.939203 68.055371 
L 78.811305 71.079386 
L 79.683407 80.041718 
L 80.555509 83.870088 
L 81.427611 85.699373 
L 83.171816 89.786192 
L 84.043918 90.528762 
L 84.91602 91.988689 
L 85.788122 97.045622 
L 86.660224 106.601184 
L 87.532326 110.303219 
L 88.404428 111.615303 
L 89.27653 114.020271 
L 90.148632 114.51836 
L 91.020735 120.832668 
L 91.892837 119.907087 
L 92.764939 110.46101 
L 93.637041 107.333295 
L 94.509143 109.924584 
L 96.253347 127.008732 
L 97.125449 131.615269 
L 97.997551 137.327318 
L 98.869654 140.775589 
L 99.741756 143.447337 
L 100.613858 140.310573 
L 101.48596 137.774618 
L 102.358062 136.630684 
L 103.230164 137.366031 
L 104.102266 141.085485 
L 104.974368 145.734186 
L 105.84647 149.599067 
L 107.590675 145.958152 
L 108.462777 143.716003 
L 109.334879 144.526231 
L 111.079083 149.122216 
L 115.439594 166.665493 
L 117.183798 172.083521 
L 118.0559 172.890466 
L 118.928002 173.164664 
L 119.800104 173.222025 
L 120.672206 173.10729 
L 121.544308 172.799454 
L 122.416411 174.219091 
L 125.032717 181.271772 
L 125.904819 184.293781 
L 127.649023 187.172518 
L 128.521125 187.732724 
L 129.393227 188.112004 
L 130.26533 189.4714 
L 131.137432 188.18415 
L 132.009534 188.114511 
L 132.881636 186.4264 
L 133.753738 186.616557 
L 134.62584 184.835624 
L 135.497942 187.837531 
L 136.370044 186.906865 
L 137.242146 187.315024 
L 138.114249 189.219542 
L 139.858453 195.537975 
L 140.730555 199.126859 
L 141.602657 201.819805 
L 142.474759 203.987815 
L 143.346861 205.403568 
L 144.218963 206.443652 
L 145.091065 207.143878 
L 145.963167 206.930813 
L 146.83527 207.220793 
L 147.707372 207.903169 
L 148.579474 209.415485 
L 149.451576 210.352337 
L 150.323678 211.044447 
L 151.19578 212.68624 
L 152.939984 214.550737 
L 154.684189 214.933792 
L 155.556291 214.060669 
L 156.428393 213.774995 
L 157.300495 213.902525 
L 158.172597 214.221564 
L 159.044699 214.136409 
L 159.916801 216.052803 
L 160.788903 216.660754 
L 161.661005 217.007836 
L 162.533108 218.276156 
L 164.277312 218.954132 
L 165.149414 219.224728 
L 166.893618 216.647003 
L 167.76572 216.179748 
L 168.637822 214.702073 
L 169.509924 214.383756 
L 171.254129 215.206856 
L 172.126231 216.110781 
L 172.998333 218.017136 
L 173.870435 220.217276 
L 174.742537 221.091363 
L 175.614639 220.632885 
L 176.486741 221.210656 
L 177.358843 219.248656 
L 178.230946 218.437703 
L 179.103048 218.544849 
L 179.97515 219.964603 
L 180.847252 219.580046 
L 181.719354 222.729769 
L 182.591456 225.277481 
L 184.33566 228.838272 
L 185.207762 229.945869 
L 186.951967 229.549382 
L 187.824069 227.515968 
L 188.696171 226.825245 
L 189.568273 225.621925 
L 190.440375 224.634308 
L 191.312477 225.135422 
L 192.184579 224.703087 
L 193.056681 224.455741 
L 193.928784 224.883628 
L 194.800886 225.081296 
L 195.672988 225.095836 
L 196.54509 225.561422 
L 197.417192 224.535314 
L 198.289294 224.188064 
L 200.033498 221.168241 
L 200.9056 221.854957 
L 201.777703 221.783999 
L 202.649805 223.319019 
L 203.521907 221.677749 
L 204.394009 221.265194 
L 205.266111 221.021009 
L 206.138213 218.965728 
L 207.010315 216.564143 
L 207.882417 217.118104 
L 208.754519 217.22141 
L 209.626622 218.087432 
L 210.498724 220.28485 
L 211.370826 223.41281 
L 213.11503 230.229674 
L 213.987132 232.137623 
L 214.859234 234.685842 
L 215.731336 235.312656 
L 216.603438 235.671314 
L 217.475541 237.267652 
L 218.347643 236.556694 
L 219.219745 236.192417 
L 220.091847 235.706872 
L 220.963949 235.629719 
L 221.836051 233.640874 
L 222.708153 233.488923 
L 223.580255 232.029738 
L 224.452357 231.606073 
L 225.324459 231.490059 
L 226.196562 231.601395 
L 227.068664 231.187163 
L 227.940766 231.851956 
L 228.812868 233.124678 
L 229.68497 234.047136 
L 230.557072 234.511759 
L 231.429174 235.856017 
L 232.301276 237.566589 
L 233.173378 237.614034 
L 234.045481 238.374213 
L 234.917583 237.504865 
L 235.789685 239.073502 
L 236.661787 239.115945 
L 237.533889 237.324153 
L 238.405991 234.627112 
L 239.278093 232.602223 
L 240.150195 231.25293 
L 241.022297 228.717616 
L 241.8944 225.22688 
L 242.766502 222.642916 
L 244.510706 218.727264 
L 245.382808 216.974487 
L 246.25491 216.334901 
L 247.127012 215.843058 
L 247.999114 216.588397 
L 248.871216 215.767096 
L 249.743319 218.607476 
L 250.615421 219.140365 
L 251.487523 222.36862 
L 252.359625 221.610336 
L 253.231727 224.063095 
L 254.103829 225.248274 
L 254.975931 227.284742 
L 255.848033 227.767242 
L 256.720135 230.304881 
L 257.592238 231.707628 
L 258.46434 232.490481 
L 259.336442 233.520735 
L 262.82485 233.781638 
L 263.696952 233.229708 
L 264.569054 233.54785 
L 265.441157 233.202026 
L 266.313259 232.627963 
L 267.185361 232.406435 
L 268.057463 233.057545 
L 270.673769 233.224851 
L 271.545871 233.065993 
L 272.417973 233.302062 
L 273.290076 233.328823 
L 274.162178 232.970973 
L 275.03428 233.616136 
L 275.906382 234.493972 
L 276.778484 233.599768 
L 277.650586 233.575506 
L 278.522688 234.199389 
L 279.39479 234.429379 
L 280.266892 235.248859 
L 281.138995 235.648132 
L 282.011097 236.268143 
L 282.883199 237.35807 
L 283.755301 240.034522 
L 284.627403 239.936751 
L 285.499505 241.105421 
L 286.371607 241.699294 
L 287.243709 242.116364 
L 288.115811 241.766102 
L 288.987914 241.688161 
L 289.860016 240.452882 
L 290.732118 240.395863 
L 291.60422 238.477241 
L 292.476322 237.361587 
L 293.348424 235.796464 
L 294.220526 235.612171 
L 295.092628 232.433181 
L 295.96473 232.829568 
L 296.836833 231.732381 
L 297.708935 230.832537 
L 298.581037 231.220973 
L 299.453139 229.466877 
L 300.325241 229.458659 
L 301.197343 227.993829 
L 302.069445 228.14322 
L 302.941547 227.634167 
L 303.813649 227.859868 
L 304.685751 227.253175 
L 306.429956 230.2256 
L 307.302058 232.505216 
L 308.17416 235.582363 
L 309.046262 237.159357 
L 309.918364 234.371784 
L 310.790466 234.414927 
L 311.662568 236.458622 
L 312.53467 235.558657 
L 313.406773 235.09788 
L 314.278875 235.965031 
L 315.150977 236.550929 
L 316.023079 236.621946 
L 316.895181 236.831239 
L 317.767283 237.700988 
L 318.639385 237.958244 
L 319.511487 239.00876 
L 320.383589 238.189898 
L 321.255692 238.342122 
L 322.127794 237.340729 
L 322.999896 237.21211 
L 323.871998 235.293354 
L 324.7441 234.020875 
L 326.488304 230.346168 
L 327.360406 229.368691 
L 328.232508 227.989573 
L 329.104611 226.228564 
L 330.848815 226.013962 
L 331.720917 226.343398 
L 332.593019 227.692088 
L 334.337223 230.000238 
L 336.081427 232.643312 
L 336.95353 234.351014 
L 338.697734 235.225524 
L 340.441938 234.795892 
L 341.31404 233.694804 
L 342.186142 232.962861 
L 343.058244 231.864889 
L 343.930346 231.040513 
L 344.802449 230.824819 
L 345.674551 230.25692 
L 346.546653 231.583183 
L 347.418755 229.611268 
L 348.290857 228.272658 
L 349.162959 231.978436 
L 350.035061 232.892977 
L 350.907163 230.467328 
L 351.779265 232.184406 
L 352.651368 228.395152 
L 353.52347 230.048268 
L 354.395572 228.985527 
L 355.267674 228.741823 
L 356.139776 227.175307 
L 357.88398 226.755358 
L 358.756082 225.563342 
L 359.628184 225.260645 
L 360.500287 232.270922 
L 361.372389 233.662798 
L 362.244491 232.665048 
L 363.116593 233.919737 
L 363.988695 235.796595 
L 365.732899 233.459215 
L 367.477103 228.984685 
L 368.349206 227.510739 
L 369.221308 225.088325 
L 370.965512 224.180039 
L 371.837614 223.449279 
L 372.709716 226.350109 
L 373.581818 228.318106 
L 373.581818 228.318106 
" style="fill:none;stroke:#008000;stroke-linecap:square;stroke-width:1.5;"/>
   </g>
   <g id="patch_3">
    <path d="M 54 252 
L 54 34.56 
" style="fill:none;stroke:#000000;stroke-linecap:square;stroke-linejoin:miter;stroke-width:0.8;"/>
   </g>
   <g id="patch_4">
    <path d="M 388.8 252 
L 388.8 34.56 
" style="fill:none;stroke:#000000;stroke-linecap:square;stroke-linejoin:miter;stroke-width:0.8;"/>
   </g>
   <g id="patch_5">
    <path d="M 54 252 
L 388.8 252 
" style="fill:none;stroke:#000000;stroke-linecap:square;stroke-linejoin:miter;stroke-width:0.8;"/>
   </g>
   <g id="patch_6">
    <path d="M 54 34.56 
L 388.8 34.56 
" style="fill:none;stroke:#000000;stroke-linecap:square;stroke-linejoin:miter;stroke-width:0.8;"/>
   </g>
   <g id="text_15">
    <!-- 损失变化 -->
    <defs>
     <path d="M 44.140625 79.296875 
Q 48.828125 80.078125 53.515625 80.859375 
Q 54.6875 73.046875 55.078125 69.921875 
L 72.265625 69.921875 
Q 83.203125 69.921875 91.796875 70.3125 
L 91.796875 62.890625 
Q 82.8125 63.28125 72.265625 63.28125 
L 62.890625 63.28125 
L 62.890625 46.484375 
Q 62.890625 38.671875 63.28125 33.984375 
L 55.078125 33.984375 
Q 55.46875 38.671875 55.46875 46.484375 
L 55.46875 63.28125 
L 43.359375 63.28125 
L 43.359375 46.484375 
Q 43.359375 39.0625 43.75 33.984375 
L 35.546875 33.984375 
Q 35.9375 39.0625 35.9375 46.484375 
L 35.9375 63.28125 
L 27.734375 63.28125 
Q 16.796875 63.28125 8.59375 62.890625 
L 8.59375 70.3125 
Q 16.40625 69.921875 27.734375 69.921875 
L 46.484375 69.921875 
Q 45.703125 74.609375 44.140625 79.296875 
z
M 21.484375 57.8125 
Q 25 55.078125 29.6875 52.734375 
Q 27.34375 50.78125 23.234375 45.3125 
Q 19.140625 39.84375 14.453125 33.984375 
Q 10.546875 36.71875 7.421875 38.671875 
Q 16.015625 46.875 21.484375 57.8125 
z
M 69.53125 51.953125 
Q 73.046875 54.6875 75.78125 57.421875 
Q 83.59375 50 92.1875 40.625 
Q 88.671875 38.28125 85.15625 35.15625 
Q 78.90625 42.96875 69.53125 51.953125 
z
M 17.578125 28.515625 
Q 24.609375 28.125 33.984375 28.125 
L 79.6875 28.125 
Q 74.609375 20.3125 69.53125 14.0625 
Q 64.453125 7.8125 58.59375 3.515625 
Q 67.578125 0.78125 74.40625 -0.1875 
Q 81.25 -1.171875 92.1875 -0.78125 
Q 89.0625 -4.296875 87.890625 -9.765625 
Q 75 -8.203125 66.015625 -5.859375 
Q 57.03125 -3.515625 51.171875 -1.171875 
Q 41.40625 -5.078125 32.8125 -6.828125 
Q 24.21875 -8.59375 12.109375 -10.15625 
Q 10.546875 -5.859375 7.8125 -1.953125 
Q 17.96875 -1.953125 26.359375 -0.78125 
Q 34.765625 0.390625 44.140625 3.125 
Q 36.328125 7.421875 27.34375 21.484375 
L 35.9375 21.484375 
Q 42.1875 11.71875 51.5625 7.03125 
Q 59.375 11.71875 66.40625 21.484375 
L 33.59375 21.484375 
Q 23.828125 21.484375 17.578125 21.09375 
z
" id="SimHei-21464"/>
     <path d="M 52.34375 79.296875 
L 60.9375 79.296875 
Q 60.15625 74.21875 60.15625 66.40625 
L 60.15625 37.890625 
Q 66.796875 43.75 71.875 50.96875 
Q 76.953125 58.203125 80.46875 65.234375 
Q 83.59375 62.890625 89.84375 60.15625 
Q 87.109375 57.8125 83.984375 53.90625 
Q 80.859375 50 77.34375 45.5 
Q 73.828125 41.015625 69.53125 36.515625 
Q 65.234375 32.03125 60.15625 28.125 
L 60.15625 6.25 
Q 60.15625 0.78125 65.234375 0.78125 
L 79.296875 0.78125 
Q 82.8125 1.171875 83.390625 4.09375 
Q 83.984375 7.03125 84.375 12.890625 
Q 88.28125 9.765625 93.75 8.984375 
Q 91.40625 -1.5625 88.859375 -3.90625 
Q 86.328125 -6.25 81.640625 -6.25 
L 60.9375 -6.25 
Q 52.734375 -6.25 52.734375 0.78125 
L 52.734375 23.4375 
Q 49.21875 21.09375 46.09375 19.140625 
Q 42.96875 17.1875 38.28125 14.0625 
Q 35.9375 18.359375 33.59375 21.09375 
Q 38.28125 23.046875 43.546875 25.96875 
Q 48.828125 28.90625 52.734375 32.421875 
L 52.734375 67.578125 
Q 52.734375 74.609375 52.34375 79.296875 
z
M 28.515625 80.859375 
Q 32.03125 78.515625 38.28125 76.5625 
Q 35.15625 72.265625 33.59375 68.15625 
Q 32.03125 64.0625 29.6875 58.59375 
L 29.6875 10.15625 
Q 29.6875 -1.953125 30.078125 -8.203125 
L 21.484375 -8.203125 
Q 22.265625 -2.34375 22.265625 9.765625 
L 22.265625 46.875 
Q 19.53125 42.1875 17.1875 39.0625 
Q 14.84375 35.9375 12.890625 33.59375 
Q 10.15625 36.71875 6.640625 39.453125 
Q 11.71875 44.53125 15.421875 50 
Q 19.140625 55.46875 21.484375 60.734375 
Q 23.828125 66.015625 25.578125 71.09375 
Q 27.34375 76.171875 28.515625 80.859375 
z
" id="SimHei-21270"/>
    </defs>
    <g transform="translate(197.4 28.56)scale(0.12 -0.12)">
     <use xlink:href="#SimHei-25439"/>
     <use x="100" xlink:href="#SimHei-22833"/>
     <use x="200" xlink:href="#SimHei-21464"/>
     <use x="300" xlink:href="#SimHei-21270"/>
    </g>
   </g>
   <g id="legend_1">
    <g id="patch_7">
     <path d="M 309.8 70.763125 
L 381.8 70.763125 
Q 383.8 70.763125 383.8 68.763125 
L 383.8 41.56 
Q 383.8 39.56 381.8 39.56 
L 309.8 39.56 
Q 307.8 39.56 307.8 41.56 
L 307.8 68.763125 
Q 307.8 70.763125 309.8 70.763125 
z
" style="fill:#ffffff;opacity:0.8;stroke:#cccccc;stroke-linejoin:miter;"/>
    </g>
    <g id="line2d_15">
     <path d="M 311.8 47.8725 
L 331.8 47.8725 
" style="fill:none;stroke:#ff0000;stroke-linecap:square;stroke-width:1.5;"/>
    </g>
    <g id="line2d_16"/>
    <g id="text_16">
     <!-- 训练损失 -->
     <defs>
      <path d="M 42.1875 77.34375 
Q 47.265625 76.953125 51.5625 76.5625 
Q 50.390625 71.875 50.1875 65.8125 
Q 50 59.765625 50 47.265625 
Q 50 34.765625 49.21875 26.5625 
Q 48.4375 18.359375 47.0625 12.109375 
Q 45.703125 5.859375 43.359375 0.96875 
Q 41.015625 -3.90625 37.890625 -8.59375 
Q 33.984375 -6.25 29.296875 -4.296875 
Q 33.984375 0 36.71875 5.46875 
Q 39.453125 10.9375 41.015625 19.140625 
Q 42.578125 27.34375 42.765625 38.859375 
Q 42.96875 50.390625 42.765625 58.390625 
Q 42.578125 66.40625 42.1875 77.34375 
z
M 59.765625 72.265625 
L 67.578125 72.265625 
Q 67.1875 65.234375 67.1875 57.8125 
L 67.1875 18.359375 
Q 67.1875 7.421875 67.578125 0.390625 
L 59.765625 0.390625 
Q 60.15625 7.421875 60.15625 18.359375 
L 60.15625 57.8125 
Q 60.15625 66.796875 59.765625 72.265625 
z
M 79.296875 76.953125 
L 87.109375 76.953125 
Q 86.71875 70.3125 86.71875 61.71875 
L 86.71875 14.84375 
Q 86.71875 3.90625 87.109375 -7.8125 
L 79.296875 -7.8125 
Q 79.6875 3.90625 79.6875 14.84375 
L 79.6875 61.71875 
Q 79.6875 70.3125 79.296875 76.953125 
z
M 13.28125 75 
Q 16.015625 76.953125 19.921875 79.296875 
Q 26.5625 69.140625 29.6875 64.0625 
Q 25.78125 62.109375 23.046875 59.765625 
Q 17.1875 70.3125 13.28125 75 
z
M 5.46875 51.5625 
Q 10.15625 51.171875 15.234375 51.171875 
L 25.390625 51.171875 
Q 25 42.1875 25 34.765625 
L 25 11.71875 
Q 30.078125 18.359375 31.640625 20.703125 
Q 33.59375 18.359375 36.328125 14.84375 
Q 31.25 9.375 27.734375 5.078125 
Q 24.21875 0.78125 20.703125 -4.296875 
Q 17.96875 -1.171875 14.84375 1.171875 
Q 17.96875 5.078125 17.96875 10.9375 
L 17.96875 44.140625 
L 15.234375 44.140625 
Q 10.15625 44.140625 5.46875 43.75 
z
" id="SimHei-35757"/>
      <path d="M 14.0625 49.609375 
Q 21.875 50.390625 25.390625 50.390625 
Q 29.6875 57.03125 32.03125 63.28125 
Q 35.15625 60.546875 39.84375 57.8125 
Q 35.9375 54.296875 31.640625 47.265625 
Q 27.34375 40.234375 18.359375 27.734375 
Q 20.703125 28.125 25.390625 28.90625 
Q 30.078125 29.6875 35.9375 30.46875 
Q 35.546875 26.5625 35.15625 23.4375 
Q 32.8125 23.4375 25.1875 22.65625 
Q 17.578125 21.875 11.71875 19.921875 
Q 9.765625 23.828125 7.8125 27.734375 
Q 12.109375 30.46875 15.421875 34.5625 
Q 18.75 38.671875 22.265625 44.921875 
Q 19.921875 44.921875 15.8125 44.140625 
Q 11.71875 43.359375 8.203125 42.1875 
Q 6.640625 46.09375 5.078125 50 
Q 8.984375 53.515625 12.890625 61.71875 
Q 16.796875 69.921875 19.921875 79.296875 
Q 23.828125 76.171875 28.515625 73.828125 
Q 25.390625 71.875 22.65625 65.8125 
Q 19.921875 59.765625 14.0625 49.609375 
z
M 6.25 8.203125 
Q 16.40625 9.765625 20.109375 10.546875 
Q 23.828125 11.328125 38.671875 14.453125 
Q 37.890625 10.546875 37.890625 7.421875 
Q 31.640625 6.25 23.4375 4.296875 
Q 15.234375 2.34375 8.984375 -0.390625 
Q 7.8125 4.296875 6.25 8.203125 
z
M 55.078125 43.75 
Q 50.390625 35.546875 49.21875 32.8125 
L 64.84375 32.8125 
L 64.84375 43.75 
z
M 51.171875 20.703125 
Q 54.296875 18.359375 59.375 16.015625 
Q 55.859375 13.28125 50.78125 6.25 
Q 45.703125 -0.78125 41.015625 -6.640625 
Q 37.109375 -4.296875 33.203125 -2.34375 
Q 37.109375 0.78125 42.375 7.21875 
Q 47.65625 13.671875 51.171875 20.703125 
z
M 76.5625 16.015625 
Q 79.6875 18.359375 83.203125 19.921875 
Q 85.546875 15.625 89.25 10.34375 
Q 92.96875 5.078125 95.703125 0.390625 
Q 91.796875 -1.171875 88.28125 -3.515625 
Q 85.15625 2.34375 82.609375 6.640625 
Q 80.078125 10.9375 76.5625 16.015625 
z
M 49.609375 49.609375 
Q 52.34375 55.078125 54.296875 60.15625 
L 52.34375 60.15625 
Q 46.484375 60.15625 39.453125 59.765625 
L 39.453125 66.40625 
Q 46.484375 66.015625 52.734375 66.015625 
L 55.859375 66.015625 
Q 57.03125 68.75 58.203125 72.453125 
Q 59.375 76.171875 59.765625 80.859375 
Q 65.625 77.734375 69.140625 76.5625 
Q 67.1875 74.21875 65.8125 71.484375 
Q 64.453125 68.75 63.28125 66.015625 
L 78.125 66.015625 
Q 84.765625 66.015625 90.625 66.40625 
L 90.625 59.765625 
Q 84.765625 60.15625 78.125 60.15625 
L 61.71875 60.15625 
Q 59.375 54.6875 57.03125 49.609375 
L 72.65625 49.609375 
Q 72.265625 44.921875 72.265625 39.0625 
L 72.265625 32.8125 
L 77.34375 32.8125 
Q 83.59375 32.8125 89.453125 33.203125 
L 89.453125 26.5625 
Q 83.59375 26.953125 77.34375 26.953125 
L 72.265625 26.953125 
L 72.265625 2.734375 
Q 72.265625 -5.46875 68.546875 -7.609375 
Q 64.84375 -9.765625 58.59375 -10.15625 
Q 57.421875 -5.078125 54.6875 -0.390625 
Q 62.890625 -1.171875 63.859375 0.390625 
Q 64.84375 1.953125 64.84375 5.859375 
L 64.84375 26.953125 
L 52.734375 26.953125 
Q 49.609375 26.953125 47.0625 26.359375 
Q 44.53125 25.78125 42.1875 24.609375 
Q 40.625 28.515625 38.28125 31.640625 
Q 42.1875 33.203125 47.65625 43.75 
Q 44.53125 43.75 40.625 43.359375 
L 40.625 50 
Q 46.09375 49.609375 49.609375 49.609375 
z
" id="SimHei-32451"/>
     </defs>
     <g transform="translate(339.8 51.3725)scale(0.1 -0.1)">
      <use xlink:href="#SimHei-35757"/>
      <use x="100" xlink:href="#SimHei-32451"/>
      <use x="200" xlink:href="#SimHei-25439"/>
      <use x="300" xlink:href="#SimHei-22833"/>
     </g>
    </g>
    <g id="line2d_17">
     <path d="M 311.8 61.974063 
L 331.8 61.974063 
" style="fill:none;stroke:#008000;stroke-linecap:square;stroke-width:1.5;"/>
    </g>
    <g id="line2d_18"/>
    <g id="text_17">
     <!-- 验证损失 -->
     <defs>
      <path d="M 6.25 73.046875 
Q 12.109375 72.65625 17.96875 72.65625 
L 36.328125 72.65625 
Q 35.546875 69.140625 35.15625 62.5 
L 32.421875 32.8125 
L 39.453125 32.8125 
Q 39.0625 29.6875 38.671875 22.65625 
L 37.5 1.5625 
Q 37.5 -6.25 32.8125 -7.421875 
Q 28.125 -8.59375 19.921875 -9.765625 
Q 18.75 -4.6875 16.796875 -1.171875 
Q 25 -1.171875 27.53125 -0.96875 
Q 30.078125 -0.78125 30.859375 2.734375 
L 32.03125 26.5625 
L 9.375 26.5625 
Q 9.765625 33.59375 9.953125 42.1875 
Q 10.15625 50.78125 10.15625 58.59375 
L 17.578125 58.59375 
Q 16.796875 54.296875 16.40625 47.65625 
Q 16.015625 41.015625 16.015625 32.8125 
L 25.78125 32.8125 
L 28.515625 66.40625 
L 17.96875 66.40625 
Q 12.109375 66.40625 6.25 66.015625 
z
M 3.90625 14.453125 
Q 9.375 14.84375 15.03125 15.625 
Q 20.703125 16.40625 28.125 17.578125 
Q 27.734375 14.84375 27.34375 10.9375 
Q 21.484375 10.15625 17.765625 9.375 
Q 14.0625 8.59375 6.640625 6.25 
Q 5.46875 10.546875 3.90625 14.453125 
z
M 58.984375 80.078125 
Q 63.671875 78.90625 69.140625 77.734375 
L 67.1875 75 
Q 73.4375 63.28125 80.078125 58 
Q 86.71875 52.734375 95.3125 49.609375 
Q 91.796875 46.484375 89.84375 42.1875 
Q 84.765625 44.921875 79.6875 49.21875 
L 79.6875 42.96875 
Q 74.609375 43.359375 65.421875 43.359375 
Q 56.25 43.359375 50.390625 42.96875 
L 50.390625 48.828125 
Q 48.046875 45.703125 43.75 41.015625 
Q 40.234375 44.140625 36.71875 46.09375 
Q 42.578125 50.390625 45.890625 54.6875 
Q 49.21875 58.984375 51.75 63.46875 
Q 54.296875 67.96875 56.046875 71.875 
Q 57.8125 75.78125 58.984375 80.078125 
z
M 62.890625 70.703125 
Q 60.15625 64.453125 57.609375 60.15625 
Q 55.078125 55.859375 50.78125 49.609375 
L 79.296875 49.609375 
Q 74.609375 53.125 70.703125 58 
Q 66.796875 62.890625 62.890625 70.703125 
z
M 44.53125 31.640625 
Q 47.65625 32.8125 50.78125 33.59375 
Q 52.34375 28.125 54.09375 21.28125 
Q 55.859375 14.453125 57.421875 8.984375 
Q 53.90625 8.59375 50.78125 7.03125 
Q 49.609375 14.0625 48.234375 19.140625 
Q 46.875 24.21875 44.53125 31.640625 
z
M 58.59375 34.375 
Q 62.109375 35.15625 65.234375 35.546875 
Q 66.015625 30.46875 66.796875 25.578125 
Q 67.578125 20.703125 68.75 12.890625 
Q 65.625 12.109375 62.5 11.328125 
Q 61.328125 19.921875 60.546875 24.21875 
Q 59.765625 28.515625 58.59375 34.375 
z
M 78.515625 35.546875 
Q 81.640625 34.375 87.109375 33.203125 
Q 85.15625 30.859375 83.984375 26.953125 
Q 82.8125 23.046875 80.265625 14.453125 
Q 77.734375 5.859375 76.171875 0.78125 
L 81.640625 0.78125 
Q 84.375 0.78125 89.84375 1.171875 
L 89.84375 -5.859375 
Q 85.15625 -5.46875 81.640625 -5.46875 
L 51.953125 -5.46875 
Q 44.921875 -5.46875 41.796875 -5.859375 
L 41.796875 1.171875 
Q 46.484375 0.78125 52.34375 0.78125 
L 69.53125 0.78125 
Q 72.65625 9.375 74.609375 18.15625 
Q 76.5625 26.953125 78.515625 35.546875 
z
" id="SimHei-39564"/>
      <path d="M 30.859375 64.453125 
Q 27.34375 61.71875 25 58.984375 
Q 18.75 67.578125 14.0625 72.265625 
Q 17.1875 74.609375 19.921875 77.34375 
Q 27.34375 68.75 30.859375 64.453125 
z
M 20.703125 -5.859375 
Q 17.96875 -2.34375 14.453125 0 
Q 19.140625 4.6875 19.140625 9.375 
L 19.140625 42.1875 
L 16.015625 42.1875 
Q 10.9375 42.1875 5.46875 41.796875 
L 5.46875 48.828125 
Q 10.546875 48.4375 16.015625 48.4375 
L 26.953125 48.4375 
Q 26.5625 41.40625 26.5625 33.59375 
L 26.5625 13.671875 
Q 29.6875 17.578125 32.421875 21.484375 
Q 34.375 17.1875 37.109375 14.0625 
Q 32.8125 9.375 29.296875 5.078125 
Q 25.78125 0.78125 20.703125 -5.859375 
z
M 38.671875 72.65625 
Q 46.484375 72.265625 55.078125 72.265625 
L 78.90625 72.265625 
Q 86.328125 72.265625 92.578125 72.65625 
L 92.578125 65.625 
Q 86.328125 66.015625 78.90625 66.015625 
L 69.53125 66.015625 
L 69.53125 40.234375 
L 78.125 40.234375 
Q 84.375 40.234375 90.234375 40.625 
L 90.234375 33.59375 
Q 84.765625 33.984375 78.125 33.984375 
L 69.53125 33.984375 
L 69.53125 3.90625 
L 79.6875 3.90625 
Q 86.328125 3.90625 94.53125 4.296875 
L 94.53125 -2.734375 
Q 86.328125 -2.34375 79.6875 -2.34375 
L 46.875 -2.34375 
Q 37.890625 -2.34375 32.03125 -2.734375 
L 32.03125 4.296875 
Q 37.890625 3.90625 43.75 3.90625 
L 43.75 32.421875 
Q 43.75 39.84375 43.359375 44.921875 
L 51.5625 44.921875 
Q 51.171875 40.234375 51.171875 32.421875 
L 51.171875 3.90625 
L 62.109375 3.90625 
L 62.109375 66.015625 
L 55.078125 66.015625 
Q 46.484375 66.015625 38.671875 65.625 
z
" id="SimHei-35777"/>
     </defs>
     <g transform="translate(339.8 65.474063)scale(0.1 -0.1)">
      <use xlink:href="#SimHei-39564"/>
      <use x="100" xlink:href="#SimHei-35777"/>
      <use x="200" xlink:href="#SimHei-25439"/>
      <use x="300" xlink:href="#SimHei-22833"/>
     </g>
    </g>
   </g>
  </g>
 </g>
 <defs>
  <clipPath id="pc4ea514461">
   <rect height="217.44" width="334.8" x="54" y="34.56"/>
  </clipPath>
 </defs>
</svg>
